<svg width="24" height="24" viewBox="0 0 24 24" fill="none" xmlns="http://www.w3.org/2000/svg">
<mask id="mask0_920_7057" style="mask-type:alpha" maskUnits="userSpaceOnUse" x="0" y="0" width="24" height="24">
<rect x="24" width="24" height="24" transform="rotate(90 24 0)" fill="#D9D9D9"/>
</mask>
<g mask="url(#mask0_920_7057)">
<path d="M9.05 12C9.05 11.8667 9.07083 11.7417 9.1125 11.625C9.15417 11.5084 9.225 11.4 9.325 11.3L13.95 6.67503C14.1333 6.4917 14.3625 6.4042 14.6375 6.41253C14.9125 6.42086 15.1417 6.5167 15.325 6.70003C15.5083 6.88336 15.6 7.1167 15.6 7.40003C15.6 7.68336 15.5083 7.9167 15.325 8.10003L11.425 12L15.35 15.925C15.5333 16.1084 15.6208 16.3375 15.6125 16.6125C15.6042 16.8875 15.5083 17.1167 15.325 17.3C15.1417 17.4834 14.9083 17.575 14.625 17.575C14.3417 17.575 14.1083 17.4834 13.925 17.3L9.325 12.7C9.225 12.6 9.15417 12.4917 9.1125 12.375C9.07083 12.2584 9.05 12.1334 9.05 12Z" fill="white"/>
</g>
</svg>
