<svg width="36" height="36" viewBox="0 0 36 36" fill="none" xmlns="http://www.w3.org/2000/svg">
<mask id="mask0_316_8293" style="mask-type:alpha" maskUnits="userSpaceOnUse" x="0" y="0" width="36" height="36">
<rect width="36" height="36" fill="#D9D9D9"/>
</mask>
<g mask="url(#mask0_316_8293)">
<path d="M6 31.5C5.575 31.5 5.21875 31.3562 4.93125 31.0687C4.64375 30.7812 4.5 30.425 4.5 30V21C4.5 20.575 4.64375 20.2188 4.93125 19.9313C5.21875 19.6438 5.575 19.5 6 19.5C6.425 19.5 6.78125 19.6438 7.06875 19.9313C7.35625 20.2188 7.5 20.575 7.5 21V26.4L26.4 7.5H21C20.575 7.5 20.2188 7.35625 19.9313 7.06875C19.6438 6.78125 19.5 6.425 19.5 6C19.5 5.575 19.6438 5.21875 19.9313 4.93125C20.2188 4.64375 20.575 4.5 21 4.5H30C30.425 4.5 30.7812 4.64375 31.0687 4.93125C31.3562 5.21875 31.5 5.575 31.5 6V15C31.5 15.425 31.3562 15.7812 31.0687 16.0688C30.7812 16.3562 30.425 16.5 30 16.5C29.575 16.5 29.2188 16.3562 28.9313 16.0688C28.6438 15.7812 28.5 15.425 28.5 15V9.6L9.6 28.5H15C15.425 28.5 15.7812 28.6438 16.0688 28.9313C16.3562 29.2188 16.5 29.575 16.5 30C16.5 30.425 16.3562 30.7812 16.0688 31.0687C15.7812 31.3562 15.425 31.5 15 31.5H6Z" fill="white"/>
</g>
</svg>
