<svg width="36" height="36" viewBox="0 0 36 36" fill="none" xmlns="http://www.w3.org/2000/svg">
<mask id="mask0_867_8323" style="mask-type:alpha" maskUnits="userSpaceOnUse" x="0" y="0" width="36" height="36">
<rect width="36" height="36" fill="#D9D9D9"/>
</mask>
<g mask="url(#mask0_867_8323)">
<path d="M10.5 21H12.9375C13.1375 21 13.3313 20.9625 13.5188 20.8875C13.7063 20.8125 13.875 20.7 14.025 20.55L21.075 13.5C21.3 13.275 21.4687 13.0188 21.5812 12.7313C21.6937 12.4438 21.75 12.1625 21.75 11.8875C21.75 11.6125 21.6875 11.3438 21.5625 11.0813C21.4375 10.8188 21.275 10.575 21.075 10.35L19.725 8.925C19.5 8.7 19.25 8.53125 18.975 8.41875C18.7 8.30625 18.4125 8.25 18.1125 8.25C17.8375 8.25 17.5562 8.30625 17.2687 8.41875C16.9812 8.53125 16.725 8.7 16.5 8.925L9.45 15.975C9.3 16.125 9.1875 16.2938 9.1125 16.4813C9.0375 16.6688 9 16.8625 9 17.0625V19.5C9 19.925 9.14375 20.2813 9.43125 20.5688C9.71875 20.8563 10.075 21 10.5 21ZM11.25 18.75V17.325L15.0375 13.5375L15.7875 14.2125L16.4625 14.9625L12.675 18.75H11.25ZM15.7875 14.2125L16.4625 14.9625L15.0375 13.5375L15.7875 14.2125ZM16.7625 21H25.5C25.925 21 26.2813 20.8563 26.5688 20.5688C26.8563 20.2813 27 19.925 27 19.5C27 19.075 26.8563 18.7188 26.5688 18.4313C26.2813 18.1438 25.925 18 25.5 18H19.7625L16.7625 21ZM9 27L5.55 30.45C5.075 30.925 4.53125 31.0313 3.91875 30.7688C3.30625 30.5063 3 30.0375 3 29.3625V6C3 5.175 3.29375 4.46875 3.88125 3.88125C4.46875 3.29375 5.175 3 6 3H30C30.825 3 31.5313 3.29375 32.1188 3.88125C32.7063 4.46875 33 5.175 33 6V24C33 24.825 32.7063 25.5313 32.1188 26.1188C31.5313 26.7063 30.825 27 30 27H9ZM7.725 24H30V6H6V25.6875L7.725 24Z" fill="white"/>
</g>
</svg>
