<svg width="36" height="40" viewBox="0 0 36 40" fill="none" xmlns="http://www.w3.org/2000/svg">
<g id="genius_icon.cee1ece7.svg" clip-path="url(#clip0_313_6905)">
<g id="Page-2">
<g id="Group">
<path id="genius_icon" d="M30.2698 20.0603C30.8833 19.4469 31.4515 18.8398 31.9552 18.2264C34.4543 15.1913 35.255 12.5115 34.2024 10.6969C33.1499 8.88235 30.4377 8.23659 26.5567 8.88234C25.7818 9.0115 24.9617 9.19877 24.1287 9.42478C22.8178 4.50415 20.5835 1.3335 18.0005 1.3335C15.4175 1.3335 13.1832 4.50415 11.8594 9.42478C11.0264 9.19877 10.2063 9.0115 9.43136 8.88234C5.55684 8.23659 2.83177 8.88235 1.78565 10.6969C0.739526 12.5115 1.53382 15.2172 4.03288 18.2264C4.53657 18.8398 5.08545 19.4469 5.7312 20.0603C5.08545 20.7061 4.54946 21.2808 4.04578 21.8943C1.5338 24.9293 0.733069 27.6092 1.78565 29.4237C2.56701 30.7798 4.27824 31.4837 6.71273 31.4837C7.62407 31.4753 8.53325 31.3932 9.43136 31.2383C10.2063 31.1092 11.0264 30.9219 11.8594 30.6959C13.1832 35.6165 15.4175 38.7872 18.0005 38.7872C20.5835 38.7872 22.8178 35.6165 24.1416 30.6959C24.9746 30.9219 25.7947 31.1092 26.5696 31.2383C27.4673 31.3962 28.3768 31.4783 29.2883 31.4837C31.7227 31.4837 33.434 30.7798 34.2153 29.4237C35.2679 27.6092 34.4672 24.9035 31.9681 21.8943C31.4645 21.2808 30.9156 20.7061 30.2698 20.0603ZM26.7827 10.1545C27.6167 10.0097 28.4612 9.93406 29.3076 9.92847C31.2449 9.92847 32.5364 10.4128 33.0982 11.3427C33.8473 12.6342 33.0982 14.8491 30.9672 17.4063C30.4593 18.0209 29.9205 18.6093 29.3528 19.1692C28.0571 17.9844 26.6828 16.8884 25.2394 15.8888C25.0972 14.136 24.8362 12.3949 24.458 10.6775C25.2233 10.4629 25.9993 10.2883 26.7827 10.1545ZM21.7136 26.5179C22.4497 26.0917 23.1601 25.6461 23.8575 25.1941C23.7122 26.5112 23.4967 27.8197 23.2117 29.1138C21.9449 28.7156 20.701 28.2478 19.4857 27.7125C20.2348 27.3057 20.9774 26.9118 21.7136 26.5179ZM21.0678 25.4007C20.0475 25.9883 19.0208 26.5308 18.0005 27.028C16.9802 26.5308 15.9535 25.9883 14.9332 25.4007C13.9129 24.8131 12.9313 24.1931 11.995 23.5603C11.911 22.4496 11.8723 21.2937 11.8723 20.0926C11.8723 18.8915 11.911 17.7356 11.995 16.6249C12.9313 15.9792 13.9323 15.3722 14.9332 14.7845C15.9341 14.1969 16.9802 13.6028 18.0005 13.1249C19.0208 13.6222 20.0475 14.1646 21.0678 14.7522C22.0881 15.3399 23.0696 15.9598 24.006 16.5926C24.0899 17.7033 24.1287 18.8592 24.1287 20.0603C24.1287 21.2614 24.0899 22.4173 24.006 23.528C23.0696 24.1609 22.0881 24.7808 21.0678 25.3684V25.4007ZM16.5024 27.6802C15.2875 28.2221 14.0436 28.6964 12.7764 29.1009C12.4914 27.8067 12.2758 26.4983 12.1306 25.1812C12.828 25.6332 13.5383 26.0787 14.2745 26.5049C15.0107 26.9311 15.7662 27.3057 16.5024 27.6802ZM10.6454 22.5723C9.58152 21.7895 8.5598 20.951 7.58452 20.0603C8.5598 19.1696 9.58152 18.3311 10.6454 17.5483C10.6002 18.3684 10.5808 19.2079 10.5808 20.0603C10.5808 20.9127 10.6002 21.7522 10.6454 22.5723ZM12.1435 14.9589C12.2887 13.6417 12.5043 12.3333 12.7893 11.0392C14.0561 11.4373 15.3 11.9051 16.5153 12.4405C15.7791 12.815 15.0365 13.2089 14.3003 13.6351C13.5642 14.0613 12.8345 14.5069 12.1435 14.9589ZM19.4987 12.4405C20.7135 11.8985 21.9574 11.4243 23.2247 11.0198C23.5096 12.3139 23.7252 13.6224 23.8704 14.9395C23.173 14.4875 22.4626 14.0419 21.7265 13.6157C20.9903 13.1895 20.2348 12.815 19.4987 12.4405ZM25.3556 17.5483C26.4195 18.3311 27.4412 19.1696 28.4165 20.0603C27.4412 20.951 26.4195 21.7895 25.3556 22.5723C25.4008 21.7522 25.4202 20.9127 25.4202 20.0603C25.4202 19.2079 25.4008 18.3684 25.3556 17.5483ZM18.0005 2.625C19.828 2.625 21.733 5.29197 22.9211 9.77995C21.2402 10.3169 19.5964 10.9641 18.0005 11.7172C16.4046 10.9641 14.7609 10.3169 13.0799 9.77995C14.2681 5.29197 16.173 2.625 18.0005 2.625ZM2.90279 11.3427C3.43877 10.4128 4.77548 9.92847 6.69336 9.92847C7.53978 9.93406 8.3843 10.0097 9.21826 10.1545C10.0039 10.2881 10.782 10.4627 11.5494 10.6775C11.1691 12.3948 10.9059 14.1359 10.7616 15.8888C9.31817 16.8884 7.94389 17.9844 6.64815 19.1692C6.08051 18.6093 5.54169 18.0209 5.03377 17.4063C2.92862 14.8491 2.15372 12.6406 2.90279 11.3427ZM9.21826 29.9662C5.9895 30.5086 3.65187 30.076 2.90279 28.778C2.15372 27.48 2.90279 25.2716 5.03377 22.7144C5.54169 22.0998 6.08051 21.5114 6.64815 20.9515C7.94389 22.1363 9.31817 23.2323 10.7616 24.2319C10.9037 25.9847 11.1648 27.7257 11.543 29.4431C10.7777 29.6577 10.0017 29.8323 9.21826 29.9662ZM18.0005 37.4956C16.173 37.4956 14.2681 34.8287 13.0799 30.3407C14.7609 29.8037 16.4046 29.1566 18.0005 28.4034C19.5964 29.1566 21.2402 29.8037 22.9211 30.3407C21.733 34.8287 19.828 37.4956 18.0005 37.4956ZM33.0982 28.778C32.3491 30.0695 30.0502 30.5086 26.7827 29.9662C25.9993 29.8323 25.2233 29.6577 24.458 29.4431C24.8383 27.7259 25.1016 25.9848 25.2459 24.2319C26.6893 23.2323 28.0636 22.1363 29.3593 20.9515C29.9269 21.5114 30.4658 22.0998 30.9737 22.7144C33.0724 25.2716 33.8473 27.48 33.0982 28.778Z" fill="white" stroke="white" stroke-width="1.33333"/>
</g>
</g>
</g>
<defs>
<clipPath id="clip0_313_6905">
<rect width="36" height="40" fill="white"/>
</clipPath>
</defs>
</svg>
