<svg width="553" height="575" viewBox="0 0 553 575" fill="none" xmlns="http://www.w3.org/2000/svg">
<path fill-rule="evenodd" clip-rule="evenodd" d="M279.931 1.32528C370.749 -4.88475 473.129 8.87038 526.424 82.5948C578.061 154.026 542.384 248.472 520.246 333.762C499.319 414.39 479.393 501.243 407.024 542.611C329.414 586.976 232.089 584.072 152.057 544.231C73.2867 505.019 19.8538 428.37 3.86137 341.914C-11.3417 259.726 19.7568 178.595 72.407 113.64C124.496 49.3773 197.352 6.97194 279.931 1.32528Z" fill="url(#paint0_linear_402_8760)"/>
<path d="M457.08 255.231V274.911L456.14 303.731L411 304.771L415.24 294.571L420.5 279.991L457.08 255.231Z" fill="url(#paint1_linear_402_8760)"/>
<path d="M455.419 254.132L424.299 254.572V260.512L420.939 278.332L422.079 279.992L455.419 254.132Z" fill="url(#paint2_linear_402_8760)"/>
<path d="M406.22 255.231L400.74 291.291L366.76 281.611L367.1 256.851L371.54 255.231H406.22Z" fill="url(#paint3_linear_402_8760)"/>
<path d="M390.34 304.772H367.2L366.76 296.432L390.34 304.772Z" fill="black"/>
<path d="M420.801 133.532C420.341 132.552 418.801 131.712 418.221 130.872C417.861 130.412 417.001 129.172 416.601 128.732C415.061 127.052 413.501 127.432 411.681 126.032L411.341 125.792L408.821 122.352C408.601 122.772 398.821 119.332 398.821 119.252C397.801 118.866 396.741 118.598 395.661 118.452C395.161 118.452 394.661 118.332 394.161 118.312C392.002 118.235 389.84 118.349 387.701 118.652C386.781 118.772 385.881 118.912 384.981 119.072C382.441 119.532 379.921 120.112 377.401 120.672C376.566 121.11 375.769 121.618 375.021 122.192C374.161 122.852 373.301 123.512 372.401 124.192C370.561 125.372 367.681 124.412 365.761 125.452C364.841 125.952 362.761 127.292 361.901 127.872C361.041 128.452 360.761 128.812 360.021 129.352C359.281 129.892 360.741 131.232 360.261 131.632C359.099 132.59 357.997 133.619 356.961 134.712C357.016 134.835 357.063 134.962 357.101 135.092C357.339 135.603 357.634 136.086 357.981 136.532C358.487 137.144 359.057 137.701 359.681 138.192C361.142 139.21 362.712 140.061 364.361 140.732C365.361 141.132 365.301 142.732 366.361 143.192C368.201 143.832 369.501 145.732 371.341 146.392C373.181 147.052 374.681 146.692 376.221 147.632C377.081 148.152 378.981 147.492 378.501 148.352C378.404 148.51 378.282 148.652 378.141 148.772C379.814 149.239 381.518 149.587 383.241 149.812C384.221 149.952 385.241 150.052 386.181 150.132C388.901 150.392 391.661 150.532 394.381 150.872C396.821 150.112 399.361 149.712 401.761 148.872C402.921 148.292 404.001 147.572 405.101 146.872C406.363 146.071 407.703 145.401 409.101 144.872C409.219 144.844 409.343 144.844 409.461 144.872C409.838 144.461 410.246 144.08 410.681 143.732C412.681 142.072 415.081 140.852 417.201 139.292C417.939 138.745 418.61 138.114 419.201 137.412L419.661 136.752C419.906 136.337 420.311 136.04 420.781 135.932L420.901 135.712C420.321 135.452 421.001 133.912 420.801 133.532Z" fill="black"/>
<path fill-rule="evenodd" clip-rule="evenodd" d="M320.24 370.732H311.06C311.049 370.488 311.037 370.262 311.026 370.053C310.995 369.489 310.971 369.047 311 368.712C311.018 367.293 311.031 365.875 311.043 364.459C311.073 361.146 311.102 357.839 311.2 354.532C311.274 352.047 311.4 349.57 311.525 347.098L311.526 347.098C311.671 344.238 311.816 341.385 311.88 338.532V323.572C311.898 321.908 311.968 320.244 312.038 318.582L312.038 318.581V318.58V318.58V318.58V318.579V318.579V318.578V318.578V318.578V318.577V318.577V318.576V318.576V318.576V318.575V318.575V318.574V318.574V318.573V318.573V318.573V318.572V318.572V318.571V318.571C312.119 316.641 312.2 314.713 312.2 312.792L312.202 312.734C312.301 309.553 312.4 306.392 312.4 303.212C312.434 301.033 312.475 298.856 312.515 296.679L312.515 296.677L312.515 296.675L312.515 296.673L312.515 296.671L312.515 296.668L312.516 296.666L312.516 296.664L312.516 296.662L312.516 296.66L312.516 296.658L312.516 296.655L312.516 296.653L312.516 296.651L312.516 296.649L312.516 296.647L312.516 296.645L312.516 296.643L312.516 296.64L312.516 296.638L312.516 296.636V296.635V296.634V296.634V296.633V296.632V296.631V296.63V296.629V296.629V296.628V296.627V296.626V296.625V296.625V296.624V296.623V296.622V296.621V296.62V296.62V296.619V296.618V296.617V296.616C312.618 291.162 312.72 285.712 312.72 280.252L312.9 266.252C313.02 261.792 313.02 257.332 313.02 252.872C313.02 251.412 312.955 249.952 312.89 248.492C312.825 247.032 312.76 245.572 312.76 244.112V230.112V216.752C312.77 215.671 312.829 214.59 312.889 213.509L312.889 213.508C312.955 212.329 313.02 211.151 313.02 209.972C312.943 205.009 312.774 200.25 312.601 195.392L312.58 194.812C312.537 193.651 312.497 192.49 312.456 191.328L312.456 191.327C312.309 187.102 312.162 182.871 311.88 178.652C311.623 174.823 311.21 170.982 310.798 167.148L310.798 167.147C310.698 166.215 310.598 165.283 310.5 164.352C310.444 163.799 310.391 163.25 310.339 162.704L310.339 162.703C310.133 160.541 309.931 158.427 309.5 156.352C307.715 148.571 305.163 140.988 301.88 133.712C297.446 123.209 290.778 113.797 282.34 106.132C277.356 101.517 272.064 97.2469 266.5 93.3516C264.175 91.5817 261.751 89.9457 259.24 88.4516C256.626 87.012 253.964 85.6582 251.303 84.3053L251.303 84.3052L251.303 84.3052L251.302 84.3049C249.158 83.2147 247.015 82.1251 244.9 80.9916C242.041 79.4254 239.015 78.1844 235.88 77.2916L224.88 74.3316C223.114 73.7413 221.31 73.2735 219.48 72.9316C214.4 72.2716 209.3 71.6516 204.2 71.2716C203.881 71.2478 203.562 71.2222 203.242 71.1965C200.066 70.9415 196.832 70.6819 193.78 72.1716C193.268 72.3245 192.733 72.3855 192.2 72.3516C189.215 72.5452 186.262 73.0821 183.4 73.9516C181.516 74.5752 179.535 75.0755 177.557 75.5752C176.553 75.8289 175.55 76.0823 174.56 76.3516C170.83 77.2268 167.203 78.4939 163.74 80.1316C162.761 80.6402 161.78 81.1426 160.8 81.6448L160.799 81.645C158.695 82.7228 156.594 83.7993 154.52 84.9316C153.441 85.5376 152.359 86.1288 151.28 86.7187L151.279 86.7189C148.795 88.076 146.324 89.4261 143.94 90.9316C142.295 91.9433 140.753 93.1407 139.211 94.3381L139.211 94.3382C138.223 95.1056 137.235 95.873 136.22 96.5916C130.534 100.839 125.185 105.52 120.22 110.592C116.912 114.058 113.964 117.851 111.42 121.912C109.816 124.359 108.38 126.911 107.12 129.552C106.392 130.979 105.786 132.529 105.201 134.027L105.201 134.027L105.201 134.027L105.201 134.027L105.201 134.027L105.2 134.028L105.2 134.029C104.966 134.628 104.734 135.22 104.5 135.792C103.823 137.58 103.146 139.345 102.474 141.098L102.473 141.099L102.473 141.099L102.473 141.1L102.473 141.1L102.473 141.101L102.473 141.101L102.472 141.102L102.472 141.102L102.472 141.102C101.596 143.387 100.728 145.649 99.88 147.912C97.6486 154.634 96.3629 161.635 96.06 168.712C95.28 178.452 94.6 188.232 94.18 197.992C93.9671 201.916 94.0375 205.823 94.1084 209.765C94.1441 211.749 94.18 213.743 94.18 215.752C94.1894 216.28 94.2388 216.807 94.2885 217.338C94.3441 217.932 94.4 218.529 94.4 219.132C94.3909 221.149 94.3612 223.171 94.3314 225.193C94.2957 227.621 94.26 230.049 94.26 232.472C94.2315 234.912 94.1902 237.351 94.1489 239.792C94.0745 244.194 94 248.599 94 253.012C94 257.099 94.04 261.187 94.0799 265.277C94.12 269.372 94.16 273.469 94.16 277.572C94.184 280.33 94.2272 283.092 94.2703 285.854C94.3352 290.002 94.4 294.15 94.4 298.292C94.41 299.057 94.4175 299.822 94.425 300.587C94.4475 302.882 94.47 305.177 94.56 307.472C94.6165 309.055 94.7187 310.67 94.8205 312.279C94.9707 314.654 95.12 317.014 95.12 319.232V330.392C95.2011 334.936 95.3006 339.443 95.3997 343.939C95.4472 346.091 95.4947 348.241 95.54 350.392C95.585 352.658 95.6442 354.928 95.7035 357.198C95.8549 363 96.0063 368.801 95.92 374.552C95.82 381.272 95.84 387.992 96.22 394.692C96.34 396.292 96.34 397.872 96.34 399.452C96.3158 400.804 96.2722 402.151 96.2288 403.493C96.1642 405.485 96.1 407.468 96.1 409.452C96.0778 410.309 96.0536 411.167 96.0294 412.025C95.9447 415.027 95.86 418.029 95.86 421.032C95.8362 422.039 95.807 423.048 95.7778 424.058C95.709 426.438 95.64 428.825 95.64 431.212C95.5538 433.215 95.5489 435.218 95.5439 437.221C95.5396 438.938 95.5354 440.655 95.48 442.372C95.3939 444.664 95.2673 446.951 95.1406 449.238C95.0319 451.201 94.9231 453.164 94.84 455.132C94.78 456.722 94.75 458.317 94.72 459.912C94.69 461.507 94.66 463.102 94.6 464.692C94.56 465.7 94.488 466.708 94.416 467.716C94.308 469.228 94.2 470.74 94.2 472.252C94.2094 476.352 94.2544 480.439 94.2993 484.521C94.3497 489.1 94.4 493.673 94.4 498.252C94.4574 498.978 94.5643 499.7 94.72 500.412C94.8061 501.172 95.4008 501.775 96.16 501.872C97.72 502.092 99.42 502.312 100.88 502.452C101.782 502.538 102.784 502.548 103.701 502.558H103.701H103.702H103.703H103.703H103.704H103.705H103.705H103.706H103.707H103.707H103.708H103.709H103.709H103.71H103.711H103.711H103.712H103.712H103.713H103.714H103.714H103.715H103.715H103.716C104.277 502.563 104.806 502.569 105.26 502.592C105.789 502.618 106.314 502.687 106.838 502.756C107.504 502.844 108.169 502.932 108.84 502.932C109.813 502.944 110.786 502.958 111.76 502.971L111.792 502.971L111.825 502.972L111.859 502.972L111.864 502.972C116.962 503.042 122.071 503.112 127.18 503.112L143.52 503.372H152.7C155.706 503.393 158.709 503.426 161.712 503.458C166.96 503.515 172.206 503.572 177.46 503.572C179.622 503.572 181.793 503.512 183.963 503.452L183.965 503.451H183.966H183.967H183.968H183.969H183.97H183.97H183.971H183.972H183.973H183.974H183.975H183.976H183.977H183.979H183.98H183.981H183.982H183.983H183.984H183.985H183.986H183.987H183.988H183.989C186.146 503.392 188.301 503.332 190.44 503.332C192.588 503.332 194.735 503.382 196.885 503.431H196.885H196.886H196.886H196.886H196.887H196.887H196.888H196.888H196.888H196.889H196.889H196.889H196.89H196.89H196.891H196.891H196.891H196.892H196.892H196.892H196.893H196.893H196.893H196.894C199.046 503.482 201.2 503.532 203.36 503.532C205.16 503.522 206.964 503.467 208.769 503.412L208.771 503.412C210.756 503.352 212.741 503.292 214.72 503.292H230.72C238.778 503.392 246.895 503.392 254.893 503.392H254.9C257.015 503.401 259.134 503.446 261.256 503.491C263.648 503.541 266.044 503.592 268.44 503.592C274.76 503.698 281.08 503.752 287.4 503.752H303.56H311.76H321.12C323.8 503.735 326.477 503.697 329.154 503.658L329.162 503.658L329.17 503.658L329.178 503.658L329.186 503.658L329.194 503.658L329.202 503.658L329.21 503.658L329.219 503.657L329.227 503.657L329.235 503.657L329.243 503.657L329.252 503.657L329.26 503.657L329.268 503.657L329.277 503.657L329.285 503.657L329.293 503.657L329.301 503.657L329.31 503.656L329.318 503.656L329.326 503.656L329.335 503.656L329.343 503.656C332.994 503.604 336.644 503.552 340.3 503.552C342.197 503.525 344.095 503.49 345.993 503.454H345.993H345.994H345.995H345.996H345.997H345.998H345.999H346H346.001H346.002H346.003H346.004H346.004H346.005H346.006H346.007H346.008H346.009H346.01H346.011H346.011H346.012H346.013H346.014C349.811 503.383 353.611 503.312 357.42 503.312H379.42C380.771 503.312 382.127 503.323 383.481 503.334L383.49 503.334C386.204 503.356 388.914 503.378 391.58 503.312C396.438 503.212 401.282 503.044 406.136 502.875L406.138 502.875L406.146 502.875L406.232 502.872C407.201 502.838 408.17 502.805 409.14 502.772C412.046 502.664 414.945 502.535 417.846 502.406H417.847H417.847H417.848H417.849H417.849H417.85H417.85H417.851H417.851L417.854 502.405C419.801 502.319 421.749 502.232 423.7 502.152L436.44 501.712C438.58 501.632 439.72 500.752 439.88 498.612C440.1 496.152 440.1 493.692 440.1 491.232C440.2 485.172 440.2 479.052 440.2 473.052C440.2 468.672 440.1 464.272 440 459.892C439.96 458.512 439.6 458.092 438.18 458.092C436.94 458.012 435.7 458.038 434.46 458.065C433.84 458.078 433.22 458.092 432.6 458.092C426.933 458.158 421.28 458.192 415.64 458.192C410.787 458.192 405.927 458.145 401.06 458.052C400.782 458.046 400.528 458.042 400.296 458.039C398.966 458.019 398.347 458.009 398.041 457.695C397.775 457.421 397.747 456.915 397.694 455.967V455.966C397.673 455.58 397.647 455.119 397.6 454.572C397.387 452.105 397.458 449.621 397.529 447.137V447.136C397.564 445.894 397.6 444.652 397.6 443.412C397.56 438.712 397.44 434.052 397.32 429.412C397.229 426.641 397.103 423.871 396.978 421.11V421.109V421.108V421.108V421.107V421.106V421.106V421.105V421.104V421.104V421.103V421.102V421.102V421.101V421.1V421.099V421.099V421.098V421.097V421.097V421.096V421.095V421.094V421.093V421.092L396.977 421.071L396.923 419.868C396.902 419.396 396.881 418.923 396.86 418.452C396.72 415.812 396.38 415.392 393.92 414.752C393.737 414.682 393.568 414.58 393.42 414.452C393.503 413.327 393.595 412.207 393.688 411.089L393.688 411.086C393.887 408.685 394.084 406.293 394.18 403.892C394.258 401.223 394.185 398.552 393.96 395.892C393.788 394.519 393.438 393.174 392.92 391.892C392.213 389.985 391.474 388.088 390.735 386.19C389.614 383.31 388.493 380.429 387.48 377.512C385.496 371.734 383.584 365.93 381.672 360.123L381.671 360.12C380.751 357.324 379.829 354.527 378.9 351.732C378.46 350.372 378.46 350.372 379.86 349.592L396.14 340.652C396.486 340.473 396.839 340.315 397.22 340.145L397.222 340.144L397.222 340.144L397.222 340.144C397.48 340.029 397.75 339.909 398.04 339.772C398.31 340.345 398.551 340.933 398.76 341.532C399.631 344.436 400.487 347.428 401.321 350.347C401.808 352.051 402.288 353.73 402.76 355.352C403.276 357.126 403.841 358.89 404.406 360.655L404.407 360.658C405.243 363.27 406.08 365.883 406.76 368.532C408.9 377.05 410.899 385.608 412.899 394.166L412.9 394.172C413.513 396.806 414.043 399.453 414.573 402.093C414.734 402.9 414.896 403.706 415.06 404.512C415.15 405.342 415.844 405.976 416.68 405.992L419.4 406.132C419.542 406.314 419.656 406.516 419.74 406.732C419.779 406.909 419.819 407.086 419.859 407.264C419.899 407.444 419.939 407.624 419.98 407.804C420.035 408.048 420.09 408.292 420.145 408.536C420.763 411.269 421.379 413.994 421.74 416.732C422.57 421.872 420.846 427.095 417.12 430.732C416.506 431.33 415.872 431.909 415.239 432.487C414.201 433.434 413.164 434.381 412.22 435.412C411.197 436.538 410.372 437.83 409.78 439.232C409.381 440.003 409.421 440.928 409.887 441.661C410.352 442.394 411.172 442.825 412.04 442.792C414.08 443.125 416.166 443.057 418.18 442.592C419.222 442.357 420.277 442.183 421.34 442.072C425.167 441.562 428.903 440.518 432.44 438.972C434.508 438.124 436.066 436.366 436.66 434.212C436.805 433.728 436.987 433.259 437.17 432.786C437.289 432.478 437.409 432.168 437.52 431.852C438.037 433.079 438.387 434.371 438.56 435.692C438.86 437.452 439.76 437.972 441.38 437.352C442.691 437.053 443.558 435.804 443.38 434.472C443.346 428.935 442.274 423.453 440.22 418.312C440.068 418.014 439.954 417.698 439.88 417.372C439.64 416.062 439.39 414.755 439.14 413.448L439.139 413.44L439.137 413.432C438.514 410.171 437.891 406.912 437.42 403.632C437.05 400.975 436.837 398.283 436.625 395.608C436.517 394.235 436.409 392.868 436.28 391.512C435.933 387.751 435.569 383.99 435.204 380.229L435.203 380.221L435.203 380.214L435.202 380.206C435.021 378.335 434.839 376.463 434.66 374.592C434.46 372.437 434.27 370.289 434.08 368.141C433.604 362.772 433.129 357.403 432.5 351.932C431.915 346.841 431.189 341.758 430.462 336.673L430.462 336.671C430.095 334.106 429.729 331.54 429.38 328.972C428.729 324.08 428.097 319.188 427.464 314.289L427.462 314.271L427.46 314.258L427.459 314.249L427.457 314.24L427.456 314.231L427.455 314.222L427.454 314.213C427.177 312.068 426.899 309.921 426.62 307.772C426.59 307.232 426.59 306.691 426.62 306.152C427.087 306.032 427.561 305.945 428.04 305.892L435.22 305.632C436.876 305.576 438.534 305.521 440.192 305.467L440.197 305.466C445.065 305.306 449.938 305.146 454.8 304.952L454.988 304.944L455.08 304.941C456.093 304.903 456.644 304.882 456.988 304.604C457.397 304.274 457.513 303.581 457.768 302.062L457.78 301.992V301.392C457.807 300.263 457.843 299.138 457.879 298.017L457.879 298.008L457.879 298.004V298.004V298.003V298.003V298.002V298.002V298.001V298.001V298V298V297.999V297.999V297.998V297.998V297.997V297.997V297.997V297.996V297.996V297.995V297.995V297.994V297.994V297.994C457.95 295.785 458.02 293.588 458.02 291.392C458.12 284.592 458.12 277.792 458.12 271.012C458.129 268.733 458.174 266.45 458.219 264.166V264.165V264.164V264.163V264.162V264.161V264.16V264.159V264.158V264.157V264.156V264.155V264.154V264.153V264.152V264.151V264.15V264.149V264.148V264.147V264.146V264.145V264.144V264.143V264.142C458.27 261.564 458.32 258.985 458.32 256.412C458.32 253.812 457.8 253.232 455.22 253.092L455.219 253.092C451.82 252.912 448.42 252.732 445.02 252.732C440.19 252.749 435.36 252.874 430.53 252.999C429.98 253.013 429.429 253.027 428.879 253.041L428.46 253.052C427.901 253.061 427.346 253.12 426.787 253.179C426.167 253.245 425.542 253.312 424.9 253.312C424.85 253.115 424.802 252.925 424.756 252.741L424.692 252.482L424.691 252.479L424.69 252.475L424.689 252.472C424.543 251.886 424.411 251.354 424.26 250.832C423.495 247.838 421.218 245.463 418.26 244.572C414.533 243.221 410.368 244.654 408.26 248.012C407.339 249.548 406.581 251.177 406 252.872C405.759 253.77 404.93 254.383 404 254.352C402.34 254.376 400.682 254.419 399.027 254.462H399.027H399.026H399.025H399.025H399.024H399.023H399.023H399.022H399.021H399.021H399.02H399.02H399.019H399.018H399.018H399.017H399.016H399.016H399.015H399.014H399.014H399.013H399.012H399.012C396.545 254.527 394.083 254.592 391.62 254.592C388.172 254.602 384.729 254.573 381.29 254.543H381.289H381.289H381.288H381.288H381.287H381.287H381.286H381.285H381.285H381.284H381.284H381.283H381.283H381.282H381.282H381.281H381.28H381.28H381.279H381.279H381.278H381.278H381.277H381.277C378.336 254.517 375.398 254.492 372.46 254.492C371.122 254.505 369.786 254.598 368.46 254.772C365.76 255.092 365.36 255.512 365.36 258.152V258.552C365.467 265.018 365.573 271.478 365.68 277.932C365.746 278.431 365.725 278.931 365.703 279.459C365.692 279.734 365.68 280.017 365.68 280.312L364.06 280.052C363.598 279.972 363.129 279.932 362.66 279.932C362.046 279.847 361.427 280.051 360.984 280.486C360.542 280.921 360.326 281.536 360.4 282.152C360.365 282.56 360.282 282.968 360.2 283.377C360.141 283.668 360.082 283.96 360.04 284.252C359.924 284.698 359.924 285.166 360.04 285.612C360.335 286.222 360.503 286.89 360.671 287.559C360.972 288.753 361.275 289.954 362.3 290.852C362.551 291.147 362.686 291.524 362.68 291.912C362.634 293.357 363.409 294.704 364.68 295.392C365.427 295.841 365.841 296.686 365.74 297.552C365.76 299.692 365.8 301.612 365.98 303.932C366.16 306.252 366.4 306.432 368.8 306.432L377 306.332H380.34C381.023 307.749 380.885 309.425 379.98 310.712C379.006 312.136 377.849 313.427 376.54 314.552C372.38 317.852 368.24 321.032 363.82 323.852C359.687 326.546 355.985 329.85 352.84 333.652C350.252 336.373 349.274 340.248 350.26 343.872C351.454 347.937 352.857 351.957 354.262 355.984C354.482 356.613 354.701 357.242 354.92 357.872C355.386 359.304 355.934 360.718 356.482 362.134L356.482 362.135L356.483 362.137L356.483 362.138L356.484 362.139L356.484 362.14L356.485 362.142L356.485 362.143L356.485 362.144L356.486 362.146L356.486 362.147L356.487 362.148L356.487 362.149L356.488 362.151L356.488 362.152L356.489 362.153L356.489 362.155L356.49 362.156L356.49 362.157L356.49 362.158L356.491 362.16L356.491 362.161L356.492 362.162L356.492 362.164L356.493 362.165L356.493 362.166C356.928 363.29 357.363 364.415 357.76 365.552C358.262 367.052 358.757 368.551 359.251 370.051L359.252 370.057C360.075 372.555 360.898 375.053 361.76 377.552C362.3 379.212 362.84 379.392 364.46 379.212L366.68 378.832C367.32 380.372 367.9 381.772 368.46 383.192C370.243 387.067 371.553 391.143 372.36 395.332C372.859 398.103 371.645 400.903 369.28 402.432C368.773 402.784 368.229 403.089 367.683 403.394L367.682 403.395C367.237 403.644 366.791 403.894 366.36 404.172C364.772 405.128 363.236 406.17 361.76 407.292C359.316 408.784 358.371 411.866 359.56 414.472V414.712C359.314 414.795 359.059 414.849 358.8 414.872H356.22C354.06 414.812 353.94 414.632 353.94 412.392C354.06 410.672 354.06 408.932 354.06 407.212V385.652C354.027 382.244 353.872 378.931 353.718 375.635L353.718 375.632C353.685 374.924 353.652 374.218 353.62 373.512C353.687 372.84 353.481 372.169 353.048 371.65C352.616 371.131 351.993 370.807 351.32 370.752C350.802 370.633 350.272 370.572 349.74 370.572H332.2H328.84C327.697 370.587 326.577 370.616 325.454 370.645L325.451 370.645L325.447 370.645L325.443 370.645L325.439 370.645L325.438 370.645C323.737 370.688 322.032 370.732 320.24 370.732ZM99.2577 201.295C98.7055 201.335 98.1305 201.377 97.52 201.432C97.52 200.709 97.5044 200.017 97.4892 199.338C97.4745 198.683 97.46 198.04 97.46 197.392C97.5275 195.943 97.593 194.493 97.6585 193.042C97.8841 188.046 98.11 183.043 98.42 178.052L98.4662 177.326C98.8298 171.614 99.1892 165.968 99.88 160.212C100.4 155.999 101.462 151.872 103.04 147.932C103.739 146.19 104.423 144.442 105.108 142.695L105.108 142.694C106.654 138.744 108.201 134.794 109.92 130.912C111.342 128.058 112.945 125.299 114.72 122.652C117.666 117.968 121.262 113.726 125.4 110.052C126.146 109.334 126.875 108.598 127.601 107.864L127.602 107.864L127.602 107.864L127.602 107.864L127.602 107.864L127.602 107.864L127.602 107.864L127.602 107.864L127.602 107.864L127.602 107.863L127.602 107.863L127.602 107.863L127.602 107.863L127.602 107.863L127.603 107.863L127.603 107.863L127.603 107.863L127.603 107.863L127.603 107.863L127.603 107.863L127.603 107.863L127.603 107.862L127.603 107.862L127.603 107.862L127.603 107.862L127.603 107.862C128.902 106.551 130.196 105.244 131.58 104.052C134.3 101.732 137.14 99.4116 140.04 97.4116C143.26 95.0516 146.54 92.7716 149.88 90.6116C151.911 89.3845 154.007 88.2695 156.16 87.2716C156.92 86.9028 157.683 86.534 158.448 86.1643L158.452 86.1625L158.454 86.1612C160.425 85.2088 162.408 84.2506 164.38 83.2716C167.118 81.7565 170.016 80.5491 173.02 79.6716L187.02 76.0516C190.441 75.4084 193.966 75.5936 197.3 76.5916C199.904 77.1672 202.478 77.9084 205.057 78.6514L205.057 78.6514L205.057 78.6514C206.063 78.9411 207.07 79.2311 208.08 79.5116C208.253 79.5692 208.412 79.6598 208.623 79.7797L208.623 79.7797L208.623 79.7798L208.623 79.7799C208.779 79.8684 208.962 79.9728 209.2 80.0916C208.42 80.7716 207.78 81.3916 207.2 82.0916C206.255 83.2362 205.318 84.3903 204.379 85.5457L204.379 85.5459L204.379 85.5464L204.379 85.5466L204.379 85.5467L204.378 85.5468C202.595 87.7425 200.807 89.9428 198.96 92.0916C196.585 94.7806 194.569 97.7653 192.96 100.972C190.989 105.12 189.247 109.373 187.74 113.712C186.187 117.967 185.107 122.38 184.52 126.872C184.05 130.699 183.929 134.562 184.16 138.412C184.423 142.192 184.917 145.952 185.64 149.672C186.213 153.693 187.191 157.647 188.56 161.472C188.714 161.856 188.803 162.264 188.892 162.67C188.988 163.109 189.083 163.547 189.26 163.952C189.71 164.955 190.141 165.954 190.57 166.951C191.135 168.26 191.698 169.566 192.3 170.872C192.694 171.735 193.134 172.576 193.593 173.454C193.74 173.735 193.89 174.021 194.04 174.312C193.738 174.662 193.436 175.001 193.138 175.336L193.138 175.336C192.449 176.111 191.78 176.862 191.18 177.672C188.98 180.552 186.72 183.512 184.72 186.552C182.417 189.801 180.313 193.187 178.42 196.692C176.26 200.952 174.46 205.412 172.74 209.852C171.709 212.553 171.528 215.504 172.22 218.312C172.868 221.178 175.125 223.404 178 224.012C182.48 225.352 186.84 224.432 191.2 223.472C192.284 223.24 193.357 222.978 194.435 222.714L194.435 222.714C194.849 222.613 195.264 222.512 195.68 222.412C201.935 220.789 207.895 218.19 213.34 214.712C216.293 212.94 219.268 211.188 222.27 209.42L222.278 209.416C223.441 208.731 224.608 208.044 225.78 207.352C226.9 208.072 227.9 208.752 228.9 209.512C231.93 211.815 235.47 212.986 239 214.154L239 214.154L239 214.154L239 214.154L239 214.154L239.001 214.154L239.001 214.154L239.001 214.154L239.001 214.155L239.002 214.155L239.002 214.155L239.002 214.155L239.002 214.155L239.003 214.155L239.003 214.155L239.003 214.155L239.003 214.155L239.003 214.155L239.004 214.155L239.004 214.156L239.004 214.156L239.004 214.156L239.005 214.156L239.005 214.156L239.005 214.156C239.947 214.468 240.889 214.779 241.82 215.112C247.645 217 253.701 218.077 259.82 218.312C263.34 218.538 266.86 218.698 270.38 218.792C271.512 218.777 272.641 218.684 273.76 218.512C277.6 218.152 281.397 217.428 285.1 216.352C285.433 216.32 285.767 216.32 286.1 216.352V264.832L280.1 265.672C274.041 266.646 268.119 268.338 262.46 270.712C259.35 271.884 256.415 273.479 253.74 275.452C252.486 276.395 251.142 277.243 249.809 278.085L249.809 278.085L249.809 278.085L249.809 278.085L249.809 278.085L249.808 278.085L249.808 278.085L249.808 278.085L249.808 278.085L249.808 278.085L249.808 278.085L249.808 278.086L249.807 278.086L249.807 278.086L249.807 278.086L249.807 278.086L249.807 278.086L249.807 278.086C248.399 278.975 247.003 279.856 245.74 280.832C243.618 282.47 241.66 284.317 239.699 286.167L239.261 286.58C239.094 286.737 238.927 286.895 238.76 287.052C237.356 288.376 236.021 289.771 234.76 291.232C232.777 293.377 230.927 295.641 229.22 298.012C227.845 300.288 226.609 302.645 225.52 305.072C223.353 308.971 221.948 313.247 221.38 317.672C220.32 324.518 220.32 331.486 221.38 338.332C222.269 342.602 223.513 346.798 224.75 350.974L224.75 350.975L224.751 350.975L224.751 350.976L224.88 351.412C226.672 357.266 229.128 362.896 232.2 368.192C232.314 368.437 232.408 368.691 232.48 368.952C232.496 369.131 232.496 369.312 232.48 369.492C232.001 369.614 231.513 369.694 231.02 369.732H203.68H186.52H173.56C170.134 369.756 166.708 369.805 163.282 369.853C158.388 369.922 153.494 369.992 148.6 369.992C146.306 370.002 144.012 369.973 141.719 369.943C139.752 369.917 137.786 369.892 135.82 369.892C133.58 369.915 131.339 370.008 129.103 370.101L129.101 370.101L129.097 370.102C127.542 370.166 125.99 370.231 124.44 370.272C122.295 370.332 120.15 370.383 118.005 370.435C114.43 370.521 110.855 370.607 107.28 370.732C106.047 370.772 104.822 370.917 103.594 371.064H103.594H103.594H103.593H103.593H103.593H103.593H103.592H103.592H103.592H103.591H103.591H103.591H103.591H103.59H103.59H103.59H103.589H103.589H103.589H103.588H103.588H103.588H103.587H103.587L103.587 371.064C102.966 371.137 102.344 371.211 101.72 371.272L99.32 371.412C99.0978 360.389 98.8755 349.428 98.6533 338.467L98.6528 338.442C98.4752 329.682 98.2976 320.923 98.12 312.132C98.9813 311.994 99.8491 311.9 100.72 311.852C106.644 311.867 112.559 311.378 118.4 310.392C123.998 309.483 129.43 307.751 134.52 305.252C135.649 304.686 136.698 303.973 137.64 303.132C141.3 300.052 144.9 296.912 148.5 293.772C154.7 288.372 157.94 281.212 160.34 273.572C161.705 269.524 162.309 265.259 162.12 260.992C161.895 257.073 161.428 253.172 160.72 249.312C160.073 245.862 159.124 242.523 158.18 239.202L158.18 239.202C157.985 238.518 157.791 237.835 157.6 237.152C156.276 232.829 154.212 228.769 151.5 225.152C150.328 223.386 149.045 221.696 147.66 220.092C143.394 215.6 138.661 211.577 133.54 208.092C129.879 205.407 125.758 203.414 121.38 202.212C115.353 200.482 109.029 200.039 102.82 200.912C101.653 201.12 100.515 201.203 99.2577 201.295ZM351.3 414.732C351.396 414.412 351.463 414.084 351.5 413.752C351.5 410.543 351.469 407.327 351.438 404.113L351.438 404.105V404.103V404.101V404.099V404.097V404.095V404.093V404.09V404.088V404.086V404.084V404.082V404.08V404.078V404.076V404.074V404.072V404.069V404.067V404.065V404.063V404.061V404.059V404.057C351.414 401.5 351.389 398.944 351.38 396.392V384.012C351.38 383.106 351.391 382.198 351.402 381.289C351.424 379.469 351.447 377.646 351.38 375.832C351.38 373.492 351.12 373.312 348.86 373.312H347.66L318.7 373.672C315.742 373.672 312.78 373.724 309.812 373.776H309.81H309.809H309.807H309.805H309.804H309.802H309.801H309.799H309.797H309.796H309.794H309.792H309.791H309.789H309.787H309.786H309.784H309.782H309.781H309.779H309.777H309.776H309.774C306.093 373.84 302.402 373.905 298.7 373.872C295.355 373.872 292.019 373.702 288.68 373.532L288.679 373.532C286.767 373.435 284.855 373.337 282.94 373.272C280.02 373.272 277.1 373.272 274.16 373.132C271.651 373.132 269.162 373.062 266.663 372.993L266.66 372.992C264.14 372.922 261.61 372.852 259.04 372.852C255.415 372.852 251.79 372.887 248.169 372.923L248.159 372.923C245.15 372.953 242.143 372.983 239.14 372.992H214.4C213.17 372.992 211.94 372.952 210.71 372.912L210.707 372.912C209.478 372.872 208.249 372.832 207.02 372.832H188.26H170.1H160.32H147.96H141.48C141.42 379.372 141.365 385.873 141.311 392.371C141.255 398.928 141.2 405.482 141.14 412.072C141.641 412.072 142.074 412.106 142.479 412.138C142.832 412.165 143.164 412.192 143.5 412.192H154.88C157.161 412.192 159.545 412.315 161.942 412.44C163.517 412.522 165.098 412.604 166.66 412.652C173.96 412.852 181.28 413.032 188.66 413.152C195.36 413.271 202.06 413.331 208.74 413.391L208.8 413.392C214.12 413.392 219.46 413.392 224.8 413.512C229.386 413.615 233.751 413.629 238.174 413.644L238.201 413.644L238.227 413.644C238.936 413.647 239.647 413.649 240.36 413.652H257.32H271.08H281.84C284.352 413.652 287.003 413.721 289.646 413.789L289.648 413.789L289.651 413.79L289.654 413.79C290.774 413.819 291.893 413.848 293 413.872C297.239 413.872 301.477 413.992 305.716 414.113C306.657 414.139 307.599 414.166 308.54 414.192C310.576 414.242 312.616 414.321 314.657 414.4C317.466 414.508 320.276 414.617 323.08 414.652H346.04L351.3 414.732ZM186.637 455.905C186.005 455.874 185.36 455.843 184.7 455.812V416.172H189.9L205.06 416.372C206.133 416.392 207.206 416.414 208.278 416.436L208.309 416.437C211.545 416.504 214.778 416.572 218 416.572C219.709 416.594 221.417 416.618 223.125 416.643H223.126H223.126H223.127H223.128H223.129H223.13H223.13H223.131H223.132H223.133H223.134H223.135H223.135H223.136H223.137H223.138H223.139H223.14H223.14H223.141H223.142H223.143C229.082 416.727 235.015 416.812 240.96 416.812H267.92H283.28H295.44C298.53 416.902 301.62 417.042 304.71 417.182C307.8 417.322 310.89 417.462 313.98 417.552H325.76C328.861 417.575 331.967 417.613 335.072 417.651L335.076 417.651H335.079H335.083H335.086C340.047 417.711 345.002 417.772 349.92 417.772C354.61 417.772 359.305 417.732 364 417.692C368.695 417.652 373.39 417.612 378.08 417.612C380.451 417.601 382.816 417.631 385.179 417.661C387.201 417.686 389.22 417.712 391.24 417.712C391.777 417.712 392.314 417.67 392.873 417.627L392.875 417.627H392.875C393.481 417.58 394.114 417.532 394.8 417.532C394.855 422.741 394.909 427.924 394.964 433.106C395.049 441.213 395.135 449.32 395.22 457.532C394.981 457.552 394.734 457.582 394.484 457.612C394.001 457.671 393.5 457.732 393 457.732C391.783 457.715 390.567 457.681 389.35 457.647C387.647 457.599 385.943 457.552 384.24 457.552H368.1H357.52C356.192 457.561 354.877 457.6 353.557 457.64H353.556H353.555H353.554H353.553H353.552H353.551H353.55H353.549H353.548H353.547H353.546H353.545H353.544H353.543H353.542H353.541H353.541H353.54H353.539H353.538H353.538H353.537C352.021 457.686 350.497 457.732 348.94 457.732C347.483 457.732 346.027 457.702 344.568 457.672L344.565 457.672C343.1 457.642 341.633 457.612 340.16 457.612C337.795 457.594 335.432 457.574 333.07 457.554C327.181 457.503 321.295 457.452 315.4 457.452C312.302 457.442 309.188 457.48 306.077 457.517H306.075H306.074H306.072H306.07H306.068H306.067H306.065H306.063H306.061H306.059H306.058H306.056H306.054H306.052H306.05H306.049H306.047H306.045H306.043H306.042H306.04H306.038C302.354 457.56 298.677 457.604 295.04 457.572C291.2 457.537 287.359 457.425 283.519 457.312C280.639 457.228 277.76 457.143 274.88 457.092H263.48C261.154 457.049 258.829 456.97 256.5 456.892L256.497 456.892L256.494 456.892L256.491 456.892L256.487 456.892L256.484 456.892L256.481 456.891L256.478 456.891L256.475 456.891L256.471 456.891L256.468 456.891L256.465 456.891L256.462 456.891L256.458 456.891L256.455 456.891L256.452 456.891L256.448 456.891L256.445 456.89L256.442 456.89L256.438 456.89L256.435 456.89L256.432 456.89L256.429 456.89C254.455 456.824 252.48 456.757 250.5 456.712C245.593 456.525 240.68 456.432 235.76 456.432C234.693 456.417 233.626 456.402 232.56 456.388L232.555 456.387C226.228 456.299 219.911 456.212 213.58 456.212H201.22H194.04C191.642 456.147 189.244 456.031 186.637 455.905ZM227.64 459.412V472.932C227.64 474.891 227.687 476.882 227.734 478.883V478.883V478.883V478.884V478.885V478.885V478.886V478.886V478.887V478.887V478.888V478.889V478.889V478.89V478.89V478.891V478.891V478.892V478.892V478.893V478.893C227.794 481.423 227.853 483.97 227.82 486.492C227.776 489.771 227.638 492.944 227.497 496.188V496.189V496.189V496.189V496.19V496.19V496.191V496.191V496.191V496.192L227.497 496.195L227.496 496.198L227.496 496.203L227.496 496.211C227.443 497.431 227.389 498.662 227.34 499.912H230.2C232.186 499.912 234.186 499.901 236.192 499.89H236.193H236.194H236.195H236.196H236.197H236.198H236.199H236.2H236.202H236.203H236.204H236.205H236.206H236.207H236.208H236.209H236.21H236.211H236.213H236.214H236.215H236.218C240.261 499.867 244.328 499.845 248.36 499.912C251.026 499.956 253.622 500.012 256.194 500.067L256.199 500.067L256.204 500.068L256.208 500.068L256.213 500.068L256.218 500.068L256.223 500.068L256.228 500.068L256.233 500.068L256.237 500.068L256.242 500.068L256.247 500.068L256.252 500.068L256.257 500.069L256.262 500.069L256.266 500.069L256.271 500.069L256.276 500.069L256.28 500.069L256.284 500.069L256.289 500.069C259.512 500.139 262.698 500.207 265.94 500.252C272.92 500.252 279.94 500.252 286.9 500.372C288.96 500.372 291.021 500.397 293.079 500.423C295.476 500.453 297.871 500.482 300.26 500.472C301.259 500.472 302.259 500.427 303.258 500.382L303.26 500.382L303.262 500.382C304.261 500.337 305.261 500.292 306.26 500.292H324.62C327.512 500.292 330.403 500.239 333.295 500.187C335.463 500.148 337.632 500.109 339.8 500.092C341.331 500.092 342.859 500.103 344.387 500.114L344.397 500.114C347.457 500.136 350.514 500.158 353.58 500.092C357.262 500.092 360.937 499.983 364.613 499.873L364.615 499.873C367.429 499.79 370.242 499.706 373.06 499.672C374.959 499.672 376.861 499.685 378.763 499.698H378.764H378.765H378.766H378.767H378.768H378.769H378.77H378.771H378.772H378.773H378.774H378.775H378.776H378.777H378.778H378.779H378.78H378.781H378.782H378.783H378.784C382.584 499.725 386.386 499.752 390.18 499.672C395.521 499.556 400.854 499.366 406.189 499.177L406.194 499.176L406.197 499.176L406.2 499.176C409.172 499.07 412.145 498.965 415.12 498.872C419.033 498.751 422.953 498.653 426.876 498.554L426.879 498.554L426.881 498.554L426.883 498.554C429.474 498.488 432.067 498.423 434.66 498.352L437.48 498.172C437.64 485.692 437.78 473.432 437.92 461.072C437.507 461.045 437.093 461.045 436.68 461.072L422.5 461.352C421.388 461.352 420.273 461.367 419.158 461.383H419.156H419.154H419.151H419.149H419.147H419.145H419.142H419.14H419.138H419.135H419.133H419.131H419.128H419.126H419.124H419.122H419.119H419.117H419.116C416.856 461.414 414.594 461.445 412.34 461.352C408.96 461.212 405.42 461.112 401.96 461.072C397.36 461.072 392.78 461.072 388.18 460.972H364.64H351.48C349.131 460.972 346.856 460.926 344.595 460.88L344.592 460.88C342.638 460.84 340.694 460.801 338.72 460.792H323.76H306.58C304.516 460.792 302.45 460.805 300.383 460.818H300.381H300.379H300.377H300.374H300.372H300.37H300.368H300.366H300.363H300.361H300.359H300.357H300.355H300.352H300.35H300.348H300.346H300.344H300.341H300.339H300.337H300.332H300.331H300.329H300.328H300.327H300.325H300.324H300.322H300.321H300.32H300.318H300.317H300.316H300.314H300.313H300.311H300.31H300.309H300.307H300.306H300.305C296.149 460.845 291.99 460.872 287.84 460.792C283.613 460.722 279.387 460.579 275.16 460.436C272.087 460.332 269.013 460.227 265.94 460.152C263.252 460.092 260.565 460.062 257.874 460.032H257.874H257.873H257.872H257.872H257.871H257.87H257.87H257.869H257.868H257.868H257.867H257.866H257.865H257.865H257.864H257.863H257.863H257.862H257.861H257.861H257.86C255.17 460.002 252.477 459.972 249.78 459.912L229.62 459.372C228.96 459.348 228.299 459.362 227.64 459.412ZM223.184 197.88C221.892 198.584 220.599 199.29 219.3 199.992C218.861 199.606 218.434 199.231 218.015 198.864C216.85 197.843 215.754 196.883 214.68 195.912C210.066 191.779 205.921 187.151 202.32 182.112C200.331 179.213 198.58 176.172 196.81 173.099C196.284 172.185 195.756 171.268 195.22 170.352C192.444 165.206 190.461 159.67 189.34 153.932C188.052 148.679 187.216 143.326 186.84 137.932C186.804 134.94 186.938 131.948 187.24 128.972C187.74 123.729 188.916 118.573 190.74 113.632C191.95 110.18 193.359 106.801 194.96 103.512C196.856 99.3898 199.357 95.5743 202.38 92.1916C203.935 90.4072 205.418 88.5646 206.898 86.7252L206.898 86.7251L206.899 86.7247L206.899 86.7244L206.899 86.7242L206.899 86.7241C207.874 85.5127 208.847 84.3027 209.84 83.1116C210.397 82.5384 210.999 82.0101 211.64 81.5316C212.074 81.088 212.76 81.0126 213.28 81.3516C215.258 82.3445 217.289 83.2177 219.318 84.0906C222.603 85.5035 225.886 86.9154 228.94 88.8316C230.725 89.9571 232.594 90.9402 234.46 91.9219L234.461 91.9224L234.461 91.9226C235.48 92.4584 236.497 92.9938 237.5 93.5516C238.384 94.0233 239.233 94.558 240.04 95.1516C243.56 97.7516 246.94 100.552 250.2 103.472C253.673 106.551 256.903 109.894 259.86 113.472C261.9 116.112 263.78 118.772 265.62 121.472C266.154 122.312 266.654 123.201 267.155 124.093L267.155 124.093L267.156 124.093C267.931 125.473 268.709 126.857 269.62 128.072C271.276 130.378 272.546 132.886 273.816 135.392C274.771 137.276 275.724 139.158 276.84 140.952C277.509 142.224 278.039 143.565 278.42 144.952C279.116 146.856 279.798 148.789 280.477 150.714L280.477 150.714L280.478 150.715L280.478 150.717L280.479 150.719C280.619 151.117 280.76 151.515 280.9 151.912C281.407 152.88 281.096 154.075 280.18 154.672C278.18 156.292 276.32 157.932 274.18 159.832C273.163 160.735 272.168 161.66 271.175 162.585L271.174 162.585C270.078 163.606 268.983 164.625 267.86 165.612C264.8 168.372 261.78 171.072 258.62 173.612C258.056 174.063 257.493 174.516 256.93 174.968L256.927 174.971L256.927 174.971L256.926 174.971L256.926 174.971L256.926 174.971L256.926 174.971L256.926 174.972L256.926 174.972L256.925 174.972L256.925 174.972L256.925 174.972L256.925 174.972L256.925 174.972L256.924 174.972L256.924 174.973L256.924 174.973L256.924 174.973L256.924 174.973L256.924 174.973L256.923 174.973L256.923 174.973C253.074 178.067 249.226 181.159 245.18 183.932C239.969 187.849 234.54 191.468 228.92 194.772C226.999 195.798 225.093 196.838 223.184 197.88ZM101.687 308.722L101.689 308.722C104.36 308.668 106.89 308.616 109.42 308.452C113.6 308.114 117.746 307.445 121.82 306.452C127.512 305.376 132.863 302.948 137.42 299.372C137.594 299.234 137.766 299.094 137.939 298.954C138.642 298.387 139.342 297.821 140.08 297.372C143.741 294.706 147.013 291.542 149.8 287.972C154.407 282.231 157.409 275.371 158.5 268.092C159.186 264.493 159.334 260.813 158.94 257.172C158.309 252.159 157.286 247.204 155.88 242.352C155.326 240.093 154.658 237.863 153.88 235.672C151.767 230.491 148.716 225.745 144.88 221.672C144.573 221.345 144.246 221.028 143.912 220.704L143.912 220.703L143.911 220.703L143.911 220.702L143.91 220.702L143.91 220.702C143.57 220.372 143.223 220.034 142.88 219.672C141.503 218.257 140.048 216.922 138.52 215.672C135.52 213.392 132.38 211.252 129.26 209.132C126.441 207.102 123.245 205.653 119.86 204.872C117.318 204.369 114.732 204.02 112.143 203.669C111.228 203.546 110.313 203.422 109.4 203.292C108.735 203.22 108.065 203.22 107.4 203.292L107.182 203.314L107.18 203.314C104.873 203.546 102.547 203.781 100.26 204.072C99.6211 204.158 99.0124 204.296 98.355 204.446L98.3549 204.446L98.3542 204.447L98.3534 204.447L98.3523 204.447C97.9405 204.541 97.5095 204.639 97.04 204.732V208.092C97.04 210.221 97.1194 212.35 97.1996 214.504C97.2701 216.396 97.3413 218.306 97.36 220.252V241.032C97.36 243.617 97.2934 246.209 97.2269 248.8C97.1724 250.919 97.118 253.037 97.1 255.152V267.912C97.1 270.485 97.1657 272.905 97.2309 275.309C97.2737 276.884 97.3162 278.452 97.34 280.052V288.052C97.34 291.108 97.4228 294.178 97.5053 297.237C97.5573 299.162 97.6091 301.083 97.64 302.992C97.88 304.832 97.88 306.612 97.88 308.812C99.1737 308.774 100.424 308.748 101.645 308.723L101.661 308.723L101.677 308.723H101.678L101.68 308.723L101.681 308.723L101.683 308.723L101.685 308.723L101.687 308.722ZM284.36 268.132C284.946 268.088 285.534 268.088 286.12 268.132C286.08 277.79 286.044 287.433 286.007 297.068C285.915 321.431 285.823 345.75 285.68 370.172H280.6C279.432 370.155 278.268 370.121 277.104 370.087C275.478 370.039 273.852 369.992 272.22 369.992C268.76 369.852 265.3 369.852 261.86 369.852H246.46H237.28C236.592 369.866 235.972 369.439 235.74 368.792C235.234 367.733 234.723 366.678 234.211 365.622L234.21 365.62L234.209 365.618L234.208 365.616L234.207 365.614L234.207 365.614L234.207 365.613L234.206 365.612L234.206 365.612L234.206 365.611L234.206 365.611L234.205 365.61L234.205 365.61L234.205 365.609L234.205 365.609L234.204 365.608L234.204 365.607L234.204 365.607L234.203 365.606L234.203 365.606L234.203 365.605L234.203 365.605L234.202 365.604C232.717 362.537 231.232 359.472 229.88 356.352C228.544 353.292 227.441 350.137 226.58 346.912C224.892 341.052 223.938 335.006 223.74 328.912C223.629 322.913 224.425 316.932 226.1 311.172C226.748 309.429 227.579 307.759 228.58 306.192C228.916 305.6 229.249 305.007 229.583 304.413C230.974 301.935 232.366 299.455 233.98 297.132C235.629 294.958 237.441 292.912 239.4 291.012C243.648 286.497 248.445 282.532 253.68 279.212C256.531 277.381 259.489 275.725 262.54 274.252C267.401 271.909 272.563 270.253 277.88 269.332C279.216 269.148 280.537 268.881 281.857 268.615L281.858 268.615L281.858 268.615L281.859 268.615L281.859 268.615L281.86 268.615L281.86 268.614L281.86 268.614L281.861 268.614L281.861 268.614L281.862 268.614L281.862 268.614L281.863 268.614L281.863 268.614L281.864 268.614L281.864 268.614L281.865 268.613L281.865 268.613C282.696 268.446 283.527 268.278 284.36 268.132ZM383.06 306.572C383.341 308.891 382.662 311.225 381.18 313.032C379.968 314.515 378.592 315.856 377.08 317.032C374.4 319.055 371.663 321.006 368.921 322.961C367.326 324.098 365.729 325.237 364.14 326.392C360.318 328.921 356.94 332.063 354.14 335.692C352.406 337.881 351.874 340.79 352.72 343.452C353.648 346.261 354.608 349.055 355.57 351.852C356.122 353.456 356.673 355.061 357.22 356.672C358.9 361.658 360.56 366.645 362.2 371.632C362.462 372.432 362.667 373.262 362.888 374.153L362.888 374.153C362.987 374.553 363.089 374.964 363.2 375.392C369.112 372.076 375.481 369.65 382.1 368.192C382.007 367.856 381.94 367.564 381.878 367.297L381.878 367.296L381.878 367.296L381.878 367.295L381.878 367.294L381.878 367.293L381.877 367.292C381.807 366.988 381.745 366.717 381.66 366.452C381.119 364.737 380.572 363.023 380.024 361.307L380.02 361.294L380.02 361.293L380.019 361.293L380.019 361.292L380.019 361.292L380.019 361.291L380.019 361.29L380.018 361.29L380.018 361.289L380.018 361.289L380.018 361.288L380.018 361.288L380.018 361.287L380.017 361.287L380.017 361.286L380.017 361.286L380.017 361.285C379.111 358.445 378.204 355.602 377.32 352.752C377.186 352.044 376.682 351.464 376 351.232C374.86 350.832 374.78 349.852 375.74 349.092C376.431 348.573 377.167 348.118 377.94 347.732C379.69 346.752 381.444 345.782 383.196 344.812C385.987 343.267 388.775 341.725 391.54 340.152C395.3 338.012 399.04 335.832 402.72 333.572C405.934 331.688 408.95 329.483 411.72 326.992C415.463 323.519 417.881 318.852 418.56 313.792C418.92 311.215 418.777 308.594 418.14 306.072H412.24C411.586 306.154 410.979 306.458 410.52 306.932C409.111 308.39 407.146 309.176 405.12 309.092C402.115 309.197 399.123 308.637 396.36 307.452C392.04 305.712 387.74 306.032 383.06 306.572ZM283.08 161.952L283.54 162.132C283.745 163.853 283.884 165.567 284.019 167.23L284.019 167.232L284.02 167.233C284.109 168.332 284.197 169.409 284.3 170.452C284.9 178.872 285.52 187.312 286.3 195.712C286.662 199.703 286.662 203.72 286.3 207.712C286.16 209.052 286.16 210.392 286.16 211.712C286.217 212.11 286.111 212.515 285.867 212.834C285.622 213.154 285.259 213.362 284.86 213.412C284.271 213.573 283.684 213.741 283.096 213.909C280.988 214.512 278.878 215.114 276.72 215.412C270.246 216.242 263.694 216.242 257.22 215.412C252.72 214.913 248.262 214.091 243.88 212.952C238.292 211.488 232.977 209.131 228.14 205.972C229.534 204.71 231.04 203.578 232.64 202.592C233.258 202.134 233.862 201.689 234.46 201.249C236.473 199.767 238.42 198.334 240.64 196.592C242.486 195.143 244.299 193.654 246.11 192.165C247.125 191.331 248.14 190.498 249.16 189.672C251.077 188.163 252.993 186.595 254.91 185.026L254.911 185.025C256.654 183.599 258.397 182.173 260.14 180.792C261.727 179.534 263.325 178.299 264.922 177.066C267.007 175.454 269.09 173.845 271.14 172.192C273.535 170.252 275.875 168.248 278.218 166.243L278.219 166.242C279.065 165.518 279.911 164.793 280.76 164.072C281.207 163.682 281.647 163.273 282.088 162.863C282.417 162.557 282.747 162.251 283.08 161.952ZM420.58 306.492C420.956 309.001 421.024 311.546 420.78 314.072C419.858 321.024 416.183 327.314 410.58 331.532C409.2 332.657 407.639 333.625 406.101 334.578L406.101 334.579L406.1 334.579L406.099 334.58L406.098 334.58L406.098 334.581C405.587 334.897 405.078 335.213 404.58 335.532C403.54 336.232 402.46 336.912 401.4 337.532C400.818 337.78 400.517 338.426 400.7 339.032C400.848 339.589 400.969 340.153 401.091 340.717C401.248 341.449 401.405 342.18 401.62 342.892C402.217 344.87 402.83 346.845 403.442 348.82L403.442 348.822L403.443 348.824L403.444 348.826L403.444 348.828L403.445 348.83L403.446 348.832L403.446 348.834L403.447 348.836L403.448 348.838L403.448 348.84L403.449 348.842L403.449 348.844L403.45 348.846L403.451 348.848L403.451 348.85L403.452 348.853C404.415 351.958 405.377 355.061 406.28 358.172C407.92 363.932 409.5 369.712 410.98 375.512C412.098 379.893 413.102 384.069 414.112 388.272C414.439 389.633 414.767 390.997 415.1 392.372C415.84 395.392 416.56 398.372 417.3 401.472C418.108 401.248 418.913 401.02 419.717 400.791L419.723 400.79C421.722 400.222 423.716 399.656 425.74 399.172C427.753 398.69 429.767 398.308 431.851 397.913C432.707 397.751 433.575 397.586 434.46 397.412C434.28 395.932 434.14 394.632 434 393.312C433.901 392.372 433.797 391.432 433.693 390.492L433.691 390.473C433.482 388.579 433.273 386.685 433.1 384.792C432.909 382.607 432.741 380.438 432.573 378.265L432.573 378.262L432.573 378.26L432.573 378.258L432.572 378.256L432.572 378.254L432.572 378.252L432.572 378.25L432.572 378.248L432.571 378.246L432.571 378.243L432.571 378.241L432.571 378.239L432.571 378.237L432.57 378.235C432.351 375.403 432.131 372.563 431.86 369.672C431.46 365.372 430.94 361.072 430.42 356.772C429.78 351.232 429.1 345.672 428.42 340.132L428.391 339.898C428.061 337.215 427.728 334.514 427.32 331.852C427.134 330.573 426.918 329.301 426.702 328.03L426.702 328.028C426.361 326.019 426.02 324.013 425.8 321.992C425.453 318.938 425.196 315.885 424.938 312.831C424.809 311.305 424.68 309.778 424.54 308.252C424.54 307.746 424.407 307.239 424.271 306.722L424.271 306.721C424.202 306.461 424.133 306.199 424.08 305.932C422.884 305.699 421.644 305.898 420.58 306.492ZM365.56 293.512C365.194 293.211 364.865 292.869 364.58 292.492L366.2 291.392L363.74 289.512C363.758 289.468 363.787 289.405 363.814 289.348C363.848 289.275 363.88 289.212 363.88 289.212C364.029 289.151 364.187 289.143 364.345 289.134C364.653 289.118 364.962 289.102 365.2 288.692C365.56 288.072 364.84 287.512 364.46 287.272C364.295 287.167 364.11 287.086 363.925 287.003L363.925 287.003C363.685 286.897 363.443 286.79 363.24 286.632C362.697 286.17 362.183 285.676 361.7 285.152C362.352 284.489 363.037 284.645 363.703 284.796C364.304 284.933 364.889 285.066 365.42 284.592C365.193 283.787 364.568 283.521 363.927 283.25C363.437 283.042 362.938 282.831 362.6 282.372C363.116 282.083 363.744 282.083 364.26 282.372C365.12 282.632 365.979 282.89 366.839 283.149C369.419 283.925 372 284.702 374.58 285.512L386.38 289.212C386.796 289.34 387.221 289.472 387.649 289.605C389.753 290.256 391.959 290.94 393.82 291.472C395.75 292.023 397.696 292.486 399.643 292.949L399.676 292.956C399.977 293.028 400.279 293.1 400.58 293.172C400.977 293.242 401.383 293.242 401.78 293.172C402.56 293.072 402.92 292.332 402.34 291.952C401.401 291.337 401.555 290.635 401.72 289.883C401.748 289.754 401.777 289.624 401.8 289.492C402.66 283.732 403.66 277.952 404.66 272.172C404.84 271.162 405.02 270.148 405.2 269.131L405.215 269.049L405.222 269.007L405.227 268.98C405.977 264.745 406.738 260.452 407.6 256.172C408.242 253.086 409.796 250.264 412.06 248.072C414.76 245.372 418.56 246.332 420.56 250.072C422.318 253.811 423.01 257.964 422.56 262.072C421.967 268.038 420.768 273.929 418.98 279.652C418.24 282.332 417.44 285.012 416.56 287.652C416.245 288.559 415.85 289.438 415.454 290.318L415.454 290.318L415.454 290.319L415.454 290.319C415.195 290.893 414.937 291.468 414.7 292.052C414.298 293.05 413.905 294.04 413.513 295.024L413.51 295.033C412.695 297.083 411.89 299.107 411.04 301.132C410.774 301.774 410.441 302.391 410.109 303.008C409.84 303.505 409.572 304.003 409.34 304.512C408.629 306.329 406.711 307.369 404.8 306.972C402.616 306.772 400.454 306.377 398.34 305.792C395.234 304.856 392.159 303.799 389.084 302.743L389.084 302.743L389.078 302.741C387.819 302.308 386.56 301.876 385.3 301.452C384.547 301.198 383.797 300.93 383.046 300.662L383.046 300.662C381.663 300.168 380.28 299.674 378.88 299.272C374.222 297.901 369.749 295.967 365.56 293.512ZM455.18 303.032C455.808 293.982 455.834 285.074 455.86 276.194C455.879 269.806 455.897 263.433 456.14 257.032C455.884 257.167 455.654 257.28 455.444 257.383C455.095 257.553 454.802 257.697 454.54 257.872C453.572 258.553 452.6 259.232 451.628 259.912L451.625 259.914L451.623 259.915L451.621 259.917L451.618 259.919L451.616 259.92L451.613 259.922L451.613 259.922L451.613 259.922L451.613 259.922L451.612 259.923L451.612 259.923L451.612 259.923L451.611 259.923L451.611 259.923L451.611 259.924L451.611 259.924L451.61 259.924L451.61 259.924L451.61 259.924C449.533 261.376 447.453 262.83 445.4 264.312C442.057 266.738 438.721 269.173 435.386 271.607L435.377 271.613C431.075 274.753 426.774 277.892 422.46 281.012C421.432 281.732 420.672 282.773 420.3 283.972C418.429 290.149 416.151 296.196 413.48 302.072C413.229 302.667 413.029 303.283 412.88 303.912L455.18 303.032ZM280.12 158.072C280.787 157.438 281.421 156.77 282.02 156.072C283.06 158.352 283.08 158.732 281.66 160.032C277.82 163.298 273.94 166.545 270.02 169.772C265.782 173.209 261.544 176.614 257.291 180.031L257.284 180.036L257.276 180.043L256.02 181.052C254.874 181.972 253.752 182.854 252.619 183.745L252.618 183.746C251.044 184.983 249.449 186.236 247.74 187.632C246.937 188.287 246.128 188.935 245.319 189.583L245.317 189.585L245.317 189.585C243.165 191.309 241.014 193.032 238.98 194.892C235.446 198.024 231.66 200.861 227.66 203.372C221.153 207.598 214.487 211.512 207.66 215.112C205.48 216.252 203.28 217.332 201.06 218.392C200.419 218.702 199.749 218.95 199.06 219.132C194.309 220.446 189.48 221.455 184.6 222.152C182.338 222.394 180.05 222.135 177.9 221.392C176.194 220.777 175.021 219.202 174.92 217.392C174.542 214.467 174.914 211.494 176 208.752C178.629 201.693 182.101 194.978 186.34 188.752C188.189 185.956 190.278 183.281 192.367 180.605C193.237 179.49 194.107 178.375 194.96 177.252C195.174 177.03 195.408 176.829 195.66 176.652C196.032 177.28 196.39 177.891 196.737 178.483C197.231 179.325 197.702 180.129 198.16 180.892C197.749 181.574 197.335 182.235 196.927 182.884L196.927 182.885C195.985 184.386 195.08 185.83 194.34 187.352C192.615 190.739 191.492 194.4 191.02 198.172C190.637 200.49 190.972 202.869 191.98 204.992C192.749 206.566 194.246 207.659 195.98 207.912C198.618 208.46 201.342 208.46 203.98 207.912C204.88 207.687 205.78 207.535 206.68 207.382C207.78 207.197 208.88 207.011 209.98 206.692C212.279 206.018 214.525 205.176 216.7 204.172C220.12 202.592 223.56 200.952 226.84 199.072C231.34 196.472 236.06 193.692 240.06 190.852C240.456 190.571 240.853 190.289 241.251 190.007L241.251 190.007L241.251 190.007L241.251 190.007L241.251 190.007L241.251 190.007L241.252 190.007L241.252 190.006L241.252 190.006L241.252 190.006L241.252 190.006L241.252 190.006L241.252 190.006C244.874 187.439 248.564 184.823 252.06 182.012C257.94 177.332 263.68 172.472 269.4 167.612C272.186 165.239 274.901 162.785 277.617 160.329L277.619 160.328C278.452 159.575 279.285 158.822 280.12 158.072ZM401.46 278.072L367.88 259.052C367.76 266.572 367.88 273.912 368.36 281.412L399.6 290.752C400.101 287.405 400.564 284.241 401.049 280.936L401.05 280.93L401.057 280.883L401.059 280.864C401.191 279.966 401.324 279.057 401.46 278.132V278.072ZM371.28 257.452L371.46 256.952L404.72 256.552C404.264 262.839 403.233 269.072 401.64 275.172C391.507 269.278 381.387 263.372 371.28 257.452ZM425.62 255.572L425.62 255.629L425.54 255.632L425.62 255.572ZM425.62 255.629C426.183 255.611 426.746 255.593 427.308 255.575C436.144 255.292 444.742 255.017 453.48 255.392C442.92 262.612 432.46 269.832 422.16 277.592C422.26 276.972 422.36 276.372 422.48 275.752C422.735 274.367 422.992 272.981 423.25 271.594L423.253 271.578C423.965 267.741 424.68 263.896 425.34 260.052C425.516 258.584 425.61 257.107 425.62 255.629ZM388.58 387.432L374.44 392.352L367.86 375.772C370.84 374.126 373.968 373.117 377.103 372.106C378.996 371.496 380.892 370.885 382.76 370.132L388.58 387.432ZM198.82 184.59L198.82 184.59C198.407 185.191 198.002 185.781 197.68 186.412C196.042 189.585 194.786 192.942 193.94 196.412C193.49 198.434 193.49 200.53 193.94 202.552C194.071 204.004 195.227 205.151 196.68 205.272C197.796 205.467 198.928 205.555 200.06 205.532C205.312 205.264 210.465 203.995 215.24 201.792C215.606 201.56 215.948 201.292 216.26 200.992C215.306 200.077 214.345 199.18 213.389 198.29L213.389 198.29L213.388 198.29C211.378 196.417 209.396 194.57 207.58 192.632C205.439 190.347 203.337 187.948 201.16 185.464C200.612 184.838 200.059 184.207 199.5 183.572C199.28 183.92 199.049 184.256 198.821 184.588L198.82 184.589L198.82 184.59ZM387.98 394.912C388.625 393.796 389.595 392.903 390.76 392.352C392.819 397.516 392.106 402.602 391.388 407.721L391.387 407.728C391.296 408.375 391.205 409.023 391.12 409.672V407.372C391.072 406.311 390.951 405.256 390.76 404.212C390.38 402.552 389.54 402.272 388.2 403.272C387.42 403.872 386.7 404.572 385.98 405.272C384.6 406.632 383.28 407.952 381.98 409.272C379.547 411.799 376.26 413.332 372.76 413.572C370.693 413.692 368.609 413.652 366.524 413.612C365.482 413.592 364.44 413.572 363.4 413.572C362.617 413.451 361.851 413.236 361.12 412.932C361.683 410.357 363.479 408.225 365.92 407.232C366.224 407.123 366.556 407.123 366.86 407.232C369.971 408.338 373.4 408.114 376.34 406.612C379.967 404.892 383.067 402.233 385.32 398.912C386.001 397.97 386.629 396.998 387.258 396.024L387.262 396.017C387.5 395.648 387.739 395.279 387.98 394.912ZM424.76 417.332L436.86 414.432C436.08 409.512 435.34 404.892 434.58 400.252L421.42 402.912L421.692 404.075L421.698 404.099L421.699 404.107C422.74 408.562 423.75 412.885 424.76 417.292V417.332ZM413.34 440.272C412.954 440.305 412.566 440.305 412.18 440.272V440.232C412.613 438.609 413.641 437.21 415.06 436.312C415.44 436.092 416.2 436.092 416.78 436.092C420.053 436.176 423.3 435.491 426.26 434.092C429.407 432.457 431.997 429.922 433.7 426.812C434.812 424.212 436.493 421.895 438.62 420.032C439.625 422.383 440.239 424.883 440.44 427.432C440.794 429.796 440.988 432.181 441.02 434.572C440.964 434.28 440.909 433.988 440.854 433.696C440.633 432.528 440.412 431.36 440.14 430.192C440.121 430.102 440.102 430.01 440.082 429.916C439.884 428.948 439.656 427.838 438.58 427.692C437.501 427.545 436.957 428.569 436.49 429.449L436.451 429.522C436.42 429.58 436.39 429.636 436.36 429.692C435.686 430.839 435.129 432.052 434.7 433.312C434.134 435.162 432.598 436.553 430.7 436.932C427.26 437.872 423.76 438.672 420.26 439.372C418.625 439.702 416.969 439.877 415.308 440.053C414.652 440.123 413.996 440.192 413.34 440.272ZM437.36 416.352L434.36 417.172C433.404 417.434 432.45 417.701 431.501 417.967L431.501 417.967L431.501 417.967C429.769 418.452 428.052 418.932 426.36 419.372C426.181 419.416 426.018 419.453 425.871 419.487C424.546 419.794 424.47 419.811 424.2 421.612C423.751 425.754 421.869 429.609 418.88 432.512C418.619 432.83 418.379 433.164 418.16 433.512C418.585 433.427 418.975 433.359 419.34 433.296C420.007 433.181 420.592 433.08 421.16 432.912C425.5 431.692 429.36 429.812 431.54 425.532C431.721 425.187 431.927 424.856 432.133 424.523L432.134 424.522C432.383 424.121 432.632 423.718 432.84 423.292C433.817 421.31 435.335 419.645 437.22 418.492C438.1 417.952 438 417.352 437.36 416.352ZM379.88 400.912C377.328 403.696 373.648 405.168 369.88 404.912C373.246 402.827 375.101 398.984 374.64 395.052C375.993 394.534 377.339 394.017 378.679 393.503L378.683 393.501C382.155 392.169 385.592 390.85 389.04 389.552C389.106 389.525 389.217 389.622 389.348 389.737L389.348 389.737C389.414 389.795 389.486 389.858 389.56 389.912L389.5 389.969L389.5 389.97L389.498 389.971C388.383 391.048 387.363 392.032 386.42 393.132C385.554 394.147 384.707 395.178 383.859 396.209C382.555 397.797 381.25 399.384 379.88 400.912ZM367.88 303.872H384.1V303.612L367.86 297.612L367.88 303.872ZM388.5 405.372C388.71 408.441 388.71 411.522 388.5 414.592H379.02L388.5 405.372Z" fill="white"/>
<path fill-rule="evenodd" clip-rule="evenodd" d="M434.232 181.854H448.992H449.052L449.225 181.844C451.349 181.728 453.49 181.61 455.612 181.454C458.112 181.274 458.812 180.614 458.932 178.154C459.192 172.794 459.432 167.474 459.572 162.154C459.639 159.913 459.617 157.689 459.595 155.471C459.583 154.364 459.572 153.259 459.572 152.154V147.374C459.444 144.398 459.265 141.422 459.086 138.445C459.041 137.702 458.996 136.958 458.952 136.214C458.76 128.065 457.414 119.985 454.952 112.214C453.853 108.663 452.236 105.293 450.152 102.214C447.072 98.094 443.812 94.094 440.412 90.094C436.816 85.9693 432.631 82.3976 427.992 79.494C422.57 76.0812 416.573 73.6822 410.292 72.414C405.612 71.3805 400.824 70.9105 396.032 71.014C388.837 71.2457 381.711 72.5051 374.872 74.754C370.551 76.1219 366.393 77.9596 362.472 80.234C353.745 85.5497 346.366 92.8124 340.912 101.454C337.182 107.379 334.717 114.011 333.672 120.934C332.537 127.153 331.809 133.44 331.492 139.754C331.312 144.674 331.152 149.594 331.152 154.514C331.152 157.841 331.367 161.153 331.581 164.462C331.612 164.933 331.642 165.403 331.672 165.874C331.84 168.826 332.078 171.603 332.321 174.434L332.372 175.034C332.458 176.002 332.566 177.011 332.672 178.005C332.814 179.331 332.952 180.631 333.032 181.774L333.037 181.848C333.173 183.783 333.197 184.134 335.172 184.134H345.352C348.845 184.05 352.337 183.936 355.832 183.822C359.842 183.691 363.854 183.56 367.872 183.474H382.412C385.74 183.404 389.074 183.286 392.407 183.168L392.408 183.168L392.411 183.168L392.413 183.168C394.788 183.084 397.162 183.001 399.532 182.934C401.56 182.869 403.588 182.83 405.614 182.791C407.984 182.746 410.351 182.7 412.712 182.614C414.765 182.543 416.828 182.437 418.883 182.33L418.884 182.33C420.893 182.227 422.895 182.123 424.872 182.054C427.992 181.854 431.112 181.854 434.232 181.854ZM384.652 150.994C384.842 151.051 385.023 151.132 385.192 151.234C384.415 151.601 383.659 151.94 382.913 152.274L382.91 152.275L382.909 152.275C381.91 152.722 380.928 153.162 379.932 153.654C378.255 154.601 376.662 155.692 375.172 156.914C372.683 159.194 371.335 162.462 371.492 165.834C371.306 170.794 373.629 175.515 377.672 178.394C378.095 178.704 378.469 179.034 378.967 179.475L378.968 179.476L378.968 179.476L378.968 179.476C379.177 179.661 379.407 179.864 379.672 180.094L335.752 181.374C335.536 180.634 335.376 179.878 335.272 179.114C335.136 176.592 335.035 174.081 334.933 171.564C334.9 170.748 334.867 169.932 334.832 169.114C334.761 167.351 334.684 165.594 334.607 163.836C334.426 159.71 334.245 155.582 334.132 151.374C334.1 150.154 334.174 148.928 334.248 147.7C334.31 146.672 334.372 145.643 334.372 144.614C334.403 143.868 334.427 143.114 334.451 142.356C334.522 140.146 334.594 137.898 334.832 135.694C335.098 133.107 335.501 130.539 335.903 127.971C336.077 126.866 336.25 125.761 336.412 124.654C336.502 124.024 336.597 123.399 336.692 122.774C336.787 122.149 336.882 121.524 336.972 120.894C337.49 117.404 338.438 113.992 339.792 110.734C343.332 101.754 349.572 94.854 356.612 88.534C361.895 84.1476 367.906 80.7223 374.372 78.414C378.628 76.706 383.095 75.5824 387.652 75.074C390.112 74.9414 392.575 75.2392 394.932 75.954C401.292 77.629 407.361 80.2589 412.932 83.754C416.433 85.8117 419.723 88.21 422.752 90.914C424.219 92.1407 425.59 93.4779 426.852 94.914C429.1 97.5357 431.21 100.273 433.172 103.114C434.702 105.446 435.995 107.925 437.032 110.514C438.854 114.655 440.144 119.009 440.872 123.474C441.262 126.373 441.502 129.29 441.592 132.214C441.602 132.662 441.612 133.109 441.622 133.554V133.554V133.554C441.733 138.592 441.841 143.463 441.712 148.774C441.635 151.985 441.433 155.196 441.232 158.407C441.071 160.976 440.91 163.545 440.812 166.114C440.712 169.894 440.712 173.693 440.712 177.493V177.494V178.514C438.065 178.767 435.4 178.784 432.744 178.801C430.563 178.816 428.387 178.83 426.232 178.974C422.546 179.221 418.859 179.349 415.163 179.477H415.163L415.157 179.477C414.063 179.515 412.968 179.553 411.872 179.594L396.872 180.034C397.431 179.448 397.887 179.002 398.305 178.593L398.306 178.592L398.306 178.592C398.501 178.401 398.688 178.219 398.872 178.034C401.345 175.669 403.022 172.594 403.672 169.234C404.48 164.777 402.974 160.215 399.672 157.114C397.44 154.601 394.552 152.759 391.332 151.794C391.269 151.781 391.214 151.72 391.105 151.601C391.043 151.532 390.962 151.444 390.852 151.334C391.056 151.295 391.24 151.251 391.412 151.21C391.765 151.126 392.07 151.054 392.392 151.054C397.216 150.486 401.882 148.985 406.132 146.634C407.131 146.054 408.143 145.483 409.157 144.91C411.152 143.785 413.157 142.653 415.092 141.434C417.037 140.164 418.9 138.775 420.672 137.274C422.292 135.904 422.696 133.569 421.632 131.734C420.21 129.47 418.387 127.484 416.252 125.874C414.854 124.776 413.387 123.773 411.92 122.768L411.919 122.768L411.919 122.768C411.141 122.235 410.362 121.702 409.592 121.154C406.786 119.105 403.575 117.68 400.172 116.974C396.658 116.266 393.105 115.765 389.532 115.474C387.204 115.369 384.871 115.563 382.592 116.054C376.319 117.348 370.419 120.042 365.332 123.934C363.064 125.627 360.941 127.513 358.823 129.396L358.822 129.396L358.822 129.396C358.213 129.937 357.604 130.478 356.992 131.014C356.035 131.908 355.152 132.877 354.352 133.914C354.11 134.151 353.974 134.475 353.974 134.814C353.974 135.153 354.11 135.477 354.352 135.714C355.009 136.439 355.725 137.108 356.492 137.714C360.628 141.052 365.037 144.036 369.672 146.634C371.83 147.599 374.04 148.44 376.292 149.154C378.983 150.144 381.795 150.763 384.652 150.994ZM397.311 122.082L397.311 122.083L397.311 122.083C397.652 123.713 397.979 125.278 398.332 126.834C398.838 129.185 398.749 131.626 398.072 133.934C397.487 136.646 395.855 139.017 393.532 140.534C390.335 142.613 386.625 143.769 382.812 143.874C378.887 144.209 375.044 142.612 372.512 139.594C371.595 138.456 370.804 137.222 370.152 135.914C368.669 133.45 367.933 130.608 368.032 127.734C368.074 127.068 368.074 126.4 368.032 125.734C364.032 127.994 358.692 132.674 357.632 134.834C358.296 135.321 358.971 135.807 359.652 136.298L359.653 136.299L359.654 136.299C360.51 136.916 361.374 137.539 362.232 138.174C365.55 140.729 369.171 142.865 373.012 144.534C375.505 145.629 378.106 146.461 380.772 147.014C384.479 147.839 388.296 148.055 392.072 147.654C394.647 147.402 397.173 146.782 399.572 145.814C403.052 144.314 406.432 142.594 409.792 140.874C412.668 139.436 415.355 137.65 417.792 135.554C418.236 135.153 418.7 134.783 419.236 134.356L419.236 134.356C419.449 134.186 419.673 134.007 419.912 133.814C419.161 132.884 418.36 131.997 417.512 131.154C415.512 129.414 413.512 127.754 411.352 126.074C407.718 123.026 403.447 120.832 398.852 119.654C398.158 119.537 397.456 119.464 396.752 119.434C396.946 120.34 397.13 121.22 397.311 122.082ZM375.592 171.634C374.833 170.217 374.415 168.641 374.372 167.034C374.352 162.874 375.672 159.274 379.672 157.134C381.107 156.217 382.596 155.389 384.132 154.654C387.977 153.24 392.289 154.072 395.332 156.814C396.589 157.795 397.724 158.923 398.712 160.174C401.073 163.218 401.756 167.241 400.532 170.894C399.292 175.734 392.352 180.634 386.532 179.994C385.198 179.902 383.916 179.437 382.832 178.654C379.988 176.803 377.53 174.419 375.592 171.634Z" fill="white"/>
<path fill-rule="evenodd" clip-rule="evenodd" d="M422.939 230.072L418.059 228.352L418.139 227.892C419.151 228.167 420.18 228.375 421.219 228.512C421.534 228.554 421.854 228.664 422.17 228.773C422.898 229.023 423.601 229.265 424.159 228.652C423.999 226.992 423.999 225.632 423.999 224.272C424.025 223.819 424.272 223.408 424.659 223.172C426.203 222.704 426.378 221.559 426.566 220.324L426.566 220.323C426.595 220.134 426.625 219.943 426.659 219.752C425.589 219.19 424.434 218.815 423.256 218.432C421.373 217.821 419.434 217.191 417.699 215.752C424.119 218.092 426.179 218.492 427.699 217.532C426.599 217.058 425.489 216.614 424.382 216.171L424.382 216.171C422.448 215.397 420.523 214.627 418.679 213.712C417.541 213.147 416.347 212.717 415.14 212.283C413.272 211.61 411.373 210.927 409.599 209.712C409.98 209.535 410.345 209.372 410.692 209.217L410.692 209.217L410.692 209.217C411.367 208.915 411.978 208.642 412.519 208.352C412.611 208.302 412.706 208.254 412.802 208.206L412.802 208.206C413.559 207.822 414.356 207.419 414.019 206.212C413.129 205.948 412.435 206.314 411.745 206.678C411.335 206.894 410.927 207.11 410.479 207.192L411.699 205.012L411.359 204.592C410.768 204.728 410.192 204.922 409.639 205.172C409.328 205.35 409.06 205.608 408.791 205.867C408.575 206.075 408.359 206.283 408.119 206.452C407.904 206.597 407.692 206.75 407.48 206.904C406.407 207.678 405.325 208.459 403.839 208.292C399.219 207.718 394.643 209.655 391.839 213.372C391.097 214.298 389.942 214.793 388.759 214.692L388.129 214.692H388.129H388.129C385.394 214.69 382.635 214.689 379.979 214.912C377.119 215.152 376.739 215.832 377.119 218.692C377.128 218.758 377.128 218.825 377.119 218.892C377.861 224.122 380.763 228.802 385.119 231.792C386.653 232.74 388.242 233.595 389.879 234.352C389.604 238.31 389.819 242.287 390.519 246.192C390.849 247.82 391.532 249.356 392.519 250.692C393.619 252.192 394.019 252.172 395.619 251.172C398.419 249.412 401.259 247.652 404.159 246.032C407.053 244.554 409.623 242.514 411.719 240.032C412.618 238.884 413.622 237.812 414.58 236.791L414.58 236.791L414.58 236.791L414.58 236.791C415.007 236.335 415.424 235.89 415.819 235.452C416.234 235.601 416.651 235.758 417.052 235.91L417.052 235.91L417.052 235.91L417.052 235.91L417.052 235.91C417.889 236.226 418.658 236.517 419.199 236.652C419.999 236.852 421.059 237.112 421.499 236.132C421.822 235.413 421.295 235.103 420.738 234.776C420.536 234.657 420.33 234.536 420.159 234.392C420.548 234.195 420.916 233.961 421.259 233.692C421.479 233.432 421.719 232.892 421.599 232.712C421.352 232.351 420.97 232.106 420.539 232.032C420.074 232.067 419.619 232.189 419.199 232.392L416.719 233.132L417.219 229.852C417.667 229.942 418.102 230.062 418.531 230.181C419.999 230.586 421.391 230.97 422.939 230.072ZM415.219 230.052C415.237 231.007 415.197 231.962 415.099 232.912C414.863 233.056 414.607 233.164 414.339 233.232C409.883 233.226 405.452 233.901 401.199 235.232C398.205 235.939 395.102 236.068 392.059 235.612C392.002 235.298 391.977 234.974 391.952 234.658C391.901 233.987 391.853 233.353 391.499 232.932C391.151 232.517 390.543 232.344 389.838 232.143C389.489 232.044 389.116 231.937 388.739 231.792C389.168 231.515 389.616 231.268 390.079 231.052C391.687 230.383 393.098 229.316 394.179 227.952C394.699 227.312 394.899 226.672 393.879 225.952C393.733 226.069 393.581 226.187 393.425 226.308C393.048 226.6 392.653 226.906 392.299 227.232C390.855 228.528 389.085 229.406 387.179 229.772C386.403 230.015 385.557 229.841 384.939 229.312C382.367 227.035 380.523 224.051 379.639 220.732C381.462 220.315 382.81 218.774 382.979 216.912C383.595 216.881 384.21 216.843 384.825 216.804H384.825H384.825L384.825 216.804C386.21 216.718 387.595 216.632 388.979 216.632C390.497 216.724 391.972 216.111 392.979 214.972C395.351 212.147 398.831 210.49 402.519 210.432C401.926 211.192 401.41 212.009 400.979 212.872C399.967 215.5 400.674 218.479 402.759 220.372C405.837 223.506 409.404 226.12 413.319 228.112C413.755 228.282 414.165 228.511 414.539 228.792C414.901 229.123 415.141 229.567 415.219 230.052ZM423.919 220.912L423.86 220.886L423.879 220.872L423.919 220.912ZM423.86 220.886L422.739 220.392C422.161 220.129 421.571 219.885 420.98 219.641C418.876 218.772 416.768 217.901 415.159 216.152C414.653 215.725 414.087 215.375 413.479 215.112C413.006 214.832 412.528 214.559 412.051 214.285L412.05 214.285L412.05 214.285C411.095 213.738 410.139 213.192 409.219 212.592C408.205 211.828 406.944 211.465 405.679 211.572C404.774 211.636 403.94 212.084 403.386 212.802C402.832 213.52 402.611 214.44 402.779 215.332C403.038 217.269 404.126 218.999 405.759 220.072C410.411 222.912 415.441 225.08 420.699 226.512C421.128 226.593 421.563 226.633 421.999 226.632L421.997 226.389C421.975 224.303 421.954 222.31 423.86 220.886ZM395.179 249.212L394.159 249.872V249.832C392.37 246.182 391.564 242.129 391.819 238.072C392.194 237.992 392.576 237.952 392.959 237.952C396.683 238.135 400.412 237.709 403.999 236.692C405.961 236.24 407.933 235.858 409.907 235.476C410.731 235.316 411.555 235.157 412.379 234.992C412.799 234.961 413.22 234.961 413.639 234.992C412.87 235.765 412.134 236.555 411.405 237.337C408.969 239.949 406.617 242.472 403.399 244.012C400.573 245.605 397.83 247.341 395.179 249.212Z" fill="white"/>
<path fill-rule="evenodd" clip-rule="evenodd" d="M190.582 331.832C190.621 331.452 190.66 331.072 190.7 330.692C191.094 325.327 188.544 320.172 184.04 317.232C180.54 314.612 176.54 314.652 172.54 315.232C170.675 315.467 168.915 316.222 167.46 317.412C163.326 320.784 160.901 325.817 160.84 331.152C160.64 335.992 163.04 339.632 166.36 342.852C167.535 344.051 169.05 344.861 170.7 345.172C173.296 345.957 176.052 346.06 178.7 345.472C179.08 345.368 179.468 345.294 179.86 345.252C185.047 344.385 189.16 340.407 190.2 335.252C190.35 334.112 190.466 332.972 190.582 331.832ZM185.76 323.252C187.179 325.134 187.887 327.458 187.76 329.812C187.635 331.042 187.549 332.271 187.462 333.521C187.422 334.08 187.383 334.643 187.34 335.212C186.736 338.393 184.43 340.983 181.34 341.952C177.877 343.451 173.965 343.537 170.44 342.192C170.181 342.125 169.932 342.024 169.7 341.892C166.3 339.232 162.7 334.932 164.02 329.452C164.489 326.531 165.694 323.779 167.52 321.452C168.311 320.484 169.309 319.705 170.44 319.172C173.537 317.885 176.98 317.695 180.2 318.632C182.552 319.446 184.528 321.088 185.76 323.252Z" fill="white"/>
<path d="M129.26 123.352C130.125 123.454 130.878 123.989 131.26 124.772C133.26 127.632 135.38 130.492 137.26 133.412C140.28 137.932 143.26 142.472 146.16 147.092C149.84 153.092 153.36 159.092 156.94 165.092C157.08 165.332 157.14 165.592 157.28 165.812C157.68 166.452 157.82 167.132 157.16 167.592C156.5 168.052 155.76 167.592 155.32 166.992C154.3 165.672 153.32 164.332 152.44 162.992C149.02 157.472 145.58 151.952 142.26 146.372C138.94 140.792 135.84 135.352 132.64 129.852C131.64 128.132 130.64 126.392 129.7 124.672C129.529 124.24 129.382 123.799 129.26 123.352Z" fill="white"/>
<path d="M243.321 243.452C242.872 244.522 242.121 245.439 241.161 246.092C236.181 250.092 231.161 254.312 226.201 258.292C221.782 262.079 217.104 265.555 212.201 268.692C211.989 268.85 211.769 268.997 211.541 269.132C211.015 269.486 210.303 269.352 209.941 268.832C209.696 268.589 209.571 268.248 209.602 267.904C209.633 267.56 209.816 267.247 210.101 267.052C211.341 266.072 212.621 265.052 213.881 264.152C217.221 261.632 220.541 259.072 223.881 256.592C226.441 254.592 229.061 252.892 231.661 251.032L241.901 243.772C242.277 243.539 242.664 243.325 243.061 243.132L243.321 243.452Z" fill="white"/>
<path d="M149.62 203.092L148.18 200.832C148.5 200.552 148.74 200.192 149.06 200.112C149.628 199.962 150.081 199.532 150.26 198.972C150.7 197.952 151.66 197.872 152.26 198.812C152.914 199.585 153.076 200.66 152.68 201.592C152.2 202.452 151.78 203.412 150.48 203.152C150.18 203.112 149.88 203.112 149.62 203.092Z" fill="white"/>
<path d="M174.94 113.132C174.365 114.289 173.3 115.126 172.04 115.412C171.26 113.992 170.74 112.712 172.04 111.312C172.62 110.632 173.04 110.572 173.58 111.312C174.12 112.052 174.38 112.352 174.94 113.132Z" fill="white"/>
<path d="M204.959 239.312C204.959 240.252 203.799 241.312 203.059 240.992C202.382 240.66 201.777 240.198 201.279 239.632C201.279 239.632 201.279 239.032 201.499 238.932C202.179 238.552 202.259 237.952 202.399 237.272C202.54 236.925 202.837 236.665 203.199 236.572C203.566 236.619 203.891 236.833 204.079 237.152C204.41 237.856 204.704 238.577 204.959 239.312Z" fill="white"/>
<path d="M262.38 251.472L260.74 249.932L262.52 247.352L264.36 247.732C265.04 250.232 265.04 250.232 262.38 251.472Z" fill="white"/>
<path d="M194.479 293.612C193.824 293.796 193.155 293.93 192.479 294.012C191.339 294.012 190.859 293.312 191.179 292.172C191.379 291.492 191.639 290.832 191.859 290.172C194.079 290.692 194.299 290.952 194.479 293.612Z" fill="white"/>
<path d="M172.64 165.812L172.4 163.632L174.52 161.632L176.06 163.472C175.686 165.011 174.211 166.02 172.64 165.812Z" fill="white"/>
<path d="M162.701 85.1118L164.561 86.6318C164.561 87.8318 163.701 88.3518 163.041 89.0318C162.381 89.7118 161.961 89.9118 161.501 89.3318C161.124 88.8129 160.986 88.1586 161.121 87.5318C161.551 86.6664 162.081 85.8542 162.701 85.1118V85.1118Z" fill="white"/>
<path d="M208.96 348.352C207.5 347.232 208.28 345.712 208.12 344.452C208.12 344.292 209.1 343.772 209.18 343.852C209.826 344.463 210.373 345.172 210.8 345.952C210.96 346.252 210.66 346.932 210.36 347.272C209.941 347.689 209.471 348.052 208.96 348.352Z" fill="white"/>
<path d="M130.239 135.231L131.819 137.391C131.159 139.271 130.559 139.691 128.499 139.751C127.879 137.891 129.359 136.831 130.239 135.231Z" fill="white"/>
<path d="M158.14 309.572C157.28 312.152 156.32 312.412 154.58 310.452C155.26 309.792 154.86 308.452 156.14 308.092C157.42 307.732 157.56 309.012 158.14 309.572Z" fill="white"/>
<path d="M124.66 174.812C124.18 177.392 124.12 177.052 121.92 177.372C120.96 176.072 120.98 176.092 121.92 175.012C122.336 174.48 122.724 173.926 123.08 173.352L124.66 174.812Z" fill="white"/>
<path d="M121.52 345.292C122.46 344.912 123.24 344.632 123.72 345.772C124.206 346.815 123.868 348.058 122.92 348.712C122.616 348.847 122.263 348.82 121.984 348.638C121.705 348.456 121.538 348.145 121.54 347.812C121.46 346.992 121.52 346.132 121.52 345.292Z" fill="white"/>
<path d="M401.099 87.7314C400.579 88.8165 399.704 89.6915 398.619 90.2114C393.899 93.1914 389.199 96.2114 384.379 99.0714C380.379 101.471 376.119 103.611 371.979 105.851C371.739 105.971 371.459 106.171 371.239 106.111C370.762 105.979 370.3 105.798 369.859 105.571C370.039 105.191 370.099 104.631 370.379 104.431C372.01 103.279 373.699 102.211 375.439 101.231C382.459 97.4514 389.439 93.7514 396.579 90.0514C397.879 89.3114 399.359 88.6114 401.099 87.7314Z" fill="white"/>
<path d="M349.42 120.551C349.42 119.611 349.42 118.731 349.58 117.851C349.74 116.971 350.1 116.831 350.78 116.911C351.46 116.991 353.1 118.451 353.12 119.171C353.107 119.618 352.945 120.048 352.66 120.391C351.789 121.287 350.375 121.356 349.42 120.551Z" fill="white"/>
<path d="M360.621 89.6519L362.981 90.6519C362.76 91.8844 361.976 92.9429 360.861 93.5119C360.701 93.6319 359.981 93.2919 359.781 92.9919C358.941 91.7519 359.101 91.2519 360.621 89.6519Z" fill="white"/>
<path d="M413.54 153.811L412.26 152.191C412.48 151.751 412.66 151.351 412.9 150.971C413.42 150.071 414.16 149.771 414.78 150.131C415.401 150.645 415.653 151.48 415.42 152.251C415.166 153.104 414.424 153.719 413.54 153.811Z" fill="white"/>
<path d="M350.841 159.672C352.681 160.712 353.201 161.452 352.841 162.412C352.481 163.372 351.621 163.612 349.561 162.812L350.841 159.672Z" fill="white"/>
<path d="M414.101 94.4515C413.481 95.3915 413.681 96.6315 412.461 96.7915C411.241 96.9515 410.901 96.2115 410.461 95.3115L412.041 92.8315L414.101 94.4515Z" fill="white"/>
<path d="M434.42 173.032L436.96 170.052C437.16 171.212 437.34 172.052 437.4 172.712C437.46 173.372 437.4 174.072 436.6 174.332C435.968 174.619 435.222 174.376 434.88 173.772C434.76 173.552 434.62 173.352 434.42 173.032Z" fill="white"/>
<path d="M398.459 216.532C397.894 216.984 397.268 217.355 396.599 217.632C396.268 217.694 395.927 217.591 395.684 217.357C395.442 217.122 395.328 216.785 395.379 216.452C395.394 216.118 395.546 215.806 395.801 215.589C396.055 215.373 396.388 215.272 396.719 215.312C397.219 215.392 397.659 215.932 398.459 216.532Z" fill="white"/>
<defs>
<linearGradient id="paint0_linear_402_8760" x1="-174.5" y1="-232" x2="276.5" y2="575" gradientUnits="userSpaceOnUse">
<stop stop-color="#312A51"/>
<stop offset="0.546875" stop-color="#010517"/>
</linearGradient>
<linearGradient id="paint1_linear_402_8760" x1="434.04" y1="255.231" x2="434.04" y2="304.771" gradientUnits="userSpaceOnUse">
<stop stop-color="#F2E1B3"/>
<stop offset="1" stop-color="#EAA5AB"/>
</linearGradient>
<linearGradient id="paint2_linear_402_8760" x1="438.179" y1="254.132" x2="438.179" y2="279.992" gradientUnits="userSpaceOnUse">
<stop stop-color="#F2E1B3"/>
<stop offset="1" stop-color="#EAA5AB"/>
</linearGradient>
<linearGradient id="paint3_linear_402_8760" x1="386.49" y1="255.231" x2="386.49" y2="291.291" gradientUnits="userSpaceOnUse">
<stop stop-color="#F2E1B3"/>
<stop offset="1" stop-color="#EAA5AB"/>
</linearGradient>
</defs>
</svg>
