<svg width="36" height="36" viewBox="0 0 36 36" fill="none" xmlns="http://www.w3.org/2000/svg">
<mask id="mask0_316_8296" style="mask-type:alpha" maskUnits="userSpaceOnUse" x="0" y="0" width="36" height="36">
<rect width="36" height="36" fill="#D9D9D9"/>
</mask>
<g mask="url(#mask0_316_8296)">
<path d="M18.0076 30C17.1867 30 16.484 29.7063 15.8994 29.1188C15.3148 28.5312 15.0225 27.825 15.0225 27C15.0225 26.175 15.3148 25.4688 15.8994 24.8813C16.484 24.2938 17.1867 24 18.0076 24C18.8286 24 19.5313 24.2938 20.1159 24.8813C20.7005 25.4688 20.9928 26.175 20.9928 27C20.9928 27.825 20.7005 28.5312 20.1159 29.1188C19.5313 29.7063 18.8286 30 18.0076 30ZM18.0076 21C17.1867 21 16.484 20.7063 15.8994 20.1188C15.3148 19.5313 15.0225 18.825 15.0225 18C15.0225 17.175 15.3148 16.4688 15.8994 15.8813C16.484 15.2938 17.1867 15 18.0076 15C18.8286 15 19.5313 15.2938 20.1159 15.8813C20.7005 16.4688 20.9928 17.175 20.9928 18C20.9928 18.825 20.7005 19.5313 20.1159 20.1188C19.5313 20.7063 18.8286 21 18.0076 21ZM18.0076 12C17.1867 12 16.484 11.7063 15.8994 11.1188C15.3148 10.5312 15.0225 9.825 15.0225 9C15.0225 8.175 15.3148 7.46875 15.8994 6.88125C16.484 6.29375 17.1867 6 18.0076 6C18.8286 6 19.5313 6.29375 20.1159 6.88125C20.7005 7.46875 20.9928 8.175 20.9928 9C20.9928 9.825 20.7005 10.5312 20.1159 11.1188C19.5313 11.7063 18.8286 12 18.0076 12Z" fill="#E6E6E6"/>
</g>
</svg>
