<svg width="1920" height="1080" viewBox="0 0 1920 1080" fill="none" xmlns="http://www.w3.org/2000/svg">
<g clip-path="url(#clip0_101_17)">
<rect width="1920" height="1080" fill="#010517"/>
<rect opacity="0.1" x="-286" y="1192.86" width="1707.37" height="820.049" rx="253" transform="rotate(-76.68 -286 1192.86)" fill="url(#paint0_linear_101_17)"/>
<rect opacity="0.5" x="1558" y="1556.65" width="1618.49" height="506" rx="253" transform="rotate(-60 1558 1556.65)" fill="url(#paint1_linear_101_17)"/>
<g clip-path="url(#clip1_101_17)">
<path opacity="0.2" d="M150.8 310.8V483.6C150.8 502.533 155.733 517.067 165.6 527.2C175.467 537.067 189.333 542 207.2 542C225.333 542 239.333 537.067 249.2 527.2C259.067 517.067 264 502.533 264 483.6V310.8H320.4V483.2C320.4 506.933 315.2 527.067 304.8 543.6C294.667 559.867 280.933 572.133 263.6 580.4C246.533 588.667 227.467 592.8 206.4 592.8C185.6 592.8 166.667 588.667 149.6 580.4C132.8 572.133 119.467 559.867 109.6 543.6C99.7333 527.067 94.8 506.933 94.8 483.2V310.8H150.8ZM497.306 365.2C523.706 365.2 545.04 373.6 561.306 390.4C577.573 406.933 585.706 430.133 585.706 460V590H529.706V467.6C529.706 450 525.306 436.533 516.506 427.2C507.706 417.6 495.706 412.8 480.506 412.8C465.04 412.8 452.773 417.6 443.706 427.2C434.906 436.533 430.506 450 430.506 467.6V590H374.506V368.4H430.506V396C437.973 386.4 447.44 378.933 458.906 373.6C470.64 368 483.44 365.2 497.306 365.2ZM788.959 211.2L680.959 662.4H626.159L734.159 211.2H788.959ZM977.491 590L915.891 481.2H889.491V590H833.491V310.8H938.291C959.891 310.8 978.291 314.667 993.491 322.4C1008.69 329.867 1020.02 340.133 1027.49 353.2C1035.22 366 1039.09 380.4 1039.09 396.4C1039.09 414.8 1033.76 431.467 1023.09 446.4C1012.42 461.067 996.557 471.2 975.491 476.8L1042.29 590H977.491ZM889.491 439.2H936.291C951.491 439.2 962.824 435.6 970.291 428.4C977.757 420.933 981.491 410.667 981.491 397.6C981.491 384.8 977.757 374.933 970.291 368C962.824 360.8 951.491 357.2 936.291 357.2H889.491V439.2ZM1295.74 474.4C1295.74 482.4 1295.21 489.6 1294.14 496H1132.14C1133.47 512 1139.07 524.533 1148.94 533.6C1158.81 542.667 1170.94 547.2 1185.34 547.2C1206.14 547.2 1220.94 538.267 1229.74 520.4H1290.14C1283.74 541.733 1271.47 559.333 1253.34 573.2C1235.21 586.8 1212.94 593.6 1186.54 593.6C1165.21 593.6 1146.01 588.933 1128.94 579.6C1112.14 570 1098.94 556.533 1089.34 539.2C1080.01 521.867 1075.34 501.867 1075.34 479.2C1075.34 456.267 1080.01 436.133 1089.34 418.8C1098.67 401.467 1111.74 388.133 1128.54 378.8C1145.34 369.467 1164.67 364.8 1186.54 364.8C1207.61 364.8 1226.41 369.333 1242.94 378.4C1259.74 387.467 1272.67 400.4 1281.74 417.2C1291.07 433.733 1295.74 452.8 1295.74 474.4ZM1237.74 458.4C1237.47 444 1232.27 432.533 1222.14 424C1212.01 415.2 1199.61 410.8 1184.94 410.8C1171.07 410.8 1159.34 415.067 1149.74 423.6C1140.41 431.867 1134.67 443.467 1132.54 458.4H1237.74ZM1322.22 478.4C1322.22 456 1326.62 436.133 1335.42 418.8C1344.48 401.467 1356.62 388.133 1371.82 378.8C1387.28 369.467 1404.48 364.8 1423.42 364.8C1439.95 364.8 1454.35 368.133 1466.62 374.8C1479.15 381.467 1489.15 389.867 1496.62 400V368.4H1553.02V590H1496.62V557.6C1489.42 568 1479.42 576.667 1466.62 583.6C1454.08 590.267 1439.55 593.6 1423.02 593.6C1404.35 593.6 1387.28 588.8 1371.82 579.2C1356.62 569.6 1344.48 556.133 1335.42 538.8C1326.62 521.2 1322.22 501.067 1322.22 478.4ZM1496.62 479.2C1496.62 465.6 1493.95 454 1488.62 444.4C1483.28 434.533 1476.08 427.067 1467.02 422C1457.95 416.667 1448.22 414 1437.82 414C1427.42 414 1417.82 416.533 1409.02 421.6C1400.22 426.667 1393.02 434.133 1387.42 444C1382.08 453.6 1379.42 465.067 1379.42 478.4C1379.42 491.733 1382.08 503.467 1387.42 513.6C1393.02 523.467 1400.22 531.067 1409.02 536.4C1418.08 541.733 1427.68 544.4 1437.82 544.4C1448.22 544.4 1457.95 541.867 1467.02 536.8C1476.08 531.467 1483.28 524 1488.62 514.4C1493.95 504.533 1496.62 492.8 1496.62 479.2ZM1593.31 478.4C1593.31 456 1597.71 436.133 1606.51 418.8C1615.58 401.467 1627.84 388.133 1643.31 378.8C1658.78 369.467 1675.98 364.8 1694.91 364.8C1709.31 364.8 1723.04 368 1736.11 374.4C1749.18 380.533 1759.58 388.8 1767.31 399.2V294H1824.11V590H1767.31V557.2C1760.38 568.133 1750.64 576.933 1738.11 583.6C1725.58 590.267 1711.04 593.6 1694.51 593.6C1675.84 593.6 1658.78 588.8 1643.31 579.2C1627.84 569.6 1615.58 556.133 1606.51 538.8C1597.71 521.2 1593.31 501.067 1593.31 478.4ZM1767.71 479.2C1767.71 465.6 1765.04 454 1759.71 444.4C1754.38 434.533 1747.18 427.067 1738.11 422C1729.04 416.667 1719.31 414 1708.91 414C1698.51 414 1688.91 416.533 1680.11 421.6C1671.31 426.667 1664.11 434.133 1658.51 444C1653.18 453.6 1650.51 465.067 1650.51 478.4C1650.51 491.733 1653.18 503.467 1658.51 513.6C1664.11 523.467 1671.31 531.067 1680.11 536.4C1689.18 541.733 1698.78 544.4 1708.91 544.4C1719.31 544.4 1729.04 541.867 1738.11 536.8C1747.18 531.467 1754.38 524 1759.71 514.4C1765.04 504.533 1767.71 492.8 1767.71 479.2Z" fill="#FDC1C5"/>
</g>
</g>
<defs>
<linearGradient id="paint0_linear_101_17" x1="-277.199" y1="2037.46" x2="919.056" y2="2243.19" gradientUnits="userSpaceOnUse">
<stop stop-color="#FDC1C5" stop-opacity="0"/>
<stop offset="0.734375" stop-color="#FDC1C5"/>
</linearGradient>
<linearGradient id="paint1_linear_101_17" x1="1566.34" y1="2077.8" x2="2657.68" y2="2366.13" gradientUnits="userSpaceOnUse">
<stop stop-color="#FDC1C5" stop-opacity="0"/>
<stop offset="0.734375" stop-color="#FDC1C5"/>
</linearGradient>
<clipPath id="clip0_101_17">
<rect width="1920" height="1080" fill="white"/>
</clipPath>
<clipPath id="clip1_101_17">
<rect width="1920" height="1080" fill="white"/>
</clipPath>
</defs>
</svg>
