<svg width="36" height="36" viewBox="0 0 36 36" fill="none" xmlns="http://www.w3.org/2000/svg">
<mask id="mask0_316_8308" style="mask-type:alpha" maskUnits="userSpaceOnUse" x="0" y="0" width="36" height="36">
<rect width="36" height="36" fill="#D9D9D9"/>
</mask>
<g mask="url(#mask0_316_8308)">
<path d="M9 30C8.575 30 8.21875 29.8563 7.93125 29.5688C7.64375 29.2812 7.5 28.925 7.5 28.5V19.5H6C5.575 19.5 5.21875 19.3563 4.93125 19.0688C4.64375 18.7813 4.5 18.425 4.5 18C4.5 17.575 4.64375 17.2188 4.93125 16.9312C5.21875 16.6438 5.575 16.5 6 16.5H12C12.425 16.5 12.7812 16.6438 13.0688 16.9312C13.3562 17.2188 13.5 17.575 13.5 18C13.5 18.425 13.3562 18.7813 13.0688 19.0688C12.7812 19.3563 12.425 19.5 12 19.5H10.5V28.5C10.5 28.925 10.3563 29.2812 10.0688 29.5688C9.78125 29.8563 9.425 30 9 30ZM9 13.5C8.575 13.5 8.21875 13.3563 7.93125 13.0688C7.64375 12.7812 7.5 12.425 7.5 12V7.5C7.5 7.075 7.64375 6.71875 7.93125 6.43125C8.21875 6.14375 8.575 6 9 6C9.425 6 9.78125 6.14375 10.0688 6.43125C10.3563 6.71875 10.5 7.075 10.5 7.5V12C10.5 12.425 10.3563 12.7812 10.0688 13.0688C9.78125 13.3563 9.425 13.5 9 13.5ZM15 13.5C14.575 13.5 14.2188 13.3563 13.9312 13.0688C13.6438 12.7812 13.5 12.425 13.5 12C13.5 11.575 13.6438 11.2188 13.9312 10.9313C14.2188 10.6438 14.575 10.5 15 10.5H16.5V7.5C16.5 7.075 16.6438 6.71875 16.9313 6.43125C17.2188 6.14375 17.575 6 18 6C18.425 6 18.7813 6.14375 19.0688 6.43125C19.3563 6.71875 19.5 7.075 19.5 7.5V10.5H21C21.425 10.5 21.7812 10.6438 22.0688 10.9313C22.3563 11.2188 22.5 11.575 22.5 12C22.5 12.425 22.3563 12.7812 22.0688 13.0688C21.7812 13.3563 21.425 13.5 21 13.5H15ZM18 30C17.575 30 17.2188 29.8563 16.9313 29.5688C16.6438 29.2812 16.5 28.925 16.5 28.5V18C16.5 17.575 16.6438 17.2188 16.9313 16.9312C17.2188 16.6438 17.575 16.5 18 16.5C18.425 16.5 18.7813 16.6438 19.0688 16.9312C19.3563 17.2188 19.5 17.575 19.5 18V28.5C19.5 28.925 19.3563 29.2812 19.0688 29.5688C18.7813 29.8563 18.425 30 18 30ZM27 30C26.575 30 26.2188 29.8563 25.9313 29.5688C25.6438 29.2812 25.5 28.925 25.5 28.5V25.5H24C23.575 25.5 23.2188 25.3563 22.9313 25.0688C22.6438 24.7812 22.5 24.425 22.5 24C22.5 23.575 22.6438 23.2188 22.9313 22.9313C23.2188 22.6438 23.575 22.5 24 22.5H30C30.425 22.5 30.7812 22.6438 31.0687 22.9313C31.3562 23.2188 31.5 23.575 31.5 24C31.5 24.425 31.3562 24.7812 31.0687 25.0688C30.7812 25.3563 30.425 25.5 30 25.5H28.5V28.5C28.5 28.925 28.3563 29.2812 28.0688 29.5688C27.7812 29.8563 27.425 30 27 30ZM27 19.5C26.575 19.5 26.2188 19.3563 25.9313 19.0688C25.6438 18.7813 25.5 18.425 25.5 18V7.5C25.5 7.075 25.6438 6.71875 25.9313 6.43125C26.2188 6.14375 26.575 6 27 6C27.425 6 27.7812 6.14375 28.0688 6.43125C28.3563 6.71875 28.5 7.075 28.5 7.5V18C28.5 18.425 28.3563 18.7813 28.0688 19.0688C27.7812 19.3563 27.425 19.5 27 19.5Z" fill="white"/>
</g>
</svg>
