<svg width="298" height="201" viewBox="0 0 298 201" fill="none" xmlns="http://www.w3.org/2000/svg">
<path d="M28.1774 196.56H31.2073C31.0355 195.665 30.8883 194.855 30.7289 194.046C30.2259 191.322 29.7843 188.587 29.2078 185.876C28.7049 183.521 28.067 181.202 27.4659 178.872C26.788 176.688 26.3761 174.431 26.2393 172.15C26.2393 170.923 26.2393 169.696 26.1411 168.47C26.1386 167.329 26.3768 166.2 26.8403 165.158C27.1225 164.434 27.5518 163.808 28.3982 163.82C28.8134 163.807 29.2235 163.916 29.577 164.134C29.9305 164.352 30.2117 164.67 30.3854 165.047C30.7267 165.741 30.899 166.506 30.8883 167.28C30.7588 171.29 31.6404 175.267 33.4521 178.847L33.7833 179.559C33.9427 177.866 34.1513 176.271 34.2249 174.652C34.4319 172.34 34.9222 170.061 35.6846 167.868C36.5597 164.868 37.7954 161.985 39.3646 159.282C39.6523 158.789 40.0028 158.335 40.4073 157.932C40.5734 157.722 40.7968 157.565 41.0506 157.479C41.3043 157.393 41.5774 157.383 41.8369 157.449C42.0964 157.515 42.3312 157.655 42.5129 157.852C42.6945 158.049 42.8153 158.294 42.8606 158.558C43.1772 159.916 43.0832 161.338 42.5907 162.643C42.051 164.9 41.4867 167.157 40.9347 169.402C40.4117 172.166 40.4534 175.008 41.0574 177.755C41.4658 180.413 41.5933 183.106 41.4377 185.79C41.3641 187.287 41.4377 188.795 41.2659 190.292C41.1433 192.083 40.9347 193.862 40.763 195.64C40.763 195.836 40.763 196.045 40.763 196.376H50.0734C53.1523 196.376 56.2067 196.376 59.3347 196.376C62.4627 196.376 65.4681 196.266 68.4979 196.376C71.5278 196.487 74.6313 196.082 77.7593 196.376C77.7593 197.002 77.4894 197.149 77.0723 197.161C74.7539 197.247 72.4355 197.394 70.1049 197.419C68.4121 197.419 66.7192 197.272 65.0142 197.259C64.0819 197.259 63.1497 197.382 62.2174 197.431C60.267 197.517 58.3166 197.64 56.3539 197.664C53.1401 197.664 49.9262 197.664 46.7001 197.664C42.5417 197.664 38.371 197.603 34.2126 197.664C32.0905 197.664 29.9806 197.897 27.8707 197.983C25.7609 198.069 23.7982 198.094 21.7374 198.143C21.1241 198.143 20.5107 198.143 19.8974 198.143C19.4803 198.143 19.051 198.032 18.6707 197.983C18.1365 198.168 17.5862 198.304 17.027 198.388C16.1438 198.388 15.2483 198.388 14.3529 198.388C14.1934 198.388 14.0462 198.204 13.8867 198.106C14.0094 197.922 14.1075 197.64 14.267 197.603C14.8229 197.471 15.3894 197.389 15.9598 197.358C18.4131 197.235 20.8665 197.149 23.4057 197.026C23.662 196.999 23.9161 196.954 24.1662 196.891C23.9699 195.922 23.7491 195.015 23.6142 194.107C23.3811 192.365 23.1849 190.635 23.0131 188.894C22.7956 187.599 22.3513 186.353 21.7006 185.214C21.1118 183.987 20.4739 182.858 19.8115 181.681C19.7363 181.533 19.6787 181.376 19.6398 181.215C19.5417 180.687 19.4803 180.123 19.971 179.755C20.4617 179.387 21.0137 179.755 21.4185 180.025C21.9408 180.414 22.4001 180.882 22.7801 181.411C24.4922 183.759 25.7755 186.392 26.5705 189.188C26.7903 190.091 27.0648 190.98 27.3923 191.85C27.7674 193.039 27.9334 194.284 27.883 195.53C27.9272 195.886 28.0265 196.234 28.1774 196.56ZM41.3763 158.411C40.9838 158.963 40.6403 159.355 40.3827 159.797C38.9175 162.389 37.7175 165.122 36.8009 167.954C36.1891 169.547 35.7131 171.188 35.3779 172.861C35.0467 174.811 35.0222 176.811 34.875 178.786C34.8137 179.632 34.7401 180.491 34.7278 181.337C34.7112 182.107 34.744 182.878 34.8259 183.643C34.9118 184.49 35.0835 185.336 35.2307 186.17C35.4393 187.458 35.6723 188.746 35.8931 190.034C36.1507 191.592 36.4329 193.15 36.6782 194.708C36.7641 195.223 36.7886 195.738 36.8254 196.204C39.0702 196.781 39.1683 196.72 39.2787 194.904C39.6082 194.611 39.8431 194.227 39.9534 193.8C40.0883 192.34 40.1128 190.881 40.1742 189.409C40.2355 187.937 40.2969 186.084 40.3705 184.428C40.4537 183.745 40.4947 183.056 40.4931 182.368C40.3827 180.736 40.26 179.105 40.0024 177.461C39.3271 173.508 39.5493 169.454 40.6526 165.599C41.1187 163.992 41.4867 162.361 41.8793 160.692C42.0075 160.302 42.0285 159.884 41.94 159.483C41.8516 159.081 41.6569 158.711 41.3763 158.411ZM35.4638 196.438C35.6395 196.155 35.7504 195.836 35.7886 195.505C35.8268 195.175 35.7912 194.839 35.6846 194.524C35.0713 191.163 34.4579 187.802 33.8323 184.428C33.1358 181.419 32.2131 178.467 31.0723 175.596C30.6069 174.17 30.2743 172.704 30.0787 171.217C29.907 169.831 30.0787 168.396 29.9561 166.998C29.8835 166.361 29.6421 165.755 29.2569 165.243C28.6926 164.507 28.1161 164.63 27.8707 165.526C27.5314 166.615 27.3093 167.738 27.2083 168.874C27.1549 172.013 27.5683 175.143 28.435 178.16C28.9257 180.062 29.5267 181.938 29.907 183.852C30.4467 186.636 30.827 189.458 31.2686 192.255C31.5017 193.678 31.6979 195.1 31.9065 196.438H35.4638ZM27.3433 196.634C27.3433 196.094 27.3433 195.616 27.2206 195.137C27.0979 194.659 27.0489 194.107 26.9385 193.592C26.6931 192.488 26.5214 191.359 26.1779 190.292C25.8345 189.225 25.2334 188.059 24.8041 186.931C24.1051 185.121 23.1598 183.416 21.995 181.865C21.6736 181.399 21.2271 181.033 20.707 180.81C20.9641 181.759 21.3788 182.659 21.9337 183.472C23.0905 185.295 23.793 187.368 23.9822 189.519C24.0633 191.426 24.3554 193.319 24.8531 195.162C25.2579 196.388 25.8713 196.83 27.3433 196.646V196.634Z" fill="black"/>
<path d="M280.102 182.934C280.409 182.235 280.666 181.511 281.022 180.837C281.709 179.5 282.445 178.175 283.169 176.862C284.158 174.841 284.781 172.661 285.009 170.422C285.303 168.325 285.647 166.239 286.101 164.166C286.312 163.388 286.674 162.658 287.168 162.02C287.317 161.787 287.535 161.607 287.791 161.504C288.047 161.4 288.329 161.379 288.598 161.442C288.867 161.505 289.11 161.65 289.293 161.857C289.476 162.063 289.591 162.322 289.621 162.596C289.889 163.623 290.041 164.676 290.075 165.737C290.153 168.595 289.776 171.448 288.959 174.188C288.94 174.38 288.94 174.573 288.959 174.765C289.344 174.465 289.755 174.198 290.185 173.967C290.572 173.785 290.987 173.668 291.412 173.624C292.16 173.624 292.418 173.869 292.528 174.605C292.578 175.792 292.321 176.971 291.78 178.028C290.771 180.292 290.034 182.668 289.584 185.106C289.381 186.733 289.282 188.372 289.29 190.012C289.174 191.759 288.845 193.485 288.309 195.152C288.223 195.495 288.137 195.851 288.002 196.379L290.762 196.514L296.503 196.71C297.006 196.71 297.509 196.71 297.729 197.495C297.378 197.64 297.012 197.747 296.638 197.814C295.497 197.887 294.356 197.949 293.215 197.912C289.057 197.765 284.898 197.544 280.74 197.434C277.649 197.348 274.607 197.434 271.479 197.335C268.866 197.335 266.253 197.176 263.64 197.127C261.028 197.078 258.427 197.127 255.814 197.004C252.674 197.004 249.534 196.845 246.393 196.783C243.584 196.783 240.775 196.783 237.966 196.783C237.77 196.783 237.512 196.857 237.365 196.783C237.136 196.662 236.964 196.455 236.887 196.207C236.887 196.06 237.218 195.741 237.414 195.741C239.156 195.655 240.91 195.594 242.664 195.581C244.652 195.581 246.651 195.581 248.638 195.581C253.116 195.679 257.605 195.814 262.132 195.925C265.186 195.998 268.265 196.06 271.307 196.109C271.552 196.083 271.795 196.033 272.031 195.962C272.092 195.047 272.092 194.129 272.031 193.214C271.777 191.347 271.987 189.447 272.644 187.682C272.963 186.798 273.245 185.903 273.527 185.007C274.021 183.265 273.978 181.414 273.405 179.696C272.889 177.905 272.178 176.163 271.65 174.372C271.373 173.264 271.152 172.142 270.988 171.011C270.982 170.975 270.982 170.937 270.988 170.901C271.098 170.214 271.111 169.404 271.847 169.11C272.2 169.001 272.58 169.014 272.925 169.147C273.27 169.281 273.56 169.527 273.748 169.846C276.345 172.739 278.246 176.188 279.305 179.929C279.562 180.947 279.759 181.965 279.98 182.996L280.102 182.934ZM286.775 196.428C286.91 196.109 287.033 195.9 287.119 195.667C288.002 193.215 288.418 190.619 288.345 188.013C288.376 185.738 288.766 183.482 289.498 181.327C290.112 179.402 290.872 177.513 291.522 175.599C291.608 175.341 291.449 174.998 291.412 174.691C291.108 174.713 290.81 174.783 290.529 174.9C289.338 175.772 288.422 176.969 287.892 178.347C287.168 180.248 286.518 182.174 285.843 184.087C284.616 187.767 283.132 191.362 282.789 195.262C282.789 195.446 282.519 195.594 282.2 195.962C282.051 195.53 281.961 195.08 281.93 194.625C282.261 192.735 282.556 190.834 283.034 188.982C283.512 187.13 284.187 185.523 284.764 183.793C285.401 181.867 285.99 179.917 286.677 177.991C287.689 175.145 288.4 172.202 288.799 169.208C289.063 167.515 289.088 165.793 288.873 164.093C288.892 163.781 288.824 163.471 288.677 163.195C288.53 162.92 288.309 162.692 288.039 162.535C287.621 163.241 287.279 163.989 287.021 164.767C286.554 167.086 286.26 169.429 285.794 171.747C285.586 173.113 285.236 174.453 284.751 175.746C283.942 177.66 282.874 179.426 281.979 181.327C281.195 182.805 280.542 184.348 280.029 185.94C279.452 188.135 279.17 190.405 278.802 192.65C278.796 193.297 278.653 193.935 278.383 194.523C278.112 195.111 277.72 195.635 277.232 196.06C277.23 195.605 277.255 195.15 277.305 194.698C277.563 193.3 277.857 191.901 278.127 190.503C278.397 189.105 278.618 187.951 278.826 186.663C278.937 186.023 278.998 185.375 279.01 184.725C278.962 182.815 278.601 180.926 277.943 179.132C276.852 175.967 275.147 173.049 272.926 170.545C272.665 170.298 272.377 170.08 272.068 169.895C271.969 170.297 271.916 170.708 271.908 171.122C271.992 172.014 272.156 172.896 272.399 173.759C272.865 175.268 273.454 176.752 273.981 178.249C274.957 180.914 274.957 183.839 273.981 186.504C273.094 188.575 272.74 190.836 272.951 193.079C273.049 193.839 273.024 194.612 273.086 195.373C273.123 195.589 273.176 195.802 273.245 196.011L286.775 196.428Z" fill="black"/>
<path d="M8.16381 34.5279C9.86642 34.5943 11.5369 35.012 13.0705 35.7546C14.3163 36.2561 15.6244 36.5862 16.959 36.7359C18.7088 36.8335 20.4396 36.3316 21.8657 35.313C23.9577 33.7648 25.9489 32.085 27.8273 30.2836C29.194 29.0079 30.7146 27.9077 32.3537 27.0084C34.4809 25.8709 36.8742 25.3245 39.2844 25.426C40.0449 25.4996 40.8177 25.426 41.5782 25.426C42.6207 25.4804 43.6332 25.7937 44.5242 26.3377C45.4152 26.8817 46.1565 27.6392 46.6811 28.5418C47.5766 29.9402 48.2758 31.4735 49.0486 32.9455C49.2449 33.3012 49.3921 33.6815 49.6129 34.0372C49.9727 34.7462 50.5144 35.347 51.1825 35.778C51.8506 36.2091 52.6212 36.455 53.4155 36.4906C55.6113 36.5764 57.807 36.7727 60.0027 36.9322C62.2602 37.0598 64.4271 37.8633 66.2219 39.2383C67.0268 39.7986 67.6367 40.5962 67.9665 41.5198C68.2964 42.4434 68.3297 43.4469 68.0619 44.3903C67.9342 44.9145 67.6949 45.405 67.3605 45.8284C67.026 46.2517 66.6042 46.598 66.1238 46.8436C64.8444 47.5735 63.4118 47.9936 61.9409 48.0703C59.2299 48.2788 56.519 48.5487 53.8081 48.6959C52.0539 48.794 50.2998 48.6959 48.5579 48.6959C47.7974 48.6959 47.0369 48.8554 46.2641 48.9167C45.6287 48.9961 44.9859 48.9961 44.3505 48.9167C41.8429 48.6163 39.3116 48.567 36.7942 48.7695C32.7953 48.7695 28.7963 48.9412 24.7974 48.978C20.9825 48.978 17.1675 48.978 13.3526 48.978C11.1531 48.9465 8.96249 48.6917 6.81448 48.2175C4.52051 47.6934 2.49919 46.3444 1.13501 44.4271C0.677604 43.7899 0.390248 43.0466 0.300098 42.2675C0.209949 41.4883 0.319987 40.6991 0.619811 39.9743C1.19959 38.4234 2.22526 37.0787 3.56769 36.1096C4.91011 35.1404 6.50927 34.5901 8.16381 34.5279ZM1.49074 41.6303C1.48617 42.682 1.87566 43.6973 2.58248 44.4762C3.70239 45.6725 5.1208 46.549 6.69181 47.0154C8.8172 47.5667 10.9982 47.8753 13.1931 47.9354C15.4257 48.0703 17.6705 47.9354 19.903 47.9354C24.1473 47.9354 28.3916 47.9354 32.6236 47.9354C35.9233 47.9354 39.223 47.8004 42.5227 47.7391C43.2587 47.7391 43.9825 47.825 44.7185 47.8004C46.0555 47.8004 47.4049 47.6042 48.7419 47.6042C50.5697 47.6042 52.4219 47.8004 54.2251 47.7023C56.9115 47.5551 59.5857 47.2852 62.2476 46.9663C63.6768 46.8569 65.044 46.3372 66.1851 45.4698C66.7302 44.9187 67.0672 44.1957 67.1388 43.424C67.2104 42.6523 67.0121 41.8796 66.5777 41.2378C65.5704 40.131 64.3067 39.2886 62.8977 38.7844C61.1494 38.2064 59.3169 37.9245 57.4758 37.9503C56.0897 37.9503 54.7035 37.8399 53.3297 37.7418C52.2849 37.6757 51.2753 37.339 50.4 36.7648C49.5247 36.1906 48.8138 35.3986 48.3371 34.4665C47.4417 32.9209 46.7915 31.2404 45.8838 29.6948C45.4528 28.8133 44.7997 28.0591 43.9889 27.5063C43.1781 26.9536 42.2374 26.6213 41.2593 26.5423C39.1952 26.3279 37.1091 26.5323 35.1259 27.1434C33.7904 27.4861 32.5217 28.0499 31.3723 28.8116C29.3115 30.3817 27.5084 32.2586 25.5211 33.9268C24.0779 35.2823 22.4198 36.389 20.6145 37.202C20.1213 37.3686 19.6112 37.4797 19.0934 37.5332C18.3914 37.7113 17.6709 37.806 16.9467 37.8154C15.1649 37.6121 13.4191 37.1664 11.7579 36.4906C10.5857 36.0133 9.34187 35.7355 8.07795 35.6687C7.05052 35.697 6.04346 35.9619 5.13504 36.4427C4.22662 36.9235 3.44129 37.6073 2.84007 38.441C2.06316 39.3243 1.5902 40.4336 1.49074 41.6057V41.6303Z" fill="black"/>
<path d="M257.888 41.2484C256.085 41.1503 253.484 40.9663 250.884 40.8804C249.179 40.8804 247.461 40.8804 245.756 40.9663C243.72 40.9663 241.696 41.0889 239.623 41.1748C238.396 41.1748 237.268 41.3588 236.09 41.3833C234.41 41.3833 232.741 41.3833 231.073 41.3833C229.405 41.3833 227.577 41.1871 225.835 40.9908C223.993 40.8656 222.255 40.092 220.929 38.8073C220.297 38.0548 219.916 37.1245 219.837 36.1455C219.688 35.0928 219.863 34.0197 220.338 33.0688C220.814 32.1178 221.567 31.3341 222.499 30.8217C223.523 30.2601 224.666 29.9475 225.833 29.9091C227.001 29.8707 228.162 30.1077 229.221 30.6009C230.362 31.018 231.417 31.6681 232.521 32.1711C233.783 32.7503 235.17 33.0074 236.556 32.9193C239.173 32.7318 241.685 31.8138 243.806 30.2697C246.533 28.4444 249.667 27.3194 252.932 26.9945C254.069 26.9103 255.211 27.0055 256.318 27.2767C259.632 28.0896 262.519 30.122 264.402 32.9684C265.518 34.5392 266.032 36.4595 265.849 38.378C265.778 38.9133 265.544 39.414 265.18 39.813C264.817 40.212 264.339 40.4903 263.813 40.6105C261.892 41.176 259.885 41.392 257.888 41.2484ZM235.808 40.2793V40.1076C237.844 40.1076 239.881 40.1076 241.941 40.1076C243.72 40.1076 245.499 40.0095 247.277 39.9359C248.59 39.9359 249.89 39.7273 251.19 39.7764C253.877 39.8868 256.551 40.1321 259.237 40.2425C260.419 40.3084 261.604 40.2384 262.77 40.034C264.463 39.7151 265.015 38.9055 264.905 37.1881C264.795 35.2048 263.914 33.3429 262.451 31.9993C261.638 31.147 260.738 30.3823 259.765 29.7177C257.963 28.6594 255.923 28.074 253.834 28.0161C251.745 27.9582 249.675 28.4296 247.817 29.3865C246.59 29.9263 245.548 30.6132 244.407 31.2879C243.035 32.16 241.58 32.8954 240.065 33.4836C238.558 34.0044 236.957 34.193 235.371 34.0363C233.785 33.8796 232.252 33.3814 230.877 32.5759C229.504 31.6948 227.955 31.1254 226.338 30.9076C225.469 30.7776 224.58 30.8924 223.772 31.239C222.964 31.5857 222.268 32.1505 221.763 32.8703C221.339 33.4112 221.058 34.0493 220.944 34.7266C220.83 35.404 220.887 36.099 221.11 36.7487C221.333 37.3983 221.715 37.9819 222.221 38.4464C222.727 38.9109 223.341 39.2416 224.008 39.4084C225.644 39.8959 227.342 40.1479 229.049 40.1567C231.306 40.1199 233.576 40.218 235.857 40.2793H235.808Z" fill="black"/>
<path d="M283.77 67.6443L274.472 67.399C271.712 67.3254 268.952 67.3009 266.204 67.1414C264.693 67.2095 263.197 66.8205 261.911 66.0251C261.282 65.6381 260.797 65.0553 260.531 64.3661C260.265 63.677 260.233 62.9195 260.439 62.2102C260.697 61.2674 261.203 60.4108 261.904 59.7292C262.605 59.0477 263.476 58.566 264.425 58.3339C264.86 58.206 265.327 58.2409 265.738 58.4321C267.006 59.0604 268.235 59.765 269.418 60.5419C269.772 60.839 270.203 61.0301 270.661 61.093C271.119 61.1559 271.585 61.0882 272.006 60.8977C273.098 60.3947 274.079 59.671 275.159 59.0945C277.735 57.7942 280.397 56.7883 283.365 57.5734C283.914 57.7122 284.434 57.949 284.899 58.2726C286.034 59.0017 286.999 59.966 287.729 61.1003C288.459 62.2346 288.937 63.5125 289.13 64.8475C289.222 65.1767 289.234 65.5229 289.166 65.8577C289.098 66.1925 288.951 66.5064 288.738 66.7734C288.525 67.0404 288.251 67.2531 287.94 67.3938C287.629 67.5346 287.288 67.5994 286.947 67.583C285.904 67.6689 284.837 67.583 283.782 67.583L283.77 67.6443ZM284.997 66.5158V66.6875L286.812 66.5281C287.916 66.4545 288.26 65.8289 288.039 64.7371C287.821 63.4426 287.281 62.2236 286.469 61.1921C284.408 58.5057 282.347 57.8187 279.194 58.7387C277.2 59.3079 275.307 60.1898 273.589 61.3515C272.896 61.8219 272.077 62.0734 271.24 62.0734C270.402 62.0734 269.584 61.8219 268.89 61.3515C268.253 60.9835 267.664 60.5297 267.063 60.1249C266.679 59.8125 266.231 59.5898 265.75 59.4728C265.269 59.3558 264.769 59.3475 264.285 59.4486C263.8 59.5496 263.345 59.7575 262.951 60.057C262.557 60.3565 262.236 60.7401 262.009 61.1798C261.705 61.5557 261.505 62.004 261.427 62.4809C261.349 62.9578 261.396 63.4467 261.565 63.8996C261.733 64.3525 262.016 64.7539 262.387 65.0642C262.757 65.3745 263.202 65.583 263.677 65.6694C264.917 66.0267 266.202 66.2002 267.492 66.1846C269.639 66.1846 271.798 66.295 273.944 66.3441C277.612 66.4177 281.28 66.4913 284.948 66.5526L284.997 66.5158Z" fill="black"/>
<path d="M1.49221 41.6058C1.59166 40.4337 2.06463 39.3244 2.84154 38.441C3.44275 37.6074 4.22808 36.9236 5.13651 36.4428C6.04493 35.962 7.05199 35.6971 8.07941 35.6688C9.34333 35.7356 10.5872 36.0133 11.7594 36.4906C13.4206 37.1665 15.1663 37.6122 16.9482 37.8154C17.6724 37.8061 18.3929 37.7114 19.0949 37.5333C19.6126 37.4798 20.1228 37.3687 20.6159 37.2021C22.4213 36.3891 24.0793 35.2824 25.5226 33.9269C27.5098 32.2586 29.313 30.3818 31.3738 28.8117C32.5398 28.0536 33.8254 27.4979 35.1765 27.168C37.1596 26.5569 39.2457 26.3525 41.3098 26.5669C42.2879 26.646 43.2286 26.9782 44.0394 27.5309C44.8503 28.0837 45.5033 28.8379 45.9343 29.7194C46.8053 31.265 47.4554 32.9456 48.3877 34.4912C48.8643 35.4232 49.5752 36.2152 50.4505 36.7894C51.3258 37.3637 52.3354 37.7003 53.3802 37.7664C54.7541 37.8645 56.1402 37.9749 57.5263 37.9749C59.3675 37.9491 61.2 38.231 62.9482 38.809C64.3572 39.3132 65.6209 40.1556 66.6282 41.2624C67.0626 41.9042 67.2609 42.6769 67.1894 43.4486C67.1178 44.2203 66.7807 44.9434 66.2357 45.4944C65.0946 46.3618 63.7273 46.8815 62.2981 46.9909C59.6362 47.3098 56.9621 47.5797 54.2757 47.7269C52.4602 47.825 50.5957 47.6165 48.7925 47.6288C47.4554 47.6288 46.1061 47.7882 44.769 47.825C44.033 47.825 43.3093 47.7514 42.5733 47.7637C39.2735 47.825 35.9738 47.9354 32.6741 47.96C28.4421 47.96 24.1978 47.96 19.9535 47.96C17.721 47.96 15.4762 48.0581 13.2437 47.96C11.0488 47.8999 8.86774 47.5913 6.74234 47.04C5.17133 46.5736 3.75292 45.6972 2.63301 44.5008C1.89679 43.717 1.48858 42.6811 1.49221 41.6058Z" fill="black"/>
<path d="M235.858 40.2803C233.576 40.2803 231.307 40.1208 229.025 40.1453C227.318 40.1365 225.62 39.8846 223.984 39.3971C223.317 39.2302 222.703 38.8995 222.198 38.435C221.692 37.9705 221.31 37.3869 221.087 36.7373C220.864 36.0877 220.806 35.3926 220.92 34.7153C221.034 34.038 221.316 33.3999 221.739 32.8589C222.244 32.1392 222.94 31.5743 223.748 31.2277C224.556 30.881 225.445 30.7663 226.314 30.8963C227.931 31.1141 229.48 31.6835 230.853 32.5645C232.228 33.37 233.761 33.8682 235.347 34.0249C236.933 34.1816 238.535 33.9931 240.041 33.4723C241.557 32.8841 243.011 32.1487 244.383 31.2765C245.524 30.6632 246.616 29.9149 247.793 29.3752C249.651 28.4183 251.721 27.9469 253.81 28.0048C255.899 28.0627 257.939 28.648 259.741 29.7064C260.714 30.371 261.614 31.1357 262.427 31.988C263.89 33.3316 264.771 35.1935 264.881 37.1768C264.991 38.8941 264.439 39.7037 262.746 40.0227C261.581 40.2271 260.395 40.2971 259.214 40.2312C256.527 40.1208 253.853 39.8755 251.167 39.7651C249.866 39.7651 248.566 39.8755 247.254 39.9245C245.475 39.9981 243.696 40.0717 241.918 40.0963C239.881 40.0963 237.845 40.0963 235.784 40.0963L235.858 40.2803Z" fill="black"/>
<path d="M284.949 66.5532C281.269 66.4918 277.589 66.4428 273.909 66.3569C271.763 66.3569 269.604 66.1361 267.457 66.1974C266.167 66.2131 264.882 66.0395 263.642 65.6822C263.167 65.5959 262.722 65.3873 262.352 65.077C261.981 64.7667 261.698 64.3653 261.53 63.9124C261.362 63.4595 261.314 62.9706 261.392 62.4937C261.47 62.0169 261.67 61.5685 261.974 61.1926C262.201 60.7529 262.523 60.3693 262.916 60.0698C263.31 59.7703 263.765 59.5625 264.25 59.4614C264.734 59.3603 265.235 59.3686 265.715 59.4856C266.196 59.6026 266.644 59.8254 267.028 60.1377C267.641 60.5425 268.255 60.9964 268.856 61.3644C269.549 61.8348 270.367 62.0862 271.205 62.0862C272.042 62.0862 272.861 61.8348 273.554 61.3644C275.273 60.2026 277.165 59.3207 279.16 58.7516C282.312 57.8806 284.373 58.5676 286.434 61.2049C287.246 62.2364 287.786 63.4554 288.004 64.75C288.188 65.8417 287.844 66.4673 286.777 66.5409L284.962 66.7004L284.949 66.5532Z" fill="black"/>
<path d="M210.838 192.069C210.752 190.977 210.74 190.032 210.592 189.112C210.224 186.868 209.807 184.623 209.366 182.378C209.145 181.151 208.973 179.925 208.654 178.698C208.274 177.165 207.796 175.644 207.305 174.135C207.01 173.215 206.581 172.344 206.25 171.436C205.526 169.412 204.827 167.376 204.103 165.364C203.637 164.052 203.159 162.764 202.68 161.463C202.104 159.942 201.625 158.384 200.938 156.912C199.896 154.668 198.645 152.509 197.59 150.264C195.543 146.133 193.232 142.138 190.671 138.304C189.886 137.077 189.015 135.85 188.218 134.697C187.224 133.311 186.255 131.913 185.2 130.576C183.974 129.055 182.747 127.595 181.422 126.111C180.392 124.884 179.41 123.657 178.319 122.529C176.479 120.64 174.59 118.792 172.652 116.984C171.167 115.61 169.573 114.335 168.015 113.022C167.021 112.188 165.966 111.415 164.997 110.569C163.229 108.943 161.781 107 160.728 104.84C160.544 104.485 160.336 103.969 160.041 103.884C159.054 103.395 157.977 103.115 156.877 103.062C156.754 103.307 156.631 103.516 156.545 103.736C155.434 106.453 153.708 108.876 151.504 110.814C149.688 112.384 147.75 113.82 145.922 115.353C144.752 116.297 143.646 117.317 142.61 118.407C140.758 120.394 138.697 122.185 137.005 124.332C135.704 126 134.073 127.386 132.773 129.042C130.65 131.729 128.639 134.477 126.639 137.286C125.265 139.261 124.014 141.321 122.812 143.419C121.5 145.713 120.359 148.08 119.046 150.411C117.298 153.536 115.777 156.783 114.495 160.126C113.269 163.634 111.907 167.143 110.607 170.639C110.276 171.51 109.871 172.344 109.589 173.227C109.208 174.454 108.938 175.742 108.583 176.993C108.399 177.655 108.068 178.281 107.945 178.956C107.368 181.875 106.841 184.807 106.338 187.738C106.166 188.72 106.105 189.726 105.97 190.916H128.442C129.264 190.094 129.988 189.333 130.736 188.622C131.485 187.91 132.241 192.179 133.148 191.406C133.737 190.903 133.535 191.909 134.148 191.406C136.042 189.797 138.47 190.322 140.763 189.362C142.762 188.467 140.1 190.642 142.148 189.906C144.521 189.02 144.147 190.175 146.148 188.622C147.317 187.789 149.628 189.075 150.148 187.738C150.614 186.45 154.828 187.272 155.711 188.29C157.597 190.396 162.39 189.022 166.648 191.026C170.124 192.661 170.705 190.477 174.148 192.113C175.723 192.796 178.39 191.029 179.648 192.196C181.919 194.326 184.469 188.474 185.581 191.382C185.654 191.681 185.837 191.942 186.094 192.113C186.351 192.283 186.662 192.351 186.967 192.302C188.304 192.302 189.641 192.24 190.978 192.216C192.977 192.216 194.977 192.154 196.976 192.154L206.79 192.228L210.838 192.069ZM211.12 9.03764C209.893 8.92724 208.765 8.78004 207.636 8.75551C205.477 8.75551 203.318 8.75551 201.147 8.75551C197.896 8.75551 194.633 8.75551 191.334 8.65738C188.034 8.55925 185.2 8.44885 182.06 8.38751C179.509 8.38751 176.957 8.38751 174.406 8.38751C171.609 8.38751 168.812 8.26485 166.015 8.26485C163.218 8.26485 160.483 8.26484 157.723 8.37524C155.196 8.37524 152.669 8.53471 150.142 8.53471C146.364 8.53471 142.574 8.43657 138.796 8.44884C136.06 8.44884 133.337 8.55924 130.601 8.64511C127.866 8.73098 125.167 8.47338 122.444 8.64511C120.898 8.74324 119.341 8.58378 117.795 8.64511C115.28 8.64511 112.766 8.79231 110.263 8.84137C108.951 8.84137 107.65 8.84137 106.338 8.84137C105.786 8.84137 105.479 9.04991 105.553 9.65098C105.749 11.2211 105.884 12.8158 106.154 14.3736C106.62 17.195 107.246 19.9795 107.65 22.8008C107.969 25.0456 108.938 27.0819 109.356 29.2776C109.633 30.1533 109.977 31.0063 110.386 31.8291C111.097 33.9022 111.846 35.963 112.582 37.9624C113.023 39.1891 113.465 40.4158 113.919 41.6424C114.495 43.2003 114.986 44.8072 115.685 46.3038C116.752 48.5976 118.028 50.7811 119.083 53.0627C120.906 56.7901 122.954 60.4032 125.216 63.8819C126.21 65.4766 127.314 66.9854 128.406 68.5187C129.497 70.052 130.368 71.3032 131.423 72.628C132.478 73.9528 133.877 75.5598 135.103 77.0072C136.158 78.2339 137.164 79.5219 138.28 80.6872C140.161 82.609 142.075 84.4858 144.021 86.3176C145.383 87.5443 146.83 88.771 148.265 89.9977C149.32 90.8809 150.437 91.7027 151.492 92.5859C153.495 94.4961 155.155 96.7368 156.398 99.2099C157.551 99.0136 158.766 98.8787 159.931 98.5721C160.366 98.3718 160.721 98.0302 160.937 97.603C162.058 95.5818 163.523 93.7719 165.267 92.2547C168.064 89.8872 171.057 87.7406 173.67 85.1891C175.723 83.2804 177.642 81.231 179.41 79.0558C181.14 76.8478 183.176 74.8851 184.918 72.7016C186.66 70.5182 188.476 67.9545 190.168 65.5134C191.309 63.8819 192.315 62.1523 193.345 60.435C194.229 58.9753 195.112 57.5032 195.909 55.9822C197.136 53.676 198.228 51.3208 199.454 49.0147C200.725 46.5145 201.807 43.9232 202.693 41.2622C203.294 39.5448 203.919 37.8275 204.533 36.1224C205.045 35.0131 205.479 33.8695 205.833 32.7C206.115 31.4734 206.9 30.4921 207.133 29.2531C207.575 26.947 208.47 24.7512 208.9 22.4083C209.623 18.483 210.396 14.5699 210.752 10.5832C210.936 10.068 211.034 9.60191 211.12 9.03764ZM100.438 192.302C99.211 192.302 98.0702 192.363 96.8926 192.473C94.6601 192.67 92.4275 192.915 90.195 193.148C89.8717 193.19 89.5519 193.255 89.2382 193.344C87.7662 193.774 87.5699 194.056 87.5699 195.589C87.4913 196.11 87.5997 196.643 87.8758 197.092C88.1519 197.541 88.5781 197.877 89.0787 198.042C90.9383 198.646 92.8908 198.912 94.844 198.828C97.1992 198.742 99.5545 198.545 101.91 198.472C104.265 198.398 106.89 198.472 109.368 198.398C111.122 198.398 112.876 198.251 114.63 198.214C116.384 198.177 117.807 198.214 119.39 198.214H126.97C128.136 198.214 129.313 198.214 130.491 198.214C131.914 198.214 133.337 198.042 134.76 198.006C136.759 198.006 138.759 198.006 140.758 198.006H148.965C151.896 198.006 154.84 198.006 157.772 198.006C160.986 198.006 164.2 197.92 167.426 197.932C170.885 197.932 174.344 198.006 177.804 198.079C183.189 198.177 188.561 198.3 193.946 198.41L199.442 198.509C201.552 198.509 203.662 198.509 205.784 198.607C207.354 198.607 208.924 198.766 210.506 198.815C212.089 198.864 213.512 198.815 215.008 198.815C216.799 198.815 218.59 198.962 220.381 198.95C222.172 198.938 224.061 198.852 225.975 198.729C226.783 198.67 227.581 198.517 228.354 198.276C228.726 198.138 229.032 197.867 229.213 197.515C229.37 197.176 229.452 196.807 229.454 196.433C229.457 196.059 229.379 195.689 229.227 195.348C229.075 195.006 228.852 194.701 228.572 194.453C228.293 194.205 227.963 194.019 227.606 193.909C227.103 193.735 226.579 193.628 226.048 193.59C224.589 193.59 223.129 193.59 221.669 193.59C217.891 193.59 214.113 193.504 210.335 193.504C207.121 193.504 203.919 193.59 200.705 193.614C198.338 193.614 195.983 193.614 193.615 193.614C189.739 193.614 185.863 193.749 181.999 193.7C177.472 193.7 172.958 193.467 168.432 193.308C165.635 193.222 162.838 193.013 160.041 192.976C155.957 192.976 151.884 192.976 147.775 192.976C145.211 192.976 142.647 192.976 140.084 192.976C137.115 192.903 134.159 192.78 131.19 192.633C128.737 192.498 126.284 192.154 123.83 192.154C119.046 192.154 114.274 191.983 109.49 192.154C108.436 192.154 107.368 192.154 106.313 192.154C104.277 192.105 102.327 192.228 100.376 192.326L100.438 192.302ZM102.13 1.29738C99.8734 1.42005 98.2787 1.48137 96.6963 1.61631C94.5129 1.80031 92.3171 2.04565 90.1214 2.26645C89.8015 2.31099 89.4857 2.38071 89.1769 2.47498C87.7662 2.89205 87.5945 3.17418 87.5699 4.65844C87.486 5.17374 87.5863 5.70214 87.8532 6.15082C88.1202 6.59949 88.5367 6.93974 89.0297 7.11178C90.8801 7.73882 92.8307 8.01748 94.7827 7.93364C97.1502 7.86004 99.5054 7.63925 101.861 7.56565C104.216 7.49205 106.767 7.56564 109.319 7.49204C110.864 7.49204 112.41 7.34485 113.968 7.33258C117.55 7.33258 121.132 7.33258 124.726 7.23444C126.149 7.23444 127.559 7.14857 128.982 7.13631C130.074 7.13631 131.166 7.22218 132.27 7.20991C135.729 7.14858 139.2 7.00138 142.66 6.97684C147.64 6.97684 152.62 6.97684 157.588 6.97684C161.415 6.97684 165.242 6.97684 169.07 6.97684C171.523 6.97684 174.038 7.14858 176.528 7.16085C179.496 7.16085 182.477 7.06271 185.458 7.07498C187.445 7.07498 189.445 7.25898 191.444 7.28351C194.535 7.28351 197.577 7.28351 200.718 7.36938C203.171 7.36938 205.624 7.52884 208.078 7.61471C210.138 7.68831 212.199 7.73738 214.211 7.84778C216.873 7.99498 219.522 7.47978 222.197 7.84778C223.574 7.95809 224.958 7.93344 226.33 7.77418C227.055 7.70533 227.768 7.54457 228.453 7.29578C228.783 7.14716 229.055 6.89249 229.225 6.57204C229.393 6.23042 229.485 5.85654 229.494 5.47609C229.504 5.09564 229.431 4.71763 229.281 4.36801C229.13 4.01839 228.906 3.70545 228.624 3.45067C228.341 3.1959 228.006 3.00532 227.643 2.89204C227.146 2.7106 226.625 2.59914 226.097 2.56085C224.638 2.56085 223.178 2.56085 221.718 2.56085C218.038 2.56085 214.248 2.46271 210.506 2.45044C205.956 2.45044 201.392 2.45044 196.841 2.45044C191.861 2.45044 186.893 2.65898 181.925 2.63444C177.448 2.63444 172.958 2.41365 168.432 2.26645C165.598 2.16832 162.765 1.97204 159.919 1.92297C156.656 1.86164 153.393 1.92297 150.105 1.92297C147.137 1.92297 144.168 1.98431 141.188 1.92297C138.734 1.92297 136.281 1.92298 133.828 1.76351C131.374 1.60404 128.921 1.28511 126.406 1.16245C123.892 1.03978 121.5 1.01524 118.985 1.00297C115.796 1.00297 112.594 1.00297 109.405 1.00297C106.767 1.19924 104.081 1.27284 102.069 1.32191L102.13 1.29738Z" fill="black"/>
<path d="M175.955 192.216C174.952 192.139 173.469 192.326 172.467 192.215C170.475 191.992 168.444 191.71 166.488 191.384C164.924 191.311 162.004 191.547 162.004 191.547C162.004 191.547 159.368 191.459 159.198 191.384C156.461 191.384 155.029 191.384 155.029 191.384C155.029 191.384 152.217 190.977 150.046 191.168C149.362 191.168 148.377 191.341 147.693 191.384C144.71 191.607 142.722 191.436 139.727 191.547C137.172 191.641 134.618 191.547 132.063 191.547C129.866 191.555 127.264 191.545 125.135 191.168C124.721 191.345 123.909 191.228 123.64 191.168C123.056 191.112 121.132 191.406 120.65 191.168C120.169 190.929 117.661 191.449 117.661 190.818C117.391 190.451 121.542 188.699 121.544 188.286C121.547 187.873 122.59 187.739 122.865 187.373C123.182 186.79 123.334 186.867 123.64 186.276C125.012 184.118 124.677 185.343 126.629 183.417C128.622 182.469 131.612 179.924 132.174 179.543C132.608 179.249 135.681 178.644 138.089 176.64C140.494 174.641 143.078 172.753 145.826 170.985C148.039 169.529 150.153 167.995 152.28 166.479C153.613 165.528 154.945 164.577 156.192 163.583C156.815 163.023 157.386 162.437 157.903 161.826C157.967 161.721 158.068 161.628 158.196 161.557C158.324 161.486 158.476 161.438 158.637 161.417C158.798 161.397 158.964 161.405 159.119 161.44C159.275 161.476 159.416 161.538 159.529 161.621C160.03 161.908 160.488 162.229 160.898 162.58C162.125 163.56 163.435 164.487 164.821 165.356C168.562 167.926 172.559 170.351 176.079 173.067C177.301 174.035 178.719 174.892 179.954 175.851C181.027 176.58 181.986 177.387 182.814 178.259C183.306 178.704 183.832 179.131 184.391 179.535C185.846 180.941 187.251 182.363 188.669 183.819C189.461 184.529 187.884 182.915 188.542 183.688C189.764 185.402 188.829 184.862 189.905 186.575C191.4 188.627 191.385 189.005 191.898 190.024C192.204 190.641 193.891 192.215 190.902 192.215C187.414 192.215 186.814 191.699 183.428 192.213C180.032 192.722 179.419 192.045 175.955 192.216ZM148.589 173.804C149.579 173.05 150.532 172.399 151.363 171.679C153.136 170.137 154.823 168.552 156.595 167.018C157.05 166.604 157.367 166.124 157.524 165.613C157.365 165.613 157.243 165.613 157.218 165.613C154.407 168.184 151.718 170.831 148.576 173.23C148.481 173.315 148.418 173.415 148.393 173.521C148.381 173.573 148.454 173.632 148.589 173.821V173.804ZM166.777 172.776C164.767 170.994 163.034 169.066 161.607 167.027C161.435 167.884 162.89 169.923 165.127 171.962C165.518 172.339 165.885 172.793 166.777 172.793V172.776ZM157.438 171.919C158.078 171.303 158.37 170.543 158.257 169.786C157.328 170.505 157.72 171.302 157.438 171.97V171.919ZM160.861 166.179L161.277 166.787C161.423 166.547 161.643 166.256 160.861 166.23V166.179ZM158.245 168.655H158.587V168.149H158.392L158.245 168.655ZM158.551 169.203L158.257 169.057L157.915 169.494L158.147 169.597L158.551 169.203ZM160.763 165.322L160.58 165.373L160.751 165.716C160.836 165.686 160.917 165.652 160.995 165.613C160.923 165.531 160.846 165.451 160.763 165.373V165.322Z" fill="url(#paint0_linear_405_18251)"/>
<path d="M158.261 100.411C158.307 100.55 158.332 100.695 158.335 100.841C157.472 104.459 155.831 107.845 153.526 110.764C152.189 112.359 150.938 114.015 149.638 115.671C149.441 115.932 149.2 116.156 148.926 116.333C148.708 116.403 148.479 116.428 148.251 116.407C148.251 116.149 148.116 115.818 148.251 115.646C148.703 115.018 149.191 114.416 149.711 113.843C151.502 111.785 153.169 109.622 154.704 107.366C155.714 105.705 156.564 103.951 157.243 102.129C157.488 101.54 157.783 100.902 158.052 100.387L158.261 100.411Z" fill="black"/>
<path d="M161.439 104.004C161.623 104.237 161.82 104.458 161.979 104.703C163.014 106.539 164.204 108.284 165.537 109.916C166.677 111.143 167.855 112.37 168.934 113.744C169.621 114.578 170.161 115.522 170.787 116.406C170.394 116.896 170.087 116.798 169.805 116.467C169.523 116.136 168.996 115.461 168.579 114.958C166.874 112.885 165.107 110.861 163.488 108.727C162.65 107.48 161.9 106.177 161.243 104.826C161.174 104.616 161.136 104.397 161.133 104.176L161.439 104.004Z" fill="black"/>
<path d="M160.938 115.779C160.521 113.779 160.558 111.719 160.312 109.535C160.6 109.645 160.847 109.841 161.02 110.095C161.193 110.349 161.284 110.65 161.282 110.958C161.404 112.381 161.466 113.804 161.515 115.227C161.515 115.423 161.355 115.632 161.257 115.828L160.938 115.779Z" fill="black"/>
<path d="M142.216 36.9805C143.222 37.0909 144.228 37.1645 145.234 37.3239C147.233 37.6429 149.257 37.9127 151.22 38.3789C152.706 38.7864 154.168 39.2779 155.599 39.8509C155.78 39.9396 155.956 40.0379 156.127 40.1453C158.114 41.0653 158.089 40.9794 160.776 39.9981C162.816 39.1871 164.951 38.6388 167.13 38.3666C167.817 38.3666 168.467 38.0109 169.154 37.9495C172.147 37.6306 175.14 37.2503 178.145 37.0909C180.709 36.9559 183.273 37.0909 185.836 37.0909C188.041 37.0793 190.238 37.3472 192.375 37.8882C192.657 37.9618 192.939 38.0109 193.209 38.0967C193.795 38.1765 194.353 38.3965 194.837 38.738C195.32 39.0795 195.713 39.5325 195.984 40.0585C196.255 40.5846 196.395 41.1681 196.392 41.7598C196.39 42.3514 196.244 42.9337 195.969 43.4573C195.65 44.2914 195.208 45.0642 194.902 45.9106C193.525 49.0013 191.844 51.9475 189.884 54.7058C188.756 56.4967 187.627 58.2877 186.376 59.9805C184.119 63.0349 181.838 66.1138 179.421 68.9842C177.008 71.8454 174.414 74.5495 171.656 77.0802C169.436 79.1655 167.314 81.3613 165.179 83.5325C163.842 84.8941 162.505 86.2557 161.254 87.6786C160.629 88.4795 160.055 89.3194 159.537 90.1933C159.472 90.3442 159.371 90.4767 159.242 90.5789C159.114 90.6812 158.962 90.75 158.8 90.7791C158.639 90.8083 158.472 90.7969 158.316 90.7461C158.16 90.6952 158.019 90.6064 157.905 90.4877C157.402 90.0769 156.942 89.6166 156.531 89.1138C155.3 87.7108 153.985 86.3836 152.594 85.1394C148.84 81.4594 144.829 77.9879 141.296 74.0994C140.07 72.7133 138.647 71.4866 137.408 70.1127C136.331 69.0696 135.368 67.914 134.537 66.6658C134.044 66.0279 133.516 65.4177 132.955 64.8381C131.495 62.8263 130.084 60.7901 128.662 58.7047C127.867 57.6887 127.138 56.6235 126.478 55.5154C125.251 53.0621 124.025 50.6087 122.945 48.1554C122.307 46.7447 121.804 45.2727 121.289 43.813C120.983 42.9298 121.289 42.4391 122.062 41.9117C125.055 39.9245 128.478 39.1762 131.875 38.4402C135.284 37.7126 138.739 37.2248 142.216 36.9805ZM159.537 42.8439L160.592 43.4327C162.076 44.1687 163.523 44.9906 165.044 45.6039C166.271 46.1069 167.62 46.3031 168.884 46.7202C170.191 47.1811 171.571 47.3973 172.956 47.3581C174.036 47.3581 175.066 47.9223 176.146 47.5053C177.054 48.1431 178.035 47.7874 178.992 47.7138C181.04 47.5421 183.089 47.3213 185.125 47.125C185.327 47.0947 185.528 47.0538 185.726 47.0023C186.671 46.7938 187.603 46.4871 188.572 46.3645C190.096 46.1189 191.57 45.6302 192.939 44.917C193.625 44.5688 194.278 44.1582 194.889 43.6903C195.208 43.4695 195.441 43.1751 195 42.7458C194.82 42.8089 194.644 42.8826 194.472 42.9666C193.577 43.4205 192.706 43.9479 191.786 44.3159C190.757 44.7112 189.704 45.039 188.633 45.2973C186.578 45.9807 184.442 46.393 182.279 46.5239C180.096 46.5239 177.912 47.0146 175.741 46.6343C174.723 46.4503 173.656 47.0514 172.711 46.3154C171.34 46.2649 169.986 45.9958 168.7 45.5181C167.015 45.2174 165.386 44.6632 163.867 43.8743C162.91 43.3591 161.88 42.9421 160.898 42.4759C160.395 42.1325 159.991 42.2429 159.537 42.8194V42.8439ZM168.884 73.0445C167.89 74.1239 166.934 75.0562 166.099 76.0866C164.321 78.2946 162.628 80.5639 160.849 82.7597C160.393 83.3525 160.074 84.0398 159.917 84.7714C160.076 84.7714 160.199 84.7714 160.224 84.7714C163.045 81.0914 165.744 77.301 168.896 73.8663C168.992 73.745 169.055 73.6015 169.08 73.4493C169.092 73.3757 169.019 73.2898 168.884 73.0199V73.0445ZM150.631 74.5165C152.648 77.0681 154.388 79.8273 155.82 82.7474C155.992 81.5207 154.532 78.6013 152.287 75.6818C151.895 75.1421 151.527 74.4919 150.631 74.4919V74.5165ZM160.003 75.7431C159.361 76.6249 159.068 77.7128 159.181 78.7975C160.113 77.7671 159.721 76.6263 160.003 75.6695V75.7431ZM156.568 83.9618L156.151 83.0909C156.004 83.4343 155.783 83.8514 156.568 83.8882V83.9618ZM159.193 80.4167H158.85V81.1405H159.046L159.193 80.4167ZM158.887 79.6317L159.181 79.8402L159.524 79.2146L159.291 79.0674L158.887 79.6317ZM156.666 85.1885L156.85 85.1149L156.679 84.6242C156.593 84.6674 156.512 84.7166 156.433 84.7714C156.506 84.8894 156.583 85.004 156.666 85.1149V85.1885Z" fill="url(#paint1_linear_405_18251)"/>
<path d="M159.539 42.8181C159.993 42.2415 160.398 42.1311 160.913 42.3642C161.894 42.8303 162.925 43.2474 163.881 43.7626C165.4 44.5515 167.03 45.1057 168.715 45.4063C170.001 45.8841 171.355 46.1532 172.726 46.2037C173.67 46.9397 174.737 46.3386 175.756 46.5226C177.927 46.9029 180.11 46.3877 182.294 46.4122C184.456 46.2813 186.592 45.869 188.648 45.1855C189.719 44.9272 190.772 44.5994 191.8 44.2042C192.72 43.8362 193.591 43.3087 194.487 42.8549C194.658 42.7709 194.834 42.6972 195.014 42.6341C195.456 43.0634 195.223 43.3578 194.904 43.5786C194.293 44.0464 193.64 44.4571 192.953 44.8053C191.585 45.5185 190.11 46.0072 188.587 46.2527C187.617 46.3754 186.685 46.6821 185.741 46.8906C185.543 46.9421 185.342 46.983 185.14 47.0133C183.091 47.2095 181.043 47.4304 179.006 47.6021C178.049 47.6757 177.068 48.0314 176.16 47.3935C175.081 47.8106 174.051 47.1973 172.971 47.2463C171.586 47.2856 170.205 47.0693 168.899 46.6085C167.672 46.1914 166.286 45.9951 165.059 45.4922C163.538 44.8789 162.091 44.057 160.606 43.321L159.539 42.8181Z" fill="black"/>
<path d="M168.885 73.0195C169.02 73.2894 169.093 73.3753 169.081 73.4366C169.056 73.5889 168.993 73.7323 168.897 73.8537C165.745 77.2883 163.046 81.0665 160.225 84.7587C160.225 84.7587 160.077 84.7587 159.918 84.7587C160.075 84.0271 160.394 83.3399 160.85 82.747C162.629 80.5513 164.322 78.2819 166.1 76.0739C166.935 75.0067 167.891 74.099 168.885 73.0195Z" fill="black"/>
<path d="M150.633 74.4922C151.541 74.4922 151.859 75.1423 152.289 75.6575C154.534 78.577 155.969 81.4474 155.822 82.7231C154.389 79.803 152.65 77.0438 150.633 74.4922Z" fill="black"/>
<path d="M160.006 75.668C159.723 76.6248 160.079 77.7656 159.184 78.7224C159.071 77.6377 159.364 76.5497 160.006 75.668Z" fill="black"/>
<path d="M156.57 83.8866C155.785 83.8866 156.006 83.4327 156.153 83.0156L156.57 83.8866Z" fill="black"/>
<path d="M159.193 80.342L159.046 81.1148H158.887V80.293L159.193 80.342Z" fill="black"/>
<path d="M158.887 79.5565L159.292 78.9922L159.525 79.1394L159.181 79.765L158.887 79.5565Z" fill="black"/>
<path d="M156.667 85.1151C156.582 84.9802 156.504 84.841 156.434 84.698C156.512 84.6432 156.594 84.594 156.679 84.5508L156.851 85.0414L156.667 85.1151Z" fill="black"/>
<defs>
<linearGradient id="paint0_linear_405_18251" x1="155.148" y1="192.406" x2="155.148" y2="161.406" gradientUnits="userSpaceOnUse">
<stop stop-color="#F1666C"/>
<stop offset="1" stop-color="#F6AB90"/>
</linearGradient>
<linearGradient id="paint1_linear_405_18251" x1="133.5" y1="83" x2="196" y2="42.5" gradientUnits="userSpaceOnUse">
<stop stop-color="#FCE3BA"/>
<stop offset="1" stop-color="#F0B0B9"/>
</linearGradient>
</defs>
</svg>
