<svg width="1849" height="1002" viewBox="0 0 1849 1002" fill="none" xmlns="http://www.w3.org/2000/svg">
<path d="M625.186 724.495C618.823 728.139 612.716 731.645 606.573 735.085C605.584 735.639 604.235 736.568 603.355 735.258C602.281 733.659 603.887 732.851 604.953 732.213C614.192 726.682 623.811 721.857 633.433 717.043C633.702 716.908 634.147 717.123 635.218 717.277C632.36 720.784 628.498 722.049 625.186 724.495Z" fill="white"/>
<path d="M1487.19 35.4949C1480.82 39.1392 1474.72 42.6448 1468.57 46.0852C1467.58 46.6393 1466.23 47.5684 1465.35 46.2581C1464.28 44.6586 1465.89 43.8508 1466.95 43.2128C1476.19 37.6823 1485.81 32.8575 1495.43 28.0425C1495.7 27.9077 1496.15 28.123 1497.22 28.2766C1494.36 31.7843 1490.5 33.0487 1487.19 35.4949Z" fill="white"/>
<path d="M719.6 668.567C718.501 666.722 718.932 665.491 720.724 665.067C721.778 664.818 723.107 665.253 723.009 666.557C722.876 668.323 721.884 669.502 719.6 668.567Z" fill="white"/>
<path d="M853.515 773.092C853.664 775.068 853.019 776.214 851.115 775.726C850.115 775.47 849.775 774.444 850.146 773.499C850.845 771.72 851.981 771.45 853.515 773.092Z" fill="white"/>
<path d="M1002.51 773.092C1002.66 775.068 1002.02 776.214 1000.12 775.726C999.115 775.47 998.775 774.444 999.146 773.499C999.845 771.72 1000.98 771.45 1002.51 773.092Z" fill="white"/>
<path d="M1155.51 869.092C1155.66 871.068 1155.02 872.214 1153.12 871.726C1152.12 871.47 1151.77 870.444 1152.15 869.499C1152.84 867.72 1153.98 867.45 1155.51 869.092Z" fill="white"/>
<path d="M1314.51 769.092C1314.66 771.068 1314.02 772.214 1312.12 771.726C1311.12 771.47 1310.77 770.444 1311.15 769.499C1311.84 767.72 1312.98 767.45 1314.51 769.092Z" fill="white"/>
<path d="M1473.51 669.092C1473.66 671.068 1473.02 672.214 1471.12 671.726C1470.12 671.47 1469.77 670.444 1470.15 669.499C1470.84 667.72 1471.98 667.45 1473.51 669.092Z" fill="white"/>
<path d="M1386.51 897.092C1386.66 899.068 1386.02 900.214 1384.12 899.726C1383.12 899.47 1382.77 898.444 1383.15 897.499C1383.84 895.72 1384.98 895.45 1386.51 897.092Z" fill="white"/>
<path d="M1617.51 925.092C1617.66 927.068 1617.02 928.214 1615.12 927.726C1614.12 927.47 1613.77 926.444 1614.15 925.499C1614.84 923.72 1615.98 923.45 1617.51 925.092Z" fill="white"/>
<path d="M1848.51 953.092C1848.66 955.068 1848.02 956.214 1846.12 955.726C1845.12 955.47 1844.77 954.444 1845.15 953.499C1845.84 951.72 1846.98 951.45 1848.51 953.092Z" fill="white"/>
<path d="M745.515 931.092C745.664 933.068 745.019 934.214 743.115 933.726C742.115 933.47 741.775 932.444 742.146 931.499C742.845 929.72 743.981 929.45 745.515 931.092Z" fill="white"/>
<path d="M1225.51 811.092C1225.66 813.068 1225.02 814.214 1223.12 813.726C1222.12 813.47 1221.77 812.444 1222.15 811.499C1222.84 809.72 1223.98 809.45 1225.51 811.092Z" fill="white"/>
<path d="M1705.51 691.092C1705.66 693.068 1705.02 694.214 1703.12 693.726C1702.12 693.47 1701.77 692.444 1702.15 691.499C1702.84 689.72 1703.98 689.45 1705.51 691.092Z" fill="white"/>
<path d="M1540.51 775.092C1540.66 777.068 1540.02 778.214 1538.12 777.726C1537.12 777.47 1536.77 776.444 1537.15 775.499C1537.84 773.72 1538.98 773.45 1540.51 775.092Z" fill="white"/>
<path d="M1734.51 811.092C1734.66 813.068 1734.02 814.214 1732.12 813.726C1731.12 813.47 1730.77 812.444 1731.15 811.499C1731.84 809.72 1732.98 809.45 1734.51 811.092Z" fill="white"/>
<path d="M1210.51 943.092C1210.66 945.068 1210.02 946.214 1208.12 945.726C1207.12 945.47 1206.77 944.444 1207.15 943.499C1207.84 941.72 1208.98 941.45 1210.51 943.092Z" fill="white"/>
<path d="M637.775 867.801C634.605 867.731 634.671 865.899 635.444 863.966C635.966 862.661 637.143 862.822 638.084 863.6C639.695 864.931 640.232 866.349 637.775 867.801Z" fill="white"/>
<path d="M580.775 953.801C577.605 953.731 577.671 951.899 578.444 949.966C578.966 948.661 580.143 948.822 581.084 949.6C582.695 950.931 583.232 952.349 580.775 953.801Z" fill="white"/>
<path d="M449.775 977.801C446.605 977.731 446.671 975.899 447.444 973.966C447.966 972.661 449.143 972.822 450.084 973.6C451.695 974.931 452.232 976.349 449.775 977.801Z" fill="white"/>
<path d="M318.775 1001.8C315.605 1001.73 315.671 999.899 316.444 997.966C316.966 996.661 318.143 996.822 319.084 997.6C320.695 998.931 321.232 1000.35 318.775 1001.8Z" fill="white"/>
<path d="M294.775 728.801C291.605 728.731 291.671 726.899 292.444 724.966C292.966 723.661 294.143 723.822 295.084 724.6C296.695 725.931 297.232 727.349 294.775 728.801Z" fill="white"/>
<path d="M437.775 673.801C434.605 673.731 434.671 671.899 435.444 669.966C435.966 668.661 437.143 668.822 438.084 669.6C439.695 670.931 440.232 672.349 437.775 673.801Z" fill="white"/>
<path d="M52.7751 609.801C49.6049 609.731 49.6708 607.899 50.444 605.966C50.9663 604.661 52.143 604.822 53.0841 605.6C54.6946 606.931 55.232 608.349 52.7751 609.801Z" fill="white"/>
<path d="M157.775 572.801C154.605 572.731 154.671 570.899 155.444 568.966C155.966 567.661 157.143 567.822 158.084 568.6C159.695 569.931 160.232 571.349 157.775 572.801Z" fill="white"/>
<path d="M153.775 759.801C150.605 759.731 150.671 757.899 151.444 755.966C151.966 754.661 153.143 754.822 154.084 755.6C155.695 756.931 156.232 758.349 153.775 759.801Z" fill="white"/>
<path d="M52.7751 867.801C49.6049 867.731 49.6708 865.899 50.444 863.966C50.9663 862.661 52.143 862.822 53.0841 863.6C54.6946 864.931 55.232 866.349 52.7751 867.801Z" fill="white"/>
<path d="M7.77514 747.801C4.60491 747.731 4.67078 745.899 5.44396 743.966C5.96634 742.661 7.14299 742.822 8.08407 743.6C9.69463 744.931 10.232 746.349 7.77514 747.801Z" fill="white"/>
<path d="M2.77514 416.801C-0.395091 416.731 -0.329224 414.899 0.443956 412.966C0.966341 411.661 2.14299 411.822 3.08407 412.6C4.69463 413.931 5.23199 415.349 2.77514 416.801Z" fill="white"/>
<path d="M94.7751 355.801C91.6049 355.731 91.6708 353.899 92.444 351.966C92.9663 350.661 94.143 350.822 95.0841 351.6C96.6946 352.931 97.232 354.349 94.7751 355.801Z" fill="white"/>
<path d="M111.775 202.801C108.605 202.731 108.671 200.899 109.444 198.966C109.966 197.661 111.143 197.822 112.084 198.6C113.695 199.931 114.232 201.349 111.775 202.801Z" fill="white"/>
<path d="M367.775 73.8011C364.605 73.7307 364.671 71.8989 365.444 69.9665C365.966 68.6609 367.143 68.8221 368.084 69.6C369.695 70.9314 370.232 72.3494 367.775 73.8011Z" fill="white"/>
<path d="M380.775 9.80112C377.605 9.73073 377.671 7.89895 378.444 5.96645C378.966 4.66085 380.143 4.82208 381.084 5.6C382.695 6.93137 383.232 8.34939 380.775 9.80112Z" fill="white"/>
<path d="M633.775 14.8011C630.605 14.7307 630.671 12.8989 631.444 10.9665C631.966 9.66085 633.143 9.82208 634.084 10.6C635.695 11.9314 636.232 13.3494 633.775 14.8011Z" fill="white"/>
<path d="M888.775 19.8011C885.605 19.7307 885.671 17.8989 886.444 15.9665C886.966 14.6609 888.143 14.8221 889.084 15.6C890.695 16.9314 891.232 18.3494 888.775 19.8011Z" fill="white"/>
<path d="M1143.78 24.8011C1140.6 24.7307 1140.67 22.8989 1141.44 20.9665C1141.97 19.6609 1143.14 19.8221 1144.08 20.6C1145.69 21.9314 1146.23 23.3494 1143.78 24.8011Z" fill="white"/>
<path d="M1017.78 40.8011C1014.6 40.7307 1014.67 38.8989 1015.44 36.9665C1015.97 35.6609 1017.14 35.8221 1018.08 36.6C1019.69 37.9314 1020.23 39.3494 1017.78 40.8011Z" fill="white"/>
<path d="M891.775 56.8011C888.605 56.7307 888.671 54.8989 889.444 52.9665C889.966 51.6609 891.143 51.8221 892.084 52.6C893.695 53.9314 894.232 55.3494 891.775 56.8011Z" fill="white"/>
<path d="M740.775 49.8011C737.605 49.7307 737.671 47.8989 738.444 45.9665C738.966 44.6609 740.143 44.8221 741.084 45.6C742.695 46.9314 743.232 48.3494 740.775 49.8011Z" fill="white"/>
<path d="M1398.78 29.8011C1395.6 29.7307 1395.67 27.8989 1396.44 25.9665C1396.97 24.6609 1398.14 24.8221 1399.08 25.6C1400.69 26.9314 1401.23 28.3494 1398.78 29.8011Z" fill="white"/>
<path d="M1653.78 34.8011C1650.6 34.7307 1650.67 32.8989 1651.44 30.9665C1651.97 29.6609 1653.14 29.8221 1654.08 30.6C1655.69 31.9314 1656.23 33.3494 1653.78 34.8011Z" fill="white"/>
<path d="M1781.78 336.801C1778.6 336.731 1778.67 334.899 1779.44 332.966C1779.97 331.661 1781.14 331.822 1782.08 332.6C1783.69 333.931 1784.23 335.349 1781.78 336.801Z" fill="white"/>
<path d="M1729.78 601.801C1726.6 601.731 1726.67 599.899 1727.44 597.966C1727.97 596.661 1729.14 596.822 1730.08 597.6C1731.69 598.931 1732.23 600.349 1729.78 601.801Z" fill="white"/>
<path d="M1843.78 518.801C1840.6 518.731 1840.67 516.899 1841.44 514.966C1841.97 513.661 1843.14 513.822 1844.08 514.6C1845.69 515.931 1846.23 517.349 1843.78 518.801Z" fill="white"/>
<path d="M1777.78 163.801C1774.6 163.731 1774.67 161.899 1775.44 159.966C1775.97 158.661 1777.14 158.822 1778.08 159.6C1779.69 160.931 1780.23 162.349 1777.78 163.801Z" fill="white"/>
<path d="M520.775 42.8011C517.605 42.7307 517.671 40.8989 518.444 38.9665C518.966 37.6609 520.143 37.8221 521.084 38.6C522.695 39.9314 523.232 41.3494 520.775 42.8011Z" fill="white"/>
<path d="M48.7751 267.801C45.6049 267.731 45.6708 265.899 46.444 263.966C46.9663 262.661 48.143 262.822 49.0841 263.6C50.6946 264.931 51.232 266.349 48.7751 267.801Z" fill="white"/>
<path d="M22.7751 98.8011C19.6049 98.7307 19.6708 96.8989 20.444 94.9665C20.9663 93.6609 22.143 93.8221 23.0841 94.6C24.6946 95.9314 25.232 97.3494 22.7751 98.8011Z" fill="white"/>
<path d="M172.775 56.8011C169.605 56.7307 169.671 54.8989 170.444 52.9665C170.966 51.6609 172.143 51.8221 173.084 52.6C174.695 53.9314 175.232 55.3494 172.775 56.8011Z" fill="white"/>
<path d="M81.7751 4.80112C78.6049 4.73073 78.6708 2.89895 79.444 0.966451C79.9663 -0.339146 81.143 -0.177916 82.0841 0.599998C83.6946 1.93137 84.232 3.34939 81.7751 4.80112Z" fill="white"/>
<path d="M235.775 858.801C232.605 858.731 232.671 856.899 233.444 854.966C233.966 853.661 235.143 853.822 236.084 854.6C237.695 855.931 238.232 857.349 235.775 858.801Z" fill="white"/>
<path d="M176.775 988.801C173.605 988.731 173.671 986.899 174.444 984.966C174.966 983.661 176.143 983.822 177.084 984.6C178.695 985.931 179.232 987.349 176.775 988.801Z" fill="white"/>
<path d="M384.775 882.801C381.605 882.731 381.671 880.899 382.444 878.966C382.966 877.661 384.143 877.822 385.084 878.6C386.695 879.931 387.232 881.349 384.775 882.801Z" fill="white"/>
<path d="M592.775 776.801C589.605 776.731 589.671 774.899 590.444 772.966C590.966 771.661 592.143 771.822 593.084 772.6C594.695 773.931 595.232 775.349 592.775 776.801Z" fill="white"/>
<path d="M868.777 859C871.089 859.321 871.255 860.566 870.332 862.067C869.718 863.065 868.651 863.484 867.722 862.494C866.394 861.081 866.986 859.922 868.777 859Z" fill="white"/>
<path d="M963.121 921.904C960.632 921.607 960.656 920.351 961.559 918.788C962.043 917.95 962.817 917.742 963.566 918.351C965.024 919.536 965.118 920.756 963.121 921.904Z" fill="white"/>
<path d="M1158.12 739.904C1155.63 739.607 1155.66 738.351 1156.56 736.788C1157.04 735.95 1157.82 735.742 1158.57 736.351C1160.02 737.536 1160.12 738.756 1158.12 739.904Z" fill="white"/>
</svg>
