<svg width="32" height="40" viewBox="0 0 32 40" fill="none" xmlns="http://www.w3.org/2000/svg">
<g id="lock_icon.14f6ef6d.svg" clip-path="url(#clip0_313_6915)">
<g id="Page-2">
<g id="iPhone-8">
<path id="lock_icon" d="M31.1877 23.266C31.1877 21.2131 29.5259 19.5513 27.4774 19.5557H26.3799L26.3754 10.8065C26.371 4.84779 21.5232 -4.27887e-05 15.5644 0.00439758C9.60575 0.00884461 4.76237 4.85668 4.76237 10.8154L4.76681 19.5646H4.38024C2.33179 19.569 0.669922 21.2309 0.669922 23.2793L0.678811 36.2854C0.678811 38.3339 2.34066 39.9957 4.3891 39.9957L27.4863 39.9824C29.5348 39.9824 31.1966 38.3205 31.1966 36.2721L31.1877 23.266ZM8.75262 19.5646L8.74816 10.8154C8.74372 7.05175 11.8053 3.99019 15.5644 3.98575C19.3281 3.98575 22.3896 7.04731 22.3941 10.8065L22.3985 19.5557L8.75262 19.5646Z" fill="white"/>
</g>
</g>
</g>
<defs>
<clipPath id="clip0_313_6915">
<rect width="30.66" height="39.9913" fill="white" transform="translate(0.669922 0.00439453)"/>
</clipPath>
</defs>
</svg>
