<svg width="1920" height="1080" viewBox="0 0 1920 1080" fill="none" xmlns="http://www.w3.org/2000/svg">
<rect width="1920" height="1080" rx="12" fill="#010517"/>
<path d="M668.186 770.495C661.823 774.139 655.716 777.645 649.573 781.085C648.584 781.639 647.235 782.568 646.355 781.258C645.281 779.659 646.887 778.851 647.953 778.213C657.192 772.682 666.811 767.857 676.433 763.043C676.702 762.908 677.147 763.123 678.218 763.277C675.36 766.784 671.498 768.049 668.186 770.495Z" fill="white"/>
<path d="M1530.19 81.4949C1523.82 85.1392 1517.72 88.6448 1511.57 92.0852C1510.58 92.6393 1509.23 93.5684 1508.35 92.2581C1507.28 90.6586 1508.89 89.8508 1509.95 89.2128C1519.19 83.6823 1528.81 78.8575 1538.43 74.0425C1538.7 73.9077 1539.15 74.123 1540.22 74.2766C1537.36 77.7843 1533.5 79.0487 1530.19 81.4949Z" fill="white"/>
<path d="M762.6 714.567C761.501 712.722 761.932 711.491 763.724 711.067C764.778 710.818 766.107 711.253 766.009 712.557C765.876 714.323 764.884 715.502 762.6 714.567Z" fill="white"/>
<path d="M896.515 819.092C896.664 821.068 896.019 822.214 894.115 821.726C893.115 821.47 892.775 820.444 893.146 819.499C893.845 817.72 894.981 817.45 896.515 819.092Z" fill="white"/>
<path d="M1045.51 819.092C1045.66 821.068 1045.02 822.214 1043.12 821.726C1042.12 821.47 1041.77 820.444 1042.15 819.499C1042.84 817.72 1043.98 817.45 1045.51 819.092Z" fill="white"/>
<path d="M1198.51 915.092C1198.66 917.068 1198.02 918.214 1196.12 917.726C1195.12 917.47 1194.77 916.444 1195.15 915.499C1195.84 913.72 1196.98 913.45 1198.51 915.092Z" fill="white"/>
<path d="M1357.51 815.092C1357.66 817.068 1357.02 818.214 1355.12 817.726C1354.12 817.47 1353.77 816.444 1354.15 815.499C1354.84 813.72 1355.98 813.45 1357.51 815.092Z" fill="white"/>
<path d="M1516.51 715.092C1516.66 717.068 1516.02 718.214 1514.12 717.726C1513.12 717.47 1512.77 716.444 1513.15 715.499C1513.84 713.72 1514.98 713.45 1516.51 715.092Z" fill="white"/>
<path d="M1429.51 943.092C1429.66 945.068 1429.02 946.214 1427.12 945.726C1426.12 945.47 1425.77 944.444 1426.15 943.499C1426.84 941.72 1427.98 941.45 1429.51 943.092Z" fill="white"/>
<path d="M1660.51 971.092C1660.66 973.068 1660.02 974.214 1658.12 973.726C1657.12 973.47 1656.77 972.444 1657.15 971.499C1657.84 969.72 1658.98 969.45 1660.51 971.092Z" fill="white"/>
<path d="M1891.51 999.092C1891.66 1001.07 1891.02 1002.21 1889.12 1001.73C1888.12 1001.47 1887.77 1000.44 1888.15 999.499C1888.84 997.72 1889.98 997.45 1891.51 999.092Z" fill="white"/>
<path d="M788.515 977.092C788.664 979.068 788.019 980.214 786.115 979.726C785.115 979.47 784.775 978.444 785.146 977.499C785.845 975.72 786.981 975.45 788.515 977.092Z" fill="white"/>
<path d="M1268.51 857.092C1268.66 859.068 1268.02 860.214 1266.12 859.726C1265.12 859.47 1264.77 858.444 1265.15 857.499C1265.84 855.72 1266.98 855.45 1268.51 857.092Z" fill="white"/>
<path d="M1748.51 737.092C1748.66 739.068 1748.02 740.214 1746.12 739.726C1745.12 739.47 1744.77 738.444 1745.15 737.499C1745.84 735.72 1746.98 735.45 1748.51 737.092Z" fill="white"/>
<path d="M1583.51 821.092C1583.66 823.068 1583.02 824.214 1581.12 823.726C1580.12 823.47 1579.77 822.444 1580.15 821.499C1580.84 819.72 1581.98 819.45 1583.51 821.092Z" fill="white"/>
<path d="M1777.51 857.092C1777.66 859.068 1777.02 860.214 1775.12 859.726C1774.12 859.47 1773.77 858.444 1774.15 857.499C1774.84 855.72 1775.98 855.45 1777.51 857.092Z" fill="white"/>
<path d="M1253.51 989.092C1253.66 991.068 1253.02 992.214 1251.12 991.726C1250.12 991.47 1249.77 990.444 1250.15 989.499C1250.84 987.72 1251.98 987.45 1253.51 989.092Z" fill="white"/>
<path d="M679.38 913.472L677.74 911.932L679.52 909.352L681.36 909.732C682.04 912.232 682.04 912.232 679.38 913.472Z" fill="white"/>
<path d="M623.775 999.801C620.605 999.731 620.671 997.899 621.444 995.966C621.966 994.661 623.143 994.822 624.084 995.6C625.695 996.931 626.232 998.349 623.775 999.801Z" fill="white"/>
<path d="M492.775 1023.8C489.605 1023.73 489.671 1021.9 490.444 1019.97C490.966 1018.66 492.143 1018.82 493.084 1019.6C494.695 1020.93 495.232 1022.35 492.775 1023.8Z" fill="white"/>
<path d="M361.775 1047.8C358.605 1047.73 358.671 1045.9 359.444 1043.97C359.966 1042.66 361.143 1042.82 362.084 1043.6C363.695 1044.93 364.232 1046.35 361.775 1047.8Z" fill="white"/>
<path d="M337.775 774.801C334.605 774.731 334.671 772.899 335.444 770.966C335.966 769.661 337.143 769.822 338.084 770.6C339.695 771.931 340.232 773.349 337.775 774.801Z" fill="white"/>
<path d="M480.775 719.801C477.605 719.731 477.671 717.899 478.444 715.966C478.966 714.661 480.143 714.822 481.084 715.6C482.695 716.931 483.232 718.349 480.775 719.801Z" fill="white"/>
<path d="M95.7751 655.801C92.6049 655.731 92.6708 653.899 93.444 651.966C93.9663 650.661 95.143 650.822 96.0841 651.6C97.6946 652.931 98.232 654.349 95.7751 655.801Z" fill="white"/>
<path d="M200.775 618.801C197.605 618.731 197.671 616.899 198.444 614.966C198.966 613.661 200.143 613.822 201.084 614.6C202.695 615.931 203.232 617.349 200.775 618.801Z" fill="white"/>
<path d="M196.775 805.801C193.605 805.731 193.671 803.899 194.444 801.966C194.966 800.661 196.143 800.822 197.084 801.6C198.695 802.931 199.232 804.349 196.775 805.801Z" fill="white"/>
<path d="M95.7751 913.801C92.6049 913.731 92.6708 911.899 93.444 909.966C93.9663 908.661 95.143 908.822 96.0841 909.6C97.6946 910.931 98.232 912.349 95.7751 913.801Z" fill="white"/>
<path d="M50.7751 793.801C47.6049 793.731 47.6708 791.899 48.444 789.966C48.9663 788.661 50.143 788.822 51.0841 789.6C52.6946 790.931 53.232 792.349 50.7751 793.801Z" fill="white"/>
<path d="M45.7751 462.801C42.6049 462.731 42.6708 460.899 43.444 458.966C43.9663 457.661 45.143 457.822 46.0841 458.6C47.6946 459.931 48.232 461.349 45.7751 462.801Z" fill="white"/>
<path d="M137.775 401.801C134.605 401.731 134.671 399.899 135.444 397.966C135.966 396.661 137.143 396.822 138.084 397.6C139.695 398.931 140.232 400.349 137.775 401.801Z" fill="white"/>
<path d="M154.775 248.801C151.605 248.731 151.671 246.899 152.444 244.966C152.966 243.661 154.143 243.822 155.084 244.6C156.695 245.931 157.232 247.349 154.775 248.801Z" fill="white"/>
<path d="M410.775 119.801C407.605 119.731 407.671 117.899 408.444 115.966C408.966 114.661 410.143 114.822 411.084 115.6C412.695 116.931 413.232 118.349 410.775 119.801Z" fill="white"/>
<path d="M423.775 55.8011C420.605 55.7307 420.671 53.8989 421.444 51.9665C421.966 50.6609 423.143 50.8221 424.084 51.6C425.695 52.9314 426.232 54.3494 423.775 55.8011Z" fill="white"/>
<path d="M676.775 60.8011C673.605 60.7307 673.671 58.8989 674.444 56.9665C674.966 55.6609 676.143 55.8221 677.084 56.6C678.695 57.9314 679.232 59.3494 676.775 60.8011Z" fill="white"/>
<path d="M931.775 65.8011C928.605 65.7307 928.671 63.8989 929.444 61.9665C929.966 60.6609 931.143 60.8221 932.084 61.6C933.695 62.9314 934.232 64.3494 931.775 65.8011Z" fill="white"/>
<path d="M1186.78 70.8011C1183.6 70.7307 1183.67 68.8989 1184.44 66.9665C1184.97 65.6609 1186.14 65.8221 1187.08 66.6C1188.69 67.9314 1189.23 69.3494 1186.78 70.8011Z" fill="white"/>
<path d="M1060.78 86.8011C1057.6 86.7307 1057.67 84.8989 1058.44 82.9665C1058.97 81.6609 1060.14 81.8221 1061.08 82.6C1062.69 83.9314 1063.23 85.3494 1060.78 86.8011Z" fill="white"/>
<path d="M934.775 102.801C931.605 102.731 931.671 100.899 932.444 98.9665C932.966 97.6609 934.143 97.8221 935.084 98.6C936.695 99.9314 937.232 101.349 934.775 102.801Z" fill="white"/>
<path d="M783.775 95.8011C780.605 95.7307 780.671 93.8989 781.444 91.9665C781.966 90.6609 783.143 90.8221 784.084 91.6C785.695 92.9314 786.232 94.3494 783.775 95.8011Z" fill="white"/>
<path d="M1441.78 75.8011C1438.6 75.7307 1438.67 73.8989 1439.44 71.9665C1439.97 70.6609 1441.14 70.8221 1442.08 71.6C1443.69 72.9314 1444.23 74.3494 1441.78 75.8011Z" fill="white"/>
<path d="M1696.78 80.8011C1693.6 80.7307 1693.67 78.8989 1694.44 76.9665C1694.97 75.6609 1696.14 75.8221 1697.08 76.6C1698.69 77.9314 1699.23 79.3494 1696.78 80.8011Z" fill="white"/>
<path d="M1824.78 382.801C1821.6 382.731 1821.67 380.899 1822.44 378.966C1822.97 377.661 1824.14 377.822 1825.08 378.6C1826.69 379.931 1827.23 381.349 1824.78 382.801Z" fill="white"/>
<path d="M1772.78 647.801C1769.6 647.731 1769.67 645.899 1770.44 643.966C1770.97 642.661 1772.14 642.822 1773.08 643.6C1774.69 644.931 1775.23 646.349 1772.78 647.801Z" fill="white"/>
<path d="M1886.78 564.801C1883.6 564.731 1883.67 562.899 1884.44 560.966C1884.97 559.661 1886.14 559.822 1887.08 560.6C1888.69 561.931 1889.23 563.349 1886.78 564.801Z" fill="white"/>
<path d="M1820.78 209.801C1817.6 209.731 1817.67 207.899 1818.44 205.966C1818.97 204.661 1820.14 204.822 1821.08 205.6C1822.69 206.931 1823.23 208.349 1820.78 209.801Z" fill="white"/>
<path d="M563.775 88.8011C560.605 88.7307 560.671 86.8989 561.444 84.9665C561.966 83.6609 563.143 83.8221 564.084 84.6C565.695 85.9314 566.232 87.3494 563.775 88.8011Z" fill="white"/>
<path d="M91.7751 313.801C88.6049 313.731 88.6708 311.899 89.444 309.966C89.9663 308.661 91.143 308.822 92.0841 309.6C93.6946 310.931 94.232 312.349 91.7751 313.801Z" fill="white"/>
<path d="M65.7751 144.801C62.6049 144.731 62.6708 142.899 63.444 140.966C63.9663 139.661 65.143 139.822 66.0841 140.6C67.6946 141.931 68.232 143.349 65.7751 144.801Z" fill="white"/>
<path d="M215.775 102.801C212.605 102.731 212.671 100.899 213.444 98.9665C213.966 97.6609 215.143 97.8221 216.084 98.6C217.695 99.9314 218.232 101.349 215.775 102.801Z" fill="white"/>
<path d="M124.775 50.8011C121.605 50.7307 121.671 48.8989 122.444 46.9665C122.966 45.6609 124.143 45.8221 125.084 46.6C126.695 47.9314 127.232 49.3494 124.775 50.8011Z" fill="white"/>
<path d="M278.775 904.801C275.605 904.731 275.671 902.899 276.444 900.966C276.966 899.661 278.143 899.822 279.084 900.6C280.695 901.931 281.232 903.349 278.775 904.801Z" fill="white"/>
<path d="M219.775 1034.8C216.605 1034.73 216.671 1032.9 217.444 1030.97C217.966 1029.66 219.143 1029.82 220.084 1030.6C221.695 1031.93 222.232 1033.35 219.775 1034.8Z" fill="white"/>
<path d="M427.775 928.801C424.605 928.731 424.671 926.899 425.444 924.966C425.966 923.661 427.143 923.822 428.084 924.6C429.695 925.931 430.232 927.349 427.775 928.801Z" fill="white"/>
<path d="M635.775 822.801C632.605 822.731 632.671 820.899 633.444 818.966C633.966 817.661 635.143 817.822 636.084 818.6C637.695 819.931 638.232 821.349 635.775 822.801Z" fill="white"/>
<path d="M911.777 905C914.089 905.321 914.255 906.566 913.332 908.067C912.718 909.065 911.651 909.484 910.722 908.494C909.394 907.081 909.986 905.922 911.777 905Z" fill="white"/>
<path d="M1006.12 967.904C1003.63 967.607 1003.66 966.351 1004.56 964.788C1005.04 963.95 1005.82 963.742 1006.57 964.351C1008.02 965.536 1008.12 966.756 1006.12 967.904Z" fill="white"/>
<path d="M1201.12 785.904C1198.63 785.607 1198.66 784.351 1199.56 782.788C1200.04 781.95 1200.82 781.742 1201.57 782.351C1203.02 783.536 1203.12 784.756 1201.12 785.904Z" fill="white"/>
</svg>
