<svg width="36" height="36" viewBox="0 0 36 36" fill="none" xmlns="http://www.w3.org/2000/svg">
<mask id="mask0_867_8322" style="mask-type:alpha" maskUnits="userSpaceOnUse" x="0" y="0" width="36" height="36">
<rect width="36" height="36" fill="#D9D9D9"/>
</mask>
<g mask="url(#mask0_867_8322)">
<path d="M30.225 19.5H13.5C13.075 19.5 12.7187 19.3563 12.4312 19.0688C12.1437 18.7813 12 18.425 12 18C12 17.575 12.1437 17.2188 12.4312 16.9313C12.7187 16.6438 13.075 16.5 13.5 16.5H30.225L28.95 15.225C28.65 14.925 28.5063 14.575 28.5188 14.175C28.5313 13.775 28.675 13.425 28.95 13.125C29.25 12.825 29.6063 12.6688 30.0188 12.6562C30.4313 12.6437 30.7875 12.7875 31.0875 13.0875L34.95 16.95C35.25 17.25 35.4 17.6 35.4 18C35.4 18.4 35.25 18.75 34.95 19.05L31.0875 22.9125C30.7875 23.2125 30.4313 23.3563 30.0188 23.3438C29.6063 23.3312 29.25 23.175 28.95 22.875C28.675 22.575 28.5313 22.225 28.5188 21.825C28.5063 21.425 28.65 21.075 28.95 20.775L30.225 19.5ZM22.5 12V7.5H7.5V28.5H22.5V24C22.5 23.575 22.6438 23.2188 22.9313 22.9313C23.2188 22.6438 23.575 22.5 24 22.5C24.425 22.5 24.7813 22.6438 25.0688 22.9313C25.3563 23.2188 25.5 23.575 25.5 24V28.5C25.5 29.325 25.2063 30.0313 24.6188 30.6188C24.0313 31.2063 23.325 31.5 22.5 31.5H7.5C6.675 31.5 5.96875 31.2063 5.38125 30.6188C4.79375 30.0313 4.5 29.325 4.5 28.5V7.5C4.5 6.675 4.79375 5.96875 5.38125 5.38125C5.96875 4.79375 6.675 4.5 7.5 4.5H22.5C23.325 4.5 24.0313 4.79375 24.6188 5.38125C25.2063 5.96875 25.5 6.675 25.5 7.5V12C25.5 12.425 25.3563 12.7813 25.0688 13.0688C24.7813 13.3563 24.425 13.5 24 13.5C23.575 13.5 23.2188 13.3563 22.9313 13.0688C22.6438 12.7813 22.5 12.425 22.5 12Z" fill="white"/>
</g>
</svg>
