<svg width="36" height="36" viewBox="0 0 36 36" fill="none" xmlns="http://www.w3.org/2000/svg">
<mask id="mask0_867_8324" style="mask-type:alpha" maskUnits="userSpaceOnUse" x="0" y="0" width="36" height="36">
<rect width="36" height="36" fill="#D9D9D9"/>
</mask>
<g mask="url(#mask0_867_8324)">
<path d="M25.5375 31.5L25.0875 29.25C24.7875 29.125 24.5063 28.9938 24.2438 28.8563C23.9813 28.7188 23.7125 28.55 23.4375 28.35L21.2625 29.025L19.7625 26.475L21.4875 24.975C21.4375 24.675 21.4125 24.35 21.4125 24C21.4125 23.65 21.4375 23.325 21.4875 23.025L19.7625 21.525L21.2625 18.975L23.4375 19.65C23.7125 19.45 23.9813 19.2812 24.2438 19.1437C24.5063 19.0062 24.7875 18.875 25.0875 18.75L25.5375 16.5H28.5375L28.9875 18.75C29.2875 18.875 29.5688 19.0062 29.8313 19.1437C30.0938 19.2812 30.3625 19.45 30.6375 19.65L32.8125 18.975L34.3125 21.525L32.5875 23.025C32.6375 23.325 32.6625 23.65 32.6625 24C32.6625 24.35 32.6375 24.675 32.5875 24.975L34.3125 26.475L32.8125 29.025L30.6375 28.35C30.3625 28.55 30.0938 28.7188 29.8313 28.8563C29.5688 28.9938 29.2875 29.125 28.9875 29.25L28.5375 31.5H25.5375ZM7.5 30C6.675 30 5.96875 29.7063 5.38125 29.1188C4.79375 28.5313 4.5 27.825 4.5 27V6C4.5 5.175 4.79375 4.46875 5.38125 3.88125C5.96875 3.29375 6.675 3 7.5 3H28.5C29.325 3 30.0313 3.29375 30.6188 3.88125C31.2063 4.46875 31.5 5.175 31.5 6V14.475C31.025 14.25 30.5375 14.0687 30.0375 13.9312C29.5375 13.7937 29.025 13.6875 28.5 13.6125V6H7.5V19.5H13.8C14.025 20.175 14.4 20.7625 14.925 21.2625C15.45 21.7625 16.0375 22.1125 16.6875 22.3125C16.4625 23.6625 16.4938 25 16.7812 26.325C17.0687 27.65 17.6125 28.875 18.4125 30H7.5ZM27.0375 27C27.8625 27 28.5687 26.7063 29.1562 26.1188C29.7438 25.5313 30.0375 24.825 30.0375 24C30.0375 23.175 29.7438 22.4688 29.1562 21.8813C28.5687 21.2938 27.8625 21 27.0375 21C26.2125 21 25.5063 21.2938 24.9188 21.8813C24.3313 22.4688 24.0375 23.175 24.0375 24C24.0375 24.825 24.3313 25.5313 24.9188 26.1188C25.5063 26.7063 26.2125 27 27.0375 27Z" fill="white"/>
</g>
</svg>
