<svg width="36" height="36" viewBox="0 0 36 36" fill="none" xmlns="http://www.w3.org/2000/svg">
<mask id="mask0_405_18416" style="mask-type:alpha" maskUnits="userSpaceOnUse" x="0" y="0" width="36" height="36">
<rect width="36" height="36" fill="#D9D9D9"/>
</mask>
<g mask="url(#mask0_405_18416)">
<path d="M15.0002 23.1002L6.1502 31.9502C5.8752 32.2252 5.5252 32.3627 5.1002 32.3627C4.6752 32.3627 4.3252 32.2252 4.0502 31.9502C3.7752 31.6752 3.6377 31.3252 3.6377 30.9002C3.6377 30.4752 3.7752 30.1252 4.0502 29.8502L12.9002 21.0002H7.5002C7.0752 21.0002 6.71895 20.8564 6.43145 20.5689C6.14395 20.2814 6.0002 19.9252 6.0002 19.5002C6.0002 19.0752 6.14395 18.7189 6.43145 18.4314C6.71895 18.1439 7.0752 18.0002 7.5002 18.0002H16.5002C16.9252 18.0002 17.2814 18.1439 17.5689 18.4314C17.8564 18.7189 18.0002 19.0752 18.0002 19.5002V28.5002C18.0002 28.9252 17.8564 29.2814 17.5689 29.5689C17.2814 29.8564 16.9252 30.0002 16.5002 30.0002C16.0752 30.0002 15.7189 29.8564 15.4314 29.5689C15.1439 29.2814 15.0002 28.9252 15.0002 28.5002V23.1002ZM23.1002 15.0002H28.5002C28.9252 15.0002 29.2814 15.1439 29.5689 15.4314C29.8564 15.7189 30.0002 16.0752 30.0002 16.5002C30.0002 16.9252 29.8564 17.2814 29.5689 17.5689C29.2814 17.8564 28.9252 18.0002 28.5002 18.0002H19.5002C19.0752 18.0002 18.7189 17.8564 18.4314 17.5689C18.1439 17.2814 18.0002 16.9252 18.0002 16.5002V7.5002C18.0002 7.0752 18.1439 6.71895 18.4314 6.43145C18.7189 6.14395 19.0752 6.0002 19.5002 6.0002C19.9252 6.0002 20.2814 6.14395 20.5689 6.43145C20.8564 6.71895 21.0002 7.0752 21.0002 7.5002V12.9002L29.8502 4.0502C30.1252 3.7752 30.4752 3.6377 30.9002 3.6377C31.3252 3.6377 31.6752 3.7752 31.9502 4.0502C32.2252 4.3252 32.3627 4.6752 32.3627 5.1002C32.3627 5.5252 32.2252 5.8752 31.9502 6.1502L23.1002 15.0002Z" fill="white"/>
</g>
</svg>
