<svg width="327" height="340" viewBox="0 0 327 340" fill="none" xmlns="http://www.w3.org/2000/svg">
<path d="M270.274 150.917V162.554L269.718 179.596L243.026 180.211L245.533 174.179L248.644 165.558L270.274 150.917V150.917Z" fill="url(#paint0_linear_932_7428)"/>
<path d="M269.292 150.269L250.891 150.529V154.041L248.904 164.578L249.578 165.56L269.292 150.269V150.269Z" fill="url(#paint1_linear_932_7428)"/>
<path d="M240.2 150.917L236.959 172.24L216.867 166.516L217.068 151.875L219.693 150.917H240.2V150.917Z" fill="url(#paint2_linear_932_7428)"/>
<path d="M230.81 180.213H217.127L216.867 175.282L230.81 180.213V180.213Z" fill="black"/>
<path d="M248.821 78.9582C248.549 78.3788 247.639 77.8821 247.296 77.3854C247.083 77.1134 246.574 76.3802 246.338 76.12C245.427 75.1266 244.505 75.3513 243.428 74.5235L243.227 74.3816L241.737 72.3475C241.607 72.5958 235.824 70.5617 235.824 70.5144C235.221 70.2863 234.595 70.1276 233.956 70.0414C233.66 70.0414 233.364 69.9704 233.069 69.9586C231.792 69.9131 230.514 69.9804 229.249 70.1596C228.705 70.2306 228.173 70.3134 227.641 70.408C226.139 70.68 224.649 71.0229 223.159 71.3541C222.665 71.613 222.194 71.9137 221.751 72.2529C221.243 72.6431 220.734 73.0334 220.202 73.4355C219.114 74.1332 217.411 73.5656 216.276 74.1805C215.732 74.4762 214.502 75.2685 213.993 75.6115C213.485 75.9544 213.319 76.1673 212.882 76.4866C212.444 76.8059 213.307 77.5982 213.024 77.8348C212.337 78.4015 211.685 79.0097 211.072 79.656C211.105 79.7289 211.133 79.804 211.155 79.8807C211.296 80.1832 211.47 80.4688 211.675 80.7322C211.974 81.0943 212.311 81.4234 212.681 81.7137C213.544 82.3155 214.473 82.8192 215.448 83.2156C216.039 83.4522 216.004 84.3982 216.631 84.6702C217.719 85.0487 218.487 86.1722 219.575 86.5624C220.663 86.9527 221.55 86.7398 222.461 87.2956C222.969 87.6031 224.093 87.2129 223.809 87.7214C223.752 87.8149 223.68 87.8987 223.596 87.9697C224.585 88.2461 225.593 88.4516 226.612 88.5847C227.191 88.6675 227.794 88.7266 228.35 88.7739C229.959 88.9276 231.591 89.0104 233.199 89.2115C234.642 88.7621 236.144 88.5256 237.563 88.0289C238.249 87.6859 238.887 87.2602 239.538 86.8462C240.284 86.3727 241.076 85.9765 241.903 85.6636C241.973 85.647 242.046 85.647 242.116 85.6636C242.339 85.421 242.58 85.1956 242.837 84.9896C244.02 84.008 245.439 83.2866 246.692 82.3642C247.129 82.041 247.526 81.6679 247.875 81.2525L248.147 80.8622C248.292 80.6167 248.531 80.4414 248.809 80.3774L248.88 80.2473C248.537 80.0936 248.939 79.1829 248.821 78.9582Z" fill="black"/>
<path fill-rule="evenodd" clip-rule="evenodd" d="M189.359 219.213H183.931C183.924 219.069 183.917 218.936 183.91 218.812L183.91 218.811L183.91 218.81C183.892 218.478 183.878 218.217 183.895 218.019C183.906 217.18 183.913 216.342 183.921 215.504C183.938 213.545 183.956 211.589 184.014 209.634C184.057 208.164 184.132 206.7 184.206 205.238C184.292 203.547 184.378 201.86 184.416 200.173V191.327C184.427 190.343 184.468 189.359 184.509 188.376V188.376V188.375V188.375V188.375V188.374V188.374V188.373V188.373V188.372V188.372V188.372V188.371V188.371V188.37V188.37V188.37V188.369V188.369V188.368V188.368V188.368V188.367V188.367V188.366C184.557 187.226 184.605 186.088 184.605 184.953L184.606 184.918C184.665 183.037 184.723 181.169 184.723 179.288C184.743 177.999 184.767 176.71 184.791 175.422L184.792 175.415L184.792 175.407L184.792 175.4V175.4V175.399V175.399V175.398V175.398V175.398V175.397V175.397V175.397V175.396V175.396V175.396V175.395V175.395V175.394V175.394V175.394V175.393V175.393V175.393V175.392V175.392V175.392V175.391C184.852 172.165 184.912 168.941 184.912 165.712L185.019 157.434C185.09 154.796 185.09 152.159 185.09 149.522C185.09 148.659 185.051 147.795 185.013 146.932L185.013 146.931C184.974 146.068 184.936 145.205 184.936 144.342V136.064V128.164C184.942 127.525 184.977 126.886 185.013 126.247C185.051 125.549 185.09 124.852 185.09 124.155C185.044 121.221 184.944 118.407 184.842 115.535L184.842 115.534L184.842 115.533L184.83 115.191C184.804 114.508 184.78 113.825 184.757 113.141L184.757 113.136L184.756 113.13V113.13C184.67 110.632 184.583 108.13 184.416 105.635C184.263 103.371 184.019 101.1 183.776 98.8328C183.717 98.2815 183.658 97.7304 183.6 97.1797C183.566 96.854 183.535 96.5302 183.505 96.2081L183.505 96.2053C183.383 94.9267 183.263 93.6767 183.008 92.4493C181.953 87.8488 180.444 83.3644 178.503 79.0621C175.881 72.8518 171.938 67.2868 166.949 62.754C164.002 60.0252 160.872 57.5004 157.582 55.1971C156.208 54.1505 154.774 53.1832 153.289 52.2997C151.744 51.4484 150.17 50.6479 148.596 49.8479L148.596 49.8478L148.596 49.8478L148.596 49.8477C147.328 49.2031 146.061 48.5588 144.81 47.8886C143.119 46.9625 141.33 46.2286 139.477 45.7007L132.972 43.9505C131.928 43.6014 130.861 43.3248 129.779 43.1227C126.775 42.7324 123.76 42.3658 120.744 42.1411C120.556 42.127 120.367 42.1118 120.177 42.0966C118.3 41.9459 116.387 41.7923 114.583 42.6733C114.28 42.7637 113.964 42.7997 113.648 42.7797C111.883 42.8942 110.137 43.2116 108.445 43.7258C107.331 44.0945 106.16 44.3903 104.99 44.6858L104.99 44.6859C104.396 44.8358 103.803 44.9857 103.218 45.1449C101.012 45.6624 98.8678 46.4116 96.8198 47.3801C96.2409 47.6808 95.6608 47.9779 95.081 48.2749L95.081 48.2749L95.0808 48.275L95.0808 48.275C93.8367 48.9123 92.5941 49.5488 91.368 50.2183C90.7304 50.5766 90.0905 50.9261 89.4521 51.2749L89.4521 51.2749L89.452 51.2749L89.452 51.275L89.4519 51.275L89.4519 51.275L89.4519 51.275L89.4518 51.2751L89.4518 51.2751L89.4517 51.2751L89.4517 51.2751L89.4516 51.2751L89.4516 51.2752C87.9827 52.0777 86.5215 52.8759 85.112 53.7661C84.139 54.3643 83.2276 55.0723 82.316 55.7804C81.7318 56.2342 81.1476 56.688 80.5471 57.1129C77.185 59.6245 74.022 62.3922 71.0863 65.3912C69.1302 67.441 67.3868 69.6836 65.8828 72.0847C64.9346 73.5317 64.0852 75.041 63.3402 76.6023C62.9096 77.4465 62.5514 78.3631 62.2053 79.2486C62.0665 79.6036 61.9297 79.9537 61.791 80.2921C61.3906 81.3494 60.9903 82.3933 60.5929 83.4296L60.5927 83.43L60.5927 83.4301C60.0744 84.7815 59.5611 86.1201 59.0591 87.4587C57.7397 91.4338 56.9795 95.5732 56.8004 99.7578C56.3391 105.517 55.9371 111.3 55.6887 117.071C55.5628 119.392 55.6044 121.702 55.6464 124.033C55.6675 125.206 55.6887 126.385 55.6887 127.573C55.6943 127.885 55.7235 128.197 55.7528 128.51C55.7857 128.862 55.8188 129.215 55.8188 129.571C55.8134 130.764 55.7958 131.96 55.7783 133.156C55.7571 134.591 55.736 136.027 55.736 137.459C55.7191 138.902 55.6947 140.345 55.6703 141.788C55.6263 144.391 55.5823 146.995 55.5823 149.605C55.5823 152.022 55.6059 154.439 55.6295 156.857C55.6532 159.278 55.6769 161.701 55.6769 164.127C55.6911 165.758 55.7166 167.391 55.7421 169.025C55.7805 171.477 55.8188 173.93 55.8188 176.379C55.8247 176.831 55.8291 177.284 55.8336 177.736C55.8469 179.093 55.8602 180.45 55.9134 181.807C55.9468 182.743 56.0073 183.699 56.0674 184.65C56.1563 186.054 56.2445 187.45 56.2445 188.761V195.36C56.2925 198.047 56.3513 200.712 56.41 203.37C56.438 204.643 56.4661 205.915 56.4929 207.186C56.5195 208.526 56.5545 209.868 56.5895 211.211C56.6791 214.641 56.7686 218.072 56.7176 221.472C56.6584 225.445 56.6703 229.419 56.895 233.381C56.9659 234.327 56.9659 235.261 56.9659 236.195C56.9516 236.995 56.9259 237.791 56.9002 238.585C56.862 239.763 56.824 240.936 56.824 242.108C56.8109 242.616 56.7966 243.123 56.7823 243.63C56.7322 245.405 56.6821 247.18 56.6821 248.956C56.668 249.551 56.6508 250.148 56.6335 250.745L56.6335 250.745C56.5928 252.152 56.552 253.564 56.552 254.975C56.5011 256.16 56.4981 257.344 56.4952 258.528C56.4927 259.544 56.4902 260.559 56.4574 261.574C56.4065 262.93 56.3316 264.282 56.2567 265.634L56.2567 265.634L56.2567 265.634C56.1924 266.795 56.1281 267.956 56.079 269.119C56.0435 270.059 56.0258 271.002 56.008 271.946C55.9903 272.889 55.9725 273.832 55.9371 274.772C55.9134 275.368 55.8708 275.964 55.8283 276.56L55.8283 276.56C55.7644 277.454 55.7005 278.348 55.7005 279.242C55.7061 281.667 55.7327 284.084 55.7593 286.497C55.789 289.205 55.8188 291.909 55.8188 294.616C55.8527 295.046 55.9159 295.473 56.008 295.893C56.0589 296.343 56.4106 296.7 56.8595 296.757C57.7819 296.887 58.7871 297.017 59.6504 297.1C60.1835 297.151 60.7752 297.157 61.3169 297.162H61.317H61.3172H61.3173H61.3174H61.3175H61.3182C61.6533 297.166 61.9693 297.169 62.2404 297.182C62.5529 297.198 62.8631 297.239 63.1731 297.28L63.1735 297.28C63.5671 297.332 63.9603 297.384 64.3572 297.384C64.9319 297.391 65.5069 297.399 66.0822 297.407L66.1011 297.407L66.1206 297.407L66.1411 297.408L66.1472 297.408C69.1608 297.449 72.1813 297.49 75.2018 297.49L84.8637 297.644H90.2918C92.0694 297.657 93.8453 297.676 95.6209 297.695C98.724 297.728 101.826 297.762 104.933 297.762C106.207 297.762 107.487 297.726 108.766 297.691H108.767H108.767H108.768H108.768H108.769H108.769H108.77H108.77H108.771H108.772H108.772H108.773H108.773H108.774H108.774H108.775H108.775H108.776H108.776H108.777H108.777H108.778H108.778H108.779L108.78 297.691C110.06 297.655 111.338 297.62 112.608 297.62C113.874 297.62 115.14 297.65 116.407 297.679H116.408H116.408H116.409H116.409H116.409H116.41H116.41H116.411H116.411H116.412H116.412H116.413H116.413H116.414H116.414H116.415H116.415H116.416H116.416H116.417H116.417H116.418H116.418H116.419C117.693 297.709 118.969 297.738 120.247 297.738C121.308 297.733 122.371 297.7 123.434 297.668H123.434H123.435H123.435H123.436H123.436H123.437H123.437H123.438H123.438H123.439H123.439H123.44H123.44H123.441H123.441H123.442H123.442H123.443H123.443H123.443H123.444H123.444H123.445H123.445L123.446 297.668C124.62 297.632 125.794 297.596 126.965 297.596H136.425C141.19 297.656 145.99 297.656 150.719 297.656H150.723C151.973 297.661 153.225 297.688 154.479 297.714L154.481 297.714L154.482 297.714C155.897 297.744 157.313 297.774 158.729 297.774C162.466 297.837 166.203 297.868 169.941 297.868H179.496H184.345H189.879C191.502 297.858 193.122 297.835 194.742 297.812C196.901 297.781 199.059 297.75 201.221 297.75C202.342 297.734 203.464 297.713 204.586 297.692L204.588 297.692C206.837 297.65 209.088 297.608 211.344 297.608H224.352C225.153 297.608 225.956 297.615 226.759 297.621C228.364 297.635 229.966 297.648 231.543 297.608C234.416 297.549 237.282 297.45 240.153 297.35C240.744 297.33 241.335 297.309 241.926 297.289C243.645 297.225 245.36 297.149 247.075 297.072C248.228 297.021 249.381 296.97 250.535 296.922L258.069 296.662C259.334 296.615 260.008 296.094 260.103 294.829C260.233 293.374 260.233 291.92 260.233 290.465C260.292 286.882 260.292 283.263 260.292 279.715C260.292 277.125 260.233 274.524 260.174 271.934C260.15 271.118 259.937 270.869 259.097 270.869C258.364 270.822 257.631 270.838 256.898 270.854C256.531 270.862 256.165 270.869 255.798 270.869C252.447 270.909 249.104 270.929 245.769 270.929C242.9 270.929 240.026 270.901 237.148 270.846L237.014 270.843L236.894 270.841L236.696 270.838C235.91 270.826 235.544 270.821 235.363 270.635C235.206 270.473 235.189 270.173 235.158 269.613L235.158 269.612C235.145 269.384 235.13 269.112 235.102 268.788C234.976 267.33 235.018 265.861 235.06 264.392V264.391C235.081 263.657 235.102 262.922 235.102 262.189C235.079 259.41 235.008 256.654 234.937 253.911C234.883 252.27 234.809 250.629 234.735 248.993C234.711 248.472 234.688 247.951 234.665 247.43C234.582 245.869 234.381 245.621 232.926 245.242C232.818 245.201 232.718 245.141 232.631 245.065C232.679 244.401 232.734 243.739 232.789 243.078L232.789 243.077L232.789 243.076L232.789 243.075C232.907 241.655 233.024 240.241 233.08 238.821C233.126 237.243 233.083 235.663 232.95 234.09C232.848 233.279 232.641 232.484 232.335 231.725C231.917 230.598 231.48 229.476 231.043 228.354L231.043 228.353C230.38 226.65 229.717 224.947 229.118 223.222C227.946 219.808 226.816 216.378 225.686 212.946L225.686 212.946L225.686 212.945L225.686 212.945L225.685 212.945L225.685 212.944L225.685 212.944L225.685 212.944L225.685 212.944L225.685 212.943L225.685 212.943L225.685 212.943L225.685 212.942L225.685 212.942L225.684 212.942L225.684 212.941L225.684 212.941L225.684 212.941L225.684 212.94L225.684 212.94L225.684 212.94L225.684 212.939L225.684 212.939L225.684 212.939L225.684 212.938C225.139 211.285 224.594 209.631 224.045 207.978C223.785 207.174 223.785 207.174 224.613 206.713L234.239 201.427C234.444 201.321 234.653 201.227 234.879 201.127C235.031 201.059 235.191 200.987 235.362 200.906C235.522 201.246 235.664 201.593 235.788 201.947C236.303 203.662 236.808 205.428 237.3 207.151L237.302 207.159L237.303 207.16L237.305 207.169C237.592 208.173 237.875 209.163 238.153 210.119C238.459 211.169 238.793 212.212 239.127 213.257C239.622 214.801 240.117 216.346 240.519 217.912C241.784 222.95 242.967 228.012 244.149 233.073C244.512 234.631 244.825 236.196 245.138 237.758C245.234 238.235 245.33 238.711 245.426 239.187C245.48 239.679 245.89 240.053 246.384 240.062L247.993 240.145C248.076 240.253 248.144 240.373 248.194 240.5C248.24 240.708 248.287 240.916 248.333 241.124L248.433 241.565L248.433 241.567C248.799 243.183 249.163 244.794 249.376 246.413C249.867 249.453 248.848 252.541 246.645 254.691C246.282 255.045 245.907 255.387 245.532 255.729C244.918 256.29 244.305 256.849 243.747 257.459C243.142 258.125 242.655 258.889 242.304 259.717C242.068 260.173 242.092 260.721 242.368 261.154C242.643 261.588 243.128 261.842 243.641 261.822C244.847 262.02 246.08 261.98 247.271 261.704C247.888 261.565 248.512 261.463 249.14 261.397C251.403 261.095 253.612 260.478 255.703 259.564C256.926 259.062 257.847 258.023 258.199 256.749C258.284 256.463 258.392 256.186 258.5 255.907L258.5 255.906C258.571 255.724 258.642 255.541 258.707 255.354C259.013 256.08 259.22 256.843 259.322 257.624C259.499 258.665 260.032 258.972 260.99 258.606C261.765 258.429 262.278 257.691 262.172 256.903C262.152 253.629 261.518 250.388 260.304 247.347C260.214 247.171 260.146 246.984 260.103 246.792C259.96 246.015 259.812 245.24 259.664 244.465L259.663 244.462L259.663 244.461L259.663 244.461L259.663 244.46L259.663 244.46L259.663 244.459L259.663 244.459L259.663 244.458L259.663 244.458L259.662 244.457L259.662 244.457L259.662 244.456L259.662 244.456L259.662 244.455L259.662 244.455L259.662 244.454L259.662 244.454L259.662 244.453L259.662 244.453L259.662 244.452L259.661 244.452L259.661 244.451L259.661 244.451L259.661 244.45L259.661 244.45C259.293 242.526 258.926 240.602 258.648 238.667C258.429 237.097 258.303 235.506 258.178 233.925V233.925V233.925V233.924V233.924V233.924V233.924V233.924V233.924V233.924V233.923V233.923V233.923V233.923L258.178 233.922L258.178 233.921C258.114 233.11 258.05 232.302 257.974 231.5C257.769 229.277 257.553 227.054 257.338 224.83L257.334 224.793C257.228 223.694 257.121 222.595 257.016 221.496C256.898 220.222 256.785 218.952 256.673 217.682C256.392 214.507 256.11 211.332 255.739 208.097C255.393 205.086 254.963 202.08 254.534 199.073C254.317 197.556 254.1 196.039 253.894 194.52C253.507 191.61 253.131 188.701 252.754 185.787C252.59 184.52 252.427 183.253 252.262 181.985C252.244 181.666 252.244 181.346 252.262 181.027C252.538 180.956 252.818 180.904 253.102 180.873L257.347 180.719C258.324 180.686 259.301 180.654 260.279 180.622L260.289 180.622C263.168 180.527 266.05 180.432 268.925 180.317L269.09 180.311C269.689 180.288 270.015 180.276 270.218 180.112C270.461 179.917 270.529 179.506 270.68 178.608L270.687 178.567V178.212C270.703 177.543 270.724 176.876 270.745 176.211C270.787 174.903 270.829 173.601 270.829 172.299C270.888 168.278 270.888 164.257 270.888 160.248C270.894 158.896 270.92 157.541 270.947 156.186L270.947 156.185C270.976 154.66 271.006 153.136 271.006 151.615C271.006 150.078 270.699 149.735 269.173 149.652C267.163 149.546 265.152 149.439 263.142 149.439C260.286 149.45 257.43 149.523 254.574 149.597C254.166 149.608 253.758 149.618 253.35 149.628C253.019 149.634 252.691 149.669 252.36 149.704C251.994 149.743 251.624 149.782 251.245 149.782L251.207 149.634C251.177 149.515 251.149 149.401 251.121 149.289L251.121 149.288L251.12 149.285C251.034 148.938 250.956 148.624 250.866 148.316C250.414 146.546 249.068 145.141 247.319 144.614C245.115 143.815 242.652 144.663 241.406 146.648C240.861 147.557 240.413 148.52 240.069 149.522C239.927 150.053 239.436 150.416 238.887 150.397C237.906 150.411 236.927 150.437 235.949 150.463H235.949H235.949H235.949H235.949H235.949H235.948H235.948H235.948H235.948H235.948H235.948H235.948H235.947H235.947H235.947H235.947H235.947H235.947H235.947H235.947H235.946H235.946L235.946 150.463C234.484 150.501 233.025 150.539 231.566 150.539C229.531 150.545 227.499 150.528 225.469 150.51H225.468H225.468H225.468H225.467H225.467H225.467H225.466H225.466H225.466H225.465H225.465H225.464H225.464H225.464H225.463H225.463H225.463H225.462H225.462H225.462H225.461H225.461H225.46L225.458 150.51H225.457H225.456H225.456H225.455H225.454H225.453H225.452H225.452H225.451H225.45H225.449H225.448H225.447H225.447H225.446H225.445H225.444H225.443H225.443H225.442H225.441H225.441H225.44H225.439C223.704 150.495 221.971 150.48 220.237 150.48C219.446 150.488 218.656 150.543 217.872 150.645C216.275 150.835 216.039 151.083 216.039 152.644V152.881L216.228 164.34C216.267 164.636 216.254 164.931 216.242 165.243C216.235 165.406 216.228 165.573 216.228 165.747L215.27 165.594C214.996 165.547 214.72 165.523 214.442 165.523C214.079 165.472 213.713 165.593 213.451 165.85C213.19 166.107 213.062 166.471 213.106 166.835C213.085 167.077 213.036 167.318 212.987 167.559L212.987 167.56C212.952 167.732 212.918 167.905 212.893 168.077C212.824 168.341 212.824 168.618 212.893 168.881C213.067 169.242 213.166 169.637 213.266 170.033C213.444 170.739 213.623 171.449 214.229 171.98C214.378 172.154 214.457 172.377 214.454 172.606C214.427 173.461 214.885 174.257 215.637 174.664C216.078 174.93 216.323 175.43 216.263 175.941C216.275 177.207 216.299 178.342 216.405 179.714C216.512 181.086 216.654 181.192 218.073 181.192L222.921 181.133H224.896C225.3 181.971 225.219 182.962 224.684 183.723C224.108 184.565 223.424 185.329 222.649 185.994C220.19 187.945 217.742 189.825 215.128 191.493C212.684 193.086 210.495 195.039 208.635 197.288C207.105 198.897 206.527 201.188 207.11 203.331C207.816 205.735 208.645 208.112 209.477 210.493L209.487 210.522L209.493 210.54L209.499 210.557L209.501 210.564C209.623 210.912 209.744 211.26 209.865 211.609C210.143 212.462 210.469 213.304 210.795 214.148L210.796 214.148C211.053 214.813 211.31 215.478 211.545 216.15C211.842 217.037 212.134 217.924 212.426 218.811L212.427 218.813C212.914 220.291 213.4 221.768 213.91 223.246C214.229 224.227 214.549 224.334 215.506 224.227L216.819 224.003C217.198 224.913 217.541 225.741 217.872 226.581C218.926 228.872 219.7 231.282 220.178 233.759C220.473 235.398 219.755 237.054 218.357 237.957C218.057 238.166 217.735 238.346 217.412 238.527C217.149 238.674 216.885 238.822 216.63 238.986C215.691 239.552 214.783 240.168 213.91 240.831C212.465 241.714 211.906 243.536 212.609 245.077V245.219C212.464 245.268 212.313 245.3 212.16 245.313H210.634C209.357 245.278 209.286 245.171 209.286 243.847C209.357 242.83 209.357 241.801 209.357 240.784V228.035C209.337 226.02 209.246 224.061 209.155 222.112L209.155 222.111C209.135 221.693 209.116 221.275 209.097 220.857C209.136 220.459 209.014 220.063 208.759 219.756C208.503 219.449 208.135 219.258 207.737 219.225C207.43 219.155 207.117 219.119 206.802 219.118H196.431H194.444C193.765 219.128 193.1 219.145 192.433 219.162C191.427 219.187 190.419 219.213 189.359 219.213ZM58.6914 119.023L58.6911 119.023L58.6908 119.023L58.6907 119.023H58.6906H58.6905H58.6904H58.6903H58.6903H58.6902H58.6901C58.364 119.047 58.0244 119.072 57.6639 119.104C57.6639 118.677 57.6547 118.267 57.6457 117.866C57.637 117.479 57.6284 117.098 57.6284 116.715C57.6683 115.858 57.707 115.001 57.7458 114.143L57.7458 114.143C57.8792 111.189 58.0128 108.231 58.1961 105.279L58.2234 104.85C58.4384 101.473 58.6509 98.1343 59.0594 94.7305C59.3669 92.2397 59.995 89.7991 60.9279 87.4693C61.3414 86.4393 61.7459 85.4059 62.1504 84.3727L62.1505 84.3726C63.065 82.0366 63.9794 79.7011 64.9961 77.4053C65.8366 75.7181 66.7847 74.0867 67.8343 72.5211C69.5765 69.7515 71.7028 67.2431 74.1495 65.0707C74.5911 64.646 75.0221 64.2107 75.4523 63.7761L75.4523 63.7761C76.2201 63.0006 76.9852 62.2277 77.8037 61.5228C79.4121 60.151 81.0914 58.7792 82.8062 57.5966C84.7102 56.2011 86.6496 54.8529 88.6246 53.5757C89.8254 52.8501 91.0651 52.1908 92.338 51.6008C92.7887 51.382 93.2412 51.1633 93.6949 50.9441L93.6954 50.9438C94.8604 50.3808 96.0325 49.8143 97.1985 49.2355C98.8177 48.3396 100.531 47.6257 102.307 47.1068L110.586 44.9663C112.608 44.586 114.693 44.6955 116.664 45.2856C118.204 45.626 119.726 46.0642 121.251 46.5036L121.252 46.5037C121.846 46.675 122.442 46.8464 123.039 47.0122C123.141 47.0463 123.235 47.0998 123.359 47.1707C123.451 47.2231 123.56 47.2849 123.701 47.3552C123.24 47.7573 122.861 48.1239 122.518 48.5378C121.959 49.2148 121.405 49.8974 120.85 50.5807C119.795 51.879 118.738 53.1802 117.646 54.4508C116.242 56.0408 115.049 57.8057 114.098 59.7016C112.933 62.1546 111.902 64.6694 111.011 67.2348C110.093 69.7509 109.454 72.3605 109.107 75.0164C108.829 77.2798 108.758 79.5638 108.895 81.8401C109.05 84.0752 109.342 86.2987 109.77 88.4981C110.108 90.8762 110.687 93.2139 111.496 95.4755C111.587 95.7029 111.64 95.9439 111.692 96.1841L111.692 96.1841C111.749 96.4437 111.806 96.7024 111.91 96.942C112.176 97.535 112.431 98.1258 112.685 98.7154L112.685 98.7156L112.685 98.7158C113.019 99.4899 113.352 100.262 113.708 101.034C113.941 101.544 114.201 102.041 114.472 102.561L114.473 102.562C114.56 102.728 114.648 102.896 114.737 103.068C114.558 103.275 114.379 103.476 114.203 103.674C113.796 104.132 113.4 104.576 113.045 105.055C111.745 106.758 110.408 108.508 109.226 110.305C107.864 112.227 106.62 114.229 105.5 116.301C104.223 118.82 103.159 121.457 102.142 124.083C101.532 125.68 101.425 127.425 101.834 129.085C102.217 130.78 103.552 132.096 105.252 132.456C107.901 133.248 110.479 132.704 113.057 132.136C113.698 132 114.333 131.844 114.971 131.688C115.215 131.629 115.46 131.569 115.706 131.51C119.405 130.55 122.929 129.014 126.149 126.957C127.894 125.909 129.652 124.874 131.426 123.829L131.429 123.828C132.118 123.422 132.81 123.015 133.505 122.605C134.167 123.03 134.758 123.432 135.349 123.882C137.141 125.244 139.234 125.936 141.321 126.627L141.321 126.627L141.322 126.627L141.322 126.627L141.323 126.627L141.323 126.627L141.323 126.627L141.324 126.628L141.324 126.628L141.325 126.628L141.325 126.628L141.325 126.628L141.326 126.628L141.326 126.628L141.327 126.629L141.327 126.629L141.327 126.629L141.328 126.629L141.328 126.629L141.329 126.629L141.329 126.629L141.33 126.629L141.33 126.63L141.33 126.63L141.331 126.63L141.331 126.63C141.886 126.814 142.441 126.997 142.989 127.193C146.433 128.31 150.015 128.947 153.633 129.085C155.714 129.219 157.795 129.314 159.877 129.369C160.546 129.36 161.214 129.305 161.875 129.204C164.146 128.991 166.391 128.563 168.581 127.926C168.777 127.908 168.975 127.908 169.172 127.926V156.593L165.624 157.089C162.041 157.665 158.54 158.666 155.194 160.07C153.354 160.763 151.619 161.706 150.037 162.872C149.295 163.43 148.5 163.932 147.712 164.43L147.712 164.43C146.879 164.956 146.054 165.477 145.307 166.054C144.052 167.023 142.895 168.115 141.735 169.209C141.55 169.383 141.365 169.558 141.18 169.732C140.35 170.514 139.56 171.339 138.815 172.203C137.642 173.472 136.548 174.811 135.539 176.212C134.725 177.558 133.995 178.952 133.351 180.387C132.07 182.693 131.239 185.221 130.903 187.837C130.276 191.885 130.276 196.006 130.903 200.054C131.429 202.579 132.164 205.061 132.896 207.53L132.896 207.53L132.972 207.788C134.032 211.25 135.484 214.579 137.301 217.71C137.368 217.855 137.424 218.005 137.466 218.159C137.476 218.266 137.476 218.372 137.466 218.479C137.183 218.551 136.894 218.598 136.603 218.621H120.437H110.29H102.627C100.603 218.635 98.5795 218.664 96.5559 218.692L96.5493 218.692C93.6554 218.733 90.7616 218.774 87.8677 218.774C86.5114 218.781 85.155 218.763 83.7986 218.745C82.636 218.73 81.4734 218.715 80.3109 218.715C78.9861 218.729 77.6613 218.784 76.3389 218.839L76.3383 218.839C75.4181 218.877 74.4989 218.916 73.5818 218.94C72.3132 218.975 71.0446 219.006 69.7759 219.036C67.6623 219.087 65.5487 219.138 63.435 219.212C62.7042 219.235 61.9786 219.322 61.2513 219.408C60.8841 219.452 60.5164 219.495 60.1474 219.531L58.7282 219.614C58.5968 213.096 58.4654 206.616 58.334 200.135C58.2289 194.95 58.1238 189.765 58.0187 184.561C58.528 184.48 59.0411 184.425 59.5561 184.396C63.059 184.405 66.5563 184.116 70.0103 183.533C73.3202 182.996 76.5323 181.971 79.5422 180.493C80.2097 180.159 80.83 179.737 81.387 179.24C83.5507 177.419 85.6789 175.563 87.8071 173.706L87.8086 173.705C91.4747 170.512 93.3905 166.278 94.8096 161.761C95.6169 159.368 95.9738 156.845 95.8622 154.322C95.7292 152.005 95.4527 149.699 95.0343 147.416C94.6519 145.376 94.0906 143.401 93.5324 141.438L93.5322 141.437C93.4173 141.033 93.3025 140.629 93.1895 140.225C92.4066 137.669 91.1862 135.269 89.5825 133.13C88.8895 132.086 88.1311 131.086 87.3119 130.138C84.7897 127.482 81.9907 125.103 78.9627 123.042C76.7979 121.455 74.3611 120.276 71.7724 119.565C68.2086 118.542 64.4694 118.281 60.7978 118.797C60.1076 118.92 59.4346 118.969 58.6914 119.023ZM207.725 245.232C207.781 245.043 207.821 244.849 207.843 244.653C207.843 242.753 207.825 240.851 207.806 238.948V238.947V238.946V238.945V238.944V238.943V238.941V238.94V238.939V238.938V238.937V238.936V238.935V238.933V238.932V238.931V238.93V238.929V238.928V238.927V238.925V238.924V238.923V238.922C207.792 237.41 207.777 235.897 207.772 234.388V227.067C207.772 226.539 207.779 226.009 207.785 225.478V225.477V225.476V225.474V225.473V225.472V225.47V225.469V225.468V225.466V225.465V225.464V225.462V225.461V225.46V225.458V225.457C207.798 224.381 207.811 223.303 207.772 222.23C207.772 220.847 207.618 220.74 206.282 220.74H205.572L188.448 220.953C186.692 220.953 184.932 220.984 183.17 221.015C180.993 221.053 178.811 221.091 176.622 221.071C174.644 221.071 172.671 220.971 170.697 220.87C169.566 220.813 168.435 220.755 167.303 220.717C165.576 220.717 163.85 220.717 162.111 220.634C160.627 220.634 159.155 220.593 157.676 220.552C156.186 220.51 154.691 220.468 153.171 220.468C151.027 220.468 148.884 220.489 146.742 220.511L146.737 220.511C144.957 220.528 143.179 220.546 141.404 220.551H126.775C126.048 220.551 125.32 220.527 124.593 220.504C123.866 220.48 123.139 220.456 122.411 220.456H111.318H100.58H94.7974H87.4888H83.6572C83.6219 224.324 83.5895 228.168 83.5571 232.01L83.557 232.018C83.5244 235.892 83.4918 239.765 83.4561 243.659C83.7524 243.659 84.0083 243.679 84.2471 243.698L84.2476 243.698H84.2479H84.2481H84.2483H84.2484H84.2486C84.4574 243.715 84.6532 243.73 84.8516 243.73H91.5807C92.9272 243.73 94.3339 243.803 95.7489 243.877H95.7493H95.7498H95.7501H95.7506H95.7509H95.7513H95.7517H95.752H95.7524H95.7527H95.753H95.7533H95.7536H95.754H95.7543H95.7546H95.7549H95.7552H95.7555H95.7558H95.7561H95.7564H95.7567C96.6879 243.925 97.6226 243.974 98.5462 244.002C102.863 244.12 107.191 244.227 111.555 244.298C115.518 244.369 119.482 244.404 123.433 244.439L123.464 244.44C126.61 244.44 129.767 244.44 132.925 244.511C135.637 244.572 138.218 244.58 140.834 244.589L140.851 244.589L141.434 244.591L142.125 244.593H152.154H160.29H166.653C168.139 244.593 169.706 244.634 171.27 244.675L171.273 244.675L171.277 244.675L171.28 244.675L171.284 244.675C171.943 244.692 172.601 244.71 173.252 244.724C175.758 244.724 178.264 244.795 180.77 244.866H180.77C181.327 244.882 181.884 244.898 182.44 244.913C183.645 244.943 184.851 244.989 186.057 245.036L186.058 245.036C187.719 245.1 189.381 245.164 191.038 245.185H204.614L207.725 245.232ZM110.359 269.576C109.985 269.557 109.604 269.539 109.214 269.521V246.081H112.289L121.253 246.2C121.893 246.211 122.534 246.225 123.174 246.238H123.175H123.175H123.176H123.177H123.177H123.178H123.178H123.179H123.18H123.18H123.181H123.181H123.182H123.182H123.183H123.184H123.184H123.185H123.185H123.186H123.187H123.187C125.096 246.278 127.004 246.318 128.904 246.318C129.915 246.331 130.925 246.345 131.934 246.36L131.937 246.36C135.452 246.41 138.963 246.46 142.481 246.46H158.422H167.505H174.695C176.521 246.513 178.347 246.596 180.174 246.678L180.176 246.678L180.179 246.679C182.005 246.761 183.832 246.844 185.658 246.897H192.623C194.458 246.911 196.296 246.933 198.133 246.956H198.133H198.133H198.134H198.134H198.134H198.134H198.135H198.135H198.135H198.135H198.135H198.136H198.136H198.136H198.136H198.137H198.137H198.137H198.137H198.137H198.138H198.138C201.071 246.992 204.001 247.027 206.909 247.027C209.682 247.027 212.459 247.004 215.235 246.98L215.24 246.98C218.015 246.956 220.789 246.933 223.56 246.933C224.962 246.926 226.361 246.944 227.758 246.962C228.954 246.977 230.148 246.992 231.342 246.992C231.659 246.992 231.977 246.967 232.308 246.942H232.308H232.308H232.308L232.309 246.942C232.667 246.914 233.041 246.885 233.447 246.885L233.499 251.849L233.543 256.05C233.594 260.859 233.645 265.667 233.695 270.538C233.554 270.55 233.408 270.567 233.26 270.585L233.26 270.585C232.974 270.62 232.678 270.656 232.383 270.656C231.663 270.646 230.944 270.626 230.224 270.606C229.217 270.578 228.21 270.549 227.203 270.549H217.659H211.403C210.618 270.555 209.84 270.578 209.06 270.602C208.159 270.629 207.255 270.656 206.33 270.656C205.468 270.656 204.606 270.638 203.743 270.62C202.877 270.603 202.009 270.585 201.138 270.585C199.74 270.575 198.343 270.563 196.946 270.551C193.464 270.52 189.984 270.49 186.497 270.49C184.658 270.485 182.808 270.507 180.961 270.529C178.783 270.555 176.609 270.58 174.458 270.561C172.188 270.541 169.917 270.474 167.647 270.408C165.944 270.358 164.241 270.308 162.538 270.277H155.797C154.408 270.252 153.019 270.205 151.628 270.158C150.461 270.119 149.293 270.08 148.122 270.053C145.22 269.942 142.315 269.887 139.406 269.887C138.775 269.879 138.144 269.87 137.513 269.861C133.771 269.809 130.035 269.757 126.291 269.757H118.982H114.737C113.319 269.719 111.902 269.65 110.361 269.576L110.36 269.576L110.359 269.576ZM134.604 271.65V279.645C134.604 280.805 134.632 281.983 134.66 283.167V283.168V283.168V283.168V283.168V283.168V283.169V283.169V283.169V283.169V283.169V283.169V283.17V283.17V283.17C134.695 284.666 134.73 286.172 134.711 287.663C134.685 289.602 134.603 291.48 134.519 293.399C134.488 294.124 134.456 294.855 134.427 295.598H136.118C137.283 295.598 138.455 295.592 139.631 295.585H139.634H139.636H139.638H139.64H139.642H139.644H139.646H139.649H139.651H139.653H139.655H139.657H139.659H139.661H139.664H139.666H139.668H139.67H139.672H139.674C142.066 295.572 144.472 295.559 146.856 295.598C148.452 295.625 150.005 295.658 151.544 295.691L151.546 295.691L151.548 295.691L151.549 295.691C153.453 295.732 155.336 295.773 157.251 295.799C161.378 295.799 165.529 295.799 169.645 295.87C170.862 295.87 172.079 295.885 173.294 295.9H173.295H173.295H173.295H173.295H173.295H173.296H173.296H173.296H173.296H173.296H173.297H173.297H173.297H173.297H173.298H173.298H173.298H173.298H173.298H173.299H173.299H173.3H173.3H173.301H173.302H173.303H173.304H173.304H173.305H173.306H173.307H173.308H173.308H173.309H173.31H173.311H173.312H173.312H173.313H173.314H173.315H173.316C174.727 295.918 176.138 295.936 177.545 295.929C178.136 295.929 178.727 295.903 179.319 295.876C179.91 295.849 180.501 295.823 181.093 295.823H191.949C193.659 295.823 195.368 295.792 197.078 295.761C198.36 295.738 199.643 295.715 200.925 295.705C201.832 295.705 202.738 295.711 203.643 295.718C205.453 295.731 207.26 295.744 209.073 295.705C211.25 295.705 213.424 295.64 215.598 295.576L215.599 295.575C217.263 295.526 218.926 295.477 220.592 295.456C221.713 295.456 222.836 295.464 223.959 295.472H223.96H223.961H223.963H223.964H223.964H223.964H223.965H223.965H223.965H223.966H223.966H223.966H223.967H223.967H223.967H223.968H223.968H223.968H223.969H223.969H223.969H223.97H223.97H223.97H223.971C226.219 295.488 228.47 295.504 230.715 295.456C233.873 295.388 237.027 295.276 240.183 295.163L240.183 295.163C241.942 295.101 243.701 295.038 245.462 294.983C247.764 294.912 250.071 294.854 252.379 294.796L252.381 294.796L252.382 294.796L252.383 294.796L252.385 294.796L252.386 294.796L252.387 294.796L252.388 294.796L252.39 294.796L252.391 294.796L252.392 294.796L252.394 294.796L252.395 294.796L252.396 294.796L252.397 294.796L252.399 294.796L252.4 294.796L252.401 294.796L252.402 294.796L252.404 294.796L252.405 294.795L252.415 294.795L252.419 294.795L252.422 294.795L252.426 294.795L252.43 294.795L252.434 294.795C253.961 294.756 255.488 294.718 257.016 294.676L258.683 294.569C258.778 287.19 258.861 279.94 258.944 272.632C258.7 272.616 258.455 272.616 258.21 272.632L249.826 272.797C249.161 272.797 248.495 272.807 247.828 272.816H247.827H247.825H247.825H247.825H247.824H247.824H247.824H247.823H247.823H247.822H247.822H247.822H247.821H247.821H247.821H247.82H247.82H247.82H247.819H247.819H247.818H247.818H247.818C246.484 272.834 245.148 272.853 243.818 272.797C241.819 272.715 239.726 272.656 237.68 272.632C234.96 272.632 232.252 272.632 229.532 272.573H215.613H207.831C206.442 272.573 205.097 272.546 203.76 272.518C202.604 272.495 201.454 272.472 200.286 272.466H191.44H181.282C180.058 272.466 178.833 272.474 177.607 272.482H177.606H177.605H177.603H177.602H177.601H177.599H177.598H177.597H177.595H177.594H177.593H177.592H177.59H177.59H177.589H177.589H177.588H177.588H177.587H177.587H177.586H177.586H177.585H177.585H177.584H177.584H177.584H177.583H177.583H177.582H177.582H177.581H177.581H177.58C175.12 272.498 172.658 272.514 170.201 272.466C167.702 272.425 165.203 272.341 162.704 272.256C160.886 272.194 159.069 272.133 157.251 272.088C155.659 272.052 154.067 272.035 152.473 272.017H152.473H152.473H152.473H152.472H152.472H152.471H152.471H152.471H152.47H152.47H152.47H152.469H152.469H152.469H152.468H152.468H152.467H152.467H152.467H152.466H152.466C150.878 271.999 149.288 271.981 147.696 271.946L135.775 271.627C135.385 271.613 134.994 271.621 134.604 271.65ZM131.969 117.004L131.968 117.004L131.968 117.004L131.968 117.004L131.967 117.004L131.967 117.005C131.204 117.421 130.44 117.838 129.672 118.253C129.413 118.025 129.161 117.804 128.914 117.587L128.913 117.586L128.912 117.586L128.91 117.584C128.222 116.981 127.575 116.414 126.94 115.84C124.212 113.397 121.761 110.66 119.632 107.68C118.456 105.966 117.421 104.168 116.374 102.351C116.063 101.811 115.751 101.268 115.434 100.726C113.792 97.6838 112.62 94.4104 111.957 91.0172C111.196 87.9115 110.701 84.7463 110.479 81.5564C110.457 79.7873 110.536 78.0184 110.715 76.2583C111.011 73.1581 111.706 70.1092 112.785 67.1877C113.5 65.1465 114.333 63.1485 115.28 61.2037C116.401 58.7664 117.88 56.5103 119.667 54.5101C120.587 53.4549 121.464 52.3653 122.339 51.2776C122.916 50.5612 123.492 49.8455 124.079 49.1411C124.408 48.8021 124.764 48.4897 125.143 48.2068C125.399 47.9445 125.805 47.8999 126.113 48.1004C127.282 48.6874 128.483 49.2038 129.683 49.7199C131.626 50.5554 133.567 51.3902 135.372 52.5233C136.428 53.1888 137.533 53.7701 138.636 54.3505L138.636 54.3506C139.239 54.6676 139.841 54.9843 140.434 55.3143C140.957 55.5932 141.459 55.9094 141.936 56.2604C144.017 57.7978 146.016 59.4534 147.944 61.18C149.997 63.0008 151.907 64.9777 153.656 67.0931C154.862 68.6541 155.974 70.227 157.062 71.8235C157.377 72.3203 157.673 72.8464 157.969 73.3736C158.428 74.1892 158.888 75.0078 159.427 75.7261C160.406 77.0898 161.157 78.5729 161.908 80.0546L161.908 80.0547L161.908 80.0548C162.472 81.1686 163.036 82.2815 163.696 83.3421C164.091 84.0947 164.405 84.8876 164.63 85.7073C165.042 86.834 165.445 87.9769 165.847 89.1159L165.847 89.1164L166.097 89.8228C166.397 90.3952 166.212 91.1019 165.671 91.4548C164.488 92.4127 163.388 93.3825 162.123 94.5059C161.522 95.04 160.933 95.5873 160.346 96.1341L160.346 96.1343C159.697 96.7378 159.05 97.3405 158.386 97.9237C156.577 99.5557 154.791 101.152 152.922 102.654C152.588 102.922 152.255 103.19 151.921 103.458C149.644 105.287 147.368 107.116 144.975 108.756C141.894 111.073 138.684 113.213 135.361 115.166C134.227 115.772 133.102 116.386 131.975 117L131.975 117.001L131.974 117.001L131.974 117.001L131.974 117.001L131.973 117.001L131.973 117.002L131.972 117.002L131.972 117.002L131.971 117.002L131.971 117.003L131.971 117.003L131.97 117.003L131.97 117.003L131.969 117.004L131.969 117.004ZM60.1245 182.547L60.1292 182.547H60.1293H60.1295H60.1297H60.13H60.1302H60.1304H60.1306H60.1309H60.1312H60.1314H60.1317H60.132H60.1323H60.1327H60.133H60.1334H60.1338C61.7113 182.515 63.2059 182.484 64.7005 182.387C67.172 182.187 69.6237 181.792 72.0327 181.204C75.3986 180.568 78.5622 179.133 81.257 177.018C81.3597 176.936 81.4619 176.854 81.564 176.771C81.9794 176.435 82.3932 176.101 82.8299 175.835C84.9949 174.259 86.9293 172.388 88.5774 170.277C91.3015 166.883 93.0766 162.826 93.7217 158.522C94.1271 156.394 94.2148 154.218 93.9819 152.065C93.6086 149.101 93.0036 146.171 92.1725 143.302C91.8448 141.966 91.4501 140.648 90.9899 139.352C89.7403 136.289 87.9362 133.482 85.6682 131.074C85.4862 130.88 85.2927 130.692 85.0947 130.5C84.8937 130.305 84.6881 130.105 84.4856 129.891C83.6714 129.055 82.8107 128.265 81.9075 127.526C80.1336 126.178 78.2769 124.912 76.432 123.659C74.7649 122.458 72.8754 121.602 70.8737 121.14C69.3705 120.843 67.8415 120.636 66.3105 120.429L66.3094 120.429C65.7691 120.356 65.2285 120.283 64.6887 120.205C64.2956 120.163 63.8992 120.163 63.5061 120.205L63.3772 120.218C62.0121 120.356 60.637 120.495 59.2842 120.667C58.9063 120.717 58.5464 120.8 58.1576 120.888L58.1575 120.888L58.1574 120.888L58.1573 120.888L58.157 120.888L58.1568 120.888L58.1564 120.889L58.1559 120.889L58.1552 120.889L58.1543 120.889L58.1532 120.889L58.1516 120.89L58.1501 120.89C57.9084 120.945 57.6555 121.003 57.3802 121.057V123.044C57.3802 124.303 57.4271 125.562 57.4745 126.835C57.5162 127.954 57.5583 129.084 57.5694 130.234V142.521C57.5694 144.05 57.53 145.583 57.4907 147.115C57.4585 148.368 57.4263 149.62 57.4156 150.87V158.415C57.4156 159.937 57.4545 161.368 57.4931 162.79C57.5183 163.721 57.5435 164.648 57.5576 165.594V170.324C57.5576 172.131 57.6065 173.947 57.6553 175.756C57.686 176.894 57.7167 178.03 57.7349 179.158C57.8769 180.246 57.8769 181.299 57.8769 182.6C58.6492 182.577 59.3957 182.562 60.1245 182.547ZM168.143 158.546C168.49 158.52 168.838 158.52 169.184 158.546C169.161 164.254 169.139 169.954 169.117 175.649V175.652C169.063 190.059 169.009 204.44 168.924 218.882H165.92C165.23 218.873 164.542 218.852 163.854 218.832L163.853 218.832C162.891 218.804 161.93 218.776 160.965 218.776C158.919 218.693 156.873 218.693 154.839 218.693H145.733H140.305C139.898 218.702 139.531 218.449 139.394 218.066C139.095 217.441 138.793 216.817 138.49 216.193L138.49 216.192L138.489 216.19L138.489 216.189L138.488 216.188C137.608 214.372 136.729 212.558 135.929 210.711C135.139 208.902 134.487 207.036 133.978 205.129C132.979 201.664 132.415 198.089 132.298 194.485C132.233 190.938 132.703 187.402 133.694 183.996C134.077 182.965 134.569 181.978 135.16 181.051C135.359 180.702 135.555 180.352 135.752 180.001L135.753 179.999C136.576 178.534 137.399 177.068 138.353 175.694C139.329 174.408 140.4 173.198 141.558 172.075C144.07 169.405 146.907 167.061 150.002 165.097C151.688 164.015 153.437 163.036 155.241 162.165C158.115 160.779 161.168 159.8 164.312 159.255C165.101 159.147 165.882 158.989 166.662 158.832L166.662 158.832L166.662 158.832L166.662 158.832L166.662 158.832L166.662 158.832L166.662 158.832L166.662 158.832L166.662 158.832L166.663 158.832L166.663 158.832L166.663 158.832L166.663 158.832L166.663 158.832L166.663 158.832L166.663 158.832L166.663 158.832L166.663 158.832L166.663 158.832C167.156 158.732 167.649 158.633 168.143 158.546ZM226.505 181.274C226.671 182.646 226.27 184.026 225.393 185.094C224.677 185.971 223.863 186.764 222.969 187.459C221.384 188.656 219.766 189.809 218.145 190.965C217.201 191.638 216.257 192.311 215.318 192.994C213.058 194.49 211.06 196.347 209.405 198.493C208.379 199.788 208.065 201.508 208.565 203.081C209.114 204.743 209.682 206.394 210.25 208.049C210.576 208.997 210.903 209.946 211.226 210.899C212.219 213.847 213.201 216.796 214.17 219.744C214.326 220.218 214.447 220.709 214.577 221.236C214.636 221.472 214.696 221.715 214.762 221.968C218.258 220.007 222.023 218.573 225.937 217.71C225.882 217.512 225.842 217.339 225.806 217.181L225.806 217.18L225.806 217.18L225.806 217.18C225.765 217 225.728 216.839 225.677 216.682C225.358 215.67 225.035 214.658 224.712 213.645L224.71 213.64C224.173 211.956 223.635 210.271 223.111 208.581C223.032 208.162 222.733 207.819 222.33 207.682C221.656 207.445 221.609 206.866 222.177 206.416C222.585 206.11 223.021 205.841 223.478 205.612C224.509 205.036 225.541 204.464 226.573 203.893L226.575 203.892L226.578 203.89L226.58 203.889L226.583 203.888L226.585 203.886L226.587 203.885C228.237 202.972 229.885 202.06 231.519 201.13C233.743 199.865 235.954 198.576 238.13 197.239C240.031 196.125 241.814 194.822 243.452 193.349C245.665 191.295 247.095 188.536 247.496 185.543C247.709 184.02 247.625 182.47 247.248 180.979H243.759C243.372 181.027 243.014 181.207 242.742 181.487C241.909 182.349 240.747 182.814 239.549 182.764C237.772 182.827 236.003 182.496 234.369 181.795C231.815 180.766 229.272 180.955 226.505 181.274ZM167.386 95.7603L167.658 95.8667C167.779 96.8849 167.861 97.8989 167.941 98.8827C167.994 99.5329 168.046 100.17 168.107 100.786C168.462 105.765 168.829 110.756 169.29 115.723C169.504 118.083 169.504 120.458 169.29 122.818C169.207 123.611 169.207 124.403 169.207 125.184C169.24 125.419 169.178 125.658 169.033 125.847C168.889 126.036 168.674 126.159 168.438 126.189C168.09 126.284 167.743 126.383 167.395 126.483C166.149 126.839 164.901 127.196 163.625 127.371C159.797 127.862 155.922 127.862 152.095 127.371C149.434 127.076 146.798 126.59 144.207 125.917C140.902 125.051 137.759 123.657 134.899 121.789C135.723 121.043 136.614 120.374 137.56 119.791C137.926 119.52 138.283 119.257 138.636 118.997C139.826 118.121 140.978 117.273 142.291 116.243C143.382 115.387 144.454 114.506 145.525 113.626L145.526 113.625C146.126 113.132 146.726 112.639 147.329 112.151C148.462 111.26 149.595 110.333 150.727 109.406L150.728 109.405L150.728 109.405L150.728 109.405L150.728 109.405L150.728 109.405L150.728 109.405L150.728 109.405L150.729 109.405L150.729 109.405L150.729 109.404L150.729 109.404L150.729 109.404L150.729 109.404L150.729 109.404L150.729 109.404L150.73 109.404C151.76 108.56 152.791 107.717 153.821 106.9C154.76 106.157 155.705 105.427 156.649 104.697C157.882 103.744 159.113 102.793 160.326 101.815C161.742 100.668 163.126 99.4832 164.511 98.2973L164.511 98.2972L164.512 98.2967C165.012 97.8686 165.512 97.4404 166.014 97.0138C166.278 96.7836 166.538 96.5417 166.799 96.2993L166.799 96.2992L166.799 96.299C166.994 96.1182 167.189 95.9371 167.386 95.7603ZM248.691 181.227C248.913 182.711 248.953 184.216 248.809 185.709C248.263 189.82 246.09 193.54 242.777 196.034C241.961 196.699 241.038 197.271 240.129 197.835C239.826 198.023 239.525 198.21 239.23 198.399C238.615 198.813 237.976 199.215 237.349 199.581C237.005 199.728 236.827 200.11 236.935 200.468C237.023 200.798 237.095 201.132 237.166 201.465L237.167 201.465C237.26 201.898 237.353 202.33 237.479 202.751C237.834 203.926 238.198 205.1 238.562 206.274C239.132 208.11 239.701 209.946 240.235 211.786C241.205 215.192 242.139 218.61 243.014 222.039C243.675 224.628 244.268 227.096 244.865 229.579L244.865 229.58L244.865 229.581L244.866 229.583L244.866 229.586C245.06 230.39 245.254 231.196 245.45 232.009C245.888 233.794 246.313 235.556 246.751 237.389C247.021 237.315 247.29 237.239 247.56 237.163L247.887 237.07L248.183 236.986L248.184 236.986C249.366 236.651 250.545 236.316 251.742 236.029C252.932 235.745 254.122 235.519 255.354 235.285L255.355 235.285L255.355 235.285L255.355 235.285L255.355 235.285L255.355 235.285L255.356 235.285L255.356 235.285C255.862 235.189 256.375 235.092 256.898 234.989C256.791 234.114 256.709 233.345 256.626 232.564C256.567 232.008 256.506 231.452 256.444 230.895L256.443 230.885C256.32 229.766 256.196 228.646 256.094 227.527C255.98 226.229 255.881 224.941 255.781 223.649C255.651 221.975 255.521 220.295 255.36 218.586C255.124 216.043 254.816 213.501 254.509 210.958L254.509 210.958C254.131 207.682 253.728 204.395 253.326 201.119L253.31 200.982C253.114 199.395 252.917 197.798 252.676 196.223C252.566 195.467 252.438 194.714 252.311 193.962L252.31 193.962C252.109 192.774 251.908 191.588 251.777 190.393C251.572 188.587 251.42 186.781 251.267 184.976C251.191 184.073 251.115 183.171 251.032 182.268C251.032 181.969 250.953 181.67 250.873 181.363C250.833 181.21 250.792 181.054 250.76 180.896C250.053 180.759 249.32 180.876 248.691 181.227ZM216.157 173.554C215.941 173.377 215.746 173.174 215.577 172.951L216.535 172.301L215.081 171.189C215.104 171.13 215.164 171.012 215.164 171.012C215.252 170.976 215.345 170.971 215.438 170.966C215.621 170.956 215.803 170.947 215.944 170.704C216.157 170.338 215.731 170.006 215.506 169.864C215.409 169.803 215.3 169.754 215.19 169.706C215.048 169.643 214.905 169.58 214.785 169.486C214.464 169.213 214.16 168.921 213.874 168.611C214.26 168.219 214.665 168.311 215.059 168.401C215.414 168.482 215.76 168.56 216.074 168.28C215.94 167.804 215.57 167.647 215.191 167.486C214.901 167.364 214.606 167.239 214.407 166.967C214.712 166.796 215.083 166.796 215.388 166.967C215.897 167.121 216.405 167.274 216.913 167.427C218.439 167.886 219.965 168.345 221.49 168.824L228.468 171.012C228.701 171.084 228.938 171.157 229.178 171.231L229.216 171.243C230.461 171.629 231.766 172.033 232.867 172.348C234.009 172.674 235.159 172.948 236.311 173.221C236.495 173.265 236.68 173.309 236.864 173.353C237.099 173.395 237.339 173.395 237.574 173.353C238.035 173.294 238.248 172.856 237.905 172.632C237.35 172.268 237.441 171.853 237.538 171.409C237.555 171.332 237.572 171.255 237.586 171.177C238.094 167.771 238.686 164.354 239.277 160.936C239.329 160.645 239.381 160.353 239.433 160.061L239.606 159.083L239.61 159.062L239.612 159.047C240.056 156.544 240.505 154.006 241.015 151.475C241.395 149.65 242.314 147.982 243.653 146.685C245.249 145.089 247.496 145.656 248.679 147.868C249.718 150.079 250.127 152.535 249.861 154.964C249.511 158.492 248.802 161.975 247.744 165.359C247.307 166.943 246.834 168.528 246.313 170.089C246.127 170.626 245.894 171.145 245.66 171.666L245.659 171.666C245.507 172.005 245.354 172.345 245.214 172.691C244.975 173.283 244.742 173.87 244.51 174.454L244.509 174.456L244.507 174.46L244.507 174.462L244.506 174.462C244.026 175.671 243.551 176.866 243.049 178.06C242.892 178.439 242.696 178.804 242.499 179.169L242.499 179.169L242.499 179.169C242.34 179.464 242.182 179.758 242.044 180.059C241.624 181.133 240.49 181.748 239.36 181.513C238.068 181.395 236.79 181.162 235.54 180.815C233.703 180.262 231.884 179.637 230.067 179.012C229.321 178.756 228.576 178.5 227.829 178.249C227.385 178.1 226.942 177.941 226.499 177.783L226.497 177.782C225.679 177.49 224.861 177.198 224.033 176.96C221.279 176.15 218.634 175.006 216.157 173.554ZM269.15 179.181C269.521 173.83 269.537 168.563 269.552 163.312V163.311V163.311V163.31V163.31V163.309V163.309V163.308V163.308V163.307V163.307V163.307V163.306V163.306C269.563 159.531 269.574 155.764 269.718 151.981C269.566 152.061 269.43 152.128 269.306 152.189C269.1 152.29 268.926 152.375 268.771 152.478C268.196 152.883 267.619 153.286 267.041 153.69L267.038 153.692L267.038 153.692L267.038 153.693L267.037 153.693L267.037 153.693L267.037 153.693L267.036 153.694L267.036 153.694L267.036 153.694L267.036 153.694L267.032 153.696C265.807 154.553 264.579 155.411 263.367 156.286C261.388 157.722 259.414 159.163 257.44 160.604C254.896 162.46 252.353 164.316 249.802 166.161C249.194 166.586 248.745 167.202 248.525 167.911C247.419 171.564 246.072 175.139 244.493 178.614C244.344 178.966 244.226 179.33 244.138 179.702L269.15 179.181ZM165.636 93.4658C166.03 93.0911 166.405 92.6963 166.759 92.2832C167.374 93.6313 167.386 93.856 166.546 94.6247C164.276 96.5563 161.982 98.4761 159.664 100.384C157.155 102.419 154.647 104.434 152.129 106.456L151.385 107.054C150.707 107.598 150.044 108.12 149.374 108.647C148.443 109.378 147.5 110.12 146.489 110.945C146.015 111.332 145.536 111.716 145.058 112.099L145.057 112.1L145.057 112.1C143.784 113.119 142.513 114.138 141.31 115.238C139.22 117.09 136.981 118.767 134.616 120.252C130.769 122.751 126.827 125.065 122.79 127.194C121.501 127.868 120.2 128.506 118.887 129.133C118.508 129.317 118.112 129.464 117.705 129.571C114.896 130.348 112.04 130.945 109.154 131.357C107.817 131.5 106.464 131.347 105.193 130.907C104.184 130.544 103.49 129.612 103.431 128.542C103.207 126.812 103.427 125.054 104.069 123.433C105.624 119.259 107.677 115.288 110.183 111.607C111.277 109.954 112.512 108.372 113.747 106.79L113.747 106.79C114.261 106.131 114.776 105.471 115.28 104.807C115.407 104.676 115.546 104.557 115.694 104.452C115.914 104.823 116.125 105.183 116.33 105.532L116.331 105.535L116.331 105.535C116.623 106.033 116.902 106.508 117.173 106.959C116.93 107.363 116.685 107.754 116.444 108.138C115.887 109.026 115.351 109.879 114.914 110.779C113.894 112.782 113.23 114.947 112.951 117.177C112.724 118.548 112.922 119.955 113.518 121.21C113.973 122.141 114.858 122.787 115.883 122.936C117.444 123.261 119.054 123.261 120.614 122.936C121.146 122.803 121.678 122.713 122.21 122.623C122.861 122.514 123.511 122.404 124.162 122.215C125.521 121.817 126.849 121.319 128.135 120.725C130.158 119.791 132.192 118.821 134.131 117.709C136.792 116.172 139.583 114.528 141.948 112.849C142.182 112.682 142.417 112.516 142.653 112.349L142.653 112.349L142.654 112.348L142.654 112.348L142.654 112.348L142.654 112.348L142.654 112.348L142.654 112.348L142.655 112.348L142.655 112.348L142.655 112.348C144.796 110.83 146.977 109.283 149.044 107.622C152.521 104.854 155.915 101.981 159.297 99.1068C160.944 97.7042 162.549 96.2532 164.155 94.8013L164.156 94.8013L164.156 94.8012L164.156 94.8012L164.156 94.8011L164.156 94.8011L164.156 94.801L164.156 94.8009L164.156 94.8009L164.156 94.8008L164.156 94.8008L164.156 94.8005L164.157 94.7999L164.159 94.798C164.651 94.3535 165.143 93.909 165.636 93.4658ZM237.385 164.424L217.529 153.177C217.458 157.624 217.529 161.964 217.813 166.399L236.286 171.921C236.583 169.93 236.859 168.048 237.148 166.081L237.149 166.068L237.385 164.459V164.424ZM219.54 152.23L219.646 151.935L239.313 151.698C239.043 155.416 238.434 159.102 237.492 162.708C231.5 159.224 225.516 155.731 219.54 152.23ZM251.671 151.119L251.67 151.153L251.623 151.155L251.671 151.119ZM251.67 151.153L252.669 151.121H252.669C257.894 150.954 262.978 150.791 268.144 151.013C261.9 155.282 255.715 159.551 249.625 164.14C249.684 163.773 249.743 163.418 249.814 163.052C249.964 162.236 250.116 161.419 250.267 160.602L250.269 160.596L250.271 160.583L250.271 160.583L250.271 160.582L250.271 160.581C250.693 158.313 251.115 156.041 251.505 153.768C251.609 152.901 251.665 152.027 251.67 151.153ZM229.769 229.087L221.408 231.997L217.518 222.193C219.28 221.219 221.129 220.623 222.983 220.026C224.103 219.665 225.224 219.303 226.328 218.858L229.769 229.087ZM117.965 108.543C117.835 108.75 117.698 108.949 117.563 109.146C117.319 109.501 117.079 109.85 116.889 110.223C115.92 112.099 115.178 114.084 114.677 116.136C114.412 117.331 114.412 118.571 114.677 119.766C114.755 120.625 115.439 121.304 116.298 121.375C116.957 121.491 117.627 121.542 118.296 121.529C121.402 121.37 124.449 120.62 127.272 119.317C127.489 119.18 127.691 119.022 127.875 118.844C127.311 118.303 126.743 117.773 126.177 117.246C124.989 116.139 123.817 115.047 122.743 113.901C121.477 112.55 120.235 111.132 118.948 109.664L118.948 109.663L118.947 109.663L118.947 109.663L118.943 109.658C118.62 109.29 118.295 108.918 117.965 108.543ZM229.414 233.511C229.795 232.851 230.369 232.323 231.058 231.998C232.275 235.052 231.854 238.059 231.429 241.086C231.375 241.47 231.321 241.854 231.271 242.239V240.879C231.242 240.252 231.171 239.628 231.058 239.01C230.833 238.029 230.337 237.863 229.544 238.455C229.083 238.809 228.657 239.223 228.232 239.637C227.416 240.441 226.635 241.222 225.866 242.002C224.427 243.497 222.484 244.403 220.414 244.545C219.192 244.616 217.96 244.592 216.727 244.569C216.111 244.557 215.495 244.545 214.88 244.545C214.417 244.474 213.964 244.347 213.532 244.167C213.865 242.644 214.926 241.384 216.37 240.796C216.55 240.732 216.746 240.732 216.926 240.796C218.765 241.45 220.793 241.318 222.531 240.43C224.676 239.413 226.509 237.841 227.841 235.877C228.244 235.32 228.615 234.745 228.987 234.169C229.129 233.95 229.271 233.73 229.414 233.511ZM251.162 246.767L258.317 245.052C257.856 242.143 257.418 239.411 256.969 236.668L249.187 238.24L249.35 238.938C249.967 241.576 250.565 244.135 251.162 246.743V246.767ZM244.409 260.334C244.181 260.353 243.952 260.353 243.723 260.334V260.31C243.98 259.351 244.588 258.523 245.426 257.992C245.651 257.862 246.101 257.862 246.443 257.862C248.379 257.912 250.299 257.507 252.049 256.679C253.91 255.712 255.441 254.214 256.448 252.375C257.106 250.837 258.1 249.467 259.358 248.366C259.952 249.756 260.315 251.234 260.434 252.741C260.643 254.139 260.758 255.55 260.777 256.963L260.741 256.778L260.678 256.445C260.548 255.754 260.417 255.064 260.256 254.373C260.245 254.32 260.234 254.266 260.222 254.21C260.105 253.638 259.97 252.981 259.334 252.895C258.696 252.808 258.374 253.414 258.098 253.934C258.072 253.983 258.047 254.031 258.021 254.078C257.622 254.756 257.294 255.473 257.04 256.218C256.705 257.312 255.797 258.134 254.674 258.359C252.64 258.914 250.571 259.387 248.501 259.801C247.534 259.996 246.555 260.1 245.573 260.204L245.571 260.205C245.184 260.246 244.797 260.287 244.409 260.334ZM258.613 246.189L256.839 246.674C256.279 246.827 255.72 246.984 255.164 247.139L255.16 247.141L255.155 247.142L255.149 247.144C254.125 247.43 253.109 247.715 252.108 247.975C252.044 247.99 251.983 248.005 251.926 248.018L251.82 248.043C251.036 248.224 250.991 248.234 250.831 249.299C250.566 251.748 249.453 254.028 247.686 255.744C247.531 255.932 247.389 256.13 247.26 256.336C247.511 256.285 247.742 256.246 247.958 256.208L247.958 256.208C248.352 256.14 248.698 256.08 249.034 255.981C251.6 255.259 253.882 254.148 255.171 251.617C255.279 251.413 255.4 251.217 255.522 251.02C255.67 250.783 255.817 250.545 255.94 250.293C256.518 249.12 257.416 248.136 258.53 247.454C259.05 247.135 258.991 246.78 258.613 246.189ZM224.624 237.057C223.115 238.704 220.939 239.574 218.711 239.423C220.701 238.19 221.799 235.917 221.526 233.592C222.317 233.29 223.103 232.988 223.886 232.687L223.913 232.677L223.918 232.675L223.935 232.669C225.982 231.883 228.008 231.105 230.041 230.34C230.08 230.324 230.145 230.382 230.223 230.449L230.223 230.45C230.241 230.466 230.26 230.483 230.28 230.499C230.302 230.518 230.325 230.536 230.348 230.553L230.313 230.587C229.652 231.224 229.049 231.806 228.491 232.457C227.979 233.057 227.478 233.667 226.978 234.276C226.206 235.215 225.435 236.154 224.624 237.057ZM217.529 179.678H227.12V179.524L217.518 175.977L217.529 179.678ZM229.722 239.696C229.846 241.511 229.846 243.332 229.722 245.148H224.116L229.722 239.696Z" fill="white"/>
<path fill-rule="evenodd" clip-rule="evenodd" d="M256.763 107.529H265.491H265.527L265.627 107.523C266.883 107.454 268.15 107.385 269.406 107.292C270.884 107.186 271.298 106.796 271.369 105.341C271.522 102.172 271.664 99.026 271.747 95.8802C271.787 94.5548 271.773 93.2399 271.76 91.9286V91.9282V91.9279C271.754 91.2737 271.747 90.6205 271.747 89.9672V87.1408C271.671 85.3812 271.565 83.6217 271.459 81.8621C271.433 81.422 271.406 80.9819 271.38 80.5418C271.267 75.7233 270.471 70.9453 269.015 66.3505C268.365 64.2505 267.409 62.258 266.177 60.4374C264.356 58.0013 262.428 55.6361 260.418 53.2708C258.291 50.8319 255.816 48.7199 253.074 47.003C249.867 44.985 246.321 43.5665 242.608 42.8166C239.84 42.2055 237.009 41.9276 234.176 41.9888C229.921 42.1258 225.708 42.8705 221.664 44.2002C219.108 45.0091 216.65 46.0957 214.331 47.4406C209.171 50.5837 204.808 54.8782 201.583 59.9881C199.377 63.4914 197.92 67.4131 197.302 71.5067C196.631 75.1842 196.2 78.9015 196.013 82.635C195.906 85.5442 195.812 88.4534 195.812 91.3627C195.812 93.3299 195.939 95.288 196.066 97.2451L196.066 97.2451C196.084 97.5234 196.102 97.8016 196.119 98.0799C196.219 99.8252 196.359 101.467 196.503 103.141L196.533 103.496C196.584 104.069 196.648 104.665 196.71 105.253C196.794 106.037 196.876 106.806 196.923 107.482L196.926 107.525C197.006 108.669 197.021 108.877 198.189 108.877H204.208C206.273 108.828 208.338 108.76 210.404 108.692H210.404H210.405C212.776 108.615 215.148 108.537 217.524 108.487H226.122C228.09 108.445 230.062 108.376 232.033 108.306L232.035 108.306C233.439 108.256 234.843 108.207 236.245 108.168C237.444 108.129 238.643 108.106 239.841 108.083C241.242 108.056 242.642 108.029 244.039 107.978C245.252 107.936 246.472 107.873 247.687 107.811L247.688 107.811L247.688 107.811C248.876 107.749 250.06 107.688 251.229 107.647C253.074 107.529 254.919 107.529 256.763 107.529ZM227.446 89.2823C227.558 89.316 227.665 89.3637 227.766 89.4242C227.305 89.6417 226.858 89.842 226.416 90.0397L226.416 90.0398L226.415 90.04L226.415 90.0401C225.824 90.3044 225.244 90.5643 224.655 90.8551C223.663 91.4153 222.722 92.0602 221.841 92.7828C220.369 94.1312 219.572 96.0634 219.665 98.0572C219.555 100.99 220.928 103.782 223.319 105.484C223.569 105.667 223.79 105.863 224.085 106.124L224.085 106.124L224.085 106.124C224.209 106.233 224.345 106.353 224.502 106.489L198.531 107.246C198.404 106.808 198.309 106.362 198.248 105.91C198.167 104.418 198.107 102.934 198.047 101.446C198.027 100.963 198.008 100.48 197.987 99.9967C197.945 98.9545 197.899 97.9154 197.854 96.876C197.747 94.4363 197.64 91.9949 197.574 89.507C197.554 88.7856 197.598 88.0607 197.642 87.3343C197.679 86.7268 197.715 86.1183 197.715 85.5097C197.734 85.0686 197.748 84.6228 197.762 84.1743L197.762 84.1743C197.804 82.8676 197.847 81.5383 197.987 80.2353C198.145 78.7055 198.383 77.1873 198.621 75.6685L198.621 75.6684C198.723 75.0151 198.826 74.3617 198.922 73.7073C198.975 73.3348 199.031 72.9652 199.087 72.5957L199.087 72.5956L199.087 72.5956C199.143 72.2261 199.2 71.8565 199.253 71.484C199.559 69.4204 200.119 67.4026 200.92 65.4763C203.014 60.1664 206.703 56.0864 210.866 52.3494C213.99 49.7557 217.544 47.7303 221.368 46.3654C223.884 45.3554 226.525 44.691 229.22 44.3904C230.674 44.312 232.131 44.4881 233.525 44.9108C237.285 45.9012 240.874 47.4563 244.168 49.523C246.238 50.7397 248.183 52.1578 249.975 53.7567C250.842 54.482 251.653 55.2728 252.399 56.1219C253.728 57.6721 254.976 59.2906 256.136 60.9706C257.041 62.3498 257.805 63.8155 258.419 65.3463C259.496 67.7947 260.259 70.3696 260.689 73.0096C260.92 74.7238 261.062 76.4487 261.115 78.1776L261.133 78.9699C261.198 81.9487 261.262 84.8293 261.186 87.9696C261.14 89.8683 261.021 91.7671 260.902 93.6659C260.807 95.1848 260.712 96.7038 260.654 98.2228C260.595 100.458 260.595 102.705 260.595 104.952V105.555C259.03 105.704 257.454 105.715 255.883 105.725H255.883H255.883H255.883C254.593 105.733 253.307 105.742 252.033 105.827C249.853 105.973 247.673 106.048 245.487 106.124L245.486 106.124L245.485 106.124C244.837 106.147 244.19 106.169 243.542 106.194L234.672 106.454C235.003 106.107 235.273 105.843 235.52 105.601C235.635 105.488 235.745 105.38 235.855 105.271C237.317 103.872 238.309 102.054 238.693 100.068C239.17 97.4323 238.28 94.7345 236.328 92.901C235.007 91.4154 233.3 90.3262 231.396 89.7553C231.359 89.7478 231.326 89.7118 231.262 89.6413L231.262 89.6413C231.225 89.6005 231.177 89.5483 231.112 89.4833C231.233 89.46 231.341 89.4342 231.443 89.41C231.652 89.3605 231.832 89.3177 232.023 89.3177C234.875 88.9817 237.634 88.0941 240.147 86.7042C240.738 86.3612 241.336 86.0236 241.936 85.685L241.936 85.685L241.936 85.685L241.936 85.6849C243.115 85.0196 244.301 84.3505 245.446 83.6294C246.595 82.8785 247.697 82.057 248.745 81.1696C249.703 80.3592 249.942 78.979 249.313 77.8937C248.472 76.555 247.394 75.3808 246.131 74.4287C245.305 73.7796 244.437 73.186 243.569 72.5919C243.109 72.2768 242.648 71.9615 242.193 71.6377C240.534 70.426 238.635 69.5833 236.623 69.1661C234.545 68.7473 232.445 68.4511 230.332 68.2791C228.955 68.2167 227.576 68.332 226.228 68.6221C222.519 69.3875 219.03 70.9802 216.022 73.2816C214.681 74.2828 213.426 75.3981 212.173 76.5112C211.813 76.8313 211.453 77.1511 211.091 77.468C210.525 77.9963 210.003 78.5698 209.53 79.1828C209.387 79.3229 209.306 79.5147 209.306 79.715C209.306 79.9152 209.387 80.107 209.53 80.2471C209.918 80.6757 210.341 81.0713 210.795 81.4297C213.24 83.4034 215.847 85.1678 218.588 86.7042C219.864 87.2746 221.171 87.7721 222.503 88.1943C224.094 88.7795 225.757 89.1455 227.446 89.2823ZM234.601 70.6181C234.716 71.1542 234.825 71.6748 234.932 72.1846C235.133 73.1481 235.327 74.0735 235.536 74.9938C235.835 76.3842 235.782 77.8273 235.382 79.192C235.036 80.7955 234.071 82.1978 232.697 83.0947C230.807 84.3238 228.613 85.0073 226.359 85.0696C224.038 85.2678 221.765 84.3236 220.268 82.5388C219.726 81.8661 219.258 81.1365 218.873 80.3628C217.996 78.9058 217.56 77.2256 217.619 75.526C217.644 75.1321 217.644 74.7372 217.619 74.3433C215.254 75.6797 212.096 78.447 211.47 79.7242C211.862 80.0122 212.262 80.3001 212.664 80.5901L212.664 80.5902C213.171 80.9552 213.682 81.3235 214.19 81.6992C216.152 83.2101 218.293 84.4732 220.564 85.4599C222.038 86.1076 223.576 86.5991 225.152 86.9263C227.344 87.4139 229.601 87.5417 231.834 87.3047C233.357 87.1556 234.85 86.7892 236.269 86.2167C238.327 85.3298 240.325 84.3127 242.312 83.2957C244.012 82.4457 245.601 81.3891 247.042 80.15C247.305 79.913 247.579 79.6941 247.896 79.4415C248.022 79.3411 248.155 79.2354 248.296 79.1211C247.852 78.5715 247.378 78.0464 246.877 77.5482C245.694 76.5193 244.512 75.5378 243.234 74.5444C241.086 72.742 238.56 71.4447 235.843 70.7482C235.432 70.6793 235.018 70.6358 234.601 70.6181ZM222.089 101.486C221.64 100.648 221.393 99.7162 221.368 98.7657C221.356 96.3059 222.136 94.1772 224.502 92.9118C225.35 92.3697 226.231 91.8799 227.139 91.4454C229.412 90.6094 231.962 91.1011 233.761 92.7226C234.504 93.3028 235.175 93.9698 235.76 94.7094C237.156 96.5094 237.56 98.8882 236.836 101.048C236.103 103.91 231.999 106.807 228.558 106.429C227.769 106.374 227.011 106.1 226.37 105.637C224.688 104.542 223.235 103.133 222.089 101.486Z" fill="white"/>
<path fill-rule="evenodd" clip-rule="evenodd" d="M250.086 136.04L247.201 135.023L247.248 134.751C247.846 134.914 248.455 135.037 249.069 135.118C249.255 135.143 249.445 135.208 249.632 135.272C250.062 135.42 250.478 135.563 250.808 135.2C250.713 134.219 250.713 133.415 250.713 132.611C250.728 132.343 250.874 132.1 251.103 131.96C252.016 131.683 252.119 131.006 252.231 130.276C252.248 130.164 252.265 130.051 252.286 129.938C251.653 129.606 250.97 129.384 250.274 129.158C249.16 128.796 248.014 128.424 246.988 127.573C250.784 128.956 252.002 129.193 252.901 128.625C252.251 128.345 251.594 128.083 250.939 127.821C249.796 127.363 248.658 126.908 247.567 126.366C246.894 126.032 246.188 125.778 245.475 125.521C244.37 125.124 243.247 124.72 242.198 124.001C242.423 123.897 242.639 123.8 242.845 123.708L242.845 123.708C243.244 123.53 243.605 123.369 243.925 123.197C243.979 123.168 244.036 123.139 244.092 123.111L244.092 123.111C244.54 122.884 245.011 122.645 244.812 121.932C244.285 121.776 243.875 121.992 243.467 122.207C243.225 122.335 242.983 122.463 242.719 122.511L243.44 121.222L243.239 120.974C242.889 121.054 242.549 121.169 242.222 121.317C242.038 121.422 241.879 121.574 241.72 121.728L241.72 121.728C241.593 121.851 241.465 121.974 241.323 122.073C241.196 122.159 241.071 122.25 240.945 122.341C240.311 122.799 239.671 123.26 238.792 123.161C236.06 122.822 233.355 123.967 231.697 126.165C231.258 126.713 230.575 127.005 229.875 126.946L229.503 126.946C227.886 126.945 226.254 126.944 224.684 127.076C222.993 127.218 222.768 127.62 222.993 129.311C222.998 129.35 222.998 129.39 222.993 129.429C223.432 132.522 225.148 135.289 227.723 137.057C228.63 137.618 229.57 138.124 230.538 138.571C230.375 140.911 230.502 143.263 230.916 145.572C231.111 146.535 231.515 147.443 232.099 148.233C232.749 149.12 232.986 149.108 233.932 148.517C235.587 147.476 237.267 146.435 238.982 145.477C240.693 144.604 242.212 143.397 243.452 141.929C243.983 141.251 244.577 140.617 245.143 140.013L245.143 140.013L245.143 140.013C245.396 139.744 245.643 139.48 245.876 139.221C246.121 139.309 246.368 139.403 246.605 139.492C247.1 139.679 247.555 139.851 247.875 139.931C248.348 140.049 248.975 140.203 249.235 139.623C249.426 139.198 249.114 139.015 248.785 138.822L248.785 138.822C248.665 138.751 248.543 138.68 248.442 138.595C248.672 138.478 248.89 138.34 249.093 138.181C249.223 138.027 249.365 137.708 249.294 137.601C249.148 137.388 248.922 137.243 248.667 137.199C248.392 137.22 248.123 137.292 247.875 137.412L246.408 137.849L246.704 135.91C246.969 135.963 247.226 136.034 247.48 136.104C248.348 136.344 249.171 136.571 250.086 136.04ZM245.522 136.028C245.532 136.592 245.508 137.157 245.451 137.719C245.311 137.804 245.16 137.868 245.001 137.908C242.367 137.905 239.746 138.304 237.232 139.09C235.461 139.509 233.627 139.585 231.827 139.315C231.793 139.13 231.778 138.938 231.764 138.751C231.734 138.354 231.705 137.98 231.496 137.73C231.29 137.485 230.931 137.383 230.514 137.264C230.308 137.205 230.087 137.142 229.864 137.056C230.118 136.893 230.383 136.746 230.656 136.619C231.607 136.223 232.441 135.593 233.081 134.786C233.388 134.407 233.507 134.029 232.903 133.603C232.817 133.672 232.727 133.742 232.635 133.814L232.635 133.814C232.412 133.987 232.179 134.167 231.969 134.36C231.115 135.126 230.069 135.646 228.942 135.862C228.483 136.006 227.982 135.903 227.617 135.59C226.096 134.244 225.006 132.479 224.483 130.517C225.561 130.27 226.358 129.359 226.458 128.258C226.822 128.24 227.186 128.217 227.55 128.194C228.369 128.143 229.187 128.092 230.006 128.092C230.903 128.146 231.776 127.784 232.371 127.111C233.773 125.44 235.832 124.461 238.012 124.426C237.661 124.875 237.356 125.359 237.102 125.869C236.503 127.423 236.921 129.184 238.154 130.304C239.974 132.157 242.083 133.703 244.398 134.88C244.656 134.981 244.899 135.117 245.12 135.282C245.334 135.478 245.476 135.741 245.522 136.028ZM250.666 130.624L250.631 130.609L250.642 130.6L250.666 130.624ZM250.631 130.609L249.968 130.316C249.626 130.161 249.277 130.017 248.928 129.873C247.684 129.359 246.437 128.844 245.486 127.809C245.187 127.557 244.852 127.35 244.493 127.194C244.213 127.029 243.93 126.867 243.648 126.705C243.083 126.382 242.518 126.059 241.974 125.704C241.374 125.252 240.629 125.038 239.881 125.101C239.346 125.139 238.852 125.404 238.525 125.828C238.197 126.253 238.067 126.797 238.166 127.324C238.319 128.47 238.962 129.493 239.928 130.127C242.678 131.807 245.653 133.089 248.762 133.935C249.015 133.983 249.273 134.007 249.531 134.006L249.529 133.863C249.516 132.629 249.504 131.451 250.631 130.609ZM233.671 147.356L233.068 147.746V147.723C232.01 145.565 231.534 143.168 231.685 140.769C231.906 140.722 232.132 140.698 232.359 140.698C234.561 140.806 236.766 140.555 238.887 139.953C240.047 139.686 241.213 139.46 242.38 139.234C242.867 139.14 243.355 139.045 243.842 138.948C244.09 138.929 244.339 138.929 244.587 138.948C244.132 139.405 243.697 139.872 243.266 140.334C241.825 141.879 240.434 143.371 238.532 144.281C236.861 145.223 235.239 146.25 233.671 147.356Z" fill="white"/>
<path fill-rule="evenodd" clip-rule="evenodd" d="M112.692 196.213C112.715 195.988 112.738 195.763 112.762 195.539C112.995 192.367 111.487 189.318 108.824 187.58C106.754 186.03 104.389 186.054 102.024 186.397C100.921 186.536 99.8802 186.983 99.0199 187.686C96.5756 189.68 95.1418 192.656 95.1055 195.811C94.9873 198.672 96.4064 200.825 98.3695 202.729C99.0643 203.438 99.9601 203.917 100.936 204.101C102.471 204.565 104.1 204.626 105.666 204.278C105.891 204.216 106.12 204.173 106.352 204.148C109.419 203.635 111.852 201.283 112.466 198.235C112.555 197.561 112.624 196.887 112.692 196.213ZM109.84 191.139C110.68 192.252 111.098 193.626 111.023 195.018C110.95 195.745 110.899 196.472 110.847 197.211C110.824 197.542 110.8 197.875 110.775 198.211C110.418 200.092 109.054 201.624 107.227 202.197C105.179 203.083 102.866 203.134 100.782 202.338C100.629 202.299 100.482 202.239 100.344 202.161C98.3337 200.588 96.205 198.046 96.9855 194.805C97.2631 193.078 97.9753 191.451 99.0551 190.075C99.5231 189.502 100.113 189.042 100.782 188.727C102.613 187.966 104.649 187.853 106.553 188.407C107.944 188.889 109.112 189.86 109.84 191.139Z" fill="white"/>
<path d="M76.4319 72.9363C76.9432 72.9968 77.3888 73.3131 77.6145 73.7759C78.7971 75.4671 80.0507 77.1582 81.1623 78.8848C82.9481 81.5575 84.7101 84.242 86.4249 86.9738C88.6009 90.5217 90.6823 94.0695 92.7992 97.6173C92.882 97.7592 92.9175 97.913 93.0002 98.0431C93.2368 98.4215 93.3195 98.8236 92.9293 99.0956C92.539 99.3676 92.1015 99.0956 91.8413 98.7408C91.2381 97.9603 90.6587 97.1679 90.1383 96.3756C88.1161 93.1116 86.082 89.8476 84.1188 86.5481C82.1557 83.2486 80.3227 80.0319 78.4305 76.7798C77.8392 75.7627 77.2479 74.7338 76.6921 73.7168C76.5908 73.4617 76.504 73.2011 76.4319 72.9363Z" fill="white"/>
<path d="M143.876 143.953C143.611 144.586 143.167 145.128 142.599 145.514C139.654 147.879 136.686 150.374 133.753 152.728C131.14 154.967 128.374 157.022 125.475 158.877C125.349 158.971 125.219 159.058 125.085 159.137C124.774 159.347 124.353 159.268 124.139 158.96C123.993 158.816 123.92 158.615 123.938 158.411C123.957 158.208 124.065 158.023 124.233 157.907C124.966 157.328 125.723 156.725 126.468 156.193C128.443 154.703 130.406 153.189 132.381 151.722C133.895 150.54 135.444 149.535 136.982 148.435L143.037 144.142C143.259 144.004 143.488 143.878 143.723 143.763L143.876 143.953Z" fill="white"/>
<path d="M88.4711 120.087L87.6196 118.75C87.8088 118.585 87.9508 118.372 88.14 118.325C88.4762 118.236 88.7438 117.982 88.8495 117.651C89.1097 117.047 89.6774 117 90.0322 117.556C90.4188 118.013 90.5149 118.649 90.2805 119.2C89.9967 119.708 89.7483 120.276 88.9796 120.122C88.8022 120.099 88.6248 120.099 88.4711 120.087Z" fill="white"/>
<path d="M103.443 66.8936C103.103 67.5778 102.473 68.0729 101.728 68.2418C101.267 67.4021 100.959 66.6453 101.728 65.8175C102.071 65.4154 102.319 65.3799 102.639 65.8175C102.958 66.255 103.112 66.4324 103.443 66.8936Z" fill="white"/>
<path d="M121.194 141.504C121.194 142.06 120.508 142.686 120.071 142.497C119.67 142.301 119.312 142.028 119.018 141.693C119.018 141.693 119.018 141.338 119.148 141.279C119.55 141.054 119.598 140.7 119.68 140.297C119.763 140.092 119.939 139.939 120.153 139.884C120.37 139.912 120.562 140.038 120.674 140.227C120.869 140.643 121.043 141.069 121.194 141.504Z" fill="white"/>
<path d="M155.147 148.696L154.177 147.785L155.23 146.26L156.318 146.484C156.72 147.963 156.72 147.963 155.147 148.696Z" fill="white"/>
<path d="M114.997 173.611C114.61 173.72 114.214 173.799 113.815 173.848C113.141 173.848 112.857 173.434 113.046 172.76C113.164 172.358 113.318 171.967 113.448 171.577C114.761 171.885 114.891 172.038 114.997 173.611Z" fill="white"/>
<path d="M102.083 98.0444L101.941 96.7554L103.195 95.5728L104.106 96.6608C103.884 97.5709 103.012 98.1677 102.083 98.0444V98.0444Z" fill="white"/>
<path d="M96.2049 50.3274L97.3047 51.2262C97.3047 51.9357 96.7962 52.2432 96.406 52.6453C96.0157 53.0474 95.7673 53.1657 95.4953 52.8227C95.2729 52.5158 95.1912 52.1289 95.2706 51.7583C95.5253 51.2466 95.8389 50.7664 96.2049 50.3274V50.3274Z" fill="white"/>
<path d="M123.559 205.98C122.696 205.317 123.157 204.418 123.063 203.673C123.063 203.579 123.642 203.271 123.689 203.319C124.071 203.68 124.394 204.099 124.647 204.56C124.742 204.738 124.564 205.14 124.387 205.341C124.139 205.588 123.861 205.802 123.559 205.98V205.98Z" fill="white"/>
<path d="M77.0116 79.9612L77.9459 81.2384C77.5556 82.3501 77.2008 82.5984 75.9827 82.6339C75.6161 81.5341 76.4913 80.9073 77.0116 79.9612Z" fill="white"/>
<path d="M93.5091 183.05C93.0006 184.576 92.4329 184.729 91.4041 183.57C91.8061 183.18 91.5696 182.388 92.3265 182.175C93.0834 181.962 93.1661 182.719 93.5091 183.05Z" fill="white"/>
<path d="M73.7121 103.366C73.4283 104.891 73.3928 104.69 72.092 104.879C71.5243 104.111 71.5361 104.123 72.092 103.484C72.3385 103.17 72.5675 102.842 72.7779 102.502L73.7121 103.366Z" fill="white"/>
<path d="M71.8555 204.171C72.4114 203.947 72.8726 203.781 73.1564 204.455C73.444 205.073 73.2441 205.807 72.6834 206.194C72.5036 206.274 72.2953 206.258 72.1303 206.15C71.9653 206.043 71.8663 205.859 71.8674 205.662C71.8201 205.177 71.8555 204.668 71.8555 204.171Z" fill="white"/>
<path d="M237.173 51.8738C236.865 52.5154 236.348 53.0328 235.706 53.3402C232.915 55.1023 230.136 56.888 227.286 58.5792C224.921 59.9983 222.402 61.2637 219.954 62.5882C219.812 62.6592 219.647 62.7774 219.516 62.742C219.234 62.6635 218.961 62.5565 218.7 62.4226C218.807 62.198 218.842 61.8668 219.008 61.7486C219.972 61.0669 220.971 60.4353 222 59.8564C226.151 57.6213 230.278 55.4334 234.5 53.2456C235.269 52.808 236.144 52.3941 237.173 51.8738Z" fill="white"/>
<path d="M206.614 71.2817C206.614 70.7259 206.614 70.2056 206.708 69.6852C206.803 69.1649 207.016 69.0821 207.418 69.1294C207.82 69.1767 208.79 70.04 208.801 70.4657C208.794 70.7298 208.698 70.9838 208.529 71.1871C208.014 71.7164 207.178 71.7577 206.614 71.2817V71.2817Z" fill="white"/>
<path d="M213.236 53.0112L214.631 53.6025C214.501 54.3314 214.037 54.9572 213.377 55.2937C213.283 55.3646 212.857 55.1636 212.739 54.9862C212.242 54.253 212.337 53.9573 213.236 53.0112Z" fill="white"/>
<path d="M244.528 90.9501L243.771 89.9922C243.901 89.732 244.008 89.4955 244.15 89.2708C244.457 88.7386 244.895 88.5612 245.261 88.7741C245.628 89.0776 245.778 89.5717 245.64 90.0277C245.49 90.5315 245.051 90.8955 244.528 90.9501Z" fill="white"/>
<path d="M207.453 94.4138C208.541 95.0288 208.849 95.4663 208.636 96.034C208.423 96.6016 207.915 96.7436 206.697 96.2705L207.453 94.4138Z" fill="white"/>
<path d="M244.859 55.8476C244.492 56.4034 244.611 57.1366 243.889 57.2312C243.168 57.3258 242.967 56.8883 242.707 56.3561L243.641 54.8896L244.859 55.8476Z" fill="white"/>
<path d="M256.875 102.312L258.377 100.55C258.495 101.236 258.601 101.733 258.637 102.123C258.672 102.513 258.637 102.927 258.164 103.081C257.79 103.25 257.349 103.107 257.147 102.75C257.076 102.62 256.993 102.501 256.875 102.312Z" fill="white"/>
<path d="M235.612 128.036C235.278 128.303 234.907 128.522 234.512 128.686C234.316 128.723 234.114 128.662 233.971 128.524C233.827 128.385 233.76 128.185 233.79 127.988C233.799 127.791 233.889 127.606 234.039 127.478C234.19 127.351 234.387 127.291 234.583 127.314C234.878 127.362 235.139 127.681 235.612 128.036Z" fill="white"/>
<defs>
<linearGradient id="paint0_linear_932_7428" x1="256.65" y1="150.917" x2="256.65" y2="180.211" gradientUnits="userSpaceOnUse">
<stop stop-color="#F2E1B3"/>
<stop offset="1" stop-color="#EAA5AB"/>
</linearGradient>
<linearGradient id="paint1_linear_932_7428" x1="259.098" y1="150.269" x2="259.098" y2="165.56" gradientUnits="userSpaceOnUse">
<stop stop-color="#F2E1B3"/>
<stop offset="1" stop-color="#EAA5AB"/>
</linearGradient>
<linearGradient id="paint2_linear_932_7428" x1="228.533" y1="150.917" x2="228.533" y2="172.24" gradientUnits="userSpaceOnUse">
<stop stop-color="#F2E1B3"/>
<stop offset="1" stop-color="#EAA5AB"/>
</linearGradient>
</defs>
</svg>
