<svg width="360" height="243" viewBox="0 0 360 243" fill="none" xmlns="http://www.w3.org/2000/svg">
<path d="M33.7756 237.885H37.4425C37.2347 236.802 37.0565 235.822 36.8635 234.842C36.2549 231.546 35.7204 228.236 35.0227 224.955C34.414 222.104 33.642 219.299 32.9146 216.478C32.0941 213.836 31.5956 211.104 31.43 208.342C31.43 206.858 31.43 205.373 31.3113 203.889C31.3082 202.508 31.5965 201.142 32.1575 199.88C32.4989 199.005 33.0185 198.247 34.0429 198.262C34.5454 198.245 35.0416 198.377 35.4695 198.641C35.8973 198.906 36.2377 199.29 36.4478 199.747C36.8609 200.587 37.0694 201.513 37.0565 202.449C36.8998 207.302 37.9668 212.116 40.1593 216.448L40.5601 217.309C40.7531 215.26 41.0055 213.331 41.0945 211.371C41.3452 208.572 41.9385 205.815 42.8612 203.161C43.9203 199.53 45.4157 196.041 47.3149 192.769C47.6631 192.173 48.0873 191.624 48.5767 191.136C48.7778 190.882 49.0482 190.692 49.3553 190.588C49.6623 190.484 49.9929 190.471 50.307 190.552C50.621 190.632 50.9052 190.801 51.125 191.039C51.3449 191.277 51.4911 191.574 51.5459 191.893C51.929 193.537 51.8153 195.258 51.2192 196.837C50.566 199.569 49.8831 202.3 49.2151 205.017C48.5821 208.362 48.6326 211.801 49.3635 215.127C49.8579 218.343 50.0121 221.602 49.8238 224.851C49.7347 226.662 49.8238 228.488 49.6159 230.299C49.4675 232.467 49.2151 234.619 49.0073 236.772C49.0073 237.009 49.0073 237.262 49.0073 237.663H60.2751C64.0014 237.663 67.6979 237.663 71.4835 237.663C75.2692 237.663 78.9064 237.529 82.5732 237.663C86.2401 237.796 89.9961 237.306 93.7817 237.663C93.7817 238.42 93.4551 238.598 92.9503 238.613C90.1445 238.717 87.3387 238.895 84.518 238.924C82.4693 238.924 80.4206 238.746 78.3571 238.731C77.2288 238.731 76.1005 238.88 74.9723 238.939C72.6118 239.043 70.2514 239.192 67.8761 239.221C63.9865 239.221 60.097 239.221 56.1925 239.221C51.1599 239.221 46.1124 239.147 41.0797 239.221C38.5114 239.221 35.9579 239.503 33.4045 239.607C30.851 239.711 28.4757 239.741 25.9817 239.8C25.2394 239.8 24.4971 239.8 23.7548 239.8C23.2501 239.8 22.7305 239.667 22.2703 239.607C21.6237 239.832 20.9577 239.996 20.281 240.097C19.2121 240.097 18.1283 240.097 17.0446 240.097C16.8516 240.097 16.6735 239.875 16.4805 239.756C16.6289 239.533 16.7477 239.192 16.9407 239.147C17.6135 238.988 18.2991 238.889 18.9894 238.85C21.9585 238.702 24.9276 238.598 28.0007 238.449C28.3109 238.416 28.6184 238.362 28.9211 238.286C28.6836 237.113 28.4164 236.015 28.2531 234.916C27.971 232.808 27.7335 230.715 27.5256 228.607C27.2624 227.04 26.7246 225.533 25.9371 224.153C25.2245 222.668 24.4526 221.303 23.6509 219.877C23.5599 219.698 23.4902 219.509 23.4431 219.313C23.3243 218.675 23.2501 217.992 23.8439 217.547C24.4377 217.101 25.1058 217.547 25.5957 217.873C26.2279 218.345 26.7837 218.91 27.2436 219.551C29.3157 222.393 30.8687 225.58 31.8309 228.963C32.0969 230.056 32.4291 231.132 32.8255 232.185C33.2795 233.624 33.4804 235.13 33.4193 236.638C33.4728 237.07 33.593 237.491 33.7756 237.885ZM49.7495 191.715C49.2745 192.383 48.8588 192.858 48.547 193.393C46.7738 196.53 45.3214 199.837 44.2121 203.265C43.4717 205.193 42.8956 207.179 42.49 209.203C42.0892 211.564 42.0595 213.984 41.8814 216.374C41.8071 217.398 41.7181 218.437 41.7032 219.462C41.6831 220.394 41.7228 221.326 41.822 222.253C41.9259 223.277 42.1337 224.301 42.3119 225.311C42.5643 226.87 42.8463 228.429 43.1135 229.987C43.4253 231.873 43.7667 233.758 44.0637 235.644C44.1676 236.267 44.1973 236.891 44.2418 237.455C46.9586 238.152 47.0773 238.078 47.2109 235.881C47.6097 235.527 47.894 235.062 48.0274 234.545C48.1908 232.778 48.2204 231.012 48.2947 229.23C48.3689 227.449 48.4431 225.207 48.5322 223.203C48.633 222.375 48.6825 221.542 48.6806 220.709C48.547 218.734 48.3986 216.76 48.0868 214.771C47.2694 209.987 47.5383 205.081 48.8736 200.415C49.4378 198.47 49.8832 196.496 50.3582 194.477C50.5134 194.004 50.5388 193.498 50.4318 193.013C50.3247 192.527 50.0891 192.079 49.7495 191.715ZM42.5939 237.737C42.8066 237.394 42.9408 237.009 42.987 236.609C43.0332 236.208 42.9902 235.803 42.8612 235.421C42.1189 231.353 41.3766 227.285 40.6195 223.203C39.7765 219.561 38.6599 215.988 37.2792 212.514C36.7159 210.788 36.3134 209.014 36.0767 207.214C35.8689 205.537 36.0767 203.8 35.9282 202.107C35.8404 201.337 35.5483 200.604 35.082 199.984C34.3991 199.094 33.7014 199.242 33.4045 200.326C32.9938 201.644 32.7251 203.003 32.6028 204.379C32.5382 208.178 33.0385 211.965 34.0874 215.617C34.6812 217.918 35.4087 220.189 35.8689 222.505C36.5221 225.875 36.9823 229.29 37.5167 232.674C37.7988 234.397 38.0363 236.119 38.2887 237.737H42.5939ZM32.7661 237.974C32.7661 237.321 32.7661 236.742 32.6177 236.163C32.4692 235.584 32.4098 234.916 32.2762 234.293C31.9793 232.957 31.7715 231.591 31.3558 230.299C30.9401 229.008 30.2127 227.597 29.6931 226.231C28.8472 224.041 27.7032 221.978 26.2934 220.1C25.9044 219.536 25.3641 219.094 24.7346 218.823C25.0458 219.973 25.5477 221.062 26.2192 222.045C27.6192 224.251 28.4694 226.761 28.6984 229.364C28.7966 231.672 29.1501 233.962 29.7525 236.193C30.2424 237.677 30.9847 238.212 32.7661 237.989V237.974Z" fill="white"/>
<path d="M338.665 221.395C339.037 220.549 339.348 219.673 339.779 218.857C340.61 217.238 341.501 215.635 342.377 214.047C343.574 211.601 344.328 208.962 344.604 206.253C344.96 203.714 345.376 201.19 345.925 198.681C346.18 197.739 346.619 196.856 347.216 196.083C347.397 195.802 347.661 195.584 347.971 195.459C348.281 195.333 348.622 195.307 348.947 195.384C349.273 195.46 349.567 195.636 349.788 195.886C350.01 196.136 350.149 196.449 350.186 196.781C350.509 198.024 350.694 199.298 350.735 200.582C350.829 204.041 350.373 207.494 349.384 210.81C349.361 211.042 349.361 211.276 349.384 211.508C349.85 211.145 350.347 210.822 350.868 210.543C351.336 210.322 351.838 210.181 352.353 210.127C353.259 210.127 353.57 210.424 353.704 211.315C353.765 212.751 353.453 214.177 352.798 215.457C351.577 218.197 350.685 221.072 350.141 224.023C349.895 225.992 349.776 227.976 349.785 229.961C349.645 232.075 349.246 234.164 348.597 236.181C348.493 236.597 348.389 237.028 348.226 237.666L351.566 237.829L358.514 238.067C359.123 238.067 359.731 238.067 359.999 239.017C359.573 239.193 359.13 239.322 358.677 239.403C357.297 239.492 355.916 239.566 354.535 239.522C349.503 239.343 344.47 239.076 339.437 238.943C335.696 238.839 332.015 238.943 328.229 238.824C325.067 238.824 321.905 238.631 318.743 238.572C315.58 238.512 312.433 238.572 309.271 238.423C305.471 238.423 301.67 238.23 297.87 238.156C294.47 238.156 291.07 238.156 287.671 238.156C287.433 238.156 287.121 238.245 286.943 238.156C286.666 238.009 286.457 237.758 286.364 237.458C286.364 237.28 286.765 236.894 287.003 236.894C289.111 236.79 291.234 236.716 293.357 236.701C295.762 236.701 298.181 236.701 300.586 236.701C306.005 236.82 311.439 236.983 316.917 237.117C320.613 237.206 324.339 237.28 328.021 237.339C328.318 237.308 328.611 237.248 328.897 237.161C328.971 236.054 328.971 234.943 328.897 233.836C328.59 231.577 328.845 229.277 329.639 227.14C330.025 226.071 330.367 224.988 330.708 223.904C331.305 221.795 331.254 219.555 330.56 217.476C329.936 215.308 329.075 213.2 328.437 211.033C328.101 209.691 327.834 208.334 327.635 206.965C327.628 206.921 327.628 206.876 327.635 206.832C327.769 206 327.784 205.02 328.674 204.664C329.102 204.532 329.562 204.548 329.98 204.71C330.397 204.871 330.748 205.169 330.975 205.555C334.118 209.056 336.419 213.231 337.7 217.758C338.012 218.99 338.25 220.222 338.517 221.469L338.665 221.395ZM346.741 237.725C346.905 237.339 347.053 237.087 347.157 236.805C348.227 233.837 348.73 230.695 348.642 227.541C348.679 224.788 349.15 222.057 350.037 219.45C350.779 217.12 351.7 214.833 352.487 212.517C352.591 212.206 352.398 211.79 352.353 211.419C351.985 211.445 351.625 211.53 351.284 211.671C349.842 212.727 348.735 214.175 348.092 215.843C347.216 218.144 346.43 220.475 345.613 222.791C344.129 227.244 342.332 231.594 341.917 236.315C341.917 236.538 341.59 236.716 341.204 237.161C341.024 236.639 340.914 236.094 340.877 235.543C341.278 233.257 341.635 230.956 342.214 228.714C342.792 226.472 343.609 224.528 344.307 222.434C345.079 220.104 345.791 217.743 346.623 215.412C347.847 211.969 348.708 208.406 349.191 204.783C349.51 202.734 349.54 200.65 349.28 198.592C349.303 198.215 349.221 197.839 349.043 197.506C348.865 197.173 348.597 196.896 348.271 196.707C347.765 197.561 347.352 198.467 347.038 199.409C346.474 202.215 346.118 205.05 345.554 207.856C345.302 209.508 344.879 211.13 344.292 212.696C343.312 215.012 342.021 217.149 340.937 219.45C339.988 221.238 339.198 223.106 338.576 225.032C337.879 227.69 337.537 230.436 337.092 233.153C337.085 233.936 336.912 234.709 336.584 235.42C336.257 236.132 335.782 236.766 335.192 237.28C335.189 236.729 335.219 236.179 335.281 235.632C335.592 233.94 335.949 232.247 336.275 230.555C336.602 228.862 336.869 227.467 337.121 225.908C337.255 225.133 337.33 224.349 337.344 223.563C337.285 221.251 336.849 218.964 336.053 216.793C334.732 212.963 332.669 209.432 329.981 206.401C329.664 206.101 329.316 205.838 328.942 205.614C328.822 206.1 328.758 206.598 328.749 207.099C328.85 208.178 329.049 209.247 329.342 210.291C329.906 212.117 330.619 213.913 331.257 215.724C332.438 218.95 332.438 222.489 331.257 225.715C330.184 228.222 329.755 230.958 330.01 233.672C330.129 234.593 330.1 235.528 330.174 236.449C330.219 236.71 330.283 236.968 330.367 237.221L346.741 237.725Z" fill="white"/>
<path d="M9.55399 41.7873C11.6146 41.8677 13.6363 42.3731 15.4922 43.2718C17 43.8788 18.5831 44.2783 20.1983 44.4595C22.316 44.5776 24.4107 43.9702 26.1366 42.7374C28.6684 40.8638 31.0783 38.8308 33.3515 36.6507C35.0057 35.1068 36.8459 33.7753 38.8296 32.6869C41.4041 31.3102 44.3005 30.6489 47.2174 30.7718C48.1378 30.8609 49.0731 30.7718 49.9935 30.7718C51.2552 30.8376 52.4806 31.2168 53.5589 31.8752C54.6372 32.5335 55.5344 33.4503 56.1693 34.5426C57.253 36.235 58.0992 38.0907 59.0345 39.8722C59.272 40.3027 59.4502 40.7629 59.7174 41.1934C60.1529 42.0515 60.8084 42.7786 61.617 43.3002C62.4256 43.8219 63.3582 44.1195 64.3195 44.1626C66.9769 44.2665 69.6343 44.504 72.2916 44.697C75.0237 44.8515 77.6461 45.8239 79.8184 47.488C80.7924 48.1661 81.5306 49.1314 81.9297 50.2491C82.3289 51.3669 82.3693 52.5814 82.0452 53.7231C81.8906 54.3576 81.601 54.9512 81.1963 55.4635C80.7915 55.9759 80.281 56.395 79.6996 56.6923C78.1512 57.5756 76.4175 58.084 74.6373 58.1768C71.3564 58.4292 68.0755 58.7558 64.7946 58.934C62.6717 59.0527 60.5487 58.934 58.4407 58.934C57.5202 58.934 56.5998 59.127 55.6645 59.2012C54.8955 59.2973 54.1176 59.2973 53.3486 59.2012C50.3138 58.8377 47.2503 58.778 44.2037 59.023C39.364 59.023 34.5243 59.2309 29.6847 59.2754C25.0677 59.2754 20.4507 59.2754 15.8337 59.2754C13.1718 59.2373 10.5206 58.9289 7.92097 58.355C5.14471 57.7207 2.69842 56.0881 1.04744 53.7677C0.493867 52.9966 0.146096 52.097 0.0369937 51.154C-0.072109 50.2111 0.0610639 49.2559 0.423923 48.3787C1.1256 46.5018 2.36691 44.8744 3.99157 43.7015C5.61622 42.5285 7.55159 41.8625 9.55399 41.7873ZM1.47796 50.3829C1.47243 51.6557 1.94381 52.8845 2.79922 53.8271C4.15459 55.275 5.87121 56.3357 7.77251 56.9001C10.3447 57.5673 12.9843 57.9408 15.6407 58.0135C18.3426 58.1768 21.0594 58.0135 23.7613 58.0135C28.8979 58.0135 34.0344 58.0135 39.1562 58.0135C43.1497 58.0135 47.1431 57.8502 51.1366 57.776C52.0273 57.776 52.9032 57.8799 53.794 57.8502C55.4121 57.8502 57.0452 57.6127 58.6633 57.6127C60.8753 57.6127 63.117 57.8502 65.2993 57.7315C68.5505 57.5533 71.7869 57.2267 75.0084 56.8407C76.7381 56.7083 78.3928 56.0794 79.7738 55.0296C80.4335 54.3627 80.8414 53.4877 80.928 52.5537C81.0146 51.6197 80.7746 50.6846 80.2489 49.9078C79.0298 48.5684 77.5005 47.5488 75.7952 46.9387C73.6794 46.2392 71.4616 45.898 69.2334 45.9292C67.5559 45.9292 65.8783 45.7956 64.2156 45.6768C62.9512 45.5969 61.7293 45.1894 60.67 44.4945C59.6107 43.7996 58.7503 42.841 58.1734 41.713C57.0897 39.8425 56.3029 37.8086 55.2043 35.9381C54.6826 34.8712 53.8923 33.9584 52.911 33.2895C51.9297 32.6205 50.7912 32.2184 49.6075 32.1227C47.1095 31.8633 44.5848 32.1107 42.1847 32.8502C40.5684 33.2649 39.0329 33.9474 37.6419 34.8692C35.1479 36.7694 32.9656 39.0408 30.5606 41.0598C28.8139 42.7003 26.8072 44.0397 24.6223 45.0236C24.0255 45.2252 23.4081 45.3596 22.7814 45.4244C21.9319 45.64 21.0599 45.7546 20.1835 45.7659C18.027 45.52 15.9142 44.9805 13.9038 44.1626C12.4851 43.5849 10.9797 43.2487 9.45007 43.1679C8.20664 43.2022 6.98785 43.5228 5.88844 44.1047C4.78903 44.6866 3.83859 45.5141 3.11098 46.523C2.17072 47.592 1.59832 48.9346 1.47796 50.3532V50.3829Z" fill="white"/>
<path d="M311.781 49.9204C309.598 49.8016 306.451 49.5789 303.304 49.475C301.24 49.475 299.162 49.475 297.098 49.5789C294.634 49.5789 292.185 49.7274 289.676 49.8313C288.191 49.8313 286.825 50.054 285.4 50.0836C283.366 50.0836 281.347 50.0836 279.328 50.0836C277.309 50.0836 275.097 49.8461 272.989 49.6086C270.76 49.457 268.656 48.5208 267.051 46.9661C266.287 46.0553 265.825 44.9294 265.73 43.7446C265.549 42.4706 265.761 41.1719 266.336 40.021C266.912 38.8701 267.824 37.9217 268.951 37.3016C270.191 36.6218 271.574 36.2435 272.987 36.197C274.4 36.1506 275.805 36.4375 277.086 37.0343C278.467 37.5391 279.744 38.3259 281.08 38.9346C282.608 39.6356 284.286 39.9467 285.964 39.8402C289.131 39.6132 292.171 38.5022 294.738 36.6335C298.038 34.4244 301.831 33.0629 305.783 32.6697C307.158 32.5678 308.541 32.683 309.88 33.0112C313.892 33.9951 317.385 36.4547 319.664 39.8996C321.015 41.8006 321.637 44.1246 321.416 46.4465C321.329 47.0943 321.047 47.7003 320.606 48.1832C320.166 48.666 319.588 49.0028 318.951 49.1484C316.626 49.8327 314.198 50.0942 311.781 49.9204ZM285.059 48.7475V48.5397C287.523 48.5397 289.987 48.5397 292.481 48.5397C294.634 48.5397 296.787 48.4209 298.939 48.3319C300.528 48.3319 302.101 48.0795 303.675 48.1389C306.926 48.2725 310.163 48.5694 313.414 48.703C314.844 48.7827 316.278 48.698 317.689 48.4506C319.738 48.0646 320.406 47.0848 320.272 45.0064C320.139 42.6062 319.074 40.3528 317.303 38.7267C316.319 37.6952 315.229 36.7697 314.052 35.9655C311.871 34.6846 309.402 33.9761 306.874 33.906C304.346 33.836 301.841 34.4065 299.592 35.5646C298.108 36.2178 296.846 37.0492 295.465 37.8657C293.805 38.9212 292.044 39.8112 290.21 40.5231C288.387 41.1534 286.449 41.3816 284.53 41.1919C282.611 41.0023 280.755 40.3993 279.091 39.4245C277.429 38.3582 275.554 37.6691 273.598 37.4055C272.545 37.2482 271.47 37.3871 270.492 37.8066C269.514 38.2261 268.672 38.9097 268.06 39.7808C267.548 40.4354 267.208 41.2077 267.07 42.0274C266.932 42.8472 267.001 43.6884 267.271 44.4746C267.541 45.2608 268.003 45.967 268.615 46.5292C269.228 47.0914 269.971 47.4916 270.777 47.6935C272.758 48.2835 274.812 48.5884 276.879 48.5991C279.61 48.5545 282.357 48.6733 285.118 48.7475H285.059Z" fill="white"/>
<path d="M343.104 81.8662L331.851 81.5693C328.51 81.4802 325.17 81.4505 321.845 81.2575C320.016 81.34 318.206 80.8692 316.649 79.9066C315.887 79.4382 315.301 78.7328 314.979 77.8988C314.657 77.0647 314.618 76.1481 314.867 75.2896C315.18 74.1485 315.793 73.1118 316.641 72.287C317.489 71.4622 318.543 70.8792 319.692 70.5984C320.219 70.4435 320.783 70.4857 321.281 70.7171C322.815 71.4776 324.303 72.3303 325.734 73.2706C326.163 73.6301 326.684 73.8613 327.238 73.9375C327.793 74.0136 328.357 73.9317 328.867 73.7011C330.188 73.0924 331.376 72.2165 332.682 71.5188C335.8 69.9452 339.021 68.7278 342.614 69.6779C343.278 69.8458 343.907 70.1325 344.47 70.5241C345.843 71.4065 347.011 72.5735 347.895 73.9463C348.779 75.3191 349.357 76.8657 349.591 78.4814C349.702 78.8798 349.717 79.2988 349.634 79.704C349.552 80.1091 349.374 80.489 349.116 80.8121C348.858 81.1353 348.527 81.3927 348.15 81.563C347.774 81.7334 347.362 81.8118 346.949 81.792C345.687 81.8959 344.395 81.792 343.119 81.792L343.104 81.8662ZM344.588 80.5004V80.7082L346.785 80.5152C348.122 80.4262 348.537 79.669 348.27 78.3478C348.006 76.7811 347.352 75.3058 346.37 74.0574C343.876 70.8062 341.382 69.9748 337.566 71.0883C335.152 71.7771 332.862 72.8444 330.782 74.2504C329.943 74.8197 328.953 75.124 327.939 75.124C326.925 75.124 325.935 74.8197 325.096 74.2504C324.324 73.805 323.611 73.2557 322.884 72.7658C322.42 72.3878 321.877 72.1182 321.295 71.9766C320.714 71.835 320.108 71.825 319.522 71.9473C318.936 72.0697 318.384 72.3212 317.908 72.6837C317.431 73.0462 317.042 73.5104 316.768 74.0426C316.4 74.4974 316.157 75.0401 316.063 75.6172C315.969 76.1943 316.026 76.786 316.23 77.3342C316.434 77.8823 316.776 78.368 317.225 78.7436C317.673 79.1191 318.211 79.3715 318.787 79.476C320.287 79.9084 321.842 80.1185 323.404 80.0996C326.002 80.0996 328.614 80.2332 331.212 80.2926C335.651 80.3816 340.09 80.4707 344.529 80.5449L344.588 80.5004Z" fill="white"/>
<path d="M1.47952 50.3533C1.59988 48.9347 2.17228 47.5922 3.11254 46.5232C3.84015 45.5143 4.79059 44.6867 5.89 44.1048C6.98941 43.5229 8.2082 43.2024 9.45163 43.1681C10.9813 43.2489 12.4866 43.5851 13.9053 44.1627C15.9158 44.9807 18.0285 45.5201 20.185 45.7661C21.0614 45.7547 21.9334 45.6401 22.783 45.4246C23.4096 45.3598 24.027 45.2254 24.6239 45.0238C26.8088 44.0398 28.8154 42.7004 30.5621 41.06C32.9671 39.041 35.1494 36.7696 37.6435 34.8694C39.0546 33.9519 40.6105 33.2793 42.2456 32.88C44.6457 32.1405 47.1704 31.8931 49.6684 32.1526C50.8522 32.2483 51.9907 32.6504 52.972 33.3193C53.9532 33.9883 54.7436 34.901 55.2653 35.9679C56.3193 37.8385 57.1061 39.8723 58.2344 41.7429C58.8112 42.8709 59.6716 43.8294 60.7309 44.5243C61.7903 45.2193 63.0121 45.6267 64.2765 45.7067C65.9392 45.8254 67.6168 45.959 69.2944 45.959C71.5226 45.9279 73.7403 46.269 75.8561 46.9685C77.5614 47.5787 79.0908 48.5982 80.3098 49.9377C80.8356 50.7145 81.0756 51.6496 80.989 52.5836C80.9023 53.5175 80.4944 54.3926 79.8348 55.0594C78.4537 56.1093 76.799 56.7381 75.0693 56.8706C71.8478 57.2566 68.6115 57.5832 65.3603 57.7613C63.1631 57.8801 60.9066 57.6277 58.7243 57.6426C57.1061 57.6426 55.4731 57.8355 53.8549 57.8801C52.9642 57.8801 52.0883 57.791 51.1975 57.8059C47.2041 57.8801 43.2106 58.0137 39.2171 58.0434C34.0954 58.0434 28.9588 58.0434 23.8222 58.0434C21.1203 58.0434 18.4035 58.1621 15.7016 58.0434C13.0453 57.9707 10.4057 57.5972 7.83345 56.93C5.93215 56.3656 4.21553 55.3048 2.86017 53.8569C1.96915 52.9084 1.47512 51.6547 1.47952 50.3533Z" fill="black"/>
<path d="M285.119 48.7488C282.357 48.7488 279.611 48.5558 276.85 48.5855C274.783 48.5749 272.729 48.2699 270.748 47.6799C269.942 47.478 269.199 47.0778 268.586 46.5156C267.974 45.9535 267.512 45.2472 267.242 44.461C266.972 43.6748 266.903 42.8336 267.041 42.0139C267.179 41.1941 267.519 40.4218 268.031 39.7672C268.643 38.8961 269.485 38.2125 270.463 37.793C271.441 37.3735 272.516 37.2346 273.569 37.3919C275.525 37.6555 277.4 38.3447 279.062 39.4109C280.726 40.3858 282.582 40.9887 284.501 41.1783C286.42 41.368 288.358 41.1398 290.181 40.5095C292.016 39.7976 293.776 38.9076 295.436 37.8521C296.817 37.1098 298.138 36.2043 299.564 35.551C301.812 34.3929 304.317 33.8224 306.845 33.8925C309.373 33.9626 311.842 34.671 314.023 35.9519C315.2 36.7561 316.29 37.6816 317.274 38.7132C319.045 40.3392 320.11 42.5926 320.244 44.9929C320.377 47.0713 319.709 48.0511 317.66 48.4371C316.25 48.6845 314.815 48.7692 313.385 48.6894C310.134 48.5558 306.897 48.2589 303.646 48.1253C302.072 48.1253 300.499 48.2589 298.91 48.3183C296.758 48.4074 294.605 48.4964 292.453 48.5261C289.988 48.5261 287.524 48.5261 285.03 48.5261L285.119 48.7488Z" fill="black"/>
<path d="M344.532 80.5453C340.078 80.4711 335.625 80.4117 331.171 80.3078C328.573 80.3078 325.96 80.0405 323.362 80.1148C321.801 80.1337 320.245 79.9236 318.745 79.4913C318.17 79.3867 317.632 79.1343 317.183 78.7588C316.735 78.3832 316.392 77.8975 316.189 77.3494C315.985 76.8012 315.927 76.2095 316.022 75.6324C316.116 75.0553 316.359 74.5126 316.726 74.0578C317 73.5256 317.39 73.0614 317.866 72.6989C318.343 72.3364 318.894 72.0849 319.48 71.9625C320.066 71.8402 320.672 71.8502 321.254 71.9918C321.836 72.1334 322.378 72.403 322.843 72.781C323.585 73.2709 324.327 73.8202 325.055 74.2656C325.893 74.8349 326.884 75.1393 327.897 75.1393C328.911 75.1393 329.902 74.8349 330.74 74.2656C332.821 72.8596 335.11 71.7923 337.525 71.1035C341.34 70.0494 343.834 70.8808 346.328 74.0726C347.311 75.321 347.964 76.7963 348.229 78.363C348.451 79.6842 348.036 80.4414 346.744 80.5305L344.547 80.7234L344.532 80.5453Z" fill="black"/>
<path d="M254.839 232.449C254.735 231.128 254.72 229.985 254.542 228.872C254.096 226.155 253.592 223.438 253.057 220.721C252.79 219.237 252.582 217.752 252.196 216.268C251.736 214.412 251.157 212.571 250.563 210.745C250.207 209.632 249.687 208.578 249.286 207.479C248.411 205.03 247.564 202.565 246.689 200.13C246.124 198.542 245.545 196.983 244.966 195.41C244.269 193.569 243.69 191.683 242.858 189.902C241.596 187.185 240.082 184.572 238.805 181.856C236.328 176.856 233.531 172.021 230.433 167.381C229.482 165.896 228.428 164.412 227.463 163.016C226.261 161.339 225.088 159.646 223.811 158.028C222.327 156.187 220.842 154.421 219.239 152.624C217.992 151.14 216.804 149.655 215.483 148.29C213.256 146.003 210.97 143.767 208.624 141.579C206.828 139.917 204.898 138.373 203.013 136.784C201.81 135.775 200.533 134.839 199.361 133.815C197.22 131.847 195.468 129.496 194.194 126.882C193.972 126.452 193.719 125.828 193.363 125.724C192.168 125.133 190.864 124.794 189.533 124.73C189.384 125.026 189.236 125.279 189.132 125.546C187.787 128.834 185.698 131.766 183.03 134.112C180.833 136.012 178.488 137.749 176.276 139.605C174.859 140.747 173.52 141.982 172.267 143.301C170.026 145.706 167.532 147.874 165.483 150.472C163.909 152.491 161.935 154.168 160.361 156.173C157.793 159.424 155.358 162.749 152.938 166.149C151.276 168.539 149.761 171.033 148.306 173.572C146.718 176.348 145.337 179.213 143.749 182.034C141.633 185.815 139.792 189.745 138.241 193.791C136.757 198.037 135.109 202.283 133.535 206.514C133.134 207.568 132.644 208.578 132.303 209.647C131.843 211.131 131.516 212.69 131.086 214.204C130.863 215.006 130.462 215.763 130.314 216.579C129.616 220.113 128.977 223.661 128.369 227.209C128.161 228.397 128.087 229.614 127.923 231.054H155.121C156.115 230.059 156.991 229.139 157.897 228.278C158.802 227.417 159.717 232.583 160.816 231.648C161.528 231.039 161.284 232.257 162.026 231.648C164.318 229.7 167.257 230.335 170.031 229.174C172.451 228.091 169.229 230.723 171.708 229.833C174.58 228.76 174.127 230.158 176.549 228.278C177.963 227.271 180.76 228.827 181.39 227.209C181.954 225.65 187.054 226.645 188.122 227.877C190.404 230.426 196.205 228.762 201.359 231.188C205.565 233.167 206.269 230.523 210.436 232.503C212.342 233.33 215.569 231.191 217.092 232.604C219.84 235.181 222.926 228.099 224.272 231.618C224.36 231.981 224.582 232.296 224.893 232.503C225.204 232.709 225.581 232.791 225.949 232.732C227.567 232.732 229.186 232.657 230.804 232.628C233.224 232.628 235.643 232.553 238.063 232.553L249.94 232.642L254.839 232.449ZM255.18 10.9377C253.696 10.8041 252.33 10.626 250.964 10.5963C248.351 10.5963 245.738 10.5963 243.111 10.5963C239.177 10.5963 235.228 10.5963 231.234 10.4775C227.241 10.3588 223.811 10.2251 220.011 10.1509C216.923 10.1509 213.835 10.1509 210.747 10.1509C207.362 10.1509 203.978 10.0025 200.593 10.0025C197.208 10.0025 193.897 10.0025 190.557 10.1361C187.499 10.1361 184.441 10.3291 181.383 10.3291C176.81 10.3291 172.223 10.2103 167.65 10.2251C164.34 10.2251 161.044 10.3588 157.733 10.4627C154.423 10.5666 151.157 10.2548 147.861 10.4627C145.991 10.5814 144.105 10.3884 142.235 10.4627C139.191 10.4627 136.148 10.6408 133.119 10.7002C131.531 10.7002 129.957 10.7002 128.369 10.7002C127.701 10.7002 127.33 10.9526 127.419 11.68C127.656 13.5803 127.819 15.5102 128.146 17.3956C128.71 20.8101 129.467 24.18 129.957 27.5945C130.343 30.3113 131.516 32.7757 132.021 35.433C132.357 36.4928 132.774 37.5252 133.268 38.5209C134.129 41.0298 135.034 43.5239 135.925 45.9437C136.46 47.4283 136.994 48.9129 137.543 50.3974C138.241 52.2828 138.835 54.2276 139.681 56.0388C140.973 58.8149 142.517 61.4574 143.793 64.2187C146 68.7298 148.479 73.1024 151.216 77.3126C152.419 79.2425 153.755 81.0685 155.076 82.9242C156.397 84.7799 157.451 86.2942 158.728 87.8975C160.005 89.5008 161.697 91.4456 163.182 93.1974C164.459 94.682 165.676 96.2408 167.027 97.6511C169.303 99.9769 171.619 102.248 173.975 104.465C175.622 105.95 177.374 107.434 179.111 108.919C180.388 109.988 181.739 110.982 183.016 112.051C185.44 114.363 187.449 117.075 188.954 120.068C190.349 119.83 191.819 119.667 193.229 119.296C193.756 119.054 194.185 118.64 194.447 118.123C195.804 115.677 197.577 113.487 199.687 111.651C203.072 108.785 206.694 106.187 209.856 103.099C212.342 100.789 214.663 98.3092 216.804 95.6766C218.897 93.0044 221.362 90.6291 223.47 87.9866C225.578 85.344 227.775 82.2413 229.824 79.287C231.204 77.3126 232.422 75.2193 233.669 73.1409C234.738 71.3743 235.807 69.5928 236.772 67.752C238.256 64.961 239.577 62.1106 241.062 59.3197C242.6 56.2938 243.91 53.1576 244.981 49.9372C245.709 47.8588 246.466 45.7804 247.208 43.7169C247.828 42.3743 248.354 40.9903 248.782 39.575C249.123 38.0904 250.073 36.9028 250.355 35.4033C250.89 32.6124 251.974 29.955 252.493 27.1195C253.369 22.3689 254.304 17.6331 254.735 12.8083C254.958 12.1848 255.076 11.6206 255.18 10.9377ZM121.228 232.732C119.743 232.732 118.363 232.806 116.938 232.939C114.236 233.177 111.534 233.474 108.832 233.756C108.441 233.806 108.054 233.886 107.674 233.993C105.893 234.513 105.655 234.854 105.655 236.71C105.56 237.341 105.691 237.985 106.025 238.529C106.359 239.072 106.875 239.48 107.481 239.679C109.732 240.41 112.095 240.731 114.458 240.629C117.309 240.525 120.159 240.288 123.01 240.199C125.86 240.11 129.037 240.199 132.036 240.11C134.159 240.11 136.282 239.932 138.404 239.887C140.527 239.843 142.249 239.887 144.165 239.887H153.339C154.749 239.887 156.175 239.887 157.6 239.887C159.322 239.887 161.044 239.679 162.766 239.635C165.186 239.635 167.606 239.635 170.026 239.635H179.957C183.505 239.635 187.068 239.635 190.617 239.635C194.506 239.635 198.396 239.531 202.3 239.546C206.487 239.546 210.673 239.635 214.859 239.724C221.377 239.843 227.879 239.991 234.396 240.125L241.047 240.243C243.601 240.243 246.154 240.243 248.722 240.362C250.623 240.362 252.523 240.555 254.438 240.615C256.353 240.674 258.075 240.615 259.886 240.615C262.054 240.615 264.221 240.793 266.389 240.778C268.556 240.763 270.842 240.659 273.158 240.511C274.136 240.438 275.102 240.254 276.038 239.961C276.488 239.795 276.858 239.467 277.077 239.041C277.267 238.63 277.366 238.184 277.369 237.731C277.372 237.279 277.278 236.831 277.094 236.418C276.91 236.005 276.64 235.636 276.302 235.335C275.963 235.035 275.565 234.81 275.133 234.676C274.524 234.466 273.89 234.337 273.247 234.29C271.481 234.29 269.714 234.29 267.947 234.29C263.375 234.29 258.803 234.186 254.23 234.186C250.34 234.186 246.466 234.29 242.576 234.32C239.711 234.32 236.861 234.32 233.995 234.32C229.304 234.32 224.613 234.483 219.937 234.424C214.459 234.424 208.995 234.142 203.517 233.949C200.133 233.845 196.748 233.593 193.363 233.548C188.419 233.548 183.491 233.548 178.517 233.548C175.415 233.548 172.312 233.548 169.209 233.548C165.616 233.459 162.039 233.31 158.446 233.132C155.477 232.969 152.508 232.553 149.539 232.553C143.749 232.553 137.974 232.346 132.184 232.553C130.907 232.553 129.616 232.553 128.339 232.553C125.875 232.494 123.514 232.642 121.154 232.761L121.228 232.732ZM123.277 1.57014C120.545 1.7186 118.615 1.79282 116.7 1.95612C114.058 2.17881 111.4 2.47573 108.743 2.74295C108.356 2.79685 107.974 2.88124 107.6 2.99532C105.893 3.50008 105.685 3.84152 105.655 5.63785C105.553 6.26148 105.675 6.90097 105.998 7.44397C106.321 7.98698 106.825 8.39876 107.422 8.60697C109.661 9.36585 112.022 9.70309 114.384 9.60163C117.249 9.51255 120.1 9.24534 122.95 9.15626C125.8 9.06719 128.888 9.15626 131.976 9.06718C133.847 9.06718 135.717 8.88904 137.603 8.87419C141.938 8.87419 146.273 8.87419 150.622 8.75543C152.344 8.75543 154.052 8.6515 155.774 8.63666C157.095 8.63666 158.416 8.74059 159.752 8.72574C163.939 8.65151 168.14 8.47336 172.327 8.44367C178.354 8.44367 184.381 8.44367 190.394 8.44367C195.026 8.44367 199.658 8.44367 204.289 8.44367C207.258 8.44367 210.302 8.65151 213.316 8.66636C216.908 8.66636 220.516 8.54759 224.123 8.56244C226.528 8.56244 228.948 8.78512 231.368 8.81481C235.109 8.81481 238.791 8.81481 242.591 8.91873C245.56 8.91873 248.529 9.11172 251.498 9.21564C253.993 9.30471 256.487 9.3641 258.921 9.49771C262.143 9.67586 265.349 9.05234 268.586 9.49771C270.252 9.63121 271.928 9.60138 273.589 9.40864C274.466 9.32531 275.329 9.13075 276.157 8.82966C276.558 8.64979 276.887 8.34158 277.092 7.95376C277.295 7.54031 277.406 7.08783 277.418 6.62739C277.43 6.16695 277.341 5.70947 277.159 5.28634C276.977 4.86322 276.706 4.48449 276.364 4.17615C276.022 3.86781 275.617 3.63717 275.177 3.50007C274.575 3.28048 273.946 3.14558 273.307 3.09924C271.54 3.09924 269.773 3.09924 268.007 3.09924C263.553 3.09924 258.966 2.98047 254.438 2.96563C248.93 2.96563 243.408 2.96563 237.9 2.96563C231.873 2.96563 225.86 3.218 219.848 3.18831C214.429 3.18831 208.995 2.9211 203.517 2.74295C200.088 2.62419 196.659 2.38665 193.215 2.32726C189.266 2.25304 185.317 2.32726 181.338 2.32726C177.745 2.32726 174.153 2.40149 170.545 2.32726C167.576 2.32726 164.607 2.32727 161.638 2.13427C158.669 1.94128 155.7 1.5553 152.656 1.40684C149.613 1.25839 146.718 1.22869 143.675 1.21384C139.815 1.21384 135.94 1.21384 132.08 1.21384C128.888 1.45137 125.637 1.54045 123.203 1.59983L123.277 1.57014Z" fill="white"/>
<path d="M212.622 232.627C211.409 232.534 209.614 232.761 208.401 232.626C205.989 232.357 203.532 232.015 201.165 231.621C199.272 231.532 195.738 231.818 195.738 231.818C195.738 231.818 192.548 231.712 192.343 231.621C189.029 231.621 187.296 231.621 187.296 231.621C187.296 231.621 183.894 231.129 181.266 231.359C180.438 231.359 179.246 231.569 178.418 231.621C174.808 231.891 172.402 231.683 168.778 231.818C165.686 231.932 162.594 231.818 159.502 231.818C156.844 231.828 153.694 231.816 151.117 231.359C150.617 231.574 149.634 231.431 149.308 231.359C148.601 231.291 146.273 231.648 145.69 231.359C145.108 231.07 142.072 231.699 142.072 230.936C141.746 230.492 146.769 228.372 146.772 227.872C146.775 227.371 148.037 227.209 148.37 226.766C148.754 226.061 148.938 226.155 149.308 225.439C150.969 222.827 150.563 224.31 152.926 221.978C155.338 220.831 158.956 217.752 159.637 217.291C160.162 216.935 163.881 216.203 166.795 213.777C169.705 211.358 172.833 209.072 176.159 206.933C178.837 205.17 181.396 203.314 183.97 201.479C185.582 200.328 187.195 199.177 188.704 197.975C189.458 197.298 190.15 196.588 190.775 195.849C190.853 195.721 190.975 195.609 191.13 195.523C191.285 195.437 191.468 195.378 191.663 195.354C191.858 195.329 192.059 195.339 192.247 195.382C192.435 195.425 192.605 195.5 192.742 195.6C193.349 195.947 193.904 196.336 194.399 196.761C195.884 197.947 197.47 199.069 199.148 200.121C203.674 203.231 208.512 206.166 212.772 209.453C214.252 210.624 215.968 211.661 217.462 212.823C218.761 213.704 219.921 214.681 220.923 215.736C221.518 216.275 222.156 216.791 222.832 217.281C224.592 218.982 226.293 220.703 228.009 222.466C228.967 223.324 227.059 221.371 227.855 222.307C229.334 224.381 228.203 223.727 229.505 225.801C231.314 228.284 231.296 228.741 231.917 229.975C232.287 230.722 234.329 232.626 230.711 232.626C226.49 232.626 225.764 232.002 221.666 232.624C217.556 233.24 216.815 232.421 212.622 232.627ZM179.502 210.344C180.701 209.432 181.854 208.644 182.86 207.773C185.005 205.907 187.047 203.988 189.192 202.132C189.742 201.631 190.127 201.05 190.316 200.432C190.124 200.432 189.976 200.432 189.946 200.432C186.544 203.543 183.289 206.747 179.487 209.65C179.372 209.752 179.296 209.874 179.266 210.002C179.251 210.065 179.34 210.137 179.502 210.365V210.344ZM201.515 209.1C199.082 206.943 196.984 204.611 195.257 202.143C195.05 203.18 196.81 205.647 199.518 208.115C199.991 208.571 200.435 209.121 201.515 209.121V209.1ZM190.213 208.063C190.986 207.318 191.339 206.398 191.204 205.482C190.079 206.352 190.553 207.317 190.213 208.126V208.063ZM194.355 201.116L194.858 201.852C195.035 201.562 195.301 201.21 194.355 201.178V201.116ZM191.189 204.113H191.603V203.501H191.366L191.189 204.113ZM191.559 204.776L191.204 204.6L190.79 205.129L191.071 205.253L191.559 204.776ZM194.236 200.079L194.014 200.142L194.222 200.556C194.324 200.52 194.423 200.478 194.517 200.432C194.43 200.332 194.336 200.235 194.236 200.142V200.079Z" fill="url(#paint0_linear_431_19300)"/>
<path d="M191.208 121.522C191.264 121.69 191.294 121.865 191.297 122.041C190.253 126.42 188.267 130.518 185.478 134.052C183.86 135.982 182.345 137.986 180.772 139.99C180.534 140.305 180.242 140.577 179.911 140.792C179.647 140.876 179.369 140.906 179.094 140.881C179.094 140.569 178.931 140.168 179.094 139.96C179.641 139.2 180.231 138.471 180.861 137.778C183.028 135.287 185.046 132.67 186.903 129.939C188.125 127.928 189.154 125.806 189.976 123.6C190.273 122.888 190.629 122.116 190.956 121.492L191.208 121.522Z" fill="white"/>
<path d="M195.055 125.87C195.277 126.152 195.515 126.419 195.708 126.716C196.96 128.939 198.4 131.05 200.013 133.026C201.394 134.51 202.819 135.995 204.125 137.658C204.957 138.667 205.61 139.81 206.367 140.879C205.892 141.473 205.521 141.354 205.179 140.953C204.838 140.552 204.2 139.736 203.695 139.127C201.631 136.618 199.494 134.169 197.534 131.586C196.519 130.077 195.612 128.5 194.817 126.865C194.733 126.611 194.688 126.345 194.684 126.078L195.055 125.87Z" fill="white"/>
<path d="M194.449 140.12C193.944 137.701 193.988 135.206 193.691 132.564C194.039 132.697 194.338 132.934 194.548 133.241C194.757 133.549 194.868 133.914 194.864 134.286C195.013 136.008 195.087 137.73 195.146 139.452C195.146 139.69 194.953 139.942 194.835 140.18L194.449 140.12Z" fill="white"/>
<path d="M171.79 44.7554C173.007 44.889 174.225 44.9781 175.442 45.171C177.862 45.557 180.311 45.8836 182.687 46.4478C184.486 46.941 186.255 47.5358 187.987 48.2292C188.206 48.3366 188.419 48.4555 188.625 48.5855C191.03 49.699 191 49.595 194.251 48.4074C196.721 47.4259 199.305 46.7624 201.942 46.4329C202.773 46.4329 203.56 46.0024 204.391 45.9282C208.013 45.5422 211.636 45.082 215.273 44.889C218.376 44.7257 221.478 44.889 224.581 44.889C227.249 44.8749 229.908 45.1992 232.494 45.8539C232.835 45.943 233.177 46.0024 233.503 46.1063C234.213 46.2029 234.889 46.4691 235.473 46.8825C236.058 47.2958 236.534 47.844 236.862 48.4806C237.19 49.1172 237.359 49.8235 237.356 50.5395C237.353 51.2555 237.177 51.9602 236.844 52.5939C236.458 53.6034 235.923 54.5386 235.552 55.563C233.886 59.3035 231.852 62.8691 229.48 66.2073C228.114 68.3748 226.749 70.5422 225.234 72.5909C222.503 76.2875 219.741 80.0137 216.817 83.4876C213.896 86.9503 210.757 90.223 207.42 93.2858C204.732 95.8095 202.164 98.4669 199.581 101.095C197.963 102.742 196.345 104.39 194.83 106.112C194.074 107.082 193.379 108.098 192.752 109.156C192.674 109.338 192.551 109.499 192.396 109.622C192.24 109.746 192.056 109.829 191.861 109.865C191.665 109.9 191.464 109.886 191.275 109.825C191.086 109.763 190.915 109.656 190.778 109.512C190.169 109.015 189.612 108.458 189.115 107.849C187.625 106.151 186.033 104.545 184.349 103.039C179.807 98.5856 174.952 94.3843 170.677 89.6783C169.192 88.0007 167.47 86.5161 165.971 84.8534C164.667 83.591 163.502 82.1924 162.497 80.6818C161.899 79.9098 161.26 79.1713 160.582 78.4698C158.815 76.0351 157.108 73.5707 155.386 71.047C154.424 69.8174 153.542 68.5282 152.743 67.1871C151.259 64.218 149.774 61.2489 148.468 58.2797C147.696 56.5725 147.087 54.791 146.463 53.0244C146.092 51.9555 146.463 51.3617 147.399 50.7233C151.021 48.3183 155.163 47.4127 159.275 46.522C163.4 45.6414 167.582 45.051 171.79 44.7554ZM192.752 51.8516L194.029 52.5642C195.825 53.4549 197.577 54.4496 199.418 55.1919C200.902 55.8005 202.535 56.0381 204.064 56.5428C205.646 57.1005 207.317 57.3622 208.993 57.3148C210.3 57.3148 211.547 57.9977 212.853 57.4929C213.952 58.2649 215.139 57.8344 216.297 57.7453C218.776 57.5375 221.256 57.2702 223.72 57.0327C223.965 56.9961 224.208 56.9465 224.448 56.8843C225.591 56.6319 226.719 56.2607 227.892 56.1123C229.736 55.8151 231.52 55.2236 233.177 54.3605C234.007 53.9391 234.798 53.4421 235.537 52.8759C235.923 52.6087 236.205 52.2524 235.671 51.7328C235.453 51.8092 235.24 51.8984 235.032 52C233.949 52.5493 232.895 53.1877 231.781 53.6331C230.537 54.1114 229.262 54.5081 227.966 54.8207C225.478 55.6478 222.893 56.1469 220.276 56.3053C217.633 56.3053 214.991 56.8991 212.363 56.4389C211.131 56.2162 209.839 56.9436 208.696 56.0529C207.037 55.9918 205.398 55.6661 203.842 55.0879C201.803 54.7241 199.831 54.0534 197.993 53.0986C196.835 52.4751 195.588 51.9704 194.4 51.4062C193.791 50.9905 193.301 51.1242 192.752 51.8219V51.8516ZM204.064 88.4015C202.862 89.7079 201.704 90.8362 200.694 92.0833C198.542 94.7555 196.493 97.5019 194.341 100.159C193.788 100.877 193.403 101.709 193.212 102.594C193.405 102.594 193.554 102.594 193.583 102.594C196.998 98.1403 200.264 93.553 204.079 89.3962C204.195 89.2493 204.271 89.0757 204.302 88.8914C204.317 88.8024 204.228 88.6985 204.064 88.3719V88.4015ZM181.974 90.183C184.415 93.2711 186.52 96.6104 188.254 100.144C188.462 98.6599 186.695 95.1266 183.978 91.5934C183.503 90.9401 183.058 90.1533 181.974 90.1533V90.183ZM193.316 91.6676C192.54 92.7347 192.185 94.0514 192.322 95.3641C193.45 94.1171 192.975 92.7365 193.316 91.5785V91.6676ZM189.159 101.614L188.655 100.56C188.477 100.976 188.209 101.481 189.159 101.525V101.614ZM192.336 97.3238H191.921V98.1997H192.158L192.336 97.3238ZM191.965 96.3736L192.322 96.626L192.737 95.8689L192.455 95.6907L191.965 96.3736ZM189.278 103.099L189.501 103.01L189.293 102.416C189.19 102.468 189.091 102.528 188.996 102.594C189.084 102.737 189.178 102.875 189.278 103.01V103.099Z" fill="url(#paint1_linear_431_19300)"/>
<path d="M192.755 51.8203C193.304 51.1226 193.794 50.989 194.418 51.271C195.605 51.8352 196.852 52.3399 198.01 52.9634C199.848 53.9182 201.82 54.5889 203.859 54.9528C205.416 55.5309 207.055 55.8567 208.714 55.9177C209.857 56.8085 211.149 56.081 212.381 56.3037C215.008 56.7639 217.651 56.1404 220.294 56.1701C222.911 56.0117 225.496 55.5126 227.984 54.6855C229.28 54.3729 230.554 53.9762 231.799 53.4979C232.912 53.0525 233.966 52.4142 235.05 51.8649C235.257 51.7632 235.471 51.674 235.688 51.5976C236.223 52.1172 235.941 52.4735 235.555 52.7408C234.815 53.3069 234.025 53.8039 233.194 54.2253C231.538 55.0884 229.753 55.6799 227.909 55.9771C226.737 56.1256 225.608 56.4967 224.465 56.7491C224.225 56.8113 223.983 56.8609 223.738 56.8975C221.258 57.1351 218.779 57.4023 216.315 57.6101C215.157 57.6992 213.969 58.1297 212.871 57.3577C211.564 57.8625 210.317 57.1202 209.011 57.1796C207.334 57.2271 205.664 56.9654 204.082 56.4076C202.598 55.9029 200.92 55.6653 199.435 55.0567C197.595 54.3144 195.843 53.3197 194.046 52.429L192.755 51.8203Z" fill="white"/>
<path d="M204.066 88.3711C204.229 88.6977 204.318 88.8016 204.304 88.8758C204.273 89.0601 204.196 89.2337 204.081 89.3806C200.266 93.5374 197 98.1098 193.585 102.578C193.585 102.578 193.407 102.578 193.214 102.578C193.404 101.693 193.79 100.861 194.342 100.144C196.495 97.4863 198.543 94.7399 200.696 92.0676C201.706 90.7761 202.864 89.6775 204.066 88.3711Z" fill="white"/>
<path d="M181.977 90.1533C183.075 90.1533 183.461 90.9401 183.981 91.5637C186.697 95.0969 188.434 98.5708 188.256 100.115C186.523 96.5807 184.418 93.2414 181.977 90.1533Z" fill="white"/>
<path d="M193.32 91.5767C192.979 92.7346 193.409 94.1153 192.325 95.2732C192.189 93.9605 192.543 92.6438 193.32 91.5767Z" fill="white"/>
<path d="M189.162 101.523C188.212 101.523 188.479 100.973 188.657 100.469L189.162 101.523Z" fill="white"/>
<path d="M192.337 97.2332L192.159 98.1685H191.966V97.1738L192.337 97.2332Z" fill="white"/>
<path d="M191.966 96.2825L192.456 95.5996L192.738 95.7777L192.322 96.5349L191.966 96.2825Z" fill="white"/>
<path d="M189.279 103.01C189.176 102.846 189.082 102.678 188.997 102.505C189.092 102.439 189.191 102.379 189.294 102.327L189.502 102.92L189.279 103.01Z" fill="white"/>
<defs>
<linearGradient id="paint0_linear_431_19300" x1="187.441" y1="232.858" x2="187.441" y2="195.34" gradientUnits="userSpaceOnUse">
<stop stop-color="#DC69A0"/>
<stop offset="0.25" stop-color="#FF665D"/>
<stop offset="1" stop-color="#E2A88B"/>
</linearGradient>
<linearGradient id="paint1_linear_431_19300" x1="191.839" y1="44.7554" x2="191.839" y2="109.884" gradientUnits="userSpaceOnUse">
<stop stop-color="#F8E1B4"/>
<stop offset="1" stop-color="#F6B4BE"/>
</linearGradient>
</defs>
</svg>
