<svg width="700" height="443" viewBox="0 0 700 443" fill="none" xmlns="http://www.w3.org/2000/svg">
<path d="M699.046 9.44897C699.509 9.14737 699.639 8.5278 699.338 8.06516L694.423 0.525787C694.121 0.0631409 693.501 -0.0673828 693.039 0.234222C692.576 0.535828 692.446 1.1554 692.747 1.61804L697.116 8.31967L690.415 12.6887C689.952 12.9903 689.821 13.6099 690.123 14.0725C690.425 14.5352 691.044 14.6657 691.507 14.3641L699.046 9.44897ZM407.348 411.983L406.837 412.842L407.348 411.983ZM441.179 180.092L441.752 179.272L441.179 180.092ZM233.101 397.969L232.99 398.963L233.101 397.969ZM644.163 232.267L643.315 232.798L644.163 232.267ZM698.706 7.63275C696.646 7.19861 694.617 6.79071 692.62 6.40869L692.245 8.37308C694.229 8.75269 696.245 9.15811 698.294 9.58978L698.706 7.63275ZM680.928 4.41068C676.776 3.79071 672.775 3.2941 668.922 2.91653L668.727 4.90701C672.545 5.2811 676.511 5.77344 680.632 6.38873L680.928 4.41068ZM656.859 2.10101C652.641 1.95355 648.625 1.96866 644.804 2.1391L644.893 4.13712C648.657 3.96921 652.62 3.95404 656.789 4.09979L656.859 2.10101ZM632.801 3.27017C628.589 3.89822 624.664 4.7533 621.015 5.82211L621.577 7.74149C625.132 6.70047 628.966 5.86407 633.096 5.24832L632.801 3.27017ZM609.752 10.2075C605.935 12.125 602.529 14.3533 599.51 16.8647L600.788 18.4023C603.686 15.9927 606.963 13.8469 610.65 11.9946L609.752 10.2075ZM591.199 25.7484C588.824 29.0283 586.866 32.5873 585.289 36.3867L587.136 37.1535C588.658 33.4878 590.542 30.0666 592.819 26.9211L591.199 25.7484ZM581.754 48.0352C580.961 51.8682 580.453 55.8689 580.204 60.0098L582.2 60.1301C582.445 56.0741 582.941 52.1692 583.712 48.4401L581.754 48.0352ZM580.165 72.1056C580.358 76.0324 580.737 80.0537 581.285 84.1502L583.268 83.8849C582.726 79.8384 582.352 75.8732 582.163 72.0078L580.165 72.1056ZM583.286 96.0004C584.065 99.8615 584.972 103.772 585.991 107.717L587.927 107.217C586.916 103.303 586.018 99.428 585.247 95.6048L583.286 96.0004ZM589.265 119.288C590.427 123.08 591.679 126.892 593.01 130.711L594.899 130.053C593.576 126.256 592.331 122.468 591.177 118.701L589.265 119.288ZM597.154 141.992C598.589 145.716 600.089 149.434 601.641 153.137L603.486 152.364C601.94 148.678 600.448 144.977 599.02 141.273L597.154 141.992ZM606.43 164.152C608.077 167.813 609.766 171.447 611.487 175.043L613.291 174.179C611.577 170.597 609.894 166.977 608.253 163.332L606.43 164.152ZM616.789 185.811C618.612 189.417 620.458 192.97 622.315 196.46L624.081 195.52C622.23 192.043 620.391 188.501 618.573 184.909L616.789 185.811ZM628.051 206.983C630.044 210.557 632.037 214.042 634.014 217.426L635.741 216.417C633.77 213.045 631.784 209.57 629.797 206.009L628.051 206.983ZM640.189 227.751C641.241 229.469 642.284 231.152 643.315 232.798L645.01 231.736C643.982 230.096 642.943 228.419 641.894 226.706L640.189 227.751ZM643.315 232.798C644.403 234.533 645.456 236.26 646.476 237.978L648.196 236.957C647.168 235.225 646.106 233.484 645.01 231.736L643.315 232.798ZM652.206 248.204C654.111 251.818 655.866 255.395 657.477 258.932L659.297 258.104C657.67 254.53 655.897 250.919 653.976 247.272L652.206 248.204ZM662.049 269.873C663.482 273.644 664.749 277.366 665.854 281.039L667.769 280.463C666.65 276.743 665.368 272.976 663.918 269.162L662.049 269.873ZM668.807 292.436C669.661 296.375 670.325 300.252 670.808 304.064L672.792 303.813C672.302 299.941 671.628 296.007 670.762 292.012L668.807 292.436ZM671.735 315.857C671.855 319.87 671.767 323.805 671.481 327.657L673.475 327.805C673.766 323.883 673.856 319.879 673.734 315.798L671.735 315.857ZM669.971 339.348C669.245 343.259 668.307 347.074 667.169 350.792L669.081 351.377C670.242 347.587 671.198 343.698 671.938 339.714L669.971 339.348ZM663.081 361.84C661.504 365.454 659.728 368.961 657.764 372.358L659.495 373.359C661.496 369.898 663.307 366.324 664.914 362.64L663.081 361.84ZM651.313 382.229C648.996 385.39 646.505 388.438 643.851 391.37L645.334 392.712C648.032 389.73 650.567 386.629 652.926 383.411L651.313 382.229ZM635.512 399.73C632.623 402.363 629.591 404.882 626.427 407.284L627.637 408.877C630.847 406.44 633.925 403.883 636.859 401.209L635.512 399.73ZM616.72 414.027C613.422 416.123 610.011 418.105 606.498 419.97L607.436 421.737C610.994 419.847 614.449 417.839 617.792 415.716L616.72 414.027ZM595.855 425.131C592.277 426.709 588.612 428.177 584.871 429.529L585.551 431.41C589.335 430.042 593.041 428.558 596.662 426.961L595.855 425.131ZM573.615 433.188C569.852 434.278 566.026 435.258 562.145 436.126L562.581 438.077C566.502 437.201 570.369 436.211 574.172 435.109L573.615 433.188ZM550.514 438.361C546.639 438.986 542.721 439.503 538.766 439.908L538.97 441.898C542.963 441.489 546.92 440.967 550.832 440.335L550.514 438.361ZM526.946 440.781C523.019 440.96 519.065 441.03 515.091 440.989L515.071 442.989C519.082 443.03 523.073 442.959 527.037 442.779L526.946 440.781ZM503.24 440.54C499.319 440.283 495.385 439.918 491.447 439.443L491.207 441.428C495.182 441.908 499.152 442.276 503.11 442.535L503.24 440.54ZM479.731 437.704C475.859 437.02 471.988 436.228 468.125 435.326L467.67 437.274C471.569 438.184 475.476 438.983 479.384 439.673L479.731 437.704ZM456.663 432.316C452.886 431.212 449.123 430 445.38 428.677L444.713 430.563C448.491 431.898 452.29 433.121 456.102 434.236L456.663 432.316ZM434.31 424.415C430.686 422.902 427.087 421.282 423.519 419.552L422.647 421.352C426.248 423.098 429.881 424.734 433.54 426.261L434.31 424.415ZM413.016 414.089C411.288 413.128 409.568 412.139 407.859 411.123L406.837 412.842C408.563 413.868 410.299 414.866 412.043 415.837L413.016 414.089ZM407.859 411.123C406.064 410.056 404.288 408.989 402.532 407.923L401.494 409.632C403.255 410.702 405.036 411.772 406.837 412.842L407.859 411.123ZM392.232 401.528C388.84 399.375 385.527 397.223 382.291 395.074L381.185 396.74C384.432 398.897 387.757 401.056 391.16 403.217L392.232 401.528ZM372.164 388.179C368.877 385.883 365.678 383.591 362.565 381.304L361.38 382.916C364.507 385.213 367.719 387.514 371.019 389.818L372.164 388.179ZM352.777 373.906C349.602 371.435 346.526 368.971 343.547 366.513L342.274 368.055C345.268 370.526 348.359 373.002 351.549 375.485L352.777 373.906ZM334.234 358.569C331.206 355.898 328.292 353.236 325.49 350.584L324.116 352.037C326.935 354.705 329.866 357.383 332.911 360.069L334.234 358.569ZM316.8 342.028C313.941 339.096 311.218 336.179 308.628 333.278L307.136 334.61C309.746 337.533 312.489 340.472 315.368 343.425L316.8 342.028ZM300.879 324.164C298.268 320.931 295.821 317.721 293.533 314.537L291.909 315.704C294.219 318.92 296.689 322.159 299.323 325.42L300.879 324.164ZM286.859 304.611C284.689 301.146 282.707 297.714 280.907 294.321L279.141 295.258C280.963 298.695 282.969 302.168 285.164 305.673L286.859 304.611ZM275.704 283.46C274.078 279.656 272.682 275.906 271.506 272.215L269.6 272.822C270.796 276.576 272.215 280.386 273.865 284.247L275.704 283.46ZM268.487 260.644C267.673 256.622 267.125 252.682 266.828 248.829L264.834 248.983C265.138 252.919 265.697 256.941 266.527 261.041L268.487 260.644ZM266.708 236.917C266.947 232.866 267.473 228.931 268.266 225.12L266.308 224.713C265.495 228.62 264.956 232.652 264.712 236.799L266.708 236.917ZM271.567 213.693C272.969 209.943 274.647 206.34 276.579 202.896L274.834 201.918C272.854 205.45 271.132 209.145 269.694 212.993L271.567 213.693ZM283.171 192.972C285.602 189.843 288.266 186.885 291.138 184.109L289.748 182.671C286.81 185.51 284.082 188.539 281.592 191.745L283.171 192.972ZM300.256 176.418C303.434 174.076 306.789 171.919 310.298 169.957L309.322 168.211C305.742 170.213 302.317 172.415 299.069 174.807L300.256 176.418ZM321.058 164.75C324.706 163.24 328.476 161.92 332.349 160.799L331.793 158.878C327.851 160.019 324.01 161.363 320.293 162.903L321.058 164.75ZM344.007 158.089C347.896 157.398 351.861 156.9 355.886 156.602L355.738 154.607C351.646 154.91 347.613 155.417 343.657 156.12L344.007 158.089ZM367.855 156.31C371.802 156.408 375.788 156.697 379.796 157.185L380.038 155.2C375.966 154.704 371.916 154.41 367.905 154.311L367.855 156.31ZM391.6 159.191C395.452 160.032 399.311 161.061 403.164 162.284L403.769 160.377C399.858 159.136 395.939 158.092 392.027 157.237L391.6 159.191ZM414.399 166.414C418.028 167.935 421.64 169.636 425.223 171.522L426.154 169.752C422.519 167.839 418.855 166.113 415.172 164.569L414.399 166.414ZM435.571 177.542C437.259 178.621 438.937 179.744 440.605 180.911L441.752 179.272C440.061 178.089 438.36 176.951 436.649 175.857L435.571 177.542ZM440.605 180.911C442.17 182.006 443.71 183.236 445.22 184.592L446.556 183.105C444.991 181.698 443.388 180.417 441.752 179.272L440.605 180.911ZM453.215 193.342C455.539 196.381 457.735 199.735 459.775 203.359L461.518 202.379C459.436 198.679 457.189 195.247 454.804 192.127L453.215 193.342ZM465.011 214.091C466.526 217.688 467.896 221.461 469.101 225.38L471.013 224.792C469.788 220.811 468.396 216.975 466.854 213.315L465.011 214.091ZM472.088 236.994C472.893 240.847 473.54 244.798 474.014 248.823L476 248.589C475.52 244.505 474.863 240.495 474.046 236.585L472.088 236.994ZM474.89 260.789C475.005 264.751 474.947 268.758 474.703 272.79L476.699 272.911C476.947 268.818 477.005 264.751 476.889 260.731L474.89 260.789ZM473.432 284.724C472.83 288.641 472.043 292.562 471.058 296.468L472.997 296.957C473.998 292.989 474.798 289.005 475.408 285.027L473.432 284.724ZM467.566 307.924C466.229 311.644 464.696 315.333 462.956 318.974L464.761 319.836C466.53 316.134 468.089 312.382 469.449 308.6L467.566 307.924ZM457.251 329.499C455.202 332.858 452.955 336.159 450.502 339.387L452.094 340.597C454.589 337.314 456.874 333.957 458.958 330.541L457.251 329.499ZM442.788 348.544C440.12 351.409 437.264 354.199 434.212 356.902L435.538 358.399C438.638 355.654 441.54 352.819 444.252 349.907L442.788 348.544ZM424.887 364.426C421.741 366.74 418.423 368.971 414.928 371.111L415.972 372.817C419.515 370.648 422.879 368.385 426.072 366.037L424.887 364.426ZM404.433 376.98C400.936 378.763 397.288 380.462 393.482 382.072L394.261 383.914C398.109 382.286 401.802 380.566 405.342 378.762L404.433 376.98ZM382.341 386.363C378.667 387.647 374.864 388.854 370.928 389.978L371.478 391.901C375.449 390.766 379.29 389.548 383.001 388.251L382.341 386.363ZM359.239 392.979C355.407 393.858 351.461 394.664 347.4 395.393L347.754 397.361C351.845 396.627 355.822 395.815 359.686 394.929L359.239 392.979ZM335.614 397.245C331.696 397.777 327.678 398.241 323.56 398.635L323.75 400.626C327.894 400.229 331.938 399.762 335.883 399.227L335.614 397.245ZM311.616 399.561C307.689 399.796 303.678 399.971 299.58 400.083L299.634 402.083C303.754 401.97 307.787 401.794 311.735 401.557L311.616 399.561ZM287.49 400.23C283.568 400.22 279.572 400.155 275.5 400.033L275.44 402.032C279.53 402.155 283.544 402.22 287.485 402.23L287.49 400.23ZM263.387 399.515C259.465 399.298 255.476 399.03 251.421 398.711L251.264 400.705C255.335 401.025 259.338 401.294 263.276 401.512L263.387 399.515ZM239.378 397.629C237.338 397.424 235.283 397.206 233.211 396.975L232.99 398.963C235.069 399.194 237.131 399.413 239.177 399.619L239.378 397.629ZM233.211 396.975C231.09 396.739 229.001 396.491 226.944 396.231L226.693 398.215C228.761 398.476 230.859 398.726 232.99 398.963L233.211 396.975ZM214.971 394.53C210.783 393.865 206.737 393.147 202.828 392.378L202.442 394.34C206.376 395.115 210.446 395.837 214.658 396.505L214.971 394.53ZM190.996 389.794C186.937 388.815 183.042 387.774 179.304 386.674L178.74 388.593C182.51 389.702 186.437 390.752 190.527 391.738L190.996 389.794ZM167.633 382.874C163.663 381.446 159.895 379.943 156.317 378.37L155.512 380.201C159.134 381.794 162.945 383.313 166.956 384.756L167.633 382.874ZM145.41 373.049C141.716 371.052 138.261 368.966 135.027 366.8L133.914 368.461C137.202 370.664 140.711 372.782 144.459 374.808L145.41 373.049ZM125.337 359.541C122.15 356.87 119.225 354.103 116.534 351.249L115.079 352.621C117.823 355.532 120.805 358.353 124.052 361.074L125.337 359.541ZM108.786 341.974C106.357 338.682 104.168 335.299 102.185 331.84L100.45 332.834C102.469 336.357 104.699 339.804 107.177 343.162L108.786 341.974ZM96.714 321.006C95.0689 317.299 93.6032 313.525 92.2785 309.697L90.3885 310.351C91.7294 314.225 93.2154 318.053 94.8859 321.817L96.714 321.006ZM88.6881 298.067C87.6093 294.156 86.6328 290.209 85.7202 286.238L83.771 286.686C84.6885 290.678 85.6719 294.654 86.7601 298.599L88.6881 298.067ZM83.1408 274.297C82.3179 270.299 81.5222 266.301 80.7117 262.303L78.7516 262.7C79.56 266.688 80.3584 270.699 81.1818 274.7L83.1408 274.297ZM78.1937 250.308C77.3091 246.301 76.3712 242.317 75.3401 238.372L73.4052 238.878C74.4281 242.792 75.36 246.75 76.2407 250.739L78.1937 250.308ZM71.8912 226.563C70.611 222.654 69.1923 218.801 67.5929 215.022L65.7511 215.801C67.3259 219.522 68.7253 223.322 69.9905 227.186L71.8912 226.563ZM62.2099 203.922C60.2327 200.354 58.0383 196.876 55.5861 193.502L53.9684 194.678C56.3695 197.981 58.5204 201.391 60.4606 204.891L62.2099 203.922ZM47.7052 184.02C44.9517 181.115 41.9477 178.315 38.6619 175.633L37.397 177.182C40.617 179.811 43.5587 182.553 46.2537 185.396L47.7052 184.02ZM28.6628 168.414C25.3318 166.287 21.7681 164.258 17.9515 162.334L17.0513 164.12C20.8099 166.015 24.3147 168.011 27.5865 170.099L28.6628 168.414ZM6.73969 157.291C4.82605 156.524 2.85876 155.78 0.835938 155.058L0.164062 156.942C2.16333 157.655 4.10663 158.39 5.99579 159.147L6.73969 157.291Z" fill="white"/>
</svg>
