<svg width="1731" height="452" viewBox="0 0 1731 452" fill="none" xmlns="http://www.w3.org/2000/svg">
<path opacity="0.2" d="M56.8 99.8V272.6C56.8 291.533 61.7333 306.067 71.6 316.2C81.4667 326.067 95.3333 331 113.2 331C131.333 331 145.333 326.067 155.2 316.2C165.067 306.067 170 291.533 170 272.6V99.8H226.4V272.2C226.4 295.933 221.2 316.067 210.8 332.6C200.667 348.867 186.933 361.133 169.6 369.4C152.533 377.667 133.467 381.8 112.4 381.8C91.6 381.8 72.6667 377.667 55.6 369.4C38.8 361.133 25.4667 348.867 15.6 332.6C5.73333 316.067 0.800001 295.933 0.800001 272.2V99.8H56.8ZM403.306 154.2C429.706 154.2 451.04 162.6 467.306 179.4C483.573 195.933 491.706 219.133 491.706 249V379H435.706V256.6C435.706 239 431.306 225.533 422.506 216.2C413.706 206.6 401.706 201.8 386.506 201.8C371.04 201.8 358.773 206.6 349.706 216.2C340.906 225.533 336.506 239 336.506 256.6V379H280.506V157.4H336.506V185C343.973 175.4 353.44 167.933 364.906 162.6C376.64 157 389.44 154.2 403.306 154.2ZM694.959 0.199989L586.959 451.4H532.159L640.159 0.199989H694.959ZM883.491 379L821.891 270.2H795.491V379H739.491V99.8H844.291C865.891 99.8 884.291 103.667 899.491 111.4C914.691 118.867 926.024 129.133 933.491 142.2C941.224 155 945.091 169.4 945.091 185.4C945.091 203.8 939.757 220.467 929.091 235.4C918.424 250.067 902.557 260.2 881.491 265.8L948.291 379H883.491ZM795.491 228.2H842.291C857.491 228.2 868.824 224.6 876.291 217.4C883.757 209.933 887.491 199.667 887.491 186.6C887.491 173.8 883.757 163.933 876.291 157C868.824 149.8 857.491 146.2 842.291 146.2H795.491V228.2ZM1201.74 263.4C1201.74 271.4 1201.21 278.6 1200.14 285H1038.14C1039.47 301 1045.07 313.533 1054.94 322.6C1064.81 331.667 1076.94 336.2 1091.34 336.2C1112.14 336.2 1126.94 327.267 1135.74 309.4H1196.14C1189.74 330.733 1177.47 348.333 1159.34 362.2C1141.21 375.8 1118.94 382.6 1092.54 382.6C1071.21 382.6 1052.01 377.933 1034.94 368.6C1018.14 359 1004.94 345.533 995.341 328.2C986.007 310.867 981.341 290.867 981.341 268.2C981.341 245.267 986.007 225.133 995.341 207.8C1004.67 190.467 1017.74 177.133 1034.54 167.8C1051.34 158.467 1070.67 153.8 1092.54 153.8C1113.61 153.8 1132.41 158.333 1148.94 167.4C1165.74 176.467 1178.67 189.4 1187.74 206.2C1197.07 222.733 1201.74 241.8 1201.74 263.4ZM1143.74 247.4C1143.47 233 1138.27 221.533 1128.14 213C1118.01 204.2 1105.61 199.8 1090.94 199.8C1077.07 199.8 1065.34 204.067 1055.74 212.6C1046.41 220.867 1040.67 232.467 1038.54 247.4H1143.74ZM1228.22 267.4C1228.22 245 1232.62 225.133 1241.42 207.8C1250.48 190.467 1262.62 177.133 1277.82 167.8C1293.28 158.467 1310.48 153.8 1329.42 153.8C1345.95 153.8 1360.35 157.133 1372.62 163.8C1385.15 170.467 1395.15 178.867 1402.62 189V157.4H1459.02V379H1402.62V346.6C1395.42 357 1385.42 365.667 1372.62 372.6C1360.08 379.267 1345.55 382.6 1329.02 382.6C1310.35 382.6 1293.28 377.8 1277.82 368.2C1262.62 358.6 1250.48 345.133 1241.42 327.8C1232.62 310.2 1228.22 290.067 1228.22 267.4ZM1402.62 268.2C1402.62 254.6 1399.95 243 1394.62 233.4C1389.28 223.533 1382.08 216.067 1373.02 211C1363.95 205.667 1354.22 203 1343.82 203C1333.42 203 1323.82 205.533 1315.02 210.6C1306.22 215.667 1299.02 223.133 1293.42 233C1288.08 242.6 1285.42 254.067 1285.42 267.4C1285.42 280.733 1288.08 292.467 1293.42 302.6C1299.02 312.467 1306.22 320.067 1315.02 325.4C1324.08 330.733 1333.68 333.4 1343.82 333.4C1354.22 333.4 1363.95 330.867 1373.02 325.8C1382.08 320.467 1389.28 313 1394.62 303.4C1399.95 293.533 1402.62 281.8 1402.62 268.2ZM1499.31 267.4C1499.31 245 1503.71 225.133 1512.51 207.8C1521.58 190.467 1533.84 177.133 1549.31 167.8C1564.78 158.467 1581.98 153.8 1600.91 153.8C1615.31 153.8 1629.04 157 1642.11 163.4C1655.18 169.533 1665.58 177.8 1673.31 188.2V83H1730.11V379H1673.31V346.2C1666.38 357.133 1656.64 365.933 1644.11 372.6C1631.58 379.267 1617.04 382.6 1600.51 382.6C1581.84 382.6 1564.78 377.8 1549.31 368.2C1533.84 358.6 1521.58 345.133 1512.51 327.8C1503.71 310.2 1499.31 290.067 1499.31 267.4ZM1673.71 268.2C1673.71 254.6 1671.04 243 1665.71 233.4C1660.38 223.533 1653.18 216.067 1644.11 211C1635.04 205.667 1625.31 203 1614.91 203C1604.51 203 1594.91 205.533 1586.11 210.6C1577.31 215.667 1570.11 223.133 1564.51 233C1559.18 242.6 1556.51 254.067 1556.51 267.4C1556.51 280.733 1559.18 292.467 1564.51 302.6C1570.11 312.467 1577.31 320.067 1586.11 325.4C1595.18 330.733 1604.78 333.4 1614.91 333.4C1625.31 333.4 1635.04 330.867 1644.11 325.8C1653.18 320.467 1660.38 313 1665.71 303.4C1671.04 293.533 1673.71 281.8 1673.71 268.2Z" fill="#FDC1C5"/>
</svg>
