<svg width="36" height="36" viewBox="0 0 36 36" fill="none" xmlns="http://www.w3.org/2000/svg">
<mask id="mask0_586_7626" style="mask-type:alpha" maskUnits="userSpaceOnUse" x="0" y="0" width="36" height="36">
<rect width="36" height="36" fill="#D9D9D9"/>
</mask>
<g mask="url(#mask0_586_7626)">
<path d="M9 18.0747C9 18.4747 9.025 18.8685 9.075 19.256C9.125 19.6435 9.2125 20.0247 9.3375 20.3997C9.4625 20.8247 9.45 21.231 9.3 21.6185C9.15 22.006 8.8875 22.2872 8.5125 22.4622C8.1125 22.6622 7.71875 22.681 7.33125 22.5185C6.94375 22.356 6.6875 22.0622 6.5625 21.6372C6.3625 21.0622 6.21875 20.4747 6.13125 19.8747C6.04375 19.2747 6 18.6747 6 18.0747C6 14.7247 7.1625 11.8747 9.4875 9.52471C11.8125 7.17471 14.65 5.99971 18 5.99971H18.2625L16.9125 4.64971C16.6375 4.37471 16.5 4.02471 16.5 3.59971C16.5 3.17471 16.6375 2.82471 16.9125 2.54971C17.1875 2.27471 17.5375 2.13721 17.9625 2.13721C18.3875 2.13721 18.7375 2.27471 19.0125 2.54971L22.9125 6.44971C23.2125 6.74971 23.3625 7.09971 23.3625 7.49971C23.3625 7.89971 23.2125 8.24971 22.9125 8.54971L19.0125 12.4497C18.7375 12.7247 18.3875 12.8622 17.9625 12.8622C17.5375 12.8622 17.1875 12.7247 16.9125 12.4497C16.6375 12.1747 16.5 11.8247 16.5 11.3997C16.5 10.9747 16.6375 10.6247 16.9125 10.3497L18.2625 8.99971H18C15.5 8.99971 13.375 9.88096 11.625 11.6435C9.875 13.406 9 15.5497 9 18.0747ZM27 17.9247C27 17.5247 26.975 17.131 26.925 16.7435C26.875 16.356 26.7875 15.9747 26.6625 15.5997C26.5375 15.1747 26.55 14.7685 26.7 14.381C26.85 13.9935 27.1125 13.7122 27.4875 13.5372C27.8875 13.3372 28.2812 13.3185 28.6688 13.481C29.0562 13.6435 29.3125 13.9372 29.4375 14.3622C29.6375 14.9372 29.7812 15.5247 29.8688 16.1247C29.9563 16.7247 30 17.3247 30 17.9247C30 21.2747 28.8375 24.1247 26.5125 26.4747C24.1875 28.8247 21.35 29.9997 18 29.9997H17.7375L19.0875 31.3497C19.3625 31.6247 19.5 31.9747 19.5 32.3997C19.5 32.8247 19.3625 33.1747 19.0875 33.4497C18.8125 33.7247 18.4625 33.8622 18.0375 33.8622C17.6125 33.8622 17.2625 33.7247 16.9875 33.4497L13.0875 29.5497C12.7875 29.2497 12.6375 28.8997 12.6375 28.4997C12.6375 28.0997 12.7875 27.7497 13.0875 27.4497L16.9875 23.5497C17.2625 23.2747 17.6125 23.1372 18.0375 23.1372C18.4625 23.1372 18.8125 23.2747 19.0875 23.5497C19.3625 23.8247 19.5 24.1747 19.5 24.5997C19.5 25.0247 19.3625 25.3747 19.0875 25.6497L17.7375 26.9997H18C20.5 26.9997 22.625 26.1185 24.375 24.356C26.125 22.5935 27 20.4497 27 17.9247Z" fill="#8E85B7"/>
</g>
</svg>
