<svg width="40" height="40" viewBox="0 0 40 40" fill="none" xmlns="http://www.w3.org/2000/svg">
<g clip-path="url(#clip0_313_6924)">
<path d="M26.9788 11.0826L22.461 15.6007C21.9252 16.1361 21.9252 17.0049 22.461 17.5403C23.0046 18.0843 23.8717 18.0691 24.4009 17.5403L31.2603 10.6805C31.7961 10.1447 31.7961 9.27595 31.2603 8.74054L24.4005 1.88279C23.8643 1.3478 22.9964 1.34739 22.4606 1.8832C21.9248 2.41901 21.9248 3.28735 22.4606 3.82317L26.9779 8.33889H16.5724C8.25169 8.33889 1.48242 15.1085 1.48242 23.4289C1.48242 24.1865 2.09685 24.8005 2.85406 24.8005C3.61128 24.8005 4.22568 24.1865 4.22568 23.4289C4.22568 16.6213 9.76447 11.0826 16.5724 11.0826H26.9788ZM37.1485 15.1995C36.3909 15.1995 35.7765 15.8139 35.7765 16.5711C35.7765 23.3787 30.2381 28.9166 23.4301 28.9166H13.0246L17.542 24.3984C18.0778 23.8639 18.0778 22.9947 17.542 22.4585C16.9979 21.9148 16.1312 21.9309 15.6024 22.4585L8.74305 29.3187C8.20724 29.8549 8.20724 30.7232 8.74305 31.2595L15.602 38.1168C16.1378 38.6522 17.0058 38.6526 17.5416 38.1168C18.0774 37.581 18.0774 36.7122 17.5416 36.1764L13.0234 31.6599H23.4301C31.7513 31.6599 38.5201 24.891 38.5201 16.5711C38.5201 15.8139 37.9061 15.1995 37.1485 15.1995Z" fill="white" stroke="white" stroke-width="1.48148"/>
</g>
<defs>
<clipPath id="clip0_313_6924">
<rect width="40" height="40" fill="white"/>
</clipPath>
</defs>
</svg>
