<svg width="14" height="14" viewBox="0 0 14 14" fill="none" xmlns="http://www.w3.org/2000/svg">
<path d="M6.03595 11.7373C7.35168 11.7373 8.56121 11.2847 9.52627 10.5343L12.5416 13.5495C12.6067 13.6145 12.7123 13.6145 12.7773 13.5495L13.5495 12.7774C13.6015 12.7253 13.612 12.6474 13.5807 12.585L13.5495 12.5417L10.5341 9.52649C11.2853 8.56077 11.7379 7.3513 11.7379 6.03565C11.7379 2.89189 9.17987 0.333984 6.03595 0.333984C2.89203 0.333984 0.333984 2.89189 0.333984 6.03565C0.333984 9.1794 2.89203 11.7373 6.03595 11.7373ZM6.03595 1.7594C8.39443 1.7594 10.3124 3.6773 10.3124 6.03565C10.3124 8.39399 8.39443 10.3119 6.03595 10.3119C3.67747 10.3119 1.75948 8.39399 1.75948 6.03565C1.75948 3.6773 3.67747 1.7594 6.03595 1.7594Z" fill="#4B5058"/>
</svg>
