<svg width="36" height="37" viewBox="0 0 36 37" fill="none" xmlns="http://www.w3.org/2000/svg">
<mask id="mask0_431_19510" style="mask-type:alpha" maskUnits="userSpaceOnUse" x="0" y="0" width="36" height="37">
<rect y="0.5" width="36" height="36" fill="#D9D9D9"/>
</mask>
<g mask="url(#mask0_431_19510)">
<path d="M20.8125 33.5H15.1875C14.8125 33.5 14.4875 33.375 14.2125 33.125C13.9375 32.875 13.775 32.5625 13.725 32.1875L13.275 28.7C12.95 28.575 12.6438 28.425 12.3563 28.25C12.0688 28.075 11.7875 27.8875 11.5125 27.6875L8.25002 29.0375C7.90002 29.1625 7.55002 29.175 7.20002 29.075C6.85002 28.975 6.57502 28.7625 6.37502 28.4375L3.60002 23.6C3.40002 23.275 3.33752 22.925 3.41252 22.55C3.48752 22.175 3.67502 21.875 3.97502 21.65L6.78752 19.5125C6.76252 19.3375 6.75002 19.1688 6.75002 19.0063V17.9938C6.75002 17.8313 6.76252 17.6625 6.78752 17.4875L3.97502 15.35C3.67502 15.125 3.48752 14.825 3.41252 14.45C3.33752 14.075 3.40002 13.725 3.60002 13.4L6.37502 8.5625C6.55002 8.2125 6.81877 7.99375 7.18127 7.90625C7.54377 7.81875 7.90002 7.8375 8.25002 7.9625L11.5125 9.3125C11.7875 9.1125 12.075 8.925 12.375 8.75C12.675 8.575 12.975 8.425 13.275 8.3L13.725 4.8125C13.775 4.4375 13.9375 4.125 14.2125 3.875C14.4875 3.625 14.8125 3.5 15.1875 3.5H20.8125C21.1875 3.5 21.5125 3.625 21.7875 3.875C22.0625 4.125 22.225 4.4375 22.275 4.8125L22.725 8.3C23.05 8.425 23.3563 8.575 23.6438 8.75C23.9313 8.925 24.2125 9.1125 24.4875 9.3125L27.75 7.9625C28.1 7.8375 28.45 7.825 28.8 7.925C29.15 8.025 29.425 8.2375 29.625 8.5625L32.4 13.4C32.6 13.725 32.6625 14.075 32.5875 14.45C32.5125 14.825 32.325 15.125 32.025 15.35L29.2125 17.4875C29.2375 17.6625 29.25 17.8313 29.25 17.9938V19.0063C29.25 19.1688 29.225 19.3375 29.175 19.5125L31.9875 21.65C32.2875 21.875 32.475 22.175 32.55 22.55C32.625 22.925 32.5625 23.275 32.3625 23.6L29.5875 28.4C29.3875 28.725 29.1063 28.9438 28.7438 29.0563C28.3813 29.1688 28.025 29.1625 27.675 29.0375L24.4875 27.6875C24.2125 27.8875 23.925 28.075 23.625 28.25C23.325 28.425 23.025 28.575 22.725 28.7L22.275 32.1875C22.225 32.5625 22.0625 32.875 21.7875 33.125C21.5125 33.375 21.1875 33.5 20.8125 33.5ZM18.075 23.75C19.525 23.75 20.7625 23.2375 21.7875 22.2125C22.8125 21.1875 23.325 19.95 23.325 18.5C23.325 17.05 22.8125 15.8125 21.7875 14.7875C20.7625 13.7625 19.525 13.25 18.075 13.25C16.6 13.25 15.3563 13.7625 14.3438 14.7875C13.3313 15.8125 12.825 17.05 12.825 18.5C12.825 19.95 13.3313 21.1875 14.3438 22.2125C15.3563 23.2375 16.6 23.75 18.075 23.75ZM18.075 20.75C17.45 20.75 16.9188 20.5312 16.4813 20.0938C16.0438 19.6562 15.825 19.125 15.825 18.5C15.825 17.875 16.0438 17.3438 16.4813 16.9062C16.9188 16.4688 17.45 16.25 18.075 16.25C18.7 16.25 19.2313 16.4688 19.6688 16.9062C20.1063 17.3438 20.325 17.875 20.325 18.5C20.325 19.125 20.1063 19.6562 19.6688 20.0938C19.2313 20.5312 18.7 20.75 18.075 20.75ZM16.5 30.5H19.4625L19.9875 26.525C20.7625 26.325 21.4813 26.0312 22.1438 25.6437C22.8063 25.2563 23.4125 24.7875 23.9625 24.2375L27.675 25.775L29.1375 23.225L25.9125 20.7875C26.0375 20.4375 26.125 20.0688 26.175 19.6813C26.225 19.2938 26.25 18.9 26.25 18.5C26.25 18.1 26.225 17.7063 26.175 17.3188C26.125 16.9313 26.0375 16.5625 25.9125 16.2125L29.1375 13.775L27.675 11.225L23.9625 12.8C23.4125 12.225 22.8063 11.7438 22.1438 11.3563C21.4813 10.9688 20.7625 10.675 19.9875 10.475L19.5 6.5H16.5375L16.0125 10.475C15.2375 10.675 14.5188 10.9688 13.8563 11.3563C13.1938 11.7438 12.5875 12.2125 12.0375 12.7625L8.32502 11.225L6.86252 13.775L10.0875 16.175C9.96252 16.55 9.87502 16.925 9.82502 17.3C9.77502 17.675 9.75002 18.075 9.75002 18.5C9.75002 18.9 9.77502 19.2875 9.82502 19.6625C9.87502 20.0375 9.96252 20.4125 10.0875 20.7875L6.86252 23.225L8.32502 25.775L12.0375 24.2C12.5875 24.775 13.1938 25.2563 13.8563 25.6437C14.5188 26.0312 15.2375 26.325 16.0125 26.525L16.5 30.5Z" fill="white"/>
</g>
</svg>
