<svg width="470" height="128" viewBox="0 0 470 128" fill="none" xmlns="http://www.w3.org/2000/svg">
<path d="M20.7 25.2V68.4C20.7 73.1333 21.9333 76.7667 24.4 79.3C26.8667 81.7667 30.3333 83 34.8 83C39.3333 83 42.8333 81.7667 45.3 79.3C47.7667 76.7667 49 73.1333 49 68.4V25.2H63.1V68.3C63.1 74.2333 61.8 79.2667 59.2 83.4C56.6667 87.4667 53.2333 90.5333 48.9 92.6C44.6333 94.6667 39.8667 95.7 34.6 95.7C29.4 95.7 24.6667 94.6667 20.4 92.6C16.2 90.5333 12.8667 87.4667 10.4 83.4C7.93333 79.2667 6.7 74.2333 6.7 68.3V25.2H20.7ZM107.327 38.8C113.927 38.8 119.26 40.9 123.327 45.1C127.393 49.2333 129.427 55.0333 129.427 62.5V95H115.427V64.4C115.427 60 114.327 56.6333 112.127 54.3C109.927 51.9 106.927 50.7 103.127 50.7C99.2599 50.7 96.1932 51.9 93.9266 54.3C91.7266 56.6333 90.6266 60 90.6266 64.4V95H76.6266V39.6H90.6266V46.5C92.4932 44.1 94.8599 42.2333 97.7266 40.9C100.66 39.5 103.86 38.8 107.327 38.8ZM180.24 0.299997L153.24 113.1H139.54L166.54 0.299997H180.24ZM227.373 95L211.973 67.8H205.373V95H191.373V25.2H217.573C222.973 25.2 227.573 26.1667 231.373 28.1C235.173 29.9667 238.006 32.5333 239.873 35.8C241.806 39 242.773 42.6 242.773 46.6C242.773 51.2 241.439 55.3667 238.773 59.1C236.106 62.7667 232.139 65.3 226.873 66.7L243.573 95H227.373ZM205.373 57.3H217.073C220.873 57.3 223.706 56.4 225.573 54.6C227.439 52.7333 228.373 50.1667 228.373 46.9C228.373 43.7 227.439 41.2333 225.573 39.5C223.706 37.7 220.873 36.8 217.073 36.8H205.373V57.3ZM306.935 66.1C306.935 68.1 306.802 69.9 306.535 71.5H266.035C266.368 75.5 267.768 78.6333 270.235 80.9C272.702 83.1667 275.735 84.3 279.335 84.3C284.535 84.3 288.235 82.0667 290.435 77.6H305.535C303.935 82.9333 300.868 87.3333 296.335 90.8C291.802 94.2 286.235 95.9 279.635 95.9C274.302 95.9 269.502 94.7333 265.235 92.4C261.035 90 257.735 86.6333 255.335 82.3C253.002 77.9667 251.835 72.9667 251.835 67.3C251.835 61.5667 253.002 56.5333 255.335 52.2C257.668 47.8667 260.935 44.5333 265.135 42.2C269.335 39.8667 274.168 38.7 279.635 38.7C284.902 38.7 289.602 39.8333 293.735 42.1C297.935 44.3667 301.168 47.6 303.435 51.8C305.768 55.9333 306.935 60.7 306.935 66.1ZM292.435 62.1C292.368 58.5 291.068 55.6333 288.535 53.5C286.002 51.3 282.902 50.2 279.235 50.2C275.768 50.2 272.835 51.2667 270.435 53.4C268.102 55.4667 266.668 58.3667 266.135 62.1H292.435ZM313.554 67.1C313.554 61.5 314.654 56.5333 316.854 52.2C319.121 47.8667 322.154 44.5333 325.954 42.2C329.821 39.8667 334.121 38.7 338.854 38.7C342.987 38.7 346.587 39.5333 349.654 41.2C352.787 42.8667 355.287 44.9667 357.154 47.5V39.6H371.254V95H357.154V86.9C355.354 89.5 352.854 91.6667 349.654 93.4C346.521 95.0667 342.887 95.9 338.754 95.9C334.087 95.9 329.821 94.7 325.954 92.3C322.154 89.9 319.121 86.5333 316.854 82.2C314.654 77.8 313.554 72.7667 313.554 67.1ZM357.154 67.3C357.154 63.9 356.487 61 355.154 58.6C353.821 56.1333 352.021 54.2667 349.754 53C347.487 51.6667 345.054 51 342.454 51C339.854 51 337.454 51.6333 335.254 52.9C333.054 54.1667 331.254 56.0333 329.854 58.5C328.521 60.9 327.854 63.7667 327.854 67.1C327.854 70.4333 328.521 73.3667 329.854 75.9C331.254 78.3667 333.054 80.2667 335.254 81.6C337.521 82.9333 339.921 83.6 342.454 83.6C345.054 83.6 347.487 82.9667 349.754 81.7C352.021 80.3667 353.821 78.5 355.154 76.1C356.487 73.6333 357.154 70.7 357.154 67.3ZM381.327 67.1C381.327 61.5 382.427 56.5333 384.627 52.2C386.894 47.8667 389.961 44.5333 393.827 42.2C397.694 39.8667 401.994 38.7 406.727 38.7C410.327 38.7 413.761 39.5 417.027 41.1C420.294 42.6333 422.894 44.7 424.827 47.3V21H439.027V95H424.827V86.8C423.094 89.5333 420.661 91.7333 417.527 93.4C414.394 95.0667 410.761 95.9 406.627 95.9C401.961 95.9 397.694 94.7 393.827 92.3C389.961 89.9 386.894 86.5333 384.627 82.2C382.427 77.8 381.327 72.7667 381.327 67.1ZM424.927 67.3C424.927 63.9 424.261 61 422.927 58.6C421.594 56.1333 419.794 54.2667 417.527 53C415.261 51.6667 412.827 51 410.227 51C407.627 51 405.227 51.6333 403.027 52.9C400.827 54.1667 399.027 56.0333 397.627 58.5C396.294 60.9 395.627 63.7667 395.627 67.1C395.627 70.4333 396.294 73.3667 397.627 75.9C399.027 78.3667 400.827 80.2667 403.027 81.6C405.294 82.9333 407.694 83.6 410.227 83.6C412.827 83.6 415.261 82.9667 417.527 81.7C419.794 80.3667 421.594 78.5 422.927 76.1C424.261 73.6333 424.927 70.7 424.927 67.3Z" fill="white"/>
<circle cx="460" cy="85" r="10" fill="#FD5956"/>
</svg>
