<svg width="147" height="33" viewBox="0 0 147 33" fill="none" xmlns="http://www.w3.org/2000/svg">
<path d="M8.17071 18.8044C8.17071 20.6062 9.209 21.6139 11.3161 21.6139C13.4232 21.6139 14.4921 20.6062 14.4921 18.8044V6.10068C14.4921 5.154 14.7974 4.81809 15.7746 4.81809H19.2254C20.2026 4.81809 20.5386 5.154 20.5386 6.10068V18.5296C20.5386 23.66 17.3626 26.9581 11.3161 26.9581C5.30015 26.9581 2.12421 23.66 2.12421 18.5296V6.10068C2.12421 5.154 2.42958 4.81809 3.4068 4.81809H6.85758C7.83479 4.81809 8.17071 5.154 8.17071 6.10068V18.8044ZM40.461 4.81809C41.4076 4.81809 41.7436 5.154 41.7436 6.10068V25.2174C41.7436 26.1641 41.4076 26.5 40.461 26.5H37.0102C36.3689 26.5 36.033 26.3168 35.7581 25.8892L31.0553 18.6518C29.7116 16.5446 29.1925 15.1094 28.368 12.3609H28.1237C28.7649 15.2926 29.1314 16.85 29.1314 20.2397V25.2174C29.1314 26.1641 28.7955 26.5 27.8183 26.5H24.7339C23.7567 26.5 23.4208 26.1641 23.4208 25.2174V6.10068C23.4208 5.154 23.7567 4.81809 24.7339 4.81809H28.3374C29.0398 4.81809 29.3452 5.00131 29.62 5.42884L34.6282 13.2465C35.9719 15.3537 36.2162 16.5141 37.1934 18.835H37.4377C36.4605 15.6896 36.0635 14.2238 36.0635 11.1089V6.10068C36.0635 5.154 36.3689 4.81809 37.3461 4.81809H40.461ZM49.7199 27.2634C49.384 28.088 49.0481 28.3323 48.1625 28.3323H44.7422C43.8566 28.3323 43.6734 27.9964 43.9483 27.2634L51.9186 5.88691C52.2546 5.03185 52.5905 4.81809 53.4761 4.81809H56.8963C57.7514 4.81809 57.9346 5.12347 57.6598 5.88691L49.7199 27.2634ZM69.8799 4.81809C74.4912 4.81809 77.4839 7.44435 77.4839 12.1777C77.4839 15.1704 76.2624 17.3081 74.1858 18.4685C74.4912 18.8655 74.766 19.2931 75.0103 19.7817L77.7587 25.0036C78.1863 25.8282 77.9725 26.5 76.9647 26.5H73.6666C72.0481 26.5 71.3458 26.103 70.8572 25.0342L68.9027 20.8505C68.3836 19.8122 67.8644 19.2931 66.6124 19.2931H65.91V25.2174C65.91 26.1641 65.6046 26.5 64.6274 26.5H61.1766C60.1994 26.5 59.8635 26.1641 59.8635 25.2174V6.10068C59.8635 5.154 60.1994 4.81809 61.1766 4.81809H69.8799ZM71.2236 12.1472C71.2236 10.9257 70.5212 10.1622 69.2081 10.1622H65.91V14.1932H69.2081C70.4907 14.1932 71.2236 13.3992 71.2236 12.1472ZM94.1616 4.81809C95.1389 4.81809 95.4748 5.154 95.4748 6.10068V8.84909C95.4748 9.8263 95.1389 10.1622 94.1616 10.1622H86.0996V12.8801H92.5431C93.5203 12.8801 93.8563 13.216 93.8563 14.1627V16.9111C93.8563 17.8883 93.5203 18.2242 92.5431 18.2242H86.0996V21.1559H94.4365C95.3832 21.1559 95.7191 21.4612 95.7191 22.4385V25.2174C95.7191 26.1641 95.3832 26.5 94.4365 26.5H81.3663C80.389 26.5 80.0531 26.1641 80.0531 25.2174V6.10068C80.0531 5.154 80.389 4.81809 81.3663 4.81809H94.1616ZM117.367 25.2479C117.672 26.0725 117.398 26.5 116.482 26.5H113.183C111.595 26.5 111.137 26.1641 110.893 25.2174L110.191 23.0187H103.595L102.892 25.2174C102.587 26.1641 102.19 26.5 100.663 26.5H97.4564C96.5097 26.5 96.3265 26.0725 96.6319 25.2479L103.656 5.88691C103.961 5.00131 104.358 4.81809 105.244 4.81809H108.725C109.61 4.81809 110.007 5.03185 110.313 5.82584L117.367 25.2479ZM107.687 14.6513C107.076 12.5747 107.015 10.376 107.015 10.376H106.709C106.709 10.376 106.74 12.5747 106.129 14.6208L104.999 18.2242H108.816L107.687 14.6513ZM127.795 4.81809C133.811 4.81809 137.17 8.08564 137.17 13.3687V17.9494C137.17 23.2019 133.811 26.5 127.795 26.5H120.344C119.367 26.5 119.031 26.1641 119.031 25.2174V6.10068C119.031 5.154 119.367 4.81809 120.344 4.81809H127.795ZM131.124 13.4603C131.124 11.2921 130.055 10.1622 127.581 10.1622H125.077V21.1559H127.581C130.055 21.1559 131.124 20.026 131.124 17.8578V13.4603Z" fill="white"/>
<circle cx="143.804" cy="23.4464" r="3.05379" fill="#FD5956"/>
</svg>
